G04 Layer: TopSilkLayer*
G04 EasyEDA v6.4.3, 2020-08-11T17:33:51--5:00*
G04 c8abcd5c7f324be6b54abc10bf488c2c,7c1e8d740ba24e6f83eb2d53d3341807,10*
G04 Gerber Generator version 0.2*
G04 Scale: 100 percent, Rotated: No, Reflected: No *
G04 Dimensions in millimeters *
G04 leading zeros omitted , absolute positions ,3 integer and 3 decimal *
%FSLAX33Y33*%
%MOMM*%
G90*
G71D02*

%ADD10C,0.254000*%
%ADD12C,0.299999*%
%ADD14C,0.499999*%
%ADD19C,0.350012*%
%ADD58C,0.250012*%
%ADD59C,0.200000*%
%ADD60C,0.150012*%
%ADD61C,0.202997*%
%ADD62C,0.101600*%
%ADD63C,0.203200*%
%ADD64C,0.100000*%
%ADD65C,0.249999*%
%ADD66C,0.152400*%

%LPD*%
G54D12*
G01X47536Y40266D02*
G01X50076Y40266D01*
G01X50076Y45346D01*
G01X47536Y45346D01*
G01X47536Y40266D01*
G01X13627Y45981D02*
G01X13627Y51442D01*
G01X13754Y51315D01*
G01X13754Y46235D01*
G01X14008Y46489D01*
G01X14008Y50935D01*
G01X14262Y50426D01*
G01X14262Y49664D01*
G01X14262Y46871D01*
G01X14516Y47505D01*
G01X14516Y49918D01*
G01X37376Y51316D02*
G01X37376Y45855D01*
G01X37249Y45982D01*
G01X37249Y51062D01*
G01X36995Y50808D01*
G01X36995Y46362D01*
G01X36741Y46871D01*
G01X36741Y47633D01*
G01X36741Y50426D01*
G01X36487Y49792D01*
G01X36487Y47379D01*
G01X43091Y50680D02*
G01X43091Y49410D01*
G01X42456Y50045D02*
G01X43726Y50045D01*
G01X7277Y47251D02*
G01X8547Y47251D01*
G01X7912Y47886D02*
G01X7912Y46616D01*
G01X29629Y46616D02*
G01X30899Y46616D01*
G01X33185Y46616D02*
G01X32042Y46616D01*
G01X16929Y47125D02*
G01X16929Y49157D01*
G01X34709Y49157D01*
G01X34709Y46617D01*
G01X19723Y46616D02*
G01X17564Y46616D01*
G01X20485Y46616D02*
G01X22771Y46616D01*
G01X25692Y46616D02*
G01X23787Y46616D01*
G01X26454Y46616D02*
G01X28740Y46616D01*
G01X4737Y12072D02*
G01X4737Y9532D01*
G01X9817Y9532D01*
G01X9817Y12072D01*
G01X4737Y12072D01*
G54D58*
G01X44235Y24264D02*
G01X45124Y22105D01*
G01X47029Y22105D01*
G01X47918Y24264D01*
G01X44235Y24264D02*
G01X46013Y26042D01*
G01X46140Y26042D01*
G01X47918Y24264D01*
G01X46267Y22613D02*
G01X44489Y20835D01*
G01X44362Y20835D01*
G01X42583Y22613D01*
G01X46267Y22613D02*
G01X45378Y24772D01*
G01X43472Y24772D01*
G01X42583Y22613D01*
G54D59*
G01X45504Y43695D02*
G01X44488Y42171D01*
G01X46520Y42171D01*
G01X45504Y43695D01*
G01X45505Y43312D02*
G01X45505Y42804D01*
G54D12*
G01X28359Y47887D02*
G01X29248Y46870D01*
G01X29248Y46489D01*
G54D14*
G01X37884Y42553D02*
G01X33566Y46871D01*
G01X33566Y47760D01*
G01X30137Y42807D02*
G01X31407Y44077D01*
G01X31407Y47887D01*
G54D59*
G01X3340Y11818D02*
G01X2324Y10294D01*
G01X4356Y10294D01*
G01X3340Y11818D01*
G54D12*
G01X25819Y47886D02*
G01X26073Y47632D01*
G01X26073Y46489D01*
G01X23279Y47886D02*
G01X23279Y46489D01*
G01X20739Y47886D02*
G01X20104Y47251D01*
G01X20104Y46489D01*
G01X18199Y47886D02*
G01X16929Y46616D01*
G54D59*
G01X3341Y11435D02*
G01X3341Y10927D01*
G54D10*
G01X11115Y9874D02*
G01X11115Y11475D01*
G01X14616Y9874D02*
G01X14615Y11475D01*
G01X12365Y11715D02*
G01X11316Y11715D01*
G01X12365Y9635D02*
G01X11316Y9635D01*
G01X13365Y11715D02*
G01X14415Y11715D01*
G01X13365Y9635D02*
G01X14415Y9635D01*
G01X14616Y9855D02*
G01X14616Y9874D01*
G01X14616Y9835D02*
G01X14616Y9874D01*
G01X14615Y11514D02*
G01X14615Y11475D01*
G01X11115Y9835D02*
G01X11115Y9874D01*
G01X11115Y11514D02*
G01X11115Y11475D01*
G01X11115Y7842D02*
G01X11115Y9443D01*
G01X14616Y7842D02*
G01X14615Y9443D01*
G01X12365Y9683D02*
G01X11316Y9683D01*
G01X12365Y7603D02*
G01X11316Y7603D01*
G01X13365Y9683D02*
G01X14415Y9683D01*
G01X13365Y7603D02*
G01X14415Y7603D01*
G01X14616Y7823D02*
G01X14616Y7842D01*
G01X14616Y7803D02*
G01X14616Y7842D01*
G01X14615Y9482D02*
G01X14615Y9443D01*
G01X11115Y7803D02*
G01X11115Y7842D01*
G01X11115Y9482D02*
G01X11115Y9443D01*
G01X44730Y11950D02*
G01X46630Y11950D01*
G01X44730Y15749D02*
G01X46630Y15749D01*
G01X39930Y11950D02*
G01X38029Y11950D01*
G01X39930Y15749D02*
G01X38029Y15749D01*
G01X46630Y11950D02*
G01X46630Y15749D01*
G01X38029Y11950D02*
G01X38030Y15749D01*
G01X24410Y11950D02*
G01X26310Y11950D01*
G01X24410Y15749D02*
G01X26310Y15749D01*
G01X19610Y11950D02*
G01X17709Y11950D01*
G01X19610Y15749D02*
G01X17709Y15749D01*
G01X26310Y11950D02*
G01X26310Y15749D01*
G01X17709Y11950D02*
G01X17710Y15749D01*
G01X30023Y15749D02*
G01X28123Y15749D01*
G01X30023Y11950D02*
G01X28123Y11950D01*
G01X34823Y15749D02*
G01X36723Y15749D01*
G01X34823Y11950D02*
G01X36723Y11950D01*
G01X28123Y15749D02*
G01X28123Y11950D01*
G01X36723Y15749D02*
G01X36723Y11950D01*
G54D60*
G01X8005Y35506D02*
G01X6804Y35506D01*
G01X8005Y36276D02*
G01X8005Y35506D01*
G01X8005Y37406D02*
G01X6804Y37406D01*
G01X8005Y36636D02*
G01X8005Y37406D01*
G01X6804Y36636D02*
G01X6804Y37406D01*
G01X6804Y36276D02*
G01X6804Y35506D01*
G54D10*
G01X8393Y29532D02*
G01X8393Y29531D01*
G01X8743Y29182D01*
G01X8393Y27631D02*
G01X8393Y27632D01*
G01X8743Y27981D01*
G01X6143Y27631D02*
G01X4793Y27631D01*
G01X6143Y29532D02*
G01X4793Y29532D01*
G01X7143Y27631D02*
G01X8393Y27631D01*
G01X7143Y29532D02*
G01X8393Y29532D01*
G01X4793Y27631D02*
G01X4793Y29532D01*
G01X8743Y27981D02*
G01X8743Y29182D01*
G01X6342Y28082D02*
G01X6342Y29082D01*
G01X6342Y28587D02*
G01X6842Y28587D01*
G54D60*
G01X7471Y25695D02*
G01X7471Y26896D01*
G01X8241Y25695D02*
G01X7471Y25695D01*
G01X9371Y25695D02*
G01X9371Y26896D01*
G01X8601Y25695D02*
G01X9371Y25695D01*
G01X8601Y26896D02*
G01X9371Y26896D01*
G01X8241Y26896D02*
G01X7471Y26896D01*
G54D10*
G01X4369Y33306D02*
G01X5842Y33306D01*
G01X4369Y35033D02*
G01X5842Y35033D01*
G01X4369Y35033D02*
G01X4369Y33306D01*
G01X6427Y33306D02*
G01X7595Y33306D01*
G01X6452Y35033D02*
G01X7595Y35033D01*
G01X7595Y35033D02*
G01X7951Y34678D01*
G01X7951Y33662D01*
G01X7595Y33306D01*
G54D61*
G01X6058Y34576D02*
G01X6058Y33789D01*
G01X6058Y34177D02*
G01X6234Y34177D01*
G54D60*
G01X38739Y4758D02*
G01X38739Y5379D01*
G01X38739Y4398D02*
G01X38739Y3779D01*
G01X37539Y4398D02*
G01X37539Y3779D01*
G01X37739Y3628D02*
G01X38538Y3628D01*
G01X37539Y4758D02*
G01X37539Y5379D01*
G01X37739Y5528D02*
G01X38538Y5528D01*
G01X37689Y3628D02*
G01X37739Y3628D01*
G01X38588Y3628D02*
G01X38538Y3628D01*
G01X37688Y5528D02*
G01X37739Y5528D01*
G01X38589Y5528D02*
G01X38538Y5528D01*
G01X48391Y10727D02*
G01X48391Y11348D01*
G01X48391Y10367D02*
G01X48391Y9748D01*
G01X47191Y10367D02*
G01X47191Y9748D01*
G01X47391Y9597D02*
G01X48190Y9597D01*
G01X47191Y10727D02*
G01X47191Y11348D01*
G01X47391Y11497D02*
G01X48190Y11497D01*
G01X47341Y9597D02*
G01X47391Y9597D01*
G01X48240Y9597D02*
G01X48190Y9597D01*
G01X47340Y11497D02*
G01X47391Y11497D01*
G01X48241Y11497D02*
G01X48190Y11497D01*
G01X29214Y4631D02*
G01X29214Y5252D01*
G01X29214Y4271D02*
G01X29214Y3652D01*
G01X28014Y4271D02*
G01X28014Y3652D01*
G01X28214Y3501D02*
G01X29013Y3501D01*
G01X28014Y4631D02*
G01X28014Y5252D01*
G01X28214Y5401D02*
G01X29013Y5401D01*
G01X28164Y3501D02*
G01X28214Y3501D01*
G01X29063Y3501D02*
G01X29013Y3501D01*
G01X28163Y5401D02*
G01X28214Y5401D01*
G01X29064Y5401D02*
G01X29013Y5401D01*
G54D10*
G01X44020Y28598D02*
G01X44020Y30598D01*
G01X47520Y28398D02*
G01X48720Y28398D01*
G01X47520Y30798D02*
G01X48720Y30798D01*
G01X45520Y28398D02*
G01X44320Y28398D01*
G01X45520Y30798D02*
G01X44320Y30798D01*
G01X49020Y28598D02*
G01X49020Y30598D01*
G01X48820Y28398D02*
G01X48720Y28398D01*
G01X48820Y30798D02*
G01X48720Y30798D01*
G01X44220Y28398D02*
G01X44320Y28398D01*
G01X44220Y30798D02*
G01X44320Y30798D01*
G01X45901Y39337D02*
G01X47901Y39337D01*
G01X45701Y35837D02*
G01X45701Y34637D01*
G01X48101Y35837D02*
G01X48101Y34637D01*
G01X45701Y37837D02*
G01X45701Y39037D01*
G01X48101Y37837D02*
G01X48101Y39037D01*
G01X45901Y34337D02*
G01X47901Y34337D01*
G01X45701Y34537D02*
G01X45701Y34637D01*
G01X48101Y34537D02*
G01X48101Y34637D01*
G01X45701Y39137D02*
G01X45701Y39037D01*
G01X48101Y39137D02*
G01X48101Y39037D01*
G01X32328Y9603D02*
G01X32328Y6303D01*
G01X29028Y6303D02*
G01X29028Y9603D01*
G01X22643Y9531D02*
G01X22643Y6231D01*
G01X19343Y6231D02*
G01X19343Y9531D01*
G01X43718Y36706D02*
G01X44968Y36706D01*
G01X43718Y38745D02*
G01X44968Y38745D01*
G01X42718Y36706D02*
G01X41468Y36706D01*
G01X42718Y38745D02*
G01X41468Y38745D01*
G01X44969Y36706D02*
G01X44968Y38745D01*
G01X41468Y36706D02*
G01X41468Y38745D01*
G01X15798Y15449D02*
G01X15798Y14431D01*
G01X13997Y12318D02*
G01X13997Y12249D01*
G01X13997Y14218D02*
G01X13997Y13481D01*
G01X13997Y15449D02*
G01X13997Y15381D01*
G01X15798Y12249D02*
G01X13997Y12249D01*
G01X15798Y15449D02*
G01X13997Y15449D01*
G01X15798Y13268D02*
G01X15798Y12249D01*
G01X23026Y6230D02*
G01X23026Y9530D01*
G01X26326Y9530D02*
G01X26326Y6230D01*
G01X32838Y6303D02*
G01X32838Y9603D01*
G01X36138Y9603D02*
G01X36138Y6303D01*
G01X42457Y6357D02*
G01X42457Y9657D01*
G01X45757Y9657D02*
G01X45757Y6357D01*
G01X41947Y9658D02*
G01X41947Y6358D01*
G01X38647Y6358D02*
G01X38647Y9658D01*
G54D62*
G01X23685Y24489D02*
G01X23685Y24033D01*
G01X23685Y27033D02*
G01X23685Y26578D01*
G01X26685Y26578D02*
G01X26685Y27033D01*
G01X26685Y24033D02*
G01X26685Y24489D01*
G01X24140Y27033D02*
G01X23685Y27033D01*
G01X26685Y27033D02*
G01X26229Y27033D01*
G01X24140Y24033D02*
G01X23685Y24033D01*
G01X26685Y24033D02*
G01X26229Y24033D01*
G54D60*
G01X32008Y24189D02*
G01X32008Y24810D01*
G01X32008Y23829D02*
G01X32008Y23210D01*
G01X30808Y23829D02*
G01X30808Y23210D01*
G01X31008Y23059D02*
G01X31807Y23059D01*
G01X30808Y24189D02*
G01X30808Y24810D01*
G01X31008Y24959D02*
G01X31807Y24959D01*
G01X30958Y23059D02*
G01X31008Y23059D01*
G01X31857Y23059D02*
G01X31807Y23059D01*
G01X30957Y24959D02*
G01X31008Y24959D01*
G01X31858Y24959D02*
G01X31807Y24959D01*
G01X32135Y22157D02*
G01X32135Y22778D01*
G01X32135Y21797D02*
G01X32135Y21178D01*
G01X30935Y21797D02*
G01X30935Y21178D01*
G01X31135Y21027D02*
G01X31934Y21027D01*
G01X30935Y22157D02*
G01X30935Y22778D01*
G01X31135Y22927D02*
G01X31934Y22927D01*
G01X31085Y21027D02*
G01X31135Y21027D01*
G01X31984Y21027D02*
G01X31934Y21027D01*
G01X31084Y22927D02*
G01X31135Y22927D01*
G01X31985Y22927D02*
G01X31934Y22927D01*
G01X31061Y19766D02*
G01X31061Y19146D01*
G01X31061Y20126D02*
G01X31061Y20746D01*
G01X32261Y20126D02*
G01X32261Y20746D01*
G01X32061Y20896D02*
G01X31261Y20896D01*
G01X32261Y19766D02*
G01X32261Y19146D01*
G01X32061Y18996D02*
G01X31261Y18996D01*
G01X32111Y20896D02*
G01X32061Y20896D01*
G01X31212Y20896D02*
G01X31261Y20896D01*
G01X32112Y18996D02*
G01X32061Y18996D01*
G01X31211Y18996D02*
G01X31261Y18996D01*
G54D10*
G01X9271Y27794D02*
G01X10872Y27794D01*
G01X10866Y29644D02*
G01X10866Y30894D01*
G01X9266Y29644D02*
G01X9266Y30894D01*
G01X10872Y29044D02*
G01X10872Y27794D01*
G01X9271Y29044D02*
G01X9271Y27794D01*
G01X9266Y30894D02*
G01X10866Y30894D01*
G01X24651Y34335D02*
G01X24651Y32734D01*
G01X26501Y32740D02*
G01X27751Y32740D01*
G01X26501Y34340D02*
G01X27751Y34340D01*
G01X25901Y32734D02*
G01X24651Y32734D01*
G01X25901Y34335D02*
G01X24651Y34335D01*
G01X27751Y34340D02*
G01X27751Y32740D01*
G54D60*
G01X40136Y37270D02*
G01X40136Y37891D01*
G01X40136Y36910D02*
G01X40136Y36291D01*
G01X38936Y36910D02*
G01X38936Y36291D01*
G01X39136Y36140D02*
G01X39935Y36140D01*
G01X38936Y37270D02*
G01X38936Y37891D01*
G01X39136Y38040D02*
G01X39935Y38040D01*
G01X39086Y36140D02*
G01X39136Y36140D01*
G01X39985Y36140D02*
G01X39935Y36140D01*
G01X39085Y38040D02*
G01X39136Y38040D01*
G01X39986Y38040D02*
G01X39935Y38040D01*
G01X37556Y36617D02*
G01X38176Y36617D01*
G01X37196Y36617D02*
G01X36576Y36617D01*
G01X37196Y37817D02*
G01X36576Y37817D01*
G01X36426Y37617D02*
G01X36426Y36818D01*
G01X37556Y37817D02*
G01X38176Y37817D01*
G01X38326Y37617D02*
G01X38326Y36818D01*
G01X36426Y37667D02*
G01X36426Y37617D01*
G01X36426Y36768D02*
G01X36426Y36818D01*
G01X38326Y37668D02*
G01X38326Y37617D01*
G01X38326Y36767D02*
G01X38326Y36818D01*
G01X42658Y30833D02*
G01X42037Y30833D01*
G01X43018Y30833D02*
G01X43637Y30833D01*
G01X43018Y29633D02*
G01X43637Y29633D01*
G01X43788Y29833D02*
G01X43788Y30633D01*
G01X42658Y29633D02*
G01X42037Y29633D01*
G01X41888Y29833D02*
G01X41888Y30633D01*
G01X43788Y29783D02*
G01X43788Y29833D01*
G01X43788Y30682D02*
G01X43788Y30633D01*
G01X41888Y29782D02*
G01X41888Y29833D01*
G01X41888Y30683D02*
G01X41888Y30633D01*
G01X29976Y28380D02*
G01X29976Y29001D01*
G01X29976Y28020D02*
G01X29976Y27401D01*
G01X28776Y28020D02*
G01X28776Y27401D01*
G01X28976Y27250D02*
G01X29775Y27250D01*
G01X28776Y28380D02*
G01X28776Y29001D01*
G01X28976Y29150D02*
G01X29775Y29150D01*
G01X28926Y27250D02*
G01X28976Y27250D01*
G01X29825Y27250D02*
G01X29775Y27250D01*
G01X28925Y29150D02*
G01X28976Y29150D01*
G01X29826Y29150D02*
G01X29775Y29150D01*
G01X28706Y24697D02*
G01X28706Y25318D01*
G01X28706Y24337D02*
G01X28706Y23718D01*
G01X27506Y24337D02*
G01X27506Y23718D01*
G01X27706Y23567D02*
G01X28505Y23567D01*
G01X27506Y24697D02*
G01X27506Y25318D01*
G01X27706Y25467D02*
G01X28505Y25467D01*
G01X27656Y23567D02*
G01X27706Y23567D01*
G01X28555Y23567D02*
G01X28505Y23567D01*
G01X27655Y25467D02*
G01X27706Y25467D01*
G01X28556Y25467D02*
G01X28505Y25467D01*
G54D10*
G01X44235Y31410D02*
G01X44235Y32611D01*
G01X46285Y31210D02*
G01X47285Y31210D01*
G01X46285Y32811D02*
G01X47285Y32811D01*
G01X45485Y31210D02*
G01X44485Y31210D01*
G01X45485Y32811D02*
G01X44485Y32811D01*
G01X47535Y31410D02*
G01X47535Y32611D01*
G01X47335Y31210D02*
G01X47285Y31210D01*
G01X47335Y32811D02*
G01X47285Y32811D01*
G01X44435Y31210D02*
G01X44485Y31210D01*
G01X44436Y32811D02*
G01X44485Y32811D01*
G01X44868Y36167D02*
G01X44868Y34967D01*
G01X42819Y36367D02*
G01X41818Y36367D01*
G01X42819Y34766D02*
G01X41818Y34766D01*
G01X43619Y36367D02*
G01X44618Y36367D01*
G01X43619Y34766D02*
G01X44618Y34766D01*
G01X41568Y36167D02*
G01X41568Y34967D01*
G01X41768Y36367D02*
G01X41818Y36367D01*
G01X41769Y34766D02*
G01X41818Y34766D01*
G01X44668Y36367D02*
G01X44618Y36367D01*
G01X44668Y34766D02*
G01X44618Y34766D01*
G01X40687Y30430D02*
G01X40687Y30035D01*
G01X40687Y30035D02*
G01X36304Y25653D01*
G01X36304Y25653D02*
G01X35909Y25653D01*
G01X35909Y25653D02*
G01X31527Y30035D01*
G01X31527Y30035D02*
G01X31527Y30430D01*
G01X31527Y30430D02*
G01X35909Y34812D01*
G01X35909Y34812D02*
G01X36304Y34812D01*
G01X36304Y34812D02*
G01X40687Y30430D01*
G54D63*
G01X42018Y43936D02*
G01X3054Y43936D01*
G01X3054Y41269D01*
G01X42018Y41269D01*
G01X42018Y43936D01*
G01X41624Y18587D02*
G01X3054Y18587D01*
G01X3054Y15920D01*
G01X41624Y15920D01*
G01X41624Y18587D01*
G01X9373Y15367D02*
G01X9373Y14412D01*
G01X9055Y15367D02*
G01X9693Y15367D01*
G01X9992Y14775D02*
G01X10536Y14775D01*
G01X10536Y14867D01*
G01X10493Y14958D01*
G01X10447Y15004D01*
G01X10356Y15050D01*
G01X10219Y15050D01*
G01X10127Y15004D01*
G01X10038Y14912D01*
G01X9992Y14775D01*
G01X9992Y14684D01*
G01X10038Y14549D01*
G01X10127Y14458D01*
G01X10219Y14412D01*
G01X10356Y14412D01*
G01X10447Y14458D01*
G01X10536Y14549D01*
G01X10838Y15050D02*
G01X10838Y14412D01*
G01X10838Y14867D02*
G01X10973Y15004D01*
G01X11064Y15050D01*
G01X11202Y15050D01*
G01X11293Y15004D01*
G01X11336Y14867D01*
G01X11336Y14412D01*
G01X11336Y14867D02*
G01X11473Y15004D01*
G01X11565Y15050D01*
G01X11702Y15050D01*
G01X11791Y15004D01*
G01X11837Y14867D01*
G01X11837Y14412D01*
G01X12136Y15050D02*
G01X12136Y14095D01*
G01X12136Y14912D02*
G01X12228Y15004D01*
G01X12319Y15050D01*
G01X12456Y15050D01*
G01X12545Y15004D01*
G01X12637Y14912D01*
G01X12682Y14775D01*
G01X12682Y14684D01*
G01X12637Y14549D01*
G01X12545Y14458D01*
G01X12456Y14412D01*
G01X12319Y14412D01*
G01X12228Y14458D01*
G01X12136Y14549D01*
G01X45250Y21715D02*
G01X45250Y20521D01*
G01X45250Y21715D02*
G01X45649Y21715D01*
G01X45819Y21659D01*
G01X45933Y21544D01*
G01X45989Y21430D01*
G01X46045Y21260D01*
G01X46045Y20976D01*
G01X45989Y20805D01*
G01X45933Y20691D01*
G01X45819Y20579D01*
G01X45649Y20521D01*
G01X45250Y20521D01*
G01X47272Y21430D02*
G01X47216Y21544D01*
G01X47102Y21659D01*
G01X46990Y21715D01*
G01X46762Y21715D01*
G01X46647Y21659D01*
G01X46535Y21544D01*
G01X46477Y21430D01*
G01X46421Y21260D01*
G01X46421Y20976D01*
G01X46477Y20805D01*
G01X46535Y20691D01*
G01X46647Y20579D01*
G01X46762Y20521D01*
G01X46990Y20521D01*
G01X47102Y20579D01*
G01X47216Y20691D01*
G01X47272Y20805D01*
G01X47272Y20976D01*
G01X46990Y20976D02*
G01X47272Y20976D01*
G01X47648Y21715D02*
G01X47648Y20521D01*
G01X47648Y21715D02*
G01X48159Y21715D01*
G01X48331Y21659D01*
G01X48387Y21600D01*
G01X48443Y21489D01*
G01X48443Y21374D01*
G01X48387Y21260D01*
G01X48331Y21204D01*
G01X48159Y21146D01*
G01X47648Y21146D01*
G01X48047Y21146D02*
G01X48443Y20521D01*
G54D12*
G01X37249Y2535D02*
G01X37590Y1105D01*
G01X37932Y2535D02*
G01X37590Y1105D01*
G01X37932Y2535D02*
G01X38273Y1105D01*
G01X38613Y2535D02*
G01X38273Y1105D01*
G01X28232Y2408D02*
G01X28778Y978D01*
G01X29324Y2408D02*
G01X28778Y978D01*
G01X18453Y2408D02*
G01X18453Y1387D01*
G01X18522Y1181D01*
G01X18659Y1047D01*
G01X18862Y978D01*
G01X18999Y978D01*
G01X19203Y1047D01*
G01X19340Y1181D01*
G01X19408Y1387D01*
G01X19408Y2408D01*
G01X18112Y30796D02*
G01X18053Y30796D01*
G01X17942Y30855D01*
G01X17883Y30910D01*
G01X17827Y31025D01*
G01X17827Y31251D01*
G01X17883Y31365D01*
G01X17942Y31424D01*
G01X18053Y31479D01*
G01X18168Y31479D01*
G01X18282Y31424D01*
G01X18452Y31309D01*
G01X19021Y30740D01*
G01X19021Y31535D01*
G01X17827Y32252D02*
G01X17883Y32081D01*
G01X18053Y31967D01*
G01X18338Y31911D01*
G01X18508Y31911D01*
G01X18793Y31967D01*
G01X18963Y32081D01*
G01X19021Y32252D01*
G01X19021Y32366D01*
G01X18963Y32536D01*
G01X18793Y32650D01*
G01X18508Y32706D01*
G01X18338Y32706D01*
G01X18053Y32650D01*
G01X17883Y32536D01*
G01X17827Y32366D01*
G01X17827Y32252D01*
G01X18737Y33138D02*
G01X18793Y33082D01*
G01X18851Y33138D01*
G01X18793Y33194D01*
G01X18737Y33138D01*
G01X17827Y33910D02*
G01X17883Y33740D01*
G01X18053Y33626D01*
G01X18338Y33570D01*
G01X18508Y33570D01*
G01X18793Y33626D01*
G01X18963Y33740D01*
G01X19021Y33910D01*
G01X19021Y34024D01*
G01X18963Y34195D01*
G01X18793Y34309D01*
G01X18508Y34365D01*
G01X18338Y34365D01*
G01X18053Y34309D01*
G01X17883Y34195D01*
G01X17827Y34024D01*
G01X17827Y33910D01*
G01X18112Y34797D02*
G01X18053Y34797D01*
G01X17942Y34855D01*
G01X17883Y34911D01*
G01X17827Y35025D01*
G01X17827Y35251D01*
G01X17883Y35366D01*
G01X17942Y35421D01*
G01X18053Y35480D01*
G01X18168Y35480D01*
G01X18282Y35421D01*
G01X18452Y35310D01*
G01X19021Y34741D01*
G01X19021Y35536D01*
G54D63*
G01X3086Y13145D02*
G01X3086Y12690D01*
G01X3132Y12553D01*
G01X3223Y12507D01*
G01X3358Y12507D01*
G01X3449Y12553D01*
G01X3587Y12690D01*
G01X3587Y13145D02*
G01X3587Y12507D01*
G01X4567Y13234D02*
G01X4524Y13325D01*
G01X4432Y13416D01*
G01X4341Y13462D01*
G01X4158Y13462D01*
G01X4069Y13416D01*
G01X3978Y13325D01*
G01X3932Y13234D01*
G01X3886Y13099D01*
G01X3886Y12870D01*
G01X3932Y12733D01*
G01X3978Y12644D01*
G01X4069Y12553D01*
G01X4158Y12507D01*
G01X4341Y12507D01*
G01X4432Y12553D01*
G01X4524Y12644D01*
G01X4567Y12733D01*
G01X5568Y13462D02*
G01X5568Y12507D01*
G01X5568Y13462D02*
G01X6160Y13462D01*
G01X5568Y13007D02*
G01X5931Y13007D01*
G01X5568Y12507D02*
G01X6160Y12507D01*
G01X6459Y13145D02*
G01X6960Y12507D01*
G01X6960Y13145D02*
G01X6459Y12507D01*
G01X7397Y13462D02*
G01X7397Y12690D01*
G01X7440Y12553D01*
G01X7531Y12507D01*
G01X7623Y12507D01*
G01X7259Y13145D02*
G01X7577Y13145D01*
G01X7968Y12733D02*
G01X7922Y12690D01*
G01X7968Y12644D01*
G01X8014Y12690D01*
G01X7968Y12733D01*
G01X9015Y13462D02*
G01X9378Y12507D01*
G01X9741Y13462D02*
G01X9378Y12507D01*
G01X43472Y44755D02*
G01X43472Y43993D01*
G01X43472Y44755D02*
G01X43800Y44755D01*
G01X43909Y44719D01*
G01X43945Y44684D01*
G01X43983Y44610D01*
G01X43983Y44501D01*
G01X43945Y44427D01*
G01X43909Y44392D01*
G01X43800Y44356D01*
G01X43472Y44356D01*
G01X44222Y44755D02*
G01X44404Y43993D01*
G01X44585Y44755D02*
G01X44404Y43993D01*
G01X44585Y44755D02*
G01X44768Y43993D01*
G01X44948Y44755D02*
G01X44768Y43993D01*
G01X45189Y44755D02*
G01X45189Y43993D01*
G01X45189Y44755D02*
G01X45517Y44755D01*
G01X45626Y44719D01*
G01X45662Y44684D01*
G01X45697Y44610D01*
G01X45697Y44537D01*
G01X45662Y44465D01*
G01X45626Y44427D01*
G01X45517Y44392D01*
G01X45189Y44392D01*
G01X45443Y44392D02*
G01X45697Y43993D01*
G01X46482Y44575D02*
G01X46447Y44646D01*
G01X46375Y44719D01*
G01X46302Y44755D01*
G01X46157Y44755D01*
G01X46083Y44719D01*
G01X46010Y44646D01*
G01X45974Y44575D01*
G01X45939Y44465D01*
G01X45939Y44283D01*
G01X45974Y44173D01*
G01X46010Y44102D01*
G01X46083Y44029D01*
G01X46157Y43993D01*
G01X46302Y43993D01*
G01X46375Y44029D01*
G01X46447Y44102D01*
G01X46482Y44173D01*
G01X46482Y44283D01*
G01X46302Y44283D02*
G01X46482Y44283D01*
G01X46723Y44755D02*
G01X46723Y43993D01*
G01X46723Y44755D02*
G01X46977Y44755D01*
G01X47087Y44719D01*
G01X47160Y44646D01*
G01X47196Y44575D01*
G01X47231Y44465D01*
G01X47231Y44283D01*
G01X47196Y44173D01*
G01X47160Y44102D01*
G01X47087Y44029D01*
G01X46977Y43993D01*
G01X46723Y43993D01*
G01X43853Y41453D02*
G01X43853Y41090D01*
G01X43889Y40981D01*
G01X43962Y40945D01*
G01X44072Y40945D01*
G01X44145Y40981D01*
G01X44255Y41090D01*
G01X44255Y41453D02*
G01X44255Y40945D01*
G01X45039Y41527D02*
G01X45001Y41598D01*
G01X44930Y41671D01*
G01X44857Y41707D01*
G01X44712Y41707D01*
G01X44638Y41671D01*
G01X44567Y41598D01*
G01X44529Y41527D01*
G01X44493Y41417D01*
G01X44493Y41235D01*
G01X44529Y41125D01*
G01X44567Y41054D01*
G01X44638Y40981D01*
G01X44712Y40945D01*
G01X44857Y40945D01*
G01X44930Y40981D01*
G01X45001Y41054D01*
G01X45039Y41125D01*
G01X45840Y41707D02*
G01X45840Y40945D01*
G01X45840Y41707D02*
G01X46312Y41707D01*
G01X45840Y41344D02*
G01X46129Y41344D01*
G01X45840Y40945D02*
G01X46312Y40945D01*
G01X46551Y41707D02*
G01X46551Y40945D01*
G01X46551Y41707D02*
G01X47061Y40945D01*
G01X47061Y41707D02*
G01X47061Y40945D01*
G54D12*
G01X16461Y24990D02*
G01X16347Y24931D01*
G01X16232Y24820D01*
G01X16176Y24705D01*
G01X16176Y24477D01*
G01X16232Y24365D01*
G01X16347Y24251D01*
G01X16461Y24192D01*
G01X16631Y24136D01*
G01X16916Y24136D01*
G01X17086Y24192D01*
G01X17200Y24251D01*
G01X17312Y24365D01*
G01X17370Y24477D01*
G01X17370Y24705D01*
G01X17312Y24820D01*
G01X17200Y24931D01*
G01X17086Y24990D01*
G01X16176Y25703D02*
G01X16232Y25592D01*
G01X16347Y25477D01*
G01X16461Y25421D01*
G01X16631Y25363D01*
G01X16916Y25363D01*
G01X17086Y25421D01*
G01X17200Y25477D01*
G01X17312Y25592D01*
G01X17370Y25703D01*
G01X17370Y25932D01*
G01X17312Y26046D01*
G01X17200Y26158D01*
G01X17086Y26217D01*
G01X16916Y26272D01*
G01X16631Y26272D01*
G01X16461Y26217D01*
G01X16347Y26158D01*
G01X16232Y26046D01*
G01X16176Y25932D01*
G01X16176Y25703D01*
G01X16176Y26648D02*
G01X17370Y26648D01*
G01X16176Y26648D02*
G01X17370Y27443D01*
G01X16176Y27443D02*
G01X17370Y27443D01*
G01X16176Y28215D02*
G01X17370Y28215D01*
G01X16176Y27819D02*
G01X16176Y28614D01*
G01X16176Y28988D02*
G01X17370Y28988D01*
G01X16176Y28988D02*
G01X16176Y29501D01*
G01X16232Y29671D01*
G01X16291Y29727D01*
G01X16402Y29785D01*
G01X16517Y29785D01*
G01X16631Y29727D01*
G01X16687Y29671D01*
G01X16745Y29501D01*
G01X16745Y28988D01*
G01X16745Y29386D02*
G01X17370Y29785D01*
G01X16176Y30499D02*
G01X16232Y30387D01*
G01X16347Y30273D01*
G01X16461Y30217D01*
G01X16631Y30159D01*
G01X16916Y30159D01*
G01X17086Y30217D01*
G01X17200Y30273D01*
G01X17312Y30387D01*
G01X17370Y30499D01*
G01X17370Y30728D01*
G01X17312Y30842D01*
G01X17200Y30954D01*
G01X17086Y31012D01*
G01X16916Y31068D01*
G01X16631Y31068D01*
G01X16461Y31012D01*
G01X16347Y30954D01*
G01X16232Y30842D01*
G01X16176Y30728D01*
G01X16176Y30499D01*
G01X16176Y31444D02*
G01X17370Y31444D01*
G01X17370Y31444D02*
G01X17370Y32125D01*
G01X16176Y32500D02*
G01X17370Y32500D01*
G01X17370Y32500D02*
G01X17370Y33181D01*
G01X16176Y33557D02*
G01X17370Y33557D01*
G01X16176Y33557D02*
G01X16176Y34296D01*
G01X16745Y33557D02*
G01X16745Y34012D01*
G01X17370Y33557D02*
G01X17370Y34296D01*
G01X16176Y34670D02*
G01X17370Y34670D01*
G01X16176Y34670D02*
G01X16176Y35183D01*
G01X16232Y35353D01*
G01X16291Y35409D01*
G01X16402Y35467D01*
G01X16517Y35467D01*
G01X16631Y35409D01*
G01X16687Y35353D01*
G01X16745Y35183D01*
G01X16745Y34670D01*
G01X16745Y35068D02*
G01X17370Y35467D01*
G54D63*
G01X22263Y45974D02*
G01X22626Y45019D01*
G01X22990Y45974D02*
G01X22626Y45019D01*
G01X23292Y45974D02*
G01X23335Y45928D01*
G01X23381Y45974D01*
G01X23335Y46020D01*
G01X23292Y45974D01*
G01X23335Y45657D02*
G01X23335Y45019D01*
G01X23681Y45657D02*
G01X23681Y45019D01*
G01X23681Y45474D02*
G01X23818Y45611D01*
G01X23909Y45657D01*
G01X24046Y45657D01*
G01X24135Y45611D01*
G01X24181Y45474D01*
G01X24181Y45019D01*
G01X24895Y45974D02*
G01X25395Y45974D01*
G01X25121Y45611D01*
G01X25258Y45611D01*
G01X25349Y45565D01*
G01X25395Y45519D01*
G01X25441Y45382D01*
G01X25441Y45291D01*
G01X25395Y45156D01*
G01X25304Y45065D01*
G01X25166Y45019D01*
G01X25032Y45019D01*
G01X24895Y45065D01*
G01X24849Y45111D01*
G01X24803Y45202D01*
G01X25740Y45974D02*
G01X26104Y45019D01*
G01X26467Y45974D02*
G01X26104Y45019D01*
G01X26858Y45974D02*
G01X27358Y45974D01*
G01X27084Y45611D01*
G01X27221Y45611D01*
G01X27313Y45565D01*
G01X27358Y45519D01*
G01X27404Y45382D01*
G01X27404Y45291D01*
G01X27358Y45156D01*
G01X27267Y45065D01*
G01X27130Y45019D01*
G01X26995Y45019D01*
G01X26858Y45065D01*
G01X26812Y45111D01*
G01X26767Y45202D01*
G01X28661Y45746D02*
G01X28616Y45837D01*
G01X28524Y45928D01*
G01X28433Y45974D01*
G01X28250Y45974D01*
G01X28161Y45928D01*
G01X28070Y45837D01*
G01X28024Y45746D01*
G01X27978Y45611D01*
G01X27978Y45382D01*
G01X28024Y45245D01*
G01X28070Y45156D01*
G01X28161Y45065D01*
G01X28250Y45019D01*
G01X28433Y45019D01*
G01X28524Y45065D01*
G01X28616Y45156D01*
G01X28661Y45245D01*
G01X28661Y45382D01*
G01X28433Y45382D02*
G01X28661Y45382D01*
G01X28961Y45974D02*
G01X28961Y45019D01*
G01X28961Y45974D02*
G01X29596Y45019D01*
G01X29596Y45974D02*
G01X29596Y45019D01*
G01X29896Y45974D02*
G01X29896Y45019D01*
G01X29896Y45974D02*
G01X30216Y45974D01*
G01X30351Y45928D01*
G01X30442Y45837D01*
G01X30488Y45746D01*
G01X30533Y45611D01*
G01X30533Y45382D01*
G01X30488Y45245D01*
G01X30442Y45156D01*
G01X30351Y45065D01*
G01X30216Y45019D01*
G01X29896Y45019D01*
G01X18834Y45974D02*
G01X18834Y45019D01*
G01X18834Y45974D02*
G01X19243Y45974D01*
G01X19380Y45928D01*
G01X19426Y45883D01*
G01X19472Y45791D01*
G01X19472Y45657D01*
G01X19426Y45565D01*
G01X19380Y45519D01*
G01X19243Y45474D01*
G01X18834Y45474D01*
G01X19771Y45974D02*
G01X20135Y45019D01*
G01X20498Y45974D02*
G01X20135Y45019D01*
G01X20798Y45974D02*
G01X20798Y45019D01*
G01X20798Y45974D02*
G01X21115Y45974D01*
G01X21252Y45928D01*
G01X21344Y45837D01*
G01X21389Y45746D01*
G01X21435Y45611D01*
G01X21435Y45382D01*
G01X21389Y45245D01*
G01X21344Y45156D01*
G01X21252Y45065D01*
G01X21115Y45019D01*
G01X20798Y45019D01*
G01X16088Y45746D02*
G01X16043Y45837D01*
G01X15951Y45928D01*
G01X15860Y45974D01*
G01X15677Y45974D01*
G01X15588Y45928D01*
G01X15497Y45837D01*
G01X15451Y45746D01*
G01X15405Y45611D01*
G01X15405Y45382D01*
G01X15451Y45245D01*
G01X15497Y45156D01*
G01X15588Y45065D01*
G01X15677Y45019D01*
G01X15860Y45019D01*
G01X15951Y45065D01*
G01X16043Y45156D01*
G01X16088Y45245D01*
G01X16088Y45382D01*
G01X15860Y45382D02*
G01X16088Y45382D01*
G01X16388Y45974D02*
G01X16388Y45019D01*
G01X16388Y45974D02*
G01X17023Y45019D01*
G01X17023Y45974D02*
G01X17023Y45019D01*
G01X17323Y45974D02*
G01X17323Y45019D01*
G01X17323Y45974D02*
G01X17643Y45974D01*
G01X17778Y45928D01*
G01X17869Y45837D01*
G01X17915Y45746D01*
G01X17960Y45611D01*
G01X17960Y45382D01*
G01X17915Y45245D01*
G01X17869Y45156D01*
G01X17778Y45065D01*
G01X17643Y45019D01*
G01X17323Y45019D01*
G54D12*
G01X14398Y30547D02*
G01X15308Y30547D01*
G01X15478Y30489D01*
G01X15534Y30433D01*
G01X15592Y30319D01*
G01X15592Y30207D01*
G01X15534Y30093D01*
G01X15478Y30034D01*
G01X15308Y29978D01*
G01X15193Y29978D01*
G01X14398Y31375D02*
G01X15592Y30921D01*
G01X14398Y31375D02*
G01X15592Y31830D01*
G01X15193Y31093D02*
G01X15193Y31660D01*
G01X14398Y32206D02*
G01X15592Y32206D01*
G01X14398Y32206D02*
G01X15592Y33001D01*
G01X14398Y33001D02*
G01X15592Y33001D01*
G01X14398Y33377D02*
G01X15249Y33377D01*
G01X15422Y33433D01*
G01X15534Y33547D01*
G01X15592Y33717D01*
G01X15592Y33831D01*
G01X15534Y34002D01*
G01X15422Y34116D01*
G01X15249Y34172D01*
G01X14398Y34172D01*
G01X14569Y35343D02*
G01X14454Y35228D01*
G01X14398Y35058D01*
G01X14398Y34830D01*
G01X14454Y34659D01*
G01X14569Y34548D01*
G01X14683Y34548D01*
G01X14795Y34604D01*
G01X14853Y34659D01*
G01X14909Y34774D01*
G01X15023Y35114D01*
G01X15079Y35228D01*
G01X15138Y35284D01*
G01X15249Y35343D01*
G01X15422Y35343D01*
G01X15534Y35228D01*
G01X15592Y35058D01*
G01X15592Y34830D01*
G01X15534Y34659D01*
G01X15422Y34548D01*
G54D63*
G01X4820Y37599D02*
G01X4820Y36781D01*
G01X5229Y36481D02*
G01X4820Y35752D01*
G01X4411Y36481D01*
G01X4483Y30671D02*
G01X4483Y30033D01*
G01X4483Y30488D02*
G01X4620Y30625D01*
G01X4712Y30671D01*
G01X4846Y30671D01*
G01X4938Y30625D01*
G01X4984Y30488D01*
G01X4984Y30033D01*
G01X5283Y30988D02*
G01X5283Y30033D01*
G01X5283Y30988D02*
G01X5875Y30988D01*
G01X5283Y30533D02*
G01X5647Y30533D01*
G01X6721Y30671D02*
G01X6721Y30033D01*
G01X6721Y30533D02*
G01X6630Y30625D01*
G01X6538Y30671D01*
G01X6401Y30671D01*
G01X6309Y30625D01*
G01X6221Y30533D01*
G01X6175Y30396D01*
G01X6175Y30305D01*
G01X6221Y30170D01*
G01X6309Y30079D01*
G01X6401Y30033D01*
G01X6538Y30033D01*
G01X6630Y30079D01*
G01X6721Y30170D01*
G01X7021Y30671D02*
G01X7021Y30216D01*
G01X7066Y30079D01*
G01X7155Y30033D01*
G01X7292Y30033D01*
G01X7384Y30079D01*
G01X7521Y30216D01*
G01X7521Y30671D02*
G01X7521Y30033D01*
G01X7821Y30988D02*
G01X7821Y30033D01*
G01X8255Y30988D02*
G01X8255Y30216D01*
G01X8301Y30079D01*
G01X8392Y30033D01*
G01X8484Y30033D01*
G01X8121Y30671D02*
G01X8438Y30671D01*
G01X16342Y7138D02*
G01X16297Y7229D01*
G01X16205Y7320D01*
G01X16114Y7366D01*
G01X15931Y7366D01*
G01X15842Y7320D01*
G01X15751Y7229D01*
G01X15705Y7138D01*
G01X15659Y7003D01*
G01X15659Y6774D01*
G01X15705Y6637D01*
G01X15751Y6548D01*
G01X15842Y6457D01*
G01X15931Y6411D01*
G01X16114Y6411D01*
G01X16205Y6457D01*
G01X16297Y6548D01*
G01X16342Y6637D01*
G01X16342Y6774D01*
G01X16114Y6774D02*
G01X16342Y6774D01*
G01X16642Y7366D02*
G01X16642Y6411D01*
G01X16642Y7366D02*
G01X17277Y6411D01*
G01X17277Y7366D02*
G01X17277Y6411D01*
G01X17577Y7366D02*
G01X17577Y6411D01*
G01X17577Y7366D02*
G01X17897Y7366D01*
G01X18032Y7320D01*
G01X18123Y7229D01*
G01X18169Y7138D01*
G01X18214Y7003D01*
G01X18214Y6774D01*
G01X18169Y6637D01*
G01X18123Y6548D01*
G01X18032Y6457D01*
G01X17897Y6411D01*
G01X17577Y6411D01*
G01X6007Y7366D02*
G01X6007Y6411D01*
G01X6007Y7366D02*
G01X6416Y7366D01*
G01X6553Y7320D01*
G01X6599Y7275D01*
G01X6645Y7183D01*
G01X6645Y7049D01*
G01X6599Y6957D01*
G01X6553Y6912D01*
G01X6416Y6866D01*
G01X6007Y6866D01*
G01X6944Y7366D02*
G01X7308Y6411D01*
G01X7671Y7366D02*
G01X7308Y6411D01*
G01X7971Y7366D02*
G01X7971Y6411D01*
G01X7971Y7366D02*
G01X8288Y7366D01*
G01X8425Y7320D01*
G01X8517Y7229D01*
G01X8562Y7138D01*
G01X8608Y7003D01*
G01X8608Y6774D01*
G01X8562Y6637D01*
G01X8517Y6548D01*
G01X8425Y6457D01*
G01X8288Y6411D01*
G01X7971Y6411D01*
G01X8908Y7366D02*
G01X8908Y6411D01*
G01X8908Y7366D02*
G01X9225Y7366D01*
G01X9363Y7320D01*
G01X9454Y7229D01*
G01X9497Y7138D01*
G01X9543Y7003D01*
G01X9543Y6774D01*
G01X9497Y6637D01*
G01X9454Y6548D01*
G01X9363Y6457D01*
G01X9225Y6411D01*
G01X8908Y6411D01*
G01X29296Y32724D02*
G01X29972Y32049D01*
G01X29296Y32724D02*
G01X29521Y32949D01*
G01X29650Y33013D01*
G01X29779Y33013D01*
G01X29876Y32981D01*
G01X30004Y32918D01*
G01X30166Y32757D01*
G01X30230Y32627D01*
G01X30261Y32532D01*
G01X30261Y32403D01*
G01X30196Y32273D01*
G01X29972Y32049D01*
G01X29959Y33387D02*
G01X30634Y32712D01*
G01X29959Y33387D02*
G01X30248Y33676D01*
G01X30376Y33739D01*
G01X30440Y33739D01*
G01X30537Y33707D01*
G01X30602Y33642D01*
G01X30633Y33547D01*
G01X30633Y33482D01*
G01X30570Y33355D01*
G01X30281Y33066D01*
G01X30505Y33290D02*
G01X31083Y33161D01*
G01X30620Y34048D02*
G01X31554Y33631D01*
G01X31136Y34563D02*
G01X31554Y33631D01*
G01X31507Y34935D02*
G01X31444Y34808D01*
G01X31477Y34711D01*
G01X31541Y34646D01*
G01X31637Y34616D01*
G01X31732Y34646D01*
G01X31893Y34743D01*
G01X32023Y34808D01*
G01X32150Y34806D01*
G01X32247Y34774D01*
G01X32342Y34678D01*
G01X32375Y34581D01*
G01X32377Y34519D01*
G01X32312Y34389D01*
G01X32183Y34260D01*
G01X32055Y34197D01*
G01X31990Y34197D01*
G01X31893Y34229D01*
G01X31798Y34325D01*
G01X31766Y34422D01*
G01X31766Y34551D01*
G01X31829Y34678D01*
G01X31926Y34840D01*
G01X31958Y34937D01*
G01X31926Y35030D01*
G01X31861Y35095D01*
G01X31766Y35129D01*
G01X31637Y35065D01*
G01X31507Y34935D01*
G01X32073Y35501D02*
G01X32427Y35855D01*
G01X32492Y35406D01*
G01X32587Y35501D01*
G01X32684Y35533D01*
G01X32748Y35533D01*
G01X32878Y35469D01*
G01X32942Y35404D01*
G01X33005Y35276D01*
G01X33005Y35147D01*
G01X32942Y35020D01*
G01X32845Y34923D01*
G01X32716Y34858D01*
G01X32651Y34858D01*
G01X32554Y34890D01*
G01X32863Y36291D02*
G01X32800Y36164D01*
G01X32833Y36002D01*
G01X32960Y35810D01*
G01X33057Y35713D01*
G01X33249Y35585D01*
G01X33411Y35553D01*
G01X33539Y35616D01*
G01X33603Y35681D01*
G01X33668Y35810D01*
G01X33636Y35972D01*
G01X33508Y36164D01*
G01X33411Y36261D01*
G01X33219Y36388D01*
G01X33057Y36421D01*
G01X32928Y36356D01*
G01X32863Y36291D01*
G01X33720Y37148D02*
G01X33399Y36826D01*
G01X33655Y36505D01*
G01X33655Y36570D01*
G01X33718Y36697D01*
G01X33815Y36794D01*
G01X33945Y36859D01*
G01X34072Y36857D01*
G01X34201Y36792D01*
G01X34266Y36728D01*
G01X34329Y36600D01*
G01X34331Y36473D01*
G01X34266Y36343D01*
G01X34169Y36246D01*
G01X34042Y36184D01*
G01X33977Y36184D01*
G01X33880Y36216D01*
G01X23279Y23470D02*
G01X23279Y22660D01*
G01X23279Y23470D02*
G01X23589Y22660D01*
G01X23896Y23470D02*
G01X23589Y22660D01*
G01X23896Y23470D02*
G01X23896Y22660D01*
G01X24463Y23470D02*
G01X24153Y22660D01*
G01X24463Y23470D02*
G01X24770Y22660D01*
G01X24270Y22929D02*
G01X24656Y22929D01*
G01X25568Y23470D02*
G01X25179Y22660D01*
G01X25027Y23470D02*
G01X25568Y23470D01*
G01X25898Y23470D02*
G01X26325Y23470D01*
G01X26091Y23162D01*
G01X26208Y23162D01*
G01X26287Y23122D01*
G01X26325Y23084D01*
G01X26363Y22967D01*
G01X26363Y22891D01*
G01X26325Y22774D01*
G01X26246Y22698D01*
G01X26132Y22660D01*
G01X26015Y22660D01*
G01X25898Y22698D01*
G01X25860Y22736D01*
G01X25822Y22814D01*
G01X26850Y23470D02*
G01X26734Y23432D01*
G01X26657Y23315D01*
G01X26617Y23122D01*
G01X26617Y23008D01*
G01X26657Y22814D01*
G01X26734Y22698D01*
G01X26850Y22660D01*
G01X26927Y22660D01*
G01X27044Y22698D01*
G01X27120Y22814D01*
G01X27158Y23008D01*
G01X27158Y23122D01*
G01X27120Y23315D01*
G01X27044Y23432D01*
G01X26927Y23470D01*
G01X26850Y23470D01*
G01X10490Y46734D02*
G01X10455Y46805D01*
G01X10381Y46878D01*
G01X10307Y46914D01*
G01X10163Y46914D01*
G01X10089Y46878D01*
G01X10018Y46805D01*
G01X9980Y46734D01*
G01X9944Y46624D01*
G01X9944Y46441D01*
G01X9980Y46332D01*
G01X10018Y46261D01*
G01X10089Y46187D01*
G01X10163Y46152D01*
G01X10307Y46152D01*
G01X10381Y46187D01*
G01X10455Y46261D01*
G01X10490Y46332D01*
G01X10729Y46769D02*
G01X10803Y46805D01*
G01X10912Y46914D01*
G01X10912Y46152D01*
G01X11224Y46914D02*
G01X11626Y46914D01*
G01X11407Y46624D01*
G01X11516Y46624D01*
G01X11588Y46586D01*
G01X11626Y46551D01*
G01X11661Y46441D01*
G01X11661Y46370D01*
G01X11626Y46261D01*
G01X11552Y46187D01*
G01X11443Y46152D01*
G01X11334Y46152D01*
G01X11224Y46187D01*
G01X11189Y46223D01*
G01X11151Y46297D01*
G01X39954Y46861D02*
G01X39919Y46932D01*
G01X39845Y47005D01*
G01X39771Y47041D01*
G01X39627Y47041D01*
G01X39553Y47005D01*
G01X39482Y46932D01*
G01X39444Y46861D01*
G01X39408Y46751D01*
G01X39408Y46568D01*
G01X39444Y46459D01*
G01X39482Y46388D01*
G01X39553Y46314D01*
G01X39627Y46279D01*
G01X39771Y46279D01*
G01X39845Y46314D01*
G01X39919Y46388D01*
G01X39954Y46459D01*
G01X40193Y46896D02*
G01X40267Y46932D01*
G01X40376Y47041D01*
G01X40376Y46279D01*
G01X40980Y47041D02*
G01X40615Y46533D01*
G01X41161Y46533D01*
G01X40980Y47041D02*
G01X40980Y46279D01*
G54D66*
G01X15604Y10831D02*
G01X15566Y10909D01*
G01X15487Y10986D01*
G01X15411Y11024D01*
G01X15256Y11024D01*
G01X15180Y10986D01*
G01X15101Y10909D01*
G01X15063Y10831D01*
G01X15025Y10716D01*
G01X15025Y10521D01*
G01X15063Y10406D01*
G01X15101Y10328D01*
G01X15180Y10252D01*
G01X15256Y10213D01*
G01X15411Y10213D01*
G01X15487Y10252D01*
G01X15566Y10328D01*
G01X15604Y10406D01*
G01X15858Y10869D02*
G01X15937Y10909D01*
G01X16051Y11024D01*
G01X16051Y10213D01*
G01X16501Y11024D02*
G01X16384Y10986D01*
G01X16346Y10909D01*
G01X16346Y10831D01*
G01X16384Y10754D01*
G01X16463Y10716D01*
G01X16618Y10676D01*
G01X16732Y10638D01*
G01X16811Y10561D01*
G01X16849Y10483D01*
G01X16849Y10368D01*
G01X16811Y10290D01*
G01X16770Y10252D01*
G01X16656Y10213D01*
G01X16501Y10213D01*
G01X16384Y10252D01*
G01X16346Y10290D01*
G01X16308Y10368D01*
G01X16308Y10483D01*
G01X16346Y10561D01*
G01X16422Y10638D01*
G01X16539Y10676D01*
G01X16694Y10716D01*
G01X16770Y10754D01*
G01X16811Y10831D01*
G01X16811Y10909D01*
G01X16770Y10986D01*
G01X16656Y11024D01*
G01X16501Y11024D01*
G01X15604Y8926D02*
G01X15566Y9004D01*
G01X15487Y9081D01*
G01X15411Y9119D01*
G01X15256Y9119D01*
G01X15180Y9081D01*
G01X15101Y9004D01*
G01X15063Y8926D01*
G01X15025Y8811D01*
G01X15025Y8616D01*
G01X15063Y8501D01*
G01X15101Y8423D01*
G01X15180Y8347D01*
G01X15256Y8308D01*
G01X15411Y8308D01*
G01X15487Y8347D01*
G01X15566Y8423D01*
G01X15604Y8501D01*
G01X15858Y8964D02*
G01X15937Y9004D01*
G01X16051Y9119D01*
G01X16051Y8308D01*
G01X16811Y8849D02*
G01X16770Y8733D01*
G01X16694Y8656D01*
G01X16577Y8616D01*
G01X16539Y8616D01*
G01X16422Y8656D01*
G01X16346Y8733D01*
G01X16308Y8849D01*
G01X16308Y8888D01*
G01X16346Y9004D01*
G01X16422Y9081D01*
G01X16539Y9119D01*
G01X16577Y9119D01*
G01X16694Y9081D01*
G01X16770Y9004D01*
G01X16811Y8849D01*
G01X16811Y8656D01*
G01X16770Y8463D01*
G01X16694Y8347D01*
G01X16577Y8308D01*
G01X16501Y8308D01*
G01X16384Y8347D01*
G01X16346Y8423D01*
G01X38901Y11659D02*
G01X38901Y10848D01*
G01X38901Y11659D02*
G01X39249Y11659D01*
G01X39364Y11621D01*
G01X39402Y11583D01*
G01X39442Y11504D01*
G01X39442Y11428D01*
G01X39402Y11351D01*
G01X39364Y11311D01*
G01X39249Y11273D01*
G01X38901Y11273D01*
G01X39171Y11273D02*
G01X39442Y10848D01*
G01X39734Y11466D02*
G01X39734Y11504D01*
G01X39773Y11583D01*
G01X39813Y11621D01*
G01X39889Y11659D01*
G01X40044Y11659D01*
G01X40121Y11621D01*
G01X40161Y11583D01*
G01X40199Y11504D01*
G01X40199Y11428D01*
G01X40161Y11351D01*
G01X40082Y11235D01*
G01X39696Y10848D01*
G01X40237Y10848D01*
G01X19469Y11659D02*
G01X19469Y10848D01*
G01X19469Y11659D02*
G01X19817Y11659D01*
G01X19934Y11621D01*
G01X19972Y11583D01*
G01X20010Y11504D01*
G01X20010Y11428D01*
G01X19972Y11351D01*
G01X19934Y11311D01*
G01X19817Y11273D01*
G01X19469Y11273D01*
G01X19741Y11273D02*
G01X20010Y10848D01*
G01X20264Y11504D02*
G01X20343Y11544D01*
G01X20460Y11659D01*
G01X20460Y10848D01*
G01X29123Y11659D02*
G01X29123Y10848D01*
G01X29123Y11659D02*
G01X29468Y11659D01*
G01X29585Y11621D01*
G01X29623Y11583D01*
G01X29664Y11504D01*
G01X29664Y11428D01*
G01X29623Y11351D01*
G01X29585Y11311D01*
G01X29468Y11273D01*
G01X29123Y11273D01*
G01X29392Y11273D02*
G01X29664Y10848D01*
G01X29994Y11659D02*
G01X30421Y11659D01*
G01X30187Y11351D01*
G01X30304Y11351D01*
G01X30380Y11311D01*
G01X30421Y11273D01*
G01X30459Y11156D01*
G01X30459Y11080D01*
G01X30421Y10963D01*
G01X30342Y10887D01*
G01X30228Y10848D01*
G01X30111Y10848D01*
G01X29994Y10887D01*
G01X29956Y10925D01*
G01X29918Y11003D01*
G01X8420Y36806D02*
G01X8420Y35993D01*
G01X8420Y36806D02*
G01X8768Y36806D01*
G01X8885Y36765D01*
G01X8923Y36727D01*
G01X8962Y36651D01*
G01X8962Y36572D01*
G01X8923Y36496D01*
G01X8885Y36458D01*
G01X8768Y36420D01*
G01X8420Y36420D01*
G01X8690Y36420D02*
G01X8962Y35993D01*
G01X9409Y36806D02*
G01X9294Y36765D01*
G01X9256Y36689D01*
G01X9256Y36613D01*
G01X9294Y36534D01*
G01X9370Y36496D01*
G01X9525Y36458D01*
G01X9642Y36420D01*
G01X9718Y36341D01*
G01X9757Y36265D01*
G01X9757Y36148D01*
G01X9718Y36072D01*
G01X9680Y36031D01*
G01X9563Y35993D01*
G01X9409Y35993D01*
G01X9294Y36031D01*
G01X9256Y36072D01*
G01X9216Y36148D01*
G01X9216Y36265D01*
G01X9256Y36341D01*
G01X9332Y36420D01*
G01X9449Y36458D01*
G01X9602Y36496D01*
G01X9680Y36534D01*
G01X9718Y36613D01*
G01X9718Y36689D01*
G01X9680Y36765D01*
G01X9563Y36806D01*
G01X9409Y36806D01*
G01X9690Y26773D02*
G01X9690Y25960D01*
G01X9690Y26773D02*
G01X10038Y26773D01*
G01X10155Y26732D01*
G01X10193Y26694D01*
G01X10231Y26618D01*
G01X10231Y26539D01*
G01X10193Y26463D01*
G01X10155Y26425D01*
G01X10038Y26387D01*
G01X9690Y26387D01*
G01X9960Y26387D02*
G01X10231Y25960D01*
G01X11026Y26773D02*
G01X10640Y25960D01*
G01X10485Y26773D02*
G01X11026Y26773D01*
G01X35923Y5498D02*
G01X35885Y5574D01*
G01X35809Y5651D01*
G01X35730Y5691D01*
G01X35575Y5691D01*
G01X35499Y5651D01*
G01X35423Y5574D01*
G01X35382Y5498D01*
G01X35344Y5381D01*
G01X35344Y5188D01*
G01X35382Y5071D01*
G01X35423Y4995D01*
G01X35499Y4916D01*
G01X35575Y4878D01*
G01X35730Y4878D01*
G01X35809Y4916D01*
G01X35885Y4995D01*
G01X35923Y5071D01*
G01X36180Y5536D02*
G01X36256Y5574D01*
G01X36373Y5691D01*
G01X36373Y4878D01*
G01X37092Y5691D02*
G01X36705Y5691D01*
G01X36665Y5343D01*
G01X36705Y5381D01*
G01X36820Y5419D01*
G01X36937Y5419D01*
G01X37051Y5381D01*
G01X37130Y5305D01*
G01X37168Y5188D01*
G01X37168Y5112D01*
G01X37130Y4995D01*
G01X37051Y4916D01*
G01X36937Y4878D01*
G01X36820Y4878D01*
G01X36705Y4916D01*
G01X36665Y4957D01*
G01X36627Y5033D01*
G01X47480Y12483D02*
G01X47442Y12559D01*
G01X47366Y12635D01*
G01X47287Y12676D01*
G01X47132Y12676D01*
G01X47056Y12635D01*
G01X46980Y12559D01*
G01X46939Y12483D01*
G01X46901Y12366D01*
G01X46901Y12173D01*
G01X46939Y12056D01*
G01X46980Y11980D01*
G01X47056Y11901D01*
G01X47132Y11863D01*
G01X47287Y11863D01*
G01X47366Y11901D01*
G01X47442Y11980D01*
G01X47480Y12056D01*
G01X47737Y12521D02*
G01X47813Y12559D01*
G01X47930Y12676D01*
G01X47930Y11863D01*
G01X48649Y12559D02*
G01X48608Y12635D01*
G01X48494Y12676D01*
G01X48415Y12676D01*
G01X48301Y12635D01*
G01X48222Y12521D01*
G01X48184Y12328D01*
G01X48184Y12135D01*
G01X48222Y11980D01*
G01X48301Y11901D01*
G01X48415Y11863D01*
G01X48456Y11863D01*
G01X48570Y11901D01*
G01X48649Y11980D01*
G01X48687Y12097D01*
G01X48687Y12135D01*
G01X48649Y12249D01*
G01X48570Y12328D01*
G01X48456Y12366D01*
G01X48415Y12366D01*
G01X48301Y12328D01*
G01X48222Y12249D01*
G01X48184Y12135D01*
G01X26652Y5498D02*
G01X26614Y5574D01*
G01X26538Y5651D01*
G01X26459Y5691D01*
G01X26304Y5691D01*
G01X26228Y5651D01*
G01X26152Y5574D01*
G01X26111Y5498D01*
G01X26073Y5381D01*
G01X26073Y5188D01*
G01X26111Y5071D01*
G01X26152Y4995D01*
G01X26228Y4916D01*
G01X26304Y4878D01*
G01X26459Y4878D01*
G01X26538Y4916D01*
G01X26614Y4995D01*
G01X26652Y5071D01*
G01X26909Y5536D02*
G01X26985Y5574D01*
G01X27102Y5691D01*
G01X27102Y4878D01*
G01X27897Y5691D02*
G01X27511Y4878D01*
G01X27356Y5691D02*
G01X27897Y5691D01*
G01X44941Y27850D02*
G01X44903Y27926D01*
G01X44826Y28003D01*
G01X44748Y28043D01*
G01X44593Y28043D01*
G01X44516Y28003D01*
G01X44438Y27926D01*
G01X44400Y27850D01*
G01X44361Y27733D01*
G01X44361Y27540D01*
G01X44400Y27423D01*
G01X44438Y27347D01*
G01X44516Y27269D01*
G01X44593Y27230D01*
G01X44748Y27230D01*
G01X44826Y27269D01*
G01X44903Y27347D01*
G01X44941Y27423D01*
G01X45390Y28043D02*
G01X45273Y28003D01*
G01X45235Y27926D01*
G01X45235Y27850D01*
G01X45273Y27771D01*
G01X45350Y27733D01*
G01X45504Y27695D01*
G01X45621Y27657D01*
G01X45698Y27578D01*
G01X45738Y27502D01*
G01X45738Y27385D01*
G01X45698Y27309D01*
G01X45659Y27269D01*
G01X45543Y27230D01*
G01X45390Y27230D01*
G01X45273Y27269D01*
G01X45235Y27309D01*
G01X45197Y27385D01*
G01X45197Y27502D01*
G01X45235Y27578D01*
G01X45311Y27657D01*
G01X45428Y27695D01*
G01X45583Y27733D01*
G01X45659Y27771D01*
G01X45698Y27850D01*
G01X45698Y27926D01*
G01X45659Y28003D01*
G01X45543Y28043D01*
G01X45390Y28043D01*
G01X46719Y33819D02*
G01X46681Y33895D01*
G01X46604Y33972D01*
G01X46526Y34012D01*
G01X46371Y34012D01*
G01X46294Y33972D01*
G01X46216Y33895D01*
G01X46178Y33819D01*
G01X46139Y33702D01*
G01X46139Y33509D01*
G01X46178Y33392D01*
G01X46216Y33316D01*
G01X46294Y33237D01*
G01X46371Y33199D01*
G01X46526Y33199D01*
G01X46604Y33237D01*
G01X46681Y33316D01*
G01X46719Y33392D01*
G01X47437Y33895D02*
G01X47399Y33972D01*
G01X47282Y34012D01*
G01X47206Y34012D01*
G01X47089Y33972D01*
G01X47013Y33857D01*
G01X46975Y33664D01*
G01X46975Y33471D01*
G01X47013Y33316D01*
G01X47089Y33237D01*
G01X47206Y33199D01*
G01X47244Y33199D01*
G01X47361Y33237D01*
G01X47437Y33316D01*
G01X47476Y33433D01*
G01X47476Y33471D01*
G01X47437Y33585D01*
G01X47361Y33664D01*
G01X47244Y33702D01*
G01X47206Y33702D01*
G01X47089Y33664D01*
G01X47013Y33585D01*
G01X46975Y33471D01*
G01X27737Y8199D02*
G01X27780Y8115D01*
G01X27861Y8034D01*
G01X27943Y7993D01*
G01X28065Y7953D01*
G01X28270Y7953D01*
G01X28392Y7993D01*
G01X28474Y8034D01*
G01X28557Y8115D01*
G01X28598Y8199D01*
G01X28598Y8362D01*
G01X28557Y8443D01*
G01X28474Y8524D01*
G01X28392Y8568D01*
G01X28270Y8608D01*
G01X28065Y8608D01*
G01X27943Y8568D01*
G01X27861Y8524D01*
G01X27780Y8443D01*
G01X27737Y8362D01*
G01X27737Y8199D01*
G01X28433Y8321D02*
G01X28679Y8568D01*
G01X27737Y9286D02*
G01X28311Y8877D01*
G01X28311Y9492D01*
G01X27737Y9286D02*
G01X28598Y9286D01*
G01X18180Y8254D02*
G01X18221Y8172D01*
G01X18302Y8089D01*
G01X18384Y8048D01*
G01X18508Y8007D01*
G01X18711Y8007D01*
G01X18836Y8048D01*
G01X18917Y8089D01*
G01X18998Y8172D01*
G01X19039Y8254D01*
G01X19039Y8416D01*
G01X18998Y8498D01*
G01X18917Y8581D01*
G01X18836Y8622D01*
G01X18711Y8663D01*
G01X18508Y8663D01*
G01X18384Y8622D01*
G01X18302Y8581D01*
G01X18221Y8498D01*
G01X18180Y8416D01*
G01X18180Y8254D01*
G01X18876Y8376D02*
G01X19120Y8622D01*
G01X18384Y8973D02*
G01X18343Y8973D01*
G01X18262Y9013D01*
G01X18221Y9054D01*
G01X18180Y9138D01*
G01X18180Y9300D01*
G01X18221Y9381D01*
G01X18262Y9422D01*
G01X18343Y9463D01*
G01X18427Y9463D01*
G01X18508Y9422D01*
G01X18630Y9341D01*
G01X19039Y8932D01*
G01X19039Y9506D01*
G01X43472Y39980D02*
G01X43472Y39170D01*
G01X43472Y39980D02*
G01X43820Y39980D01*
G01X43937Y39942D01*
G01X43975Y39904D01*
G01X44013Y39825D01*
G01X44013Y39749D01*
G01X43975Y39672D01*
G01X43937Y39632D01*
G01X43820Y39594D01*
G01X43472Y39594D01*
G01X43744Y39594D02*
G01X44013Y39170D01*
G01X44656Y39980D02*
G01X44267Y39439D01*
G01X44849Y39439D01*
G01X44656Y39980D02*
G01X44656Y39170D01*
G01X11341Y13818D02*
G01X11341Y13239D01*
G01X11379Y13122D01*
G01X11458Y13046D01*
G01X11572Y13007D01*
G01X11651Y13007D01*
G01X11765Y13046D01*
G01X11844Y13122D01*
G01X11882Y13239D01*
G01X11882Y13818D01*
G01X12525Y13818D02*
G01X12136Y13277D01*
G01X12718Y13277D01*
G01X12525Y13818D02*
G01X12525Y13007D01*
G01X27617Y7253D02*
G01X27576Y7335D01*
G01X27495Y7418D01*
G01X27413Y7459D01*
G01X27289Y7500D01*
G01X27086Y7500D01*
G01X26961Y7459D01*
G01X26880Y7418D01*
G01X26799Y7335D01*
G01X26758Y7253D01*
G01X26758Y7091D01*
G01X26799Y7009D01*
G01X26880Y6926D01*
G01X26961Y6885D01*
G01X27086Y6844D01*
G01X27289Y6844D01*
G01X27413Y6885D01*
G01X27495Y6926D01*
G01X27576Y7009D01*
G01X27617Y7091D01*
G01X27617Y7253D01*
G01X26921Y7131D02*
G01X26677Y6885D01*
G01X27454Y6575D02*
G01X27495Y6494D01*
G01X27617Y6369D01*
G01X26758Y6369D01*
G01X37468Y7668D02*
G01X37424Y7752D01*
G01X37343Y7833D01*
G01X37262Y7874D01*
G01X37140Y7915D01*
G01X36934Y7915D01*
G01X36812Y7874D01*
G01X36731Y7833D01*
G01X36647Y7752D01*
G01X36607Y7668D01*
G01X36607Y7506D01*
G01X36647Y7425D01*
G01X36731Y7343D01*
G01X36812Y7300D01*
G01X36934Y7259D01*
G01X37140Y7259D01*
G01X37262Y7300D01*
G01X37343Y7343D01*
G01X37424Y7425D01*
G01X37468Y7506D01*
G01X37468Y7668D01*
G01X36772Y7546D02*
G01X36525Y7300D01*
G01X37468Y6909D02*
G01X37468Y6459D01*
G01X37140Y6703D01*
G01X37140Y6581D01*
G01X37099Y6500D01*
G01X37056Y6459D01*
G01X36934Y6419D01*
G01X36853Y6419D01*
G01X36731Y6459D01*
G01X36647Y6541D01*
G01X36607Y6663D01*
G01X36607Y6784D01*
G01X36647Y6909D01*
G01X36690Y6950D01*
G01X36772Y6990D01*
G01X46921Y9666D02*
G01X46880Y9748D01*
G01X46799Y9831D01*
G01X46717Y9872D01*
G01X46593Y9913D01*
G01X46390Y9913D01*
G01X46265Y9872D01*
G01X46184Y9831D01*
G01X46103Y9748D01*
G01X46062Y9666D01*
G01X46062Y9504D01*
G01X46103Y9422D01*
G01X46184Y9339D01*
G01X46265Y9298D01*
G01X46390Y9257D01*
G01X46593Y9257D01*
G01X46717Y9298D01*
G01X46799Y9339D01*
G01X46880Y9422D01*
G01X46921Y9504D01*
G01X46921Y9666D01*
G01X46225Y9544D02*
G01X45981Y9298D01*
G01X46921Y8498D02*
G01X46921Y8907D01*
G01X46552Y8948D01*
G01X46593Y8907D01*
G01X46634Y8782D01*
G01X46634Y8660D01*
G01X46593Y8539D01*
G01X46512Y8457D01*
G01X46390Y8414D01*
G01X46306Y8414D01*
G01X46184Y8457D01*
G01X46103Y8539D01*
G01X46062Y8660D01*
G01X46062Y8782D01*
G01X46103Y8907D01*
G01X46143Y8948D01*
G01X46225Y8988D01*
G01X37357Y8508D02*
G01X37398Y8426D01*
G01X37479Y8342D01*
G01X37561Y8302D01*
G01X37685Y8261D01*
G01X37888Y8261D01*
G01X38013Y8302D01*
G01X38094Y8342D01*
G01X38175Y8426D01*
G01X38216Y8508D01*
G01X38216Y8670D01*
G01X38175Y8751D01*
G01X38094Y8835D01*
G01X38013Y8876D01*
G01X37888Y8917D01*
G01X37685Y8917D01*
G01X37561Y8876D01*
G01X37479Y8835D01*
G01X37398Y8751D01*
G01X37357Y8670D01*
G01X37357Y8508D01*
G01X38053Y8630D02*
G01X38297Y8876D01*
G01X37479Y9676D02*
G01X37398Y9635D01*
G01X37357Y9513D01*
G01X37357Y9432D01*
G01X37398Y9308D01*
G01X37520Y9226D01*
G01X37726Y9186D01*
G01X37929Y9186D01*
G01X38094Y9226D01*
G01X38175Y9308D01*
G01X38216Y9432D01*
G01X38216Y9473D01*
G01X38175Y9595D01*
G01X38094Y9676D01*
G01X37972Y9717D01*
G01X37929Y9717D01*
G01X37807Y9676D01*
G01X37726Y9595D01*
G01X37685Y9473D01*
G01X37685Y9432D01*
G01X37726Y9308D01*
G01X37807Y9226D01*
G01X37929Y9186D01*
G01X24549Y28550D02*
G01X24549Y27971D01*
G01X24587Y27854D01*
G01X24666Y27778D01*
G01X24780Y27739D01*
G01X24859Y27739D01*
G01X24973Y27778D01*
G01X25052Y27854D01*
G01X25090Y27971D01*
G01X25090Y28550D01*
G01X25423Y28550D02*
G01X25847Y28550D01*
G01X25616Y28242D01*
G01X25733Y28242D01*
G01X25809Y28202D01*
G01X25847Y28164D01*
G01X25885Y28047D01*
G01X25885Y27971D01*
G01X25847Y27854D01*
G01X25771Y27778D01*
G01X25654Y27739D01*
G01X25540Y27739D01*
G01X25423Y27778D01*
G01X25385Y27816D01*
G01X25344Y27894D01*
G01X30971Y25818D02*
G01X30933Y25894D01*
G01X30856Y25971D01*
G01X30778Y26011D01*
G01X30623Y26011D01*
G01X30546Y25971D01*
G01X30468Y25894D01*
G01X30430Y25818D01*
G01X30391Y25701D01*
G01X30391Y25508D01*
G01X30430Y25391D01*
G01X30468Y25315D01*
G01X30546Y25236D01*
G01X30623Y25198D01*
G01X30778Y25198D01*
G01X30856Y25236D01*
G01X30933Y25315D01*
G01X30971Y25391D01*
G01X31227Y25856D02*
G01X31303Y25894D01*
G01X31420Y26011D01*
G01X31420Y25198D01*
G01X31905Y26011D02*
G01X31791Y25971D01*
G01X31712Y25856D01*
G01X31674Y25663D01*
G01X31674Y25546D01*
G01X31712Y25353D01*
G01X31791Y25236D01*
G01X31905Y25198D01*
G01X31984Y25198D01*
G01X32098Y25236D01*
G01X32177Y25353D01*
G01X32215Y25546D01*
G01X32215Y25663D01*
G01X32177Y25856D01*
G01X32098Y25971D01*
G01X31984Y26011D01*
G01X31905Y26011D01*
G01X29701Y23151D02*
G01X29663Y23227D01*
G01X29586Y23304D01*
G01X29508Y23344D01*
G01X29353Y23344D01*
G01X29276Y23304D01*
G01X29198Y23227D01*
G01X29160Y23151D01*
G01X29121Y23034D01*
G01X29121Y22841D01*
G01X29160Y22724D01*
G01X29198Y22648D01*
G01X29276Y22569D01*
G01X29353Y22531D01*
G01X29508Y22531D01*
G01X29586Y22569D01*
G01X29663Y22648D01*
G01X29701Y22724D01*
G01X29957Y23189D02*
G01X30033Y23227D01*
G01X30150Y23344D01*
G01X30150Y22531D01*
G01X30404Y23189D02*
G01X30480Y23227D01*
G01X30597Y23344D01*
G01X30597Y22531D01*
G01X32876Y23024D02*
G01X32838Y23100D01*
G01X32761Y23177D01*
G01X32683Y23217D01*
G01X32528Y23217D01*
G01X32451Y23177D01*
G01X32373Y23100D01*
G01X32335Y23024D01*
G01X32296Y22907D01*
G01X32296Y22714D01*
G01X32335Y22597D01*
G01X32373Y22521D01*
G01X32451Y22443D01*
G01X32528Y22404D01*
G01X32683Y22404D01*
G01X32761Y22443D01*
G01X32838Y22521D01*
G01X32876Y22597D01*
G01X33132Y23062D02*
G01X33208Y23100D01*
G01X33325Y23217D01*
G01X33325Y22404D01*
G01X33617Y23024D02*
G01X33617Y23062D01*
G01X33655Y23138D01*
G01X33696Y23177D01*
G01X33772Y23217D01*
G01X33927Y23217D01*
G01X34003Y23177D01*
G01X34044Y23138D01*
G01X34082Y23062D01*
G01X34082Y22984D01*
G01X34044Y22907D01*
G01X33965Y22791D01*
G01X33579Y22404D01*
G01X34120Y22404D01*
G01X9436Y31979D02*
G01X9436Y31169D01*
G01X9436Y31979D02*
G01X9784Y31979D01*
G01X9901Y31941D01*
G01X9939Y31903D01*
G01X9977Y31824D01*
G01X9977Y31748D01*
G01X9939Y31669D01*
G01X9901Y31631D01*
G01X9784Y31593D01*
G01X9436Y31593D01*
G01X9708Y31593D02*
G01X9977Y31169D01*
G01X10696Y31979D02*
G01X10310Y31979D01*
G01X10272Y31631D01*
G01X10310Y31669D01*
G01X10427Y31710D01*
G01X10541Y31710D01*
G01X10658Y31669D01*
G01X10734Y31593D01*
G01X10772Y31476D01*
G01X10772Y31400D01*
G01X10734Y31283D01*
G01X10658Y31207D01*
G01X10541Y31169D01*
G01X10427Y31169D01*
G01X10310Y31207D01*
G01X10272Y31245D01*
G01X10231Y31324D01*
G01X24930Y32361D02*
G01X24930Y31548D01*
G01X24930Y32361D02*
G01X25278Y32361D01*
G01X25395Y32320D01*
G01X25433Y32282D01*
G01X25472Y32206D01*
G01X25472Y32127D01*
G01X25433Y32051D01*
G01X25395Y32013D01*
G01X25278Y31975D01*
G01X24930Y31975D01*
G01X25200Y31975D02*
G01X25472Y31548D01*
G01X26190Y32244D02*
G01X26152Y32320D01*
G01X26035Y32361D01*
G01X25959Y32361D01*
G01X25842Y32320D01*
G01X25766Y32206D01*
G01X25726Y32013D01*
G01X25726Y31820D01*
G01X25766Y31665D01*
G01X25842Y31586D01*
G01X25959Y31548D01*
G01X25997Y31548D01*
G01X26112Y31586D01*
G01X26190Y31665D01*
G01X26228Y31782D01*
G01X26228Y31820D01*
G01X26190Y31934D01*
G01X26112Y32013D01*
G01X25997Y32051D01*
G01X25959Y32051D01*
G01X25842Y32013D01*
G01X25766Y31934D01*
G01X25726Y31820D01*
G01X40242Y35724D02*
G01X40204Y35800D01*
G01X40127Y35876D01*
G01X40049Y35917D01*
G01X39894Y35917D01*
G01X39817Y35876D01*
G01X39739Y35800D01*
G01X39701Y35724D01*
G01X39662Y35607D01*
G01X39662Y35414D01*
G01X39701Y35297D01*
G01X39739Y35221D01*
G01X39817Y35142D01*
G01X39894Y35104D01*
G01X40049Y35104D01*
G01X40127Y35142D01*
G01X40204Y35221D01*
G01X40242Y35297D01*
G01X40960Y35917D02*
G01X40574Y35917D01*
G01X40536Y35569D01*
G01X40574Y35607D01*
G01X40691Y35645D01*
G01X40805Y35645D01*
G01X40922Y35607D01*
G01X40999Y35531D01*
G01X41039Y35414D01*
G01X41039Y35338D01*
G01X40999Y35221D01*
G01X40922Y35142D01*
G01X40805Y35104D01*
G01X40691Y35104D01*
G01X40574Y35142D01*
G01X40536Y35183D01*
G01X40498Y35259D01*
G01X35289Y37502D02*
G01X35251Y37578D01*
G01X35174Y37654D01*
G01X35096Y37695D01*
G01X34941Y37695D01*
G01X34864Y37654D01*
G01X34786Y37578D01*
G01X34748Y37502D01*
G01X34710Y37385D01*
G01X34710Y37192D01*
G01X34748Y37075D01*
G01X34786Y36999D01*
G01X34864Y36920D01*
G01X34941Y36882D01*
G01X35096Y36882D01*
G01X35174Y36920D01*
G01X35251Y36999D01*
G01X35289Y37075D01*
G01X35583Y37502D02*
G01X35583Y37540D01*
G01X35621Y37616D01*
G01X35659Y37654D01*
G01X35738Y37695D01*
G01X35891Y37695D01*
G01X35969Y37654D01*
G01X36007Y37616D01*
G01X36046Y37540D01*
G01X36046Y37461D01*
G01X36007Y37385D01*
G01X35931Y37268D01*
G01X35545Y36882D01*
G01X36086Y36882D01*
G01X43163Y29120D02*
G01X43124Y29196D01*
G01X43048Y29272D01*
G01X42970Y29313D01*
G01X42815Y29313D01*
G01X42738Y29272D01*
G01X42660Y29196D01*
G01X42622Y29120D01*
G01X42583Y29003D01*
G01X42583Y28810D01*
G01X42622Y28693D01*
G01X42660Y28617D01*
G01X42738Y28538D01*
G01X42815Y28500D01*
G01X42970Y28500D01*
G01X43048Y28538D01*
G01X43124Y28617D01*
G01X43163Y28693D01*
G01X43419Y29158D02*
G01X43495Y29196D01*
G01X43612Y29313D01*
G01X43612Y28500D01*
G01X29193Y30009D02*
G01X29155Y30085D01*
G01X29078Y30161D01*
G01X29000Y30202D01*
G01X28845Y30202D01*
G01X28768Y30161D01*
G01X28690Y30085D01*
G01X28652Y30009D01*
G01X28613Y29892D01*
G01X28613Y29699D01*
G01X28652Y29582D01*
G01X28690Y29506D01*
G01X28768Y29427D01*
G01X28845Y29389D01*
G01X29000Y29389D01*
G01X29078Y29427D01*
G01X29155Y29506D01*
G01X29193Y29582D01*
G01X29525Y30202D02*
G01X29950Y30202D01*
G01X29718Y29892D01*
G01X29835Y29892D01*
G01X29911Y29854D01*
G01X29950Y29816D01*
G01X29990Y29699D01*
G01X29990Y29623D01*
G01X29950Y29506D01*
G01X29873Y29427D01*
G01X29756Y29389D01*
G01X29642Y29389D01*
G01X29525Y29427D01*
G01X29487Y29468D01*
G01X29449Y29544D01*
G01X27795Y26325D02*
G01X27757Y26404D01*
G01X27681Y26480D01*
G01X27602Y26518D01*
G01X27447Y26518D01*
G01X27371Y26480D01*
G01X27295Y26404D01*
G01X27254Y26325D01*
G01X27216Y26211D01*
G01X27216Y26015D01*
G01X27254Y25901D01*
G01X27295Y25822D01*
G01X27371Y25746D01*
G01X27447Y25708D01*
G01X27602Y25708D01*
G01X27681Y25746D01*
G01X27757Y25822D01*
G01X27795Y25901D01*
G01X28552Y26249D02*
G01X28514Y26132D01*
G01X28438Y26056D01*
G01X28321Y26015D01*
G01X28283Y26015D01*
G01X28166Y26056D01*
G01X28090Y26132D01*
G01X28052Y26249D01*
G01X28052Y26287D01*
G01X28090Y26404D01*
G01X28166Y26480D01*
G01X28283Y26518D01*
G01X28321Y26518D01*
G01X28438Y26480D01*
G01X28514Y26404D01*
G01X28552Y26249D01*
G01X28552Y26056D01*
G01X28514Y25863D01*
G01X28438Y25746D01*
G01X28321Y25708D01*
G01X28245Y25708D01*
G01X28128Y25746D01*
G01X28090Y25822D01*
G01X48497Y32295D02*
G01X48459Y32371D01*
G01X48382Y32447D01*
G01X48304Y32488D01*
G01X48149Y32488D01*
G01X48072Y32447D01*
G01X47994Y32371D01*
G01X47956Y32295D01*
G01X47917Y32178D01*
G01X47917Y31985D01*
G01X47956Y31868D01*
G01X47994Y31792D01*
G01X48072Y31713D01*
G01X48149Y31675D01*
G01X48304Y31675D01*
G01X48382Y31713D01*
G01X48459Y31792D01*
G01X48497Y31868D01*
G01X49294Y32488D02*
G01X48906Y31675D01*
G01X48753Y32488D02*
G01X49294Y32488D01*
G01X43925Y34327D02*
G01X43887Y34403D01*
G01X43810Y34479D01*
G01X43732Y34520D01*
G01X43577Y34520D01*
G01X43500Y34479D01*
G01X43422Y34403D01*
G01X43384Y34327D01*
G01X43345Y34210D01*
G01X43345Y34017D01*
G01X43384Y33900D01*
G01X43422Y33824D01*
G01X43500Y33745D01*
G01X43577Y33707D01*
G01X43732Y33707D01*
G01X43810Y33745D01*
G01X43887Y33824D01*
G01X43925Y33900D01*
G01X44567Y34520D02*
G01X44181Y33979D01*
G01X44760Y33979D01*
G01X44567Y34520D02*
G01X44567Y33707D01*
G01X35471Y25036D02*
G01X35471Y24256D01*
G01X35522Y24101D01*
G01X35626Y23997D01*
G01X35784Y23946D01*
G01X35888Y23946D01*
G01X36043Y23997D01*
G01X36147Y24101D01*
G01X36198Y24256D01*
G01X36198Y25036D01*
G01X36541Y24827D02*
G01X36645Y24881D01*
G01X36802Y25036D01*
G01X36802Y23946D01*
G54D63*
G01X39846Y38462D02*
G01X40801Y38462D01*
G01X39846Y38462D02*
G01X39846Y38780D01*
G01X39892Y38917D01*
G01X39984Y39008D01*
G01X40075Y39054D01*
G01X40210Y39100D01*
G01X40438Y39100D01*
G01X40575Y39054D01*
G01X40664Y39008D01*
G01X40756Y38917D01*
G01X40801Y38780D01*
G01X40801Y38462D01*
G01X40075Y39445D02*
G01X40029Y39445D01*
G01X39938Y39488D01*
G01X39892Y39534D01*
G01X39846Y39625D01*
G01X39846Y39808D01*
G01X39892Y39897D01*
G01X39938Y39943D01*
G01X40029Y39989D01*
G01X40121Y39989D01*
G01X40210Y39943D01*
G01X40347Y39854D01*
G01X40801Y39399D01*
G01X40801Y40034D01*
G01X39846Y40426D02*
G01X39846Y40926D01*
G01X40210Y40654D01*
G01X40210Y40789D01*
G01X40255Y40880D01*
G01X40301Y40926D01*
G01X40438Y40972D01*
G01X40530Y40972D01*
G01X40664Y40926D01*
G01X40756Y40834D01*
G01X40801Y40697D01*
G01X40801Y40563D01*
G01X40756Y40426D01*
G01X40710Y40380D01*
G01X40621Y40334D01*
G01X37256Y38462D02*
G01X38211Y38462D01*
G01X37256Y38462D02*
G01X37256Y38780D01*
G01X37301Y38917D01*
G01X37393Y39008D01*
G01X37484Y39054D01*
G01X37619Y39100D01*
G01X37847Y39100D01*
G01X37985Y39054D01*
G01X38073Y39008D01*
G01X38165Y38917D01*
G01X38211Y38780D01*
G01X38211Y38462D01*
G01X37484Y39445D02*
G01X37438Y39445D01*
G01X37347Y39488D01*
G01X37301Y39534D01*
G01X37256Y39625D01*
G01X37256Y39808D01*
G01X37301Y39897D01*
G01X37347Y39943D01*
G01X37438Y39989D01*
G01X37530Y39989D01*
G01X37619Y39943D01*
G01X37756Y39854D01*
G01X38211Y39399D01*
G01X38211Y40034D01*
G01X37484Y40380D02*
G01X37438Y40380D01*
G01X37347Y40426D01*
G01X37301Y40471D01*
G01X37256Y40563D01*
G01X37256Y40743D01*
G01X37301Y40834D01*
G01X37347Y40880D01*
G01X37438Y40926D01*
G01X37530Y40926D01*
G01X37619Y40880D01*
G01X37756Y40789D01*
G01X38211Y40334D01*
G01X38211Y40972D01*
G01X34792Y38678D02*
G01X35747Y38678D01*
G01X34792Y38361D02*
G01X34792Y38998D01*
G01X34792Y39298D02*
G01X35747Y39933D01*
G01X34792Y39933D02*
G01X35747Y39298D01*
G01X34792Y40507D02*
G01X34838Y40370D01*
G01X34975Y40278D01*
G01X35201Y40232D01*
G01X35338Y40232D01*
G01X35566Y40278D01*
G01X35701Y40370D01*
G01X35747Y40507D01*
G01X35747Y40596D01*
G01X35701Y40733D01*
G01X35566Y40824D01*
G01X35338Y40870D01*
G01X35201Y40870D01*
G01X34975Y40824D01*
G01X34838Y40733D01*
G01X34792Y40596D01*
G01X34792Y40507D01*
G01X32252Y38361D02*
G01X33207Y38361D01*
G01X32252Y38361D02*
G01X32252Y38769D01*
G01X32298Y38907D01*
G01X32343Y38952D01*
G01X32435Y38998D01*
G01X32526Y38998D01*
G01X32615Y38952D01*
G01X32661Y38907D01*
G01X32706Y38769D01*
G01X32706Y38361D01*
G01X32706Y38678D02*
G01X33207Y38998D01*
G01X32252Y39298D02*
G01X33207Y39933D01*
G01X32252Y39933D02*
G01X33207Y39298D01*
G01X32252Y40507D02*
G01X32298Y40370D01*
G01X32435Y40278D01*
G01X32661Y40232D01*
G01X32798Y40232D01*
G01X33026Y40278D01*
G01X33161Y40370D01*
G01X33207Y40507D01*
G01X33207Y40596D01*
G01X33161Y40733D01*
G01X33026Y40824D01*
G01X32798Y40870D01*
G01X32661Y40870D01*
G01X32435Y40824D01*
G01X32298Y40733D01*
G01X32252Y40596D01*
G01X32252Y40507D01*
G01X29686Y38716D02*
G01X30641Y38716D01*
G01X29686Y38716D02*
G01X29686Y39034D01*
G01X29732Y39171D01*
G01X29824Y39262D01*
G01X29915Y39308D01*
G01X30050Y39354D01*
G01X30278Y39354D01*
G01X30415Y39308D01*
G01X30504Y39262D01*
G01X30596Y39171D01*
G01X30641Y39034D01*
G01X30641Y38716D01*
G01X29915Y39699D02*
G01X29869Y39699D01*
G01X29778Y39742D01*
G01X29732Y39788D01*
G01X29686Y39879D01*
G01X29686Y40062D01*
G01X29732Y40151D01*
G01X29778Y40197D01*
G01X29869Y40243D01*
G01X29961Y40243D01*
G01X30050Y40197D01*
G01X30187Y40108D01*
G01X30641Y39653D01*
G01X30641Y40288D01*
G01X29869Y40588D02*
G01X29824Y40680D01*
G01X29686Y40817D01*
G01X30641Y40817D01*
G01X27172Y38894D02*
G01X28127Y38894D01*
G01X27172Y38894D02*
G01X27172Y39211D01*
G01X27218Y39349D01*
G01X27309Y39440D01*
G01X27400Y39486D01*
G01X27535Y39531D01*
G01X27764Y39531D01*
G01X27901Y39486D01*
G01X27990Y39440D01*
G01X28081Y39349D01*
G01X28127Y39211D01*
G01X28127Y38894D01*
G01X27355Y39831D02*
G01X27309Y39920D01*
G01X27172Y40057D01*
G01X28127Y40057D01*
G01X27492Y40949D02*
G01X27626Y40903D01*
G01X27718Y40812D01*
G01X27764Y40677D01*
G01X27764Y40631D01*
G01X27718Y40494D01*
G01X27626Y40403D01*
G01X27492Y40357D01*
G01X27446Y40357D01*
G01X27309Y40403D01*
G01X27218Y40494D01*
G01X27172Y40631D01*
G01X27172Y40677D01*
G01X27218Y40812D01*
G01X27309Y40903D01*
G01X27492Y40949D01*
G01X27718Y40949D01*
G01X27946Y40903D01*
G01X28081Y40812D01*
G01X28127Y40677D01*
G01X28127Y40586D01*
G01X28081Y40448D01*
G01X27990Y40403D01*
G01X24581Y38818D02*
G01X25536Y38818D01*
G01X24581Y38818D02*
G01X24581Y39135D01*
G01X24627Y39272D01*
G01X24718Y39364D01*
G01X24810Y39410D01*
G01X24944Y39455D01*
G01X25173Y39455D01*
G01X25310Y39410D01*
G01X25399Y39364D01*
G01X25490Y39272D01*
G01X25536Y39135D01*
G01X25536Y38818D01*
G01X24764Y39755D02*
G01X24718Y39844D01*
G01X24581Y39981D01*
G01X25536Y39981D01*
G01X24581Y40509D02*
G01X24627Y40372D01*
G01X24718Y40326D01*
G01X24810Y40326D01*
G01X24901Y40372D01*
G01X24944Y40464D01*
G01X24990Y40644D01*
G01X25036Y40781D01*
G01X25127Y40873D01*
G01X25219Y40918D01*
G01X25356Y40918D01*
G01X25445Y40873D01*
G01X25490Y40827D01*
G01X25536Y40690D01*
G01X25536Y40509D01*
G01X25490Y40372D01*
G01X25445Y40326D01*
G01X25356Y40281D01*
G01X25219Y40281D01*
G01X25127Y40326D01*
G01X25036Y40418D01*
G01X24990Y40555D01*
G01X24944Y40735D01*
G01X24901Y40827D01*
G01X24810Y40873D01*
G01X24718Y40873D01*
G01X24627Y40827D01*
G01X24581Y40690D01*
G01X24581Y40509D01*
G01X22041Y38335D02*
G01X22996Y38335D01*
G01X22041Y38335D02*
G01X22041Y38653D01*
G01X22087Y38790D01*
G01X22178Y38881D01*
G01X22270Y38927D01*
G01X22404Y38973D01*
G01X22633Y38973D01*
G01X22770Y38927D01*
G01X22859Y38881D01*
G01X22950Y38790D01*
G01X22996Y38653D01*
G01X22996Y38335D01*
G01X22041Y39544D02*
G01X22087Y39407D01*
G01X22224Y39318D01*
G01X22450Y39272D01*
G01X22587Y39272D01*
G01X22816Y39318D01*
G01X22950Y39407D01*
G01X22996Y39544D01*
G01X22996Y39636D01*
G01X22950Y39770D01*
G01X22816Y39862D01*
G01X22587Y39907D01*
G01X22450Y39907D01*
G01X22224Y39862D01*
G01X22087Y39770D01*
G01X22041Y39636D01*
G01X22041Y39544D01*
G01X22041Y40753D02*
G01X22041Y40299D01*
G01X22450Y40253D01*
G01X22404Y40299D01*
G01X22361Y40436D01*
G01X22361Y40570D01*
G01X22404Y40707D01*
G01X22496Y40799D01*
G01X22633Y40845D01*
G01X22724Y40845D01*
G01X22859Y40799D01*
G01X22950Y40707D01*
G01X22996Y40570D01*
G01X22996Y40436D01*
G01X22950Y40299D01*
G01X22905Y40253D01*
G01X22816Y40207D01*
G01X19526Y38653D02*
G01X20481Y38653D01*
G01X19526Y38335D02*
G01X19526Y38973D01*
G01X19526Y39272D02*
G01X20481Y39907D01*
G01X19526Y39907D02*
G01X20481Y39272D01*
G01X19755Y40253D02*
G01X19709Y40253D01*
G01X19618Y40299D01*
G01X19572Y40344D01*
G01X19526Y40436D01*
G01X19526Y40616D01*
G01X19572Y40707D01*
G01X19618Y40753D01*
G01X19709Y40799D01*
G01X19801Y40799D01*
G01X19890Y40753D01*
G01X20027Y40662D01*
G01X20481Y40207D01*
G01X20481Y40845D01*
G01X17012Y38386D02*
G01X17967Y38386D01*
G01X17012Y38386D02*
G01X17012Y38795D01*
G01X17058Y38932D01*
G01X17103Y38978D01*
G01X17195Y39023D01*
G01X17286Y39023D01*
G01X17375Y38978D01*
G01X17421Y38932D01*
G01X17466Y38795D01*
G01X17466Y38386D01*
G01X17466Y38703D02*
G01X17967Y39023D01*
G01X17012Y39323D02*
G01X17967Y39958D01*
G01X17012Y39958D02*
G01X17967Y39323D01*
G01X17240Y40304D02*
G01X17195Y40304D01*
G01X17103Y40349D01*
G01X17058Y40395D01*
G01X17012Y40486D01*
G01X17012Y40667D01*
G01X17058Y40758D01*
G01X17103Y40804D01*
G01X17195Y40850D01*
G01X17286Y40850D01*
G01X17375Y40804D01*
G01X17512Y40713D01*
G01X17967Y40258D01*
G01X17967Y40895D01*
G01X4286Y38325D02*
G01X4286Y38825D01*
G01X4650Y38551D01*
G01X4650Y38688D01*
G01X4695Y38780D01*
G01X4741Y38825D01*
G01X4878Y38871D01*
G01X4970Y38871D01*
G01X5104Y38825D01*
G01X5196Y38734D01*
G01X5241Y38597D01*
G01X5241Y38460D01*
G01X5196Y38325D01*
G01X5150Y38279D01*
G01X5061Y38234D01*
G01X4286Y39171D02*
G01X5241Y39534D01*
G01X4286Y39897D02*
G01X5241Y39534D01*
G01X4286Y40288D02*
G01X4286Y40789D01*
G01X4650Y40514D01*
G01X4650Y40652D01*
G01X4695Y40743D01*
G01X4741Y40789D01*
G01X4878Y40834D01*
G01X4970Y40834D01*
G01X5104Y40789D01*
G01X5196Y40697D01*
G01X5241Y40560D01*
G01X5241Y40426D01*
G01X5196Y40288D01*
G01X5150Y40243D01*
G01X5061Y40197D01*
G01X6953Y38990D02*
G01X6862Y38947D01*
G01X6771Y38856D01*
G01X6725Y38764D01*
G01X6725Y38581D01*
G01X6771Y38493D01*
G01X6862Y38401D01*
G01X6953Y38355D01*
G01X7088Y38310D01*
G01X7317Y38310D01*
G01X7454Y38355D01*
G01X7543Y38401D01*
G01X7634Y38493D01*
G01X7680Y38581D01*
G01X7680Y38764D01*
G01X7634Y38856D01*
G01X7543Y38947D01*
G01X7454Y38990D01*
G01X7317Y38990D01*
G01X7317Y38764D02*
G01X7317Y38990D01*
G01X6725Y39293D02*
G01X7680Y39293D01*
G01X6725Y39293D02*
G01X7680Y39928D01*
G01X6725Y39928D02*
G01X7680Y39928D01*
G01X6725Y40227D02*
G01X7680Y40227D01*
G01X6725Y40227D02*
G01X6725Y40545D01*
G01X6771Y40682D01*
G01X6862Y40774D01*
G01X6953Y40819D01*
G01X7088Y40865D01*
G01X7317Y40865D01*
G01X7454Y40819D01*
G01X7543Y40774D01*
G01X7634Y40682D01*
G01X7680Y40545D01*
G01X7680Y40227D01*
G01X9290Y38818D02*
G01X10245Y38818D01*
G01X9290Y38818D02*
G01X9290Y39135D01*
G01X9336Y39272D01*
G01X9427Y39364D01*
G01X9519Y39410D01*
G01X9653Y39455D01*
G01X9882Y39455D01*
G01X10019Y39410D01*
G01X10108Y39364D01*
G01X10200Y39272D01*
G01X10245Y39135D01*
G01X10245Y38818D01*
G01X9473Y39755D02*
G01X9427Y39844D01*
G01X9290Y39981D01*
G01X10245Y39981D01*
G01X9290Y40827D02*
G01X9290Y40372D01*
G01X9699Y40326D01*
G01X9653Y40372D01*
G01X9610Y40509D01*
G01X9610Y40644D01*
G01X9653Y40781D01*
G01X9745Y40873D01*
G01X9882Y40918D01*
G01X9973Y40918D01*
G01X10108Y40873D01*
G01X10200Y40781D01*
G01X10245Y40644D01*
G01X10245Y40509D01*
G01X10200Y40372D01*
G01X10154Y40326D01*
G01X10065Y40281D01*
G01X11906Y38284D02*
G01X12861Y38284D01*
G01X11906Y38284D02*
G01X11906Y38602D01*
G01X11952Y38739D01*
G01X12044Y38830D01*
G01X12135Y38876D01*
G01X12270Y38922D01*
G01X12498Y38922D01*
G01X12635Y38876D01*
G01X12724Y38830D01*
G01X12816Y38739D01*
G01X12861Y38602D01*
G01X12861Y38284D01*
G01X11906Y39493D02*
G01X11952Y39356D01*
G01X12089Y39267D01*
G01X12315Y39222D01*
G01X12452Y39222D01*
G01X12681Y39267D01*
G01X12816Y39356D01*
G01X12861Y39493D01*
G01X12861Y39585D01*
G01X12816Y39719D01*
G01X12681Y39811D01*
G01X12452Y39857D01*
G01X12315Y39857D01*
G01X12089Y39811D01*
G01X11952Y39719D01*
G01X11906Y39585D01*
G01X11906Y39493D01*
G01X12135Y40202D02*
G01X12089Y40202D01*
G01X11998Y40248D01*
G01X11952Y40293D01*
G01X11906Y40385D01*
G01X11906Y40565D01*
G01X11952Y40657D01*
G01X11998Y40702D01*
G01X12089Y40748D01*
G01X12181Y40748D01*
G01X12270Y40702D01*
G01X12407Y40611D01*
G01X12861Y40156D01*
G01X12861Y40794D01*
G01X14446Y38259D02*
G01X15401Y38259D01*
G01X14446Y38259D02*
G01X14446Y38576D01*
G01X14492Y38714D01*
G01X14584Y38805D01*
G01X14675Y38851D01*
G01X14810Y38896D01*
G01X15038Y38896D01*
G01X15175Y38851D01*
G01X15264Y38805D01*
G01X15356Y38714D01*
G01X15401Y38576D01*
G01X15401Y38259D01*
G01X14446Y39468D02*
G01X14492Y39331D01*
G01X14629Y39242D01*
G01X14855Y39196D01*
G01X14992Y39196D01*
G01X15221Y39242D01*
G01X15356Y39331D01*
G01X15401Y39468D01*
G01X15401Y39559D01*
G01X15356Y39694D01*
G01X15221Y39785D01*
G01X14992Y39831D01*
G01X14855Y39831D01*
G01X14629Y39785D01*
G01X14492Y39694D01*
G01X14446Y39559D01*
G01X14446Y39468D01*
G01X14446Y40586D02*
G01X15084Y40131D01*
G01X15084Y40814D01*
G01X14446Y40586D02*
G01X15401Y40586D01*
G01X39846Y19031D02*
G01X40801Y19031D01*
G01X39846Y19031D02*
G01X39846Y19623D01*
G01X40301Y19031D02*
G01X40301Y19394D01*
G01X40801Y19031D02*
G01X40801Y19623D01*
G01X39846Y19923D02*
G01X40801Y19923D01*
G01X39846Y19923D02*
G01X40801Y20558D01*
G01X39846Y20558D02*
G01X40801Y20558D01*
G01X37256Y19006D02*
G01X38211Y19369D01*
G01X37256Y19732D02*
G01X38211Y19369D01*
G01X37256Y20032D02*
G01X38211Y20032D01*
G01X37256Y20032D02*
G01X37256Y20441D01*
G01X37301Y20578D01*
G01X37347Y20624D01*
G01X37438Y20669D01*
G01X37576Y20669D01*
G01X37665Y20624D01*
G01X37710Y20578D01*
G01X37756Y20441D01*
G01X37756Y20032D01*
G01X34792Y18980D02*
G01X35747Y19344D01*
G01X34792Y19707D02*
G01X35747Y19344D01*
G01X34792Y20006D02*
G01X35747Y20006D01*
G01X34792Y20006D02*
G01X35747Y20644D01*
G01X34792Y20644D02*
G01X35747Y20644D01*
G01X32785Y19107D02*
G01X33740Y19107D01*
G01X32785Y19107D02*
G01X32785Y19425D01*
G01X32831Y19562D01*
G01X32922Y19653D01*
G01X33014Y19699D01*
G01X33148Y19745D01*
G01X33377Y19745D01*
G01X33514Y19699D01*
G01X33603Y19653D01*
G01X33695Y19562D01*
G01X33740Y19425D01*
G01X33740Y19107D01*
G01X32785Y20133D02*
G01X32785Y20634D01*
G01X33148Y20362D01*
G01X33148Y20499D01*
G01X33194Y20588D01*
G01X33240Y20634D01*
G01X33377Y20680D01*
G01X33468Y20680D01*
G01X33603Y20634D01*
G01X33695Y20542D01*
G01X33740Y20408D01*
G01X33740Y20271D01*
G01X33695Y20133D01*
G01X33649Y20090D01*
G01X33560Y20045D01*
G01X32785Y21434D02*
G01X33423Y20979D01*
G01X33423Y21663D01*
G01X32785Y21434D02*
G01X33740Y21434D01*
G01X29280Y19107D02*
G01X30235Y19107D01*
G01X29280Y19107D02*
G01X29280Y19425D01*
G01X29326Y19562D01*
G01X29417Y19653D01*
G01X29509Y19699D01*
G01X29643Y19745D01*
G01X29872Y19745D01*
G01X30009Y19699D01*
G01X30098Y19653D01*
G01X30189Y19562D01*
G01X30235Y19425D01*
G01X30235Y19107D01*
G01X29280Y20133D02*
G01X29280Y20634D01*
G01X29643Y20362D01*
G01X29643Y20499D01*
G01X29689Y20588D01*
G01X29735Y20634D01*
G01X29872Y20680D01*
G01X29963Y20680D01*
G01X30098Y20634D01*
G01X30189Y20542D01*
G01X30235Y20408D01*
G01X30235Y20271D01*
G01X30189Y20133D01*
G01X30144Y20090D01*
G01X30055Y20045D01*
G01X29280Y21525D02*
G01X29280Y21071D01*
G01X29689Y21025D01*
G01X29643Y21071D01*
G01X29600Y21208D01*
G01X29600Y21343D01*
G01X29643Y21480D01*
G01X29735Y21571D01*
G01X29872Y21617D01*
G01X29963Y21617D01*
G01X30098Y21571D01*
G01X30189Y21480D01*
G01X30235Y21343D01*
G01X30235Y21208D01*
G01X30189Y21071D01*
G01X30144Y21025D01*
G01X30055Y20979D01*
G01X27197Y19057D02*
G01X28152Y19057D01*
G01X27197Y19057D02*
G01X27197Y19374D01*
G01X27243Y19511D01*
G01X27334Y19603D01*
G01X27426Y19648D01*
G01X27560Y19694D01*
G01X27789Y19694D01*
G01X27926Y19648D01*
G01X28015Y19603D01*
G01X28107Y19511D01*
G01X28152Y19374D01*
G01X28152Y19057D01*
G01X27197Y20083D02*
G01X27197Y20583D01*
G01X27560Y20311D01*
G01X27560Y20448D01*
G01X27606Y20537D01*
G01X27652Y20583D01*
G01X27789Y20629D01*
G01X27880Y20629D01*
G01X28015Y20583D01*
G01X28107Y20492D01*
G01X28152Y20357D01*
G01X28152Y20220D01*
G01X28107Y20083D01*
G01X28061Y20039D01*
G01X27972Y19994D01*
G01X27426Y20974D02*
G01X27380Y20974D01*
G01X27289Y21020D01*
G01X27243Y21066D01*
G01X27197Y21157D01*
G01X27197Y21337D01*
G01X27243Y21429D01*
G01X27289Y21475D01*
G01X27380Y21520D01*
G01X27472Y21520D01*
G01X27560Y21475D01*
G01X27698Y21383D01*
G01X28152Y20928D01*
G01X28152Y21566D01*
G01X24606Y19006D02*
G01X25561Y19006D01*
G01X24606Y19006D02*
G01X24606Y19323D01*
G01X24652Y19460D01*
G01X24744Y19552D01*
G01X24835Y19598D01*
G01X24970Y19643D01*
G01X25198Y19643D01*
G01X25335Y19598D01*
G01X25424Y19552D01*
G01X25516Y19460D01*
G01X25561Y19323D01*
G01X25561Y19006D01*
G01X24606Y20032D02*
G01X24606Y20532D01*
G01X24970Y20260D01*
G01X24970Y20398D01*
G01X25015Y20487D01*
G01X25061Y20532D01*
G01X25198Y20578D01*
G01X25290Y20578D01*
G01X25424Y20532D01*
G01X25516Y20441D01*
G01X25561Y20306D01*
G01X25561Y20169D01*
G01X25516Y20032D01*
G01X25470Y19989D01*
G01X25381Y19943D01*
G01X24606Y20969D02*
G01X24606Y21470D01*
G01X24970Y21198D01*
G01X24970Y21332D01*
G01X25015Y21424D01*
G01X25061Y21470D01*
G01X25198Y21515D01*
G01X25290Y21515D01*
G01X25424Y21470D01*
G01X25516Y21378D01*
G01X25561Y21241D01*
G01X25561Y21106D01*
G01X25516Y20969D01*
G01X25470Y20923D01*
G01X25381Y20878D01*
G01X22066Y19006D02*
G01X23021Y19006D01*
G01X22066Y19006D02*
G01X22066Y19323D01*
G01X22112Y19460D01*
G01X22204Y19552D01*
G01X22295Y19598D01*
G01X22430Y19643D01*
G01X22658Y19643D01*
G01X22795Y19598D01*
G01X22884Y19552D01*
G01X22976Y19460D01*
G01X23021Y19323D01*
G01X23021Y19006D01*
G01X22295Y19989D02*
G01X22249Y19989D01*
G01X22158Y20032D01*
G01X22112Y20078D01*
G01X22066Y20169D01*
G01X22066Y20352D01*
G01X22112Y20441D01*
G01X22158Y20487D01*
G01X22249Y20532D01*
G01X22341Y20532D01*
G01X22430Y20487D01*
G01X22567Y20398D01*
G01X23021Y19943D01*
G01X23021Y20578D01*
G01X22066Y21424D02*
G01X22066Y20969D01*
G01X22475Y20923D01*
G01X22430Y20969D01*
G01X22386Y21106D01*
G01X22386Y21241D01*
G01X22430Y21378D01*
G01X22521Y21470D01*
G01X22658Y21515D01*
G01X22750Y21515D01*
G01X22884Y21470D01*
G01X22976Y21378D01*
G01X23021Y21241D01*
G01X23021Y21106D01*
G01X22976Y20969D01*
G01X22930Y20923D01*
G01X22841Y20878D01*
G01X19552Y18980D02*
G01X20507Y18980D01*
G01X19552Y18980D02*
G01X19552Y19298D01*
G01X19598Y19435D01*
G01X19689Y19526D01*
G01X19780Y19572D01*
G01X19915Y19618D01*
G01X20144Y19618D01*
G01X20281Y19572D01*
G01X20370Y19526D01*
G01X20461Y19435D01*
G01X20507Y19298D01*
G01X20507Y18980D01*
G01X19780Y19963D02*
G01X19735Y19963D01*
G01X19643Y20006D01*
G01X19598Y20052D01*
G01X19552Y20144D01*
G01X19552Y20327D01*
G01X19598Y20415D01*
G01X19643Y20461D01*
G01X19735Y20507D01*
G01X19826Y20507D01*
G01X19915Y20461D01*
G01X20052Y20372D01*
G01X20507Y19918D01*
G01X20507Y20553D01*
G01X19689Y21398D02*
G01X19598Y21353D01*
G01X19552Y21216D01*
G01X19552Y21127D01*
G01X19598Y20989D01*
G01X19735Y20898D01*
G01X19961Y20852D01*
G01X20189Y20852D01*
G01X20370Y20898D01*
G01X20461Y20989D01*
G01X20507Y21127D01*
G01X20507Y21172D01*
G01X20461Y21307D01*
G01X20370Y21398D01*
G01X20235Y21444D01*
G01X20189Y21444D01*
G01X20052Y21398D01*
G01X19961Y21307D01*
G01X19915Y21172D01*
G01X19915Y21127D01*
G01X19961Y20989D01*
G01X20052Y20898D01*
G01X20189Y20852D01*
G01X17037Y19006D02*
G01X17992Y19006D01*
G01X17037Y19006D02*
G01X17037Y19323D01*
G01X17083Y19460D01*
G01X17174Y19552D01*
G01X17266Y19598D01*
G01X17400Y19643D01*
G01X17629Y19643D01*
G01X17766Y19598D01*
G01X17855Y19552D01*
G01X17947Y19460D01*
G01X17992Y19323D01*
G01X17992Y19006D01*
G01X17266Y19989D02*
G01X17220Y19989D01*
G01X17129Y20032D01*
G01X17083Y20078D01*
G01X17037Y20169D01*
G01X17037Y20352D01*
G01X17083Y20441D01*
G01X17129Y20487D01*
G01X17220Y20532D01*
G01X17312Y20532D01*
G01X17400Y20487D01*
G01X17538Y20398D01*
G01X17992Y19943D01*
G01X17992Y20578D01*
G01X17037Y21515D02*
G01X17992Y21061D01*
G01X17037Y20878D02*
G01X17037Y21515D01*
G01X4261Y18980D02*
G01X5216Y19344D01*
G01X4261Y19707D02*
G01X5216Y19344D01*
G01X4261Y20006D02*
G01X4307Y20052D01*
G01X4261Y20098D01*
G01X4215Y20052D01*
G01X4261Y20006D01*
G01X4581Y20052D02*
G01X5216Y20052D01*
G01X4581Y20398D02*
G01X5216Y20398D01*
G01X4761Y20398D02*
G01X4624Y20535D01*
G01X4581Y20626D01*
G01X4581Y20763D01*
G01X4624Y20852D01*
G01X4761Y20898D01*
G01X5216Y20898D01*
G01X7182Y19636D02*
G01X7091Y19592D01*
G01X6999Y19501D01*
G01X6953Y19410D01*
G01X6953Y19227D01*
G01X6999Y19138D01*
G01X7091Y19046D01*
G01X7182Y19001D01*
G01X7317Y18955D01*
G01X7545Y18955D01*
G01X7682Y19001D01*
G01X7771Y19046D01*
G01X7863Y19138D01*
G01X7908Y19227D01*
G01X7908Y19410D01*
G01X7863Y19501D01*
G01X7771Y19592D01*
G01X7682Y19636D01*
G01X7545Y19636D01*
G01X7545Y19410D02*
G01X7545Y19636D01*
G01X6953Y19938D02*
G01X7908Y19938D01*
G01X6953Y19938D02*
G01X7908Y20573D01*
G01X6953Y20573D02*
G01X7908Y20573D01*
G01X6953Y20873D02*
G01X7908Y20873D01*
G01X6953Y20873D02*
G01X6953Y21190D01*
G01X6999Y21327D01*
G01X7091Y21419D01*
G01X7182Y21464D01*
G01X7317Y21510D01*
G01X7545Y21510D01*
G01X7682Y21464D01*
G01X7771Y21419D01*
G01X7863Y21327D01*
G01X7908Y21190D01*
G01X7908Y20873D01*
G01X9468Y18980D02*
G01X10423Y18980D01*
G01X9468Y18980D02*
G01X9468Y19298D01*
G01X9514Y19435D01*
G01X9605Y19526D01*
G01X9697Y19572D01*
G01X9831Y19618D01*
G01X10060Y19618D01*
G01X10197Y19572D01*
G01X10286Y19526D01*
G01X10377Y19435D01*
G01X10423Y19298D01*
G01X10423Y18980D01*
G01X9651Y19918D02*
G01X9605Y20006D01*
G01X9468Y20144D01*
G01X10423Y20144D01*
G01X9468Y20535D02*
G01X9468Y21035D01*
G01X9831Y20763D01*
G01X9831Y20898D01*
G01X9877Y20989D01*
G01X9923Y21035D01*
G01X10060Y21081D01*
G01X10151Y21081D01*
G01X10286Y21035D01*
G01X10377Y20944D01*
G01X10423Y20807D01*
G01X10423Y20672D01*
G01X10377Y20535D01*
G01X10332Y20489D01*
G01X10243Y20443D01*
G01X11932Y18980D02*
G01X12887Y18980D01*
G01X11932Y18980D02*
G01X11932Y19298D01*
G01X11978Y19435D01*
G01X12069Y19526D01*
G01X12160Y19572D01*
G01X12295Y19618D01*
G01X12524Y19618D01*
G01X12661Y19572D01*
G01X12750Y19526D01*
G01X12841Y19435D01*
G01X12887Y19298D01*
G01X12887Y18980D01*
G01X12115Y19918D02*
G01X12069Y20006D01*
G01X11932Y20144D01*
G01X12887Y20144D01*
G01X12160Y20489D02*
G01X12115Y20489D01*
G01X12023Y20535D01*
G01X11978Y20581D01*
G01X11932Y20672D01*
G01X11932Y20852D01*
G01X11978Y20944D01*
G01X12023Y20989D01*
G01X12115Y21035D01*
G01X12206Y21035D01*
G01X12295Y20989D01*
G01X12432Y20898D01*
G01X12887Y20443D01*
G01X12887Y21081D01*
G01X14472Y18980D02*
G01X15427Y18980D01*
G01X14472Y18980D02*
G01X14472Y19298D01*
G01X14518Y19435D01*
G01X14609Y19526D01*
G01X14700Y19572D01*
G01X14835Y19618D01*
G01X15064Y19618D01*
G01X15201Y19572D01*
G01X15290Y19526D01*
G01X15381Y19435D01*
G01X15427Y19298D01*
G01X15427Y18980D01*
G01X14655Y19918D02*
G01X14609Y20006D01*
G01X14472Y20144D01*
G01X15427Y20144D01*
G01X14472Y20898D02*
G01X15109Y20443D01*
G01X15109Y21127D01*
G01X14472Y20898D02*
G01X15427Y20898D01*
G01X1619Y16415D02*
G01X2574Y16415D01*
G01X1619Y16415D02*
G01X1619Y17007D01*
G01X2074Y16415D02*
G01X2074Y16778D01*
G01X2574Y16415D02*
G01X2574Y17007D01*
G01X1619Y17306D02*
G01X2574Y17306D01*
G01X1619Y17306D02*
G01X2574Y17941D01*
G01X1619Y17941D02*
G01X2574Y17941D01*
G01X1594Y40799D02*
G01X2549Y40799D01*
G01X1594Y40799D02*
G01X1594Y41208D01*
G01X1640Y41345D01*
G01X1685Y41391D01*
G01X1777Y41436D01*
G01X1868Y41436D01*
G01X1957Y41391D01*
G01X2003Y41345D01*
G01X2049Y41208D01*
G01X2049Y40799D02*
G01X2049Y41208D01*
G01X2094Y41345D01*
G01X2140Y41391D01*
G01X2232Y41436D01*
G01X2369Y41436D01*
G01X2458Y41391D01*
G01X2503Y41345D01*
G01X2549Y41208D01*
G01X2549Y40799D01*
G01X1594Y42008D02*
G01X1640Y41917D01*
G01X1731Y41825D01*
G01X1823Y41782D01*
G01X1957Y41736D01*
G01X2186Y41736D01*
G01X2323Y41782D01*
G01X2412Y41825D01*
G01X2503Y41917D01*
G01X2549Y42008D01*
G01X2549Y42191D01*
G01X2503Y42280D01*
G01X2412Y42371D01*
G01X2323Y42417D01*
G01X2186Y42463D01*
G01X1957Y42463D01*
G01X1823Y42417D01*
G01X1731Y42371D01*
G01X1640Y42280D01*
G01X1594Y42191D01*
G01X1594Y42008D01*
G01X1594Y43034D02*
G01X1640Y42945D01*
G01X1731Y42854D01*
G01X1823Y42808D01*
G01X1957Y42762D01*
G01X2186Y42762D01*
G01X2323Y42808D01*
G01X2412Y42854D01*
G01X2503Y42945D01*
G01X2549Y43034D01*
G01X2549Y43217D01*
G01X2503Y43308D01*
G01X2412Y43400D01*
G01X2323Y43446D01*
G01X2186Y43489D01*
G01X1957Y43489D01*
G01X1823Y43446D01*
G01X1731Y43400D01*
G01X1640Y43308D01*
G01X1594Y43217D01*
G01X1594Y43034D01*
G01X1594Y44109D02*
G01X2549Y44109D01*
G01X1594Y43791D02*
G01X1594Y44426D01*
G54D10*
G75*
G01X14416Y9635D02*
G03X14616Y9835I0J200D01*
G01*
G75*
G01X14416Y11715D02*
G02X14616Y11515I0J-200D01*
G01*
G75*
G01X11316Y9635D02*
G02X11116Y9835I0J200D01*
G01*
G75*
G01X11316Y11715D02*
G03X11116Y11515I0J-200D01*
G01*
G75*
G01X14416Y7603D02*
G03X14616Y7803I0J200D01*
G01*
G75*
G01X14416Y9683D02*
G02X14616Y9483I0J-200D01*
G01*
G75*
G01X11316Y7603D02*
G02X11116Y7803I0J200D01*
G01*
G75*
G01X11316Y9683D02*
G03X11116Y9483I0J-200D01*
G01*
G54D60*
G75*
G01X37539Y3779D02*
G03X37689Y3629I150J0D01*
G01*
G75*
G01X38739Y3779D02*
G02X38589Y3629I-150J0D01*
G01*
G75*
G01X37539Y5379D02*
G02X37689Y5529I150J0D01*
G01*
G75*
G01X38739Y5379D02*
G03X38589Y5529I-150J0D01*
G01*
G75*
G01X47191Y9748D02*
G03X47341Y9598I150J0D01*
G01*
G75*
G01X48391Y9748D02*
G02X48241Y9598I-150J0D01*
G01*
G75*
G01X47191Y11348D02*
G02X47341Y11498I150J0D01*
G01*
G75*
G01X48391Y11348D02*
G03X48241Y11498I-150J0D01*
G01*
G75*
G01X28014Y3652D02*
G03X28164Y3502I150J0D01*
G01*
G75*
G01X29214Y3652D02*
G02X29064Y3502I-150J0D01*
G01*
G75*
G01X28014Y5252D02*
G02X28164Y5402I150J0D01*
G01*
G75*
G01X29214Y5252D02*
G03X29064Y5402I-150J0D01*
G01*
G54D10*
G75*
G01X49021Y28598D02*
G02X48821Y28398I-200J0D01*
G01*
G75*
G01X49021Y30598D02*
G03X48821Y30798I-200J0D01*
G01*
G75*
G01X44021Y28598D02*
G03X44221Y28398I200J0D01*
G01*
G75*
G01X44021Y30598D02*
G02X44221Y30798I200J0D01*
G01*
G75*
G01X45902Y34337D02*
G02X45702Y34537I0J200D01*
G01*
G75*
G01X47902Y34337D02*
G03X48102Y34537I0J200D01*
G01*
G75*
G01X45902Y39337D02*
G03X45702Y39137I0J-200D01*
G01*
G75*
G01X47902Y39337D02*
G02X48102Y39137I0J-200D01*
G01*
G54D65*
G75*
G01X26436Y27274D02*
G03X26434Y27274I-1J10D01*
G01*
G54D60*
G75*
G01X30808Y23210D02*
G03X30958Y23060I150J0D01*
G01*
G75*
G01X32008Y23210D02*
G02X31858Y23060I-150J0D01*
G01*
G75*
G01X30808Y24810D02*
G02X30958Y24960I150J0D01*
G01*
G75*
G01X32008Y24810D02*
G03X31858Y24960I-150J0D01*
G01*
G75*
G01X30935Y21178D02*
G03X31085Y21028I150J0D01*
G01*
G75*
G01X32135Y21178D02*
G02X31985Y21028I-150J0D01*
G01*
G75*
G01X30935Y22778D02*
G02X31085Y22928I150J0D01*
G01*
G75*
G01X32135Y22778D02*
G03X31985Y22928I-150J0D01*
G01*
G75*
G01X32262Y20746D02*
G03X32112Y20896I-150J0D01*
G01*
G75*
G01X31062Y20746D02*
G02X31212Y20896I150J0D01*
G01*
G75*
G01X32262Y19146D02*
G02X32112Y18996I-150J0D01*
G01*
G75*
G01X31062Y19146D02*
G03X31212Y18996I150J0D01*
G01*
G75*
G01X38936Y36291D02*
G03X39086Y36141I150J0D01*
G01*
G75*
G01X40136Y36291D02*
G02X39986Y36141I-150J0D01*
G01*
G75*
G01X38936Y37891D02*
G02X39086Y38041I150J0D01*
G01*
G75*
G01X40136Y37891D02*
G03X39986Y38041I-150J0D01*
G01*
G75*
G01X36577Y37818D02*
G03X36427Y37668I0J-150D01*
G01*
G75*
G01X36577Y36618D02*
G02X36427Y36768I0J150D01*
G01*
G75*
G01X38177Y37818D02*
G02X38327Y37668I0J-150D01*
G01*
G75*
G01X38177Y36618D02*
G03X38327Y36768I0J150D01*
G01*
G75*
G01X43638Y29633D02*
G03X43788Y29783I0J150D01*
G01*
G75*
G01X43638Y30833D02*
G02X43788Y30683I0J-150D01*
G01*
G75*
G01X42038Y29633D02*
G02X41888Y29783I0J150D01*
G01*
G75*
G01X42038Y30833D02*
G03X41888Y30683I0J-150D01*
G01*
G75*
G01X28776Y27401D02*
G03X28926Y27251I150J0D01*
G01*
G75*
G01X29976Y27401D02*
G02X29826Y27251I-150J0D01*
G01*
G75*
G01X28776Y29001D02*
G02X28926Y29151I150J0D01*
G01*
G75*
G01X29976Y29001D02*
G03X29826Y29151I-150J0D01*
G01*
G75*
G01X27506Y23718D02*
G03X27656Y23568I150J0D01*
G01*
G75*
G01X28706Y23718D02*
G02X28556Y23568I-150J0D01*
G01*
G75*
G01X27506Y25318D02*
G02X27656Y25468I150J0D01*
G01*
G75*
G01X28706Y25318D02*
G03X28556Y25468I-150J0D01*
G01*
G54D10*
G75*
G01X47536Y31411D02*
G02X47336Y31211I-200J0D01*
G01*
G75*
G01X47536Y32611D02*
G03X47336Y32811I-200J0D01*
G01*
G75*
G01X44236Y31411D02*
G03X44436Y31211I200J0D01*
G01*
G75*
G01X44236Y32611D02*
G02X44436Y32811I200J0D01*
G01*
G75*
G01X41569Y36167D02*
G02X41769Y36367I200J0D01*
G01*
G75*
G01X41569Y34967D02*
G03X41769Y34767I200J0D01*
G01*
G75*
G01X44869Y36167D02*
G03X44669Y36367I-200J0D01*
G01*
G75*
G01X44869Y34967D02*
G02X44669Y34767I-200J0D01*
G01*
G75*
G01X31779Y10153D02*
G03X31779Y10153I-100J0D01*
G01*
G75*
G01X22094Y10081D02*
G03X22094Y10081I-100J0D01*
G01*
G75*
G01X23777Y5681D02*
G03X23777Y5681I-100J0D01*
G01*
G75*
G01X33589Y5753D02*
G03X33589Y5753I-100J0D01*
G01*
G75*
G01X43208Y5808D02*
G03X43208Y5808I-100J0D01*
G01*
G75*
G01X41398Y10208D02*
G03X41398Y10208I-100J0D01*
G01*
G75*
G01X35887Y35711D02*
G03X35887Y35711I-229J0D01*
G01*
G54D19*
G75*
G01X28935Y25534D02*
G03X28935Y25534I-3750J0D01*
G01*
G75*
G01X4941Y3182D02*
G03X4941Y3182I-1727J0D01*
G01*
G75*
G01X49518Y3182D02*
G03X49518Y3182I-1727J0D01*
G01*
G75*
G01X49518Y47759D02*
G03X49518Y47759I-1727J0D01*
G01*
G75*
G01X4941Y47759D02*
G03X4941Y47759I-1727J0D01*
G01*
G54D58*
G75*
G01X44341Y22613D02*
G03X44341Y22613I-741J0D01*
G01*
G54D64*
G75*
G01X3416Y10547D02*
G03X3416Y10547I-75J0D01*
G01*
G75*
G01X45580Y42424D02*
G03X45580Y42424I-75J0D01*
G01*
G54D12*
G75*
G01X14748Y48648D02*
G03X14748Y48648I-4000J0D01*
G01*
G75*
G01X44248Y48648D02*
G03X44248Y48648I-4000J0D01*
G01*
M00*
M02*
