G04 Layer: TopPasteMaskLayer*
G04 EasyEDA v6.4.3, 2020-08-11T17:18:08--5:00*
G04 523c64261a8a49868803854cdfc33515,7c1e8d740ba24e6f83eb2d53d3341807,10*
G04 Gerber Generator version 0.2*
G04 Scale: 100 percent, Rotated: No, Reflected: No *
G04 Dimensions in millimeters *
G04 leading zeros omitted , absolute positions ,3 integer and 3 decimal *
%FSLAX33Y33*%
%MOMM*%
G90*
G71D02*

%ADD22C,0.280010*%
%ADD28R,0.999998X1.550010*%
%ADD29R,1.599997X3.299993*%
%ADD30R,0.499999X0.499999*%
%ADD31R,0.799998X0.499999*%
%ADD33R,0.499999X0.799998*%
%ADD34R,1.092200X0.990600*%
%ADD35R,1.199998X1.899996*%
%ADD36R,1.899996X1.199998*%
%ADD37R,0.499999X0.700024*%
%ADD38R,2.480005X1.799996*%
%ADD39R,1.250010X0.699999*%
%ADD40R,1.599997X1.599997*%
%ADD41R,1.099998X0.999998*%
%ADD42R,0.999998X1.099998*%

%LPD*%
G54D22*
G01X26844Y26283D02*
G01X26324Y26283D01*
G01X26844Y25782D02*
G01X26324Y25782D01*
G01X26844Y25285D02*
G01X26324Y25285D01*
G01X26844Y24784D02*
G01X26324Y24784D01*
G01X25934Y24394D02*
G01X25934Y23874D01*
G01X25433Y24394D02*
G01X25433Y23874D01*
G01X24936Y24394D02*
G01X24936Y23874D01*
G01X24435Y24394D02*
G01X24435Y23874D01*
G01X24045Y24784D02*
G01X23525Y24784D01*
G01X24045Y25285D02*
G01X23525Y25285D01*
G01X24045Y25782D02*
G01X23525Y25782D01*
G01X24045Y26283D02*
G01X23525Y26283D01*
G01X24435Y27193D02*
G01X24435Y26673D01*
G01X24936Y27193D02*
G01X24936Y26673D01*
G01X25433Y27193D02*
G01X25433Y26673D01*
G01X25934Y27193D02*
G01X25934Y26673D01*
G54D28*
G01X13865Y10674D03*
G01X11865Y10674D03*
G01X13865Y8642D03*
G01X11865Y8642D03*
G54D29*
G01X39080Y13849D03*
G01X45579Y13849D03*
G54D30*
G01X44869Y13849D03*
G01X39789Y13849D03*
G54D29*
G01X18760Y13849D03*
G01X25259Y13849D03*
G54D30*
G01X24549Y13849D03*
G01X19469Y13849D03*
G36*
G01X34873Y15500D02*
G01X36473Y15500D01*
G01X36473Y12200D01*
G01X34873Y12200D01*
G01X34873Y15500D01*
G37*
G36*
G01X28373Y15500D02*
G01X29973Y15500D01*
G01X29973Y12200D01*
G01X28373Y12200D01*
G01X28373Y15500D01*
G37*
G36*
G01X29633Y14100D02*
G01X30134Y14100D01*
G01X30134Y13599D01*
G01X29633Y13599D01*
G01X29633Y14100D01*
G37*
G36*
G01X34713Y14100D02*
G01X35214Y14100D01*
G01X35214Y13599D01*
G01X34713Y13599D01*
G01X34713Y14100D01*
G37*
G54D31*
G01X7404Y35956D03*
G01X7404Y36956D03*
G36*
G01X5043Y29282D02*
G01X6043Y29282D01*
G01X6043Y27882D01*
G01X5043Y27882D01*
G01X5043Y29282D01*
G37*
G36*
G01X7243Y29282D02*
G01X8243Y29282D01*
G01X8243Y27882D01*
G01X7243Y27882D01*
G01X7243Y29282D01*
G37*
G54D33*
G01X7920Y26295D03*
G01X8920Y26295D03*
G54D34*
G01X5284Y34169D03*
G01X6985Y34169D03*
G54D31*
G01X38138Y4079D03*
G01X38138Y5079D03*
G01X47790Y10048D03*
G01X47790Y11048D03*
G01X28613Y3952D03*
G01X28613Y4952D03*
G54D35*
G01X48120Y29597D03*
G01X44920Y29597D03*
G54D36*
G01X46901Y35237D03*
G01X46901Y38437D03*
G54D37*
G01X31668Y9438D03*
G01X31008Y9438D03*
G01X30348Y9438D03*
G01X29688Y9438D03*
G01X29688Y6468D03*
G01X30348Y6468D03*
G01X31008Y6468D03*
G01X31668Y6468D03*
G54D38*
G01X30678Y7668D03*
G54D37*
G01X21984Y9366D03*
G01X21323Y9366D03*
G01X20664Y9366D03*
G01X20004Y9366D03*
G01X20003Y6396D03*
G01X20664Y6396D03*
G01X21323Y6396D03*
G01X21984Y6396D03*
G54D38*
G01X20993Y7595D03*
G54D28*
G01X42218Y37725D03*
G01X44218Y37725D03*
G54D39*
G01X13648Y14799D03*
G01X13648Y12899D03*
G01X16147Y13849D03*
G54D37*
G01X23686Y6396D03*
G01X24347Y6396D03*
G01X25006Y6396D03*
G01X25666Y6396D03*
G01X25667Y9366D03*
G01X25006Y9366D03*
G01X24347Y9366D03*
G01X23686Y9366D03*
G54D38*
G01X24676Y8165D03*
G54D37*
G01X33498Y6468D03*
G01X34158Y6468D03*
G01X34818Y6468D03*
G01X35478Y6468D03*
G01X35478Y9438D03*
G01X34818Y9438D03*
G01X34158Y9438D03*
G01X33498Y9438D03*
G54D38*
G01X34488Y8238D03*
G54D37*
G01X43117Y6523D03*
G01X43778Y6523D03*
G01X44437Y6523D03*
G01X45097Y6523D03*
G01X45098Y9493D03*
G01X44437Y9493D03*
G01X43778Y9493D03*
G01X43117Y9493D03*
G54D38*
G01X44107Y8292D03*
G54D37*
G01X41288Y9493D03*
G01X40627Y9493D03*
G01X39968Y9493D03*
G01X39308Y9493D03*
G01X39307Y6523D03*
G01X39968Y6523D03*
G01X40627Y6523D03*
G01X41288Y6523D03*
G54D38*
G01X40297Y7722D03*
G54D40*
G01X25184Y25533D03*
G54D31*
G01X31407Y23510D03*
G01X31407Y24510D03*
G01X31534Y21478D03*
G01X31534Y22478D03*
G01X31661Y20445D03*
G01X31661Y19445D03*
G54D41*
G01X10071Y30144D03*
G01X10071Y28544D03*
G36*
G01X26501Y34085D02*
G01X27501Y34085D01*
G01X27501Y32984D01*
G01X26501Y32984D01*
G01X26501Y34085D01*
G37*
G36*
G01X24901Y34085D02*
G01X25901Y34085D01*
G01X25901Y32984D01*
G01X24901Y32984D01*
G01X24901Y34085D01*
G37*
G54D31*
G01X39535Y36591D03*
G01X39535Y37591D03*
G36*
G01X36627Y37617D02*
G01X37127Y37617D01*
G01X37127Y36817D01*
G01X36627Y36817D01*
G01X36627Y37617D01*
G37*
G36*
G01X37627Y37617D02*
G01X38127Y37617D01*
G01X38127Y36817D01*
G01X37627Y36817D01*
G01X37627Y37617D01*
G37*
G54D33*
G01X43337Y30232D03*
G01X42337Y30232D03*
G54D31*
G01X29375Y27701D03*
G01X29375Y28701D03*
G01X28105Y24018D03*
G01X28105Y25018D03*
G54D42*
G01X46785Y32010D03*
G01X44985Y32010D03*
G36*
G01X41819Y36117D02*
G01X42819Y36117D01*
G01X42819Y35016D01*
G01X41819Y35016D01*
G01X41819Y36117D01*
G37*
G36*
G01X43619Y36117D02*
G01X44619Y36117D01*
G01X44619Y35016D01*
G01X43619Y35016D01*
G01X43619Y36117D01*
G37*
G36*
G01X35363Y35045D02*
G01X35184Y34865D01*
G01X34375Y35673D01*
G01X34555Y35853D01*
G01X35363Y35045D01*
G37*
G36*
G01X35010Y34691D02*
G01X34830Y34512D01*
G01X34022Y35320D01*
G01X34201Y35499D01*
G01X35010Y34691D01*
G37*
G36*
G01X34656Y34338D02*
G01X34476Y34158D01*
G01X33668Y34966D01*
G01X33848Y35146D01*
G01X34656Y34338D01*
G37*
G36*
G01X34302Y33984D02*
G01X34123Y33804D01*
G01X33315Y34613D01*
G01X33494Y34792D01*
G01X34302Y33984D01*
G37*
G36*
G01X33949Y33631D02*
G01X33769Y33451D01*
G01X32961Y34259D01*
G01X33141Y34439D01*
G01X33949Y33631D01*
G37*
G36*
G01X33595Y33277D02*
G01X33416Y33097D01*
G01X32608Y33906D01*
G01X32787Y34085D01*
G01X33595Y33277D01*
G37*
G36*
G01X33242Y32923D02*
G01X33062Y32744D01*
G01X32254Y33552D01*
G01X32434Y33732D01*
G01X33242Y32923D01*
G37*
G36*
G01X32888Y32570D02*
G01X32709Y32390D01*
G01X31900Y33198D01*
G01X32080Y33378D01*
G01X32888Y32570D01*
G37*
G36*
G01X32535Y32216D02*
G01X32355Y32037D01*
G01X31547Y32845D01*
G01X31726Y33025D01*
G01X32535Y32216D01*
G37*
G36*
G01X32181Y31863D02*
G01X32002Y31683D01*
G01X31193Y32491D01*
G01X31373Y32671D01*
G01X32181Y31863D01*
G37*
G36*
G01X31828Y31509D02*
G01X31648Y31330D01*
G01X30840Y32138D01*
G01X31019Y32317D01*
G01X31828Y31509D01*
G37*
G36*
G01X31474Y31156D02*
G01X31294Y30976D01*
G01X30486Y31784D01*
G01X30666Y31964D01*
G01X31474Y31156D01*
G37*
G36*
G01X31474Y29309D02*
G01X30666Y28501D01*
G01X30486Y28681D01*
G01X31294Y29489D01*
G01X31474Y29309D01*
G37*
G36*
G01X31828Y28956D02*
G01X31019Y28148D01*
G01X30840Y28327D01*
G01X31648Y29135D01*
G01X31828Y28956D01*
G37*
G36*
G01X32181Y28602D02*
G01X31373Y27794D01*
G01X31193Y27974D01*
G01X32002Y28782D01*
G01X32181Y28602D01*
G37*
G36*
G01X32535Y28249D02*
G01X31726Y27440D01*
G01X31547Y27620D01*
G01X32355Y28428D01*
G01X32535Y28249D01*
G37*
G36*
G01X32888Y27895D02*
G01X32080Y27087D01*
G01X31900Y27267D01*
G01X32709Y28075D01*
G01X32888Y27895D01*
G37*
G36*
G01X33242Y27542D02*
G01X32434Y26733D01*
G01X32254Y26913D01*
G01X33062Y27721D01*
G01X33242Y27542D01*
G37*
G36*
G01X33595Y27188D02*
G01X32787Y26380D01*
G01X32608Y26559D01*
G01X33416Y27368D01*
G01X33595Y27188D01*
G37*
G36*
G01X33949Y26834D02*
G01X33141Y26026D01*
G01X32961Y26206D01*
G01X33769Y27014D01*
G01X33949Y26834D01*
G37*
G36*
G01X34302Y26481D02*
G01X33494Y25673D01*
G01X33315Y25852D01*
G01X34123Y26661D01*
G01X34302Y26481D01*
G37*
G36*
G01X34656Y26127D02*
G01X33848Y25319D01*
G01X33668Y25499D01*
G01X34476Y26307D01*
G01X34656Y26127D01*
G37*
G36*
G01X35010Y25774D02*
G01X34201Y24966D01*
G01X34022Y25145D01*
G01X34830Y25953D01*
G01X35010Y25774D01*
G37*
G36*
G01X35363Y25420D02*
G01X34555Y24612D01*
G01X34375Y24792D01*
G01X35184Y25600D01*
G01X35363Y25420D01*
G37*
G36*
G01X37838Y24792D02*
G01X37658Y24612D01*
G01X36850Y25420D01*
G01X37030Y25600D01*
G01X37838Y24792D01*
G37*
G36*
G01X38192Y25145D02*
G01X38012Y24966D01*
G01X37204Y25774D01*
G01X37383Y25953D01*
G01X38192Y25145D01*
G37*
G36*
G01X38545Y25499D02*
G01X38365Y25319D01*
G01X37557Y26127D01*
G01X37737Y26307D01*
G01X38545Y25499D01*
G37*
G36*
G01X38899Y25852D02*
G01X38719Y25673D01*
G01X37911Y26481D01*
G01X38090Y26661D01*
G01X38899Y25852D01*
G37*
G36*
G01X39252Y26206D02*
G01X39073Y26026D01*
G01X38264Y26835D01*
G01X38444Y27014D01*
G01X39252Y26206D01*
G37*
G36*
G01X39606Y26559D02*
G01X39426Y26380D01*
G01X38618Y27188D01*
G01X38798Y27368D01*
G01X39606Y26559D01*
G37*
G36*
G01X39959Y26913D02*
G01X39780Y26733D01*
G01X38972Y27542D01*
G01X39151Y27721D01*
G01X39959Y26913D01*
G37*
G36*
G01X40313Y27267D02*
G01X40133Y27087D01*
G01X39325Y27895D01*
G01X39505Y28075D01*
G01X40313Y27267D01*
G37*
G36*
G01X40666Y27620D02*
G01X40487Y27441D01*
G01X39679Y28249D01*
G01X39858Y28428D01*
G01X40666Y27620D01*
G37*
G36*
G01X41020Y27974D02*
G01X40840Y27794D01*
G01X40032Y28602D01*
G01X40212Y28782D01*
G01X41020Y27974D01*
G37*
G36*
G01X41374Y28327D02*
G01X41194Y28148D01*
G01X40386Y28956D01*
G01X40565Y29135D01*
G01X41374Y28327D01*
G37*
G36*
G01X41727Y28681D02*
G01X41547Y28501D01*
G01X40739Y29309D01*
G01X40919Y29489D01*
G01X41727Y28681D01*
G37*
G36*
G01X41743Y31768D02*
G01X40935Y30960D01*
G01X40723Y31172D01*
G01X41531Y31980D01*
G01X41743Y31768D01*
G37*
G36*
G01X41374Y32138D02*
G01X40565Y31330D01*
G01X40386Y31509D01*
G01X41194Y32317D01*
G01X41374Y32138D01*
G37*
G36*
G01X41020Y32491D02*
G01X40212Y31683D01*
G01X40032Y31863D01*
G01X40840Y32671D01*
G01X41020Y32491D01*
G37*
G36*
G01X40666Y32845D02*
G01X39858Y32037D01*
G01X39679Y32216D01*
G01X40487Y33024D01*
G01X40666Y32845D01*
G37*
G36*
G01X40313Y33198D02*
G01X39505Y32390D01*
G01X39325Y32570D01*
G01X40133Y33378D01*
G01X40313Y33198D01*
G37*
G36*
G01X39959Y33552D02*
G01X39151Y32744D01*
G01X38972Y32923D01*
G01X39780Y33732D01*
G01X39959Y33552D01*
G37*
G36*
G01X39606Y33906D02*
G01X38798Y33097D01*
G01X38618Y33277D01*
G01X39426Y34085D01*
G01X39606Y33906D01*
G37*
G36*
G01X39252Y34259D02*
G01X38444Y33451D01*
G01X38264Y33630D01*
G01X39073Y34439D01*
G01X39252Y34259D01*
G37*
G36*
G01X38899Y34613D02*
G01X38090Y33804D01*
G01X37911Y33984D01*
G01X38719Y34792D01*
G01X38899Y34613D01*
G37*
G36*
G01X38545Y34966D02*
G01X37737Y34158D01*
G01X37557Y34338D01*
G01X38365Y35146D01*
G01X38545Y34966D01*
G37*
G36*
G01X38192Y35320D02*
G01X37383Y34512D01*
G01X37204Y34691D01*
G01X38012Y35499D01*
G01X38192Y35320D01*
G37*
G36*
G01X37838Y35673D02*
G01X37030Y34865D01*
G01X36850Y35045D01*
G01X37658Y35853D01*
G01X37838Y35673D01*
G37*
G36*
G01X38723Y30233D02*
G01X36107Y27616D01*
G01X33490Y30233D01*
G01X36107Y32849D01*
G01X38723Y30233D01*
G37*
M00*
M02*
