G04 Layer: BottomSilkLayer*
G04 EasyEDA v6.4.3, 2020-08-11T17:18:08--5:00*
G04 523c64261a8a49868803854cdfc33515,7c1e8d740ba24e6f83eb2d53d3341807,10*
G04 Gerber Generator version 0.2*
G04 Scale: 100 percent, Rotated: No, Reflected: No *
G04 Dimensions in millimeters *
G04 leading zeros omitted , absolute positions ,3 integer and 3 decimal *
%FSLAX33Y33*%
%MOMM*%
G90*
G71D02*

%ADD10C,0.254000*%
%ADD12C,0.299999*%
%ADD15C,0.999998*%
%ADD16C,0.499999*%
%ADD18C,0.750011*%
%ADD19C,0.350012*%
%ADD58C,0.250012*%
%ADD59C,0.200000*%
%ADD60C,0.150012*%
%ADD63C,0.203200*%
%ADD66C,0.152400*%
%ADD67C,0.202999*%

%LPD*%
G54D58*
G01X25946Y33789D02*
G01X28105Y33789D01*
G01X25184Y30868D01*
G01X24296Y33787D02*
G01X22137Y33787D01*
G01X22264Y33660D01*
G01X25185Y30866D01*
G54D10*
G01X49378Y15056D02*
G01X50013Y15056D01*
G01X50013Y14421D01*
G01X49378Y14421D01*
G01X49378Y15056D01*
G01X47663Y10421D02*
G01X46647Y9405D01*
G01X48171Y11818D02*
G01X48806Y11818D01*
G01X48806Y11183D01*
G01X48171Y11183D01*
G01X48171Y11818D01*
G54D16*
G01X3051Y44128D02*
G01X3086Y44092D01*
G01X3086Y41283D01*
G01X41948Y41283D01*
G01X42014Y41349D01*
G01X42014Y44128D01*
G01X3086Y18550D02*
G01X41567Y18550D01*
G01X41595Y18519D01*
G01X41595Y15629D01*
G01X3086Y18550D02*
G01X3079Y15629D01*
G01X1105Y44126D02*
G01X1105Y15628D01*
G01X47270Y15628D02*
G01X1105Y15628D01*
G01X47270Y15628D02*
G01X47270Y44126D01*
G01X1105Y44126D02*
G01X47270Y44126D01*
G54D63*
G01X10452Y4833D02*
G01X7912Y4833D01*
G01X7912Y2293D01*
G01X10452Y2293D01*
G01X10452Y4198D01*
G54D67*
G01X10452Y4833D02*
G01X10452Y4198D01*
G54D63*
G01X13627Y2293D02*
G01X16167Y2293D01*
G01X16167Y4833D01*
G01X13627Y4833D01*
G01X13627Y2928D01*
G54D67*
G01X13627Y2293D02*
G01X13627Y2928D01*
G01X34709Y46617D02*
G01X31534Y46617D01*
G54D63*
G01X34709Y46617D02*
G01X34709Y49157D01*
G01X29629Y49157D01*
G01X29629Y46617D01*
G01X31534Y46617D01*
G54D10*
G01X7890Y47911D02*
G01X7890Y46565D01*
G01X8525Y47225D02*
G01X7280Y47225D01*
G01X43114Y49384D02*
G01X43114Y50730D01*
G01X42479Y50070D02*
G01X43724Y50070D01*
G54D67*
G01X29629Y46616D02*
G01X18834Y46616D01*
G54D63*
G01X18834Y46616D02*
G01X16929Y46616D01*
G01X16929Y49156D01*
G01X29629Y49156D01*
G01X29629Y46616D01*
G54D67*
G01X49187Y45346D02*
G01X49187Y42171D01*
G54D63*
G01X49187Y45346D02*
G01X46647Y45346D01*
G01X46647Y40266D01*
G01X49187Y40266D01*
G01X49187Y42171D01*
G01X9817Y9532D02*
G01X9817Y12072D01*
G01X4737Y12072D01*
G01X4737Y9532D01*
G01X6642Y9532D01*
G54D67*
G01X9817Y9532D02*
G01X6642Y9532D01*
G54D60*
G01X1105Y15628D02*
G01X1105Y44126D01*
G01X47270Y44126D01*
G01X47270Y15628D01*
G01X1105Y15628D01*
G54D10*
G01X3016Y20984D02*
G01X3016Y23784D01*
G01X6916Y23784D01*
G01X6916Y20984D01*
G01X3016Y20984D01*
G01X2946Y36627D02*
G01X2946Y39427D01*
G01X6846Y39427D01*
G01X6846Y36627D01*
G01X2946Y36627D01*
G54D63*
G01X17828Y4795D02*
G01X17755Y4831D01*
G01X17683Y4904D01*
G01X17646Y4977D01*
G01X17646Y5122D01*
G01X17683Y5195D01*
G01X17755Y5268D01*
G01X17828Y5304D01*
G01X17937Y5341D01*
G01X18119Y5341D01*
G01X18228Y5304D01*
G01X18301Y5268D01*
G01X18373Y5195D01*
G01X18410Y5122D01*
G01X18410Y4977D01*
G01X18373Y4904D01*
G01X18301Y4831D01*
G01X18228Y4795D01*
G01X18119Y4795D01*
G01X18119Y4977D02*
G01X18119Y4795D01*
G01X17646Y4555D02*
G01X18410Y4555D01*
G01X17646Y4555D02*
G01X18410Y4046D01*
G01X17646Y4046D02*
G01X18410Y4046D01*
G01X17646Y3806D02*
G01X18410Y3806D01*
G01X17646Y3806D02*
G01X17646Y3551D01*
G01X17683Y3442D01*
G01X17755Y3370D01*
G01X17828Y3333D01*
G01X17937Y3297D01*
G01X18119Y3297D01*
G01X18228Y3333D01*
G01X18301Y3370D01*
G01X18373Y3442D01*
G01X18410Y3551D01*
G01X18410Y3806D01*
G01X7023Y7164D02*
G01X7023Y6400D01*
G01X7023Y7164D02*
G01X6696Y7164D01*
G01X6587Y7127D01*
G01X6551Y7091D01*
G01X6514Y7018D01*
G01X6514Y6909D01*
G01X6551Y6837D01*
G01X6587Y6800D01*
G01X6696Y6764D01*
G01X7023Y6764D01*
G01X6274Y7164D02*
G01X5983Y6400D01*
G01X5693Y7164D02*
G01X5983Y6400D01*
G01X5453Y7164D02*
G01X5453Y6400D01*
G01X5453Y7164D02*
G01X5198Y7164D01*
G01X5089Y7127D01*
G01X5016Y7055D01*
G01X4980Y6982D01*
G01X4943Y6873D01*
G01X4943Y6691D01*
G01X4980Y6582D01*
G01X5016Y6509D01*
G01X5089Y6437D01*
G01X5198Y6400D01*
G01X5453Y6400D01*
G01X4703Y7164D02*
G01X4703Y6400D01*
G01X4703Y7164D02*
G01X4449Y7164D01*
G01X4340Y7127D01*
G01X4267Y7055D01*
G01X4231Y6982D01*
G01X4194Y6873D01*
G01X4194Y6691D01*
G01X4231Y6582D01*
G01X4267Y6509D01*
G01X4340Y6437D01*
G01X4449Y6400D01*
G01X4703Y6400D01*
G01X16167Y13641D02*
G01X16131Y13604D01*
G01X16095Y13641D01*
G01X16131Y13677D01*
G01X16167Y13641D01*
G01X16131Y13386D02*
G01X16131Y12877D01*
G01X15564Y13641D02*
G01X15637Y13641D01*
G01X15709Y13604D01*
G01X15746Y13495D01*
G01X15746Y12877D01*
G01X15855Y13386D02*
G01X15600Y13386D01*
G01X14764Y13386D02*
G01X14764Y13023D01*
G01X14727Y12914D01*
G01X14655Y12877D01*
G01X14546Y12877D01*
G01X14473Y12914D01*
G01X14364Y13023D01*
G01X14364Y13386D02*
G01X14364Y12877D01*
G01X13724Y13277D02*
G01X13760Y13350D01*
G01X13869Y13386D01*
G01X13978Y13386D01*
G01X14087Y13350D01*
G01X14124Y13277D01*
G01X14087Y13204D01*
G01X14015Y13168D01*
G01X13833Y13132D01*
G01X13760Y13095D01*
G01X13724Y13023D01*
G01X13724Y12986D01*
G01X13760Y12914D01*
G01X13869Y12877D01*
G01X13978Y12877D01*
G01X14087Y12914D01*
G01X14124Y12986D01*
G01X13484Y13641D02*
G01X13447Y13604D01*
G01X13411Y13641D01*
G01X13447Y13677D01*
G01X13484Y13641D01*
G01X13447Y13386D02*
G01X13447Y12877D01*
G01X13171Y13386D02*
G01X13171Y12877D01*
G01X13171Y13241D02*
G01X13062Y13350D01*
G01X12989Y13386D01*
G01X12880Y13386D01*
G01X12808Y13350D01*
G01X12771Y13241D01*
G01X12771Y12877D01*
G01X12095Y13386D02*
G01X12095Y12804D01*
G01X12131Y12695D01*
G01X12167Y12659D01*
G01X12240Y12623D01*
G01X12349Y12623D01*
G01X12422Y12659D01*
G01X12095Y13277D02*
G01X12167Y13350D01*
G01X12240Y13386D01*
G01X12349Y13386D01*
G01X12422Y13350D01*
G01X12495Y13277D01*
G01X12531Y13168D01*
G01X12531Y13095D01*
G01X12495Y12986D01*
G01X12422Y12914D01*
G01X12349Y12877D01*
G01X12240Y12877D01*
G01X12167Y12914D01*
G01X12095Y12986D01*
G01X11295Y13641D02*
G01X11295Y12877D01*
G01X11295Y13641D02*
G01X10822Y13641D01*
G01X11295Y13277D02*
G01X11004Y13277D01*
G01X11295Y12877D02*
G01X10822Y12877D01*
G01X10073Y13532D02*
G01X10146Y13604D01*
G01X10255Y13641D01*
G01X10400Y13641D01*
G01X10509Y13604D01*
G01X10582Y13532D01*
G01X10582Y13459D01*
G01X10546Y13386D01*
G01X10509Y13350D01*
G01X10437Y13314D01*
G01X10218Y13241D01*
G01X10146Y13204D01*
G01X10109Y13168D01*
G01X10073Y13095D01*
G01X10073Y12986D01*
G01X10146Y12914D01*
G01X10255Y12877D01*
G01X10400Y12877D01*
G01X10509Y12914D01*
G01X10582Y12986D01*
G01X9833Y13641D02*
G01X9833Y12877D01*
G01X9833Y13641D02*
G01X9506Y13641D01*
G01X9397Y13604D01*
G01X9360Y13568D01*
G01X9324Y13495D01*
G01X9324Y13386D01*
G01X9360Y13314D01*
G01X9397Y13277D01*
G01X9506Y13241D01*
G01X9833Y13241D01*
G01X9011Y13641D02*
G01X8611Y13641D01*
G01X8829Y13350D01*
G01X8720Y13350D01*
G01X8647Y13314D01*
G01X8611Y13277D01*
G01X8575Y13168D01*
G01X8575Y13095D01*
G01X8611Y12986D01*
G01X8684Y12914D01*
G01X8793Y12877D01*
G01X8902Y12877D01*
G01X9011Y12914D01*
G01X9047Y12950D01*
G01X9084Y13023D01*
G01X8298Y13459D02*
G01X8298Y13495D01*
G01X8262Y13568D01*
G01X8226Y13604D01*
G01X8153Y13641D01*
G01X8007Y13641D01*
G01X7935Y13604D01*
G01X7898Y13568D01*
G01X7862Y13495D01*
G01X7862Y13423D01*
G01X7898Y13350D01*
G01X7971Y13241D01*
G01X8335Y12877D01*
G01X7826Y12877D01*
G01X7513Y13750D02*
G01X7513Y13532D01*
G01X6946Y13277D02*
G01X6982Y13350D01*
G01X7091Y13386D01*
G01X7200Y13386D01*
G01X7309Y13350D01*
G01X7346Y13277D01*
G01X7309Y13204D01*
G01X7237Y13168D01*
G01X7055Y13132D01*
G01X6982Y13095D01*
G01X6946Y13023D01*
G01X6946Y12986D01*
G01X6982Y12914D01*
G01X7091Y12877D01*
G01X7200Y12877D01*
G01X7309Y12914D01*
G01X7346Y12986D01*
G01X6146Y13641D02*
G01X6146Y13095D01*
G01X6109Y12986D01*
G01X6037Y12914D01*
G01X5927Y12877D01*
G01X5855Y12877D01*
G01X5746Y12914D01*
G01X5673Y12986D01*
G01X5637Y13095D01*
G01X5637Y13641D01*
G01X4888Y13532D02*
G01X4960Y13604D01*
G01X5069Y13641D01*
G01X5215Y13641D01*
G01X5324Y13604D01*
G01X5397Y13532D01*
G01X5397Y13459D01*
G01X5360Y13386D01*
G01X5324Y13350D01*
G01X5251Y13314D01*
G01X5033Y13241D01*
G01X4960Y13204D01*
G01X4924Y13168D01*
G01X4888Y13095D01*
G01X4888Y12986D01*
G01X4960Y12914D01*
G01X5069Y12877D01*
G01X5215Y12877D01*
G01X5324Y12914D01*
G01X5397Y12986D01*
G01X4647Y13641D02*
G01X4647Y12877D01*
G01X4647Y13641D02*
G01X4320Y13641D01*
G01X4211Y13604D01*
G01X4175Y13568D01*
G01X4138Y13495D01*
G01X4138Y13423D01*
G01X4175Y13350D01*
G01X4211Y13314D01*
G01X4320Y13277D01*
G01X4647Y13277D02*
G01X4320Y13277D01*
G01X4211Y13241D01*
G01X4175Y13204D01*
G01X4138Y13132D01*
G01X4138Y13023D01*
G01X4175Y12950D01*
G01X4211Y12914D01*
G01X4320Y12877D01*
G01X4647Y12877D01*
G01X3338Y13386D02*
G01X3338Y12623D01*
G01X3338Y13277D02*
G01X3266Y13350D01*
G01X3193Y13386D01*
G01X3084Y13386D01*
G01X3011Y13350D01*
G01X2938Y13277D01*
G01X2902Y13168D01*
G01X2902Y13095D01*
G01X2938Y12986D01*
G01X3011Y12914D01*
G01X3084Y12877D01*
G01X3193Y12877D01*
G01X3266Y12914D01*
G01X3338Y12986D01*
G01X2480Y13386D02*
G01X2553Y13350D01*
G01X2626Y13277D01*
G01X2662Y13168D01*
G01X2662Y13095D01*
G01X2626Y12986D01*
G01X2553Y12914D01*
G01X2480Y12877D01*
G01X2371Y12877D01*
G01X2298Y12914D01*
G01X2226Y12986D01*
G01X2189Y13095D01*
G01X2189Y13168D01*
G01X2226Y13277D01*
G01X2298Y13350D01*
G01X2371Y13386D01*
G01X2480Y13386D01*
G01X1949Y13386D02*
G01X1949Y12877D01*
G01X1949Y13168D02*
G01X1913Y13277D01*
G01X1840Y13350D01*
G01X1767Y13386D01*
G01X1658Y13386D01*
G01X1309Y13641D02*
G01X1309Y13023D01*
G01X1273Y12914D01*
G01X1200Y12877D01*
G01X1127Y12877D01*
G01X1418Y13386D02*
G01X1164Y13386D01*
G01X14516Y14911D02*
G01X14516Y14147D01*
G01X14516Y14911D02*
G01X14262Y14911D01*
G01X14153Y14874D01*
G01X14080Y14802D01*
G01X14044Y14729D01*
G01X14007Y14620D01*
G01X14007Y14438D01*
G01X14044Y14329D01*
G01X14080Y14256D01*
G01X14153Y14184D01*
G01X14262Y14147D01*
G01X14516Y14147D01*
G01X13586Y14656D02*
G01X13658Y14620D01*
G01X13731Y14547D01*
G01X13767Y14438D01*
G01X13767Y14365D01*
G01X13731Y14256D01*
G01X13658Y14184D01*
G01X13586Y14147D01*
G01X13476Y14147D01*
G01X13404Y14184D01*
G01X13331Y14256D01*
G01X13295Y14365D01*
G01X13295Y14438D01*
G01X13331Y14547D01*
G01X13404Y14620D01*
G01X13476Y14656D01*
G01X13586Y14656D01*
G01X13055Y14656D02*
G01X13055Y14147D01*
G01X13055Y14511D02*
G01X12946Y14620D01*
G01X12873Y14656D01*
G01X12764Y14656D01*
G01X12691Y14620D01*
G01X12655Y14511D01*
G01X12655Y14147D01*
G01X12342Y15020D02*
G01X12342Y14802D01*
G01X12066Y14911D02*
G01X12066Y14293D01*
G01X12029Y14184D01*
G01X11956Y14147D01*
G01X11884Y14147D01*
G01X12175Y14656D02*
G01X11920Y14656D01*
G01X11084Y14911D02*
G01X11084Y14147D01*
G01X10844Y14438D02*
G01X10407Y14438D01*
G01X10407Y14511D01*
G01X10444Y14584D01*
G01X10480Y14620D01*
G01X10553Y14656D01*
G01X10662Y14656D01*
G01X10735Y14620D01*
G01X10807Y14547D01*
G01X10844Y14438D01*
G01X10844Y14365D01*
G01X10807Y14256D01*
G01X10735Y14184D01*
G01X10662Y14147D01*
G01X10553Y14147D01*
G01X10480Y14184D01*
G01X10407Y14256D01*
G01X9731Y14656D02*
G01X9731Y14147D01*
G01X9731Y14547D02*
G01X9804Y14620D01*
G01X9876Y14656D01*
G01X9986Y14656D01*
G01X10058Y14620D01*
G01X10131Y14547D01*
G01X10167Y14438D01*
G01X10167Y14365D01*
G01X10131Y14256D01*
G01X10058Y14184D01*
G01X9986Y14147D01*
G01X9876Y14147D01*
G01X9804Y14184D01*
G01X9731Y14256D01*
G01X9491Y14656D02*
G01X9273Y14147D01*
G01X9055Y14656D02*
G01X9273Y14147D01*
G01X8815Y14438D02*
G01X8378Y14438D01*
G01X8378Y14511D01*
G01X8415Y14584D01*
G01X8451Y14620D01*
G01X8524Y14656D01*
G01X8633Y14656D01*
G01X8706Y14620D01*
G01X8778Y14547D01*
G01X8815Y14438D01*
G01X8815Y14365D01*
G01X8778Y14256D01*
G01X8706Y14184D01*
G01X8633Y14147D01*
G01X8524Y14147D01*
G01X8451Y14184D01*
G01X8378Y14256D01*
G01X7142Y14547D02*
G01X7215Y14620D01*
G01X7287Y14656D01*
G01X7396Y14656D01*
G01X7469Y14620D01*
G01X7542Y14547D01*
G01X7578Y14438D01*
G01X7578Y14365D01*
G01X7542Y14256D01*
G01X7469Y14184D01*
G01X7396Y14147D01*
G01X7287Y14147D01*
G01X7215Y14184D01*
G01X7142Y14256D01*
G01X6720Y14656D02*
G01X6793Y14620D01*
G01X6866Y14547D01*
G01X6902Y14438D01*
G01X6902Y14365D01*
G01X6866Y14256D01*
G01X6793Y14184D01*
G01X6720Y14147D01*
G01X6611Y14147D01*
G01X6538Y14184D01*
G01X6466Y14256D01*
G01X6429Y14365D01*
G01X6429Y14438D01*
G01X6466Y14547D01*
G01X6538Y14620D01*
G01X6611Y14656D01*
G01X6720Y14656D01*
G01X6189Y14656D02*
G01X6189Y14147D01*
G01X6189Y14511D02*
G01X6080Y14620D01*
G01X6007Y14656D01*
G01X5898Y14656D01*
G01X5826Y14620D01*
G01X5789Y14511D01*
G01X5789Y14147D01*
G01X5549Y14656D02*
G01X5549Y14147D01*
G01X5549Y14511D02*
G01X5440Y14620D01*
G01X5367Y14656D01*
G01X5258Y14656D01*
G01X5186Y14620D01*
G01X5149Y14511D01*
G01X5149Y14147D01*
G01X4909Y14438D02*
G01X4473Y14438D01*
G01X4473Y14511D01*
G01X4509Y14584D01*
G01X4546Y14620D01*
G01X4618Y14656D01*
G01X4727Y14656D01*
G01X4800Y14620D01*
G01X4873Y14547D01*
G01X4909Y14438D01*
G01X4909Y14365D01*
G01X4873Y14256D01*
G01X4800Y14184D01*
G01X4727Y14147D01*
G01X4618Y14147D01*
G01X4546Y14184D01*
G01X4473Y14256D01*
G01X3796Y14547D02*
G01X3869Y14620D01*
G01X3942Y14656D01*
G01X4051Y14656D01*
G01X4124Y14620D01*
G01X4196Y14547D01*
G01X4233Y14438D01*
G01X4233Y14365D01*
G01X4196Y14256D01*
G01X4124Y14184D01*
G01X4051Y14147D01*
G01X3942Y14147D01*
G01X3869Y14184D01*
G01X3796Y14256D01*
G01X3447Y14911D02*
G01X3447Y14293D01*
G01X3411Y14184D01*
G01X3338Y14147D01*
G01X3266Y14147D01*
G01X3556Y14656D02*
G01X3302Y14656D01*
G01X3026Y14438D02*
G01X2589Y14438D01*
G01X2589Y14511D01*
G01X2626Y14584D01*
G01X2662Y14620D01*
G01X2735Y14656D01*
G01X2844Y14656D01*
G01X2916Y14620D01*
G01X2989Y14547D01*
G01X3026Y14438D01*
G01X3026Y14365D01*
G01X2989Y14256D01*
G01X2916Y14184D01*
G01X2844Y14147D01*
G01X2735Y14147D01*
G01X2662Y14184D01*
G01X2589Y14256D01*
G01X1913Y14911D02*
G01X1913Y14147D01*
G01X1913Y14547D02*
G01X1986Y14620D01*
G01X2058Y14656D01*
G01X2167Y14656D01*
G01X2240Y14620D01*
G01X2313Y14547D01*
G01X2349Y14438D01*
G01X2349Y14365D01*
G01X2313Y14256D01*
G01X2240Y14184D01*
G01X2167Y14147D01*
G01X2058Y14147D01*
G01X1986Y14184D01*
G01X1913Y14256D01*
G54D12*
G01X38646Y2536D02*
G01X38306Y1104D01*
G01X37965Y2536D02*
G01X38306Y1104D01*
G01X37965Y2536D02*
G01X37624Y1104D01*
G01X37283Y2536D02*
G01X37624Y1104D01*
G01X29248Y2409D02*
G01X28703Y977D01*
G01X28158Y2409D02*
G01X28703Y977D01*
G01X19342Y2409D02*
G01X19342Y1386D01*
G01X19274Y1182D01*
G01X19138Y1046D01*
G01X18933Y977D01*
G01X18797Y977D01*
G01X18592Y1046D01*
G01X18456Y1182D01*
G01X18388Y1386D01*
G01X18388Y2409D01*
G54D63*
G01X5200Y33789D02*
G01X5964Y33789D01*
G01X5200Y33789D02*
G01X5200Y33534D01*
G01X5237Y33425D01*
G01X5309Y33352D01*
G01X5382Y33316D01*
G01X5491Y33279D01*
G01X5673Y33279D01*
G01X5782Y33316D01*
G01X5855Y33352D01*
G01X5927Y33425D01*
G01X5964Y33534D01*
G01X5964Y33789D01*
G01X5200Y33039D02*
G01X5964Y33039D01*
G01X5200Y33039D02*
G01X5200Y32567D01*
G01X5564Y33039D02*
G01X5564Y32749D01*
G01X5964Y33039D02*
G01X5964Y32567D01*
G01X5200Y32327D02*
G01X5964Y32036D01*
G01X5200Y31745D02*
G01X5964Y32036D01*
G01X5200Y31505D02*
G01X5964Y31505D01*
G01X5200Y30996D02*
G01X5709Y31505D01*
G01X5527Y31323D02*
G01X5964Y30996D01*
G01X5200Y30756D02*
G01X5964Y30756D01*
G01X5200Y30261D02*
G01X5964Y30261D01*
G01X5200Y30516D02*
G01X5200Y30007D01*
G01X5200Y29207D02*
G01X5964Y28916D01*
G01X5200Y28625D02*
G01X5964Y28916D01*
G01X5346Y28385D02*
G01X5309Y28312D01*
G01X5200Y28203D01*
G01X5964Y28203D01*
G01X3803Y32519D02*
G01X4567Y32519D01*
G01X3803Y32519D02*
G01X3803Y32046D01*
G01X4167Y32519D02*
G01X4167Y32228D01*
G01X4567Y32519D02*
G01X4567Y32046D01*
G01X3912Y31297D02*
G01X3840Y31369D01*
G01X3803Y31479D01*
G01X3803Y31624D01*
G01X3840Y31733D01*
G01X3912Y31806D01*
G01X3985Y31806D01*
G01X4058Y31769D01*
G01X4094Y31733D01*
G01X4130Y31660D01*
G01X4203Y31442D01*
G01X4240Y31369D01*
G01X4276Y31333D01*
G01X4349Y31297D01*
G01X4458Y31297D01*
G01X4530Y31369D01*
G01X4567Y31479D01*
G01X4567Y31624D01*
G01X4530Y31733D01*
G01X4458Y31806D01*
G01X3803Y31057D02*
G01X4567Y31057D01*
G01X3803Y31057D02*
G01X3803Y30729D01*
G01X3840Y30620D01*
G01X3876Y30584D01*
G01X3949Y30548D01*
G01X4058Y30548D01*
G01X4130Y30584D01*
G01X4167Y30620D01*
G01X4203Y30729D01*
G01X4203Y31057D01*
G01X3803Y30235D02*
G01X3803Y29835D01*
G01X4094Y30053D01*
G01X4094Y29944D01*
G01X4130Y29871D01*
G01X4167Y29835D01*
G01X4276Y29799D01*
G01X4349Y29799D01*
G01X4458Y29835D01*
G01X4530Y29908D01*
G01X4567Y30017D01*
G01X4567Y30126D01*
G01X4530Y30235D01*
G01X4494Y30271D01*
G01X4421Y30308D01*
G01X3985Y29522D02*
G01X3949Y29522D01*
G01X3876Y29486D01*
G01X3840Y29449D01*
G01X3803Y29377D01*
G01X3803Y29231D01*
G01X3840Y29159D01*
G01X3876Y29122D01*
G01X3949Y29086D01*
G01X4021Y29086D01*
G01X4094Y29122D01*
G01X4203Y29195D01*
G01X4567Y29559D01*
G01X4567Y29049D01*
G01X45703Y30322D02*
G01X46430Y30322D01*
G01X46566Y30368D01*
G01X46612Y30413D01*
G01X46657Y30504D01*
G01X46657Y30640D01*
G01X46612Y30731D01*
G01X45839Y30322D02*
G01X45748Y30413D01*
G01X45703Y30504D01*
G01X45703Y30640D01*
G01X45748Y30731D01*
G01X45839Y30822D01*
G01X45975Y30868D01*
G01X46066Y30868D01*
G01X46203Y30822D01*
G01X46293Y30731D01*
G01X46339Y30640D01*
G01X46339Y30504D01*
G01X46293Y30413D01*
G01X46203Y30322D01*
G01X45384Y30022D02*
G01X45430Y29977D01*
G01X45384Y29931D01*
G01X45339Y29977D01*
G01X45384Y30022D01*
G01X45703Y29977D02*
G01X46339Y29977D01*
G01X45384Y29495D02*
G01X46157Y29495D01*
G01X46293Y29449D01*
G01X46339Y29358D01*
G01X46339Y29268D01*
G01X45703Y29631D02*
G01X45703Y29313D01*
G01X45384Y28968D02*
G01X46339Y28968D01*
G01X45884Y28968D02*
G01X45748Y28831D01*
G01X45703Y28740D01*
G01X45703Y28604D01*
G01X45748Y28513D01*
G01X45884Y28468D01*
G01X46339Y28468D01*
G01X45703Y28168D02*
G01X46157Y28168D01*
G01X46293Y28122D01*
G01X46339Y28031D01*
G01X46339Y27895D01*
G01X46293Y27804D01*
G01X46157Y27668D01*
G01X45703Y27668D02*
G01X46339Y27668D01*
G01X45384Y27368D02*
G01X46339Y27368D01*
G01X45839Y27368D02*
G01X45748Y27277D01*
G01X45703Y27186D01*
G01X45703Y27049D01*
G01X45748Y26958D01*
G01X45839Y26868D01*
G01X45975Y26822D01*
G01X46066Y26822D01*
G01X46203Y26868D01*
G01X46293Y26958D01*
G01X46339Y27049D01*
G01X46339Y27186D01*
G01X46293Y27277D01*
G01X46203Y27368D01*
G01X46112Y26477D02*
G01X46157Y26522D01*
G01X46203Y26477D01*
G01X46157Y26431D01*
G01X46112Y26477D01*
G01X45839Y25586D02*
G01X45748Y25677D01*
G01X45703Y25768D01*
G01X45703Y25904D01*
G01X45748Y25995D01*
G01X45839Y26086D01*
G01X45975Y26131D01*
G01X46066Y26131D01*
G01X46203Y26086D01*
G01X46293Y25995D01*
G01X46339Y25904D01*
G01X46339Y25768D01*
G01X46293Y25677D01*
G01X46203Y25586D01*
G01X45703Y25058D02*
G01X45748Y25149D01*
G01X45839Y25240D01*
G01X45975Y25286D01*
G01X46066Y25286D01*
G01X46203Y25240D01*
G01X46293Y25149D01*
G01X46339Y25058D01*
G01X46339Y24922D01*
G01X46293Y24831D01*
G01X46203Y24740D01*
G01X46066Y24695D01*
G01X45975Y24695D01*
G01X45839Y24740D01*
G01X45748Y24831D01*
G01X45703Y24922D01*
G01X45703Y25058D01*
G01X45703Y24395D02*
G01X46339Y24395D01*
G01X45884Y24395D02*
G01X45748Y24258D01*
G01X45703Y24167D01*
G01X45703Y24031D01*
G01X45748Y23940D01*
G01X45884Y23895D01*
G01X46339Y23895D01*
G01X45884Y23895D02*
G01X45748Y23758D01*
G01X45703Y23667D01*
G01X45703Y23531D01*
G01X45748Y23440D01*
G01X45884Y23395D01*
G01X46339Y23395D01*
G01X45203Y22277D02*
G01X46657Y23095D01*
G01X45384Y21977D02*
G01X46339Y21977D01*
G01X45839Y21977D02*
G01X45748Y21886D01*
G01X45703Y21795D01*
G01X45703Y21658D01*
G01X45748Y21568D01*
G01X45839Y21477D01*
G01X45975Y21431D01*
G01X46066Y21431D01*
G01X46203Y21477D01*
G01X46293Y21568D01*
G01X46339Y21658D01*
G01X46339Y21795D01*
G01X46293Y21886D01*
G01X46203Y21977D01*
G01X45703Y21086D02*
G01X46339Y20813D01*
G01X45703Y20540D02*
G01X46339Y20813D01*
G01X46521Y20904D01*
G01X46612Y20995D01*
G01X46657Y21086D01*
G01X46657Y21131D01*
G01X45384Y20240D02*
G01X46339Y20240D01*
G01X45384Y20240D02*
G01X45384Y19922D01*
G01X45430Y19786D01*
G01X45521Y19695D01*
G01X45612Y19649D01*
G01X45748Y19604D01*
G01X45975Y19604D01*
G01X46112Y19649D01*
G01X46203Y19695D01*
G01X46293Y19786D01*
G01X46339Y19922D01*
G01X46339Y20240D01*
G01X45703Y18758D02*
G01X46339Y18758D01*
G01X45839Y18758D02*
G01X45748Y18849D01*
G01X45703Y18940D01*
G01X45703Y19077D01*
G01X45748Y19168D01*
G01X45839Y19258D01*
G01X45975Y19304D01*
G01X46066Y19304D01*
G01X46203Y19258D01*
G01X46293Y19168D01*
G01X46339Y19077D01*
G01X46339Y18940D01*
G01X46293Y18849D01*
G01X46203Y18758D01*
G01X45703Y17913D02*
G01X46430Y17913D01*
G01X46566Y17958D01*
G01X46612Y18004D01*
G01X46657Y18095D01*
G01X46657Y18231D01*
G01X46612Y18322D01*
G01X45839Y17913D02*
G01X45748Y18004D01*
G01X45703Y18095D01*
G01X45703Y18231D01*
G01X45748Y18322D01*
G01X45839Y18413D01*
G01X45975Y18458D01*
G01X46066Y18458D01*
G01X46203Y18413D01*
G01X46293Y18322D01*
G01X46339Y18231D01*
G01X46339Y18095D01*
G01X46293Y18004D01*
G01X46203Y17913D01*
G01X45703Y17386D02*
G01X45748Y17477D01*
G01X45839Y17568D01*
G01X45975Y17613D01*
G01X46066Y17613D01*
G01X46203Y17568D01*
G01X46293Y17477D01*
G01X46339Y17386D01*
G01X46339Y17249D01*
G01X46293Y17158D01*
G01X46203Y17068D01*
G01X46066Y17022D01*
G01X45975Y17022D01*
G01X45839Y17068D01*
G01X45748Y17158D01*
G01X45703Y17249D01*
G01X45703Y17386D01*
G01X45703Y16722D02*
G01X46339Y16722D01*
G01X45975Y16722D02*
G01X45839Y16677D01*
G01X45748Y16586D01*
G01X45703Y16495D01*
G01X45703Y16358D01*
G01X49346Y13463D02*
G01X49887Y13850D01*
G01X49887Y13270D01*
G01X49346Y13463D02*
G01X50157Y13463D01*
G01X49346Y12629D02*
G01X49887Y13015D01*
G01X49887Y12435D01*
G01X49346Y12629D02*
G01X50157Y12629D01*
G01X49964Y12142D02*
G01X50003Y12180D01*
G01X50041Y12142D01*
G01X50003Y12103D01*
G01X49964Y12142D01*
G01X49346Y11384D02*
G01X49346Y11771D01*
G01X49693Y11809D01*
G01X49655Y11771D01*
G01X49616Y11655D01*
G01X49616Y11539D01*
G01X49655Y11423D01*
G01X49732Y11346D01*
G01X49848Y11307D01*
G01X49925Y11307D01*
G01X50041Y11346D01*
G01X50119Y11423D01*
G01X50157Y11539D01*
G01X50157Y11655D01*
G01X50119Y11771D01*
G01X50080Y11809D01*
G01X50003Y11848D01*
G01X49616Y11052D02*
G01X50157Y10627D01*
G01X49616Y10627D02*
G01X50157Y11052D01*
G01X49346Y9986D02*
G01X49887Y10372D01*
G01X49887Y9793D01*
G01X49346Y9986D02*
G01X50157Y9986D01*
G01X49346Y9151D02*
G01X49887Y9538D01*
G01X49887Y8958D01*
G01X49346Y9151D02*
G01X50157Y9151D01*
G01X49964Y8664D02*
G01X50003Y8703D01*
G01X50041Y8664D01*
G01X50003Y8626D01*
G01X49964Y8664D01*
G01X49346Y7907D02*
G01X49346Y8294D01*
G01X49693Y8332D01*
G01X49655Y8294D01*
G01X49616Y8178D01*
G01X49616Y8062D01*
G01X49655Y7946D01*
G01X49732Y7869D01*
G01X49848Y7830D01*
G01X49925Y7830D01*
G01X50041Y7869D01*
G01X50119Y7946D01*
G01X50157Y8062D01*
G01X50157Y8178D01*
G01X50119Y8294D01*
G01X50080Y8332D01*
G01X50003Y8371D01*
G01X49616Y7575D02*
G01X50157Y7575D01*
G01X49771Y7575D02*
G01X49655Y7459D01*
G01X49616Y7382D01*
G01X49616Y7266D01*
G01X49655Y7189D01*
G01X49771Y7150D01*
G01X50157Y7150D01*
G01X49771Y7150D02*
G01X49655Y7034D01*
G01X49616Y6957D01*
G01X49616Y6841D01*
G01X49655Y6764D01*
G01X49771Y6725D01*
G01X50157Y6725D01*
G01X49616Y6470D02*
G01X50157Y6470D01*
G01X49771Y6470D02*
G01X49655Y6354D01*
G01X49616Y6277D01*
G01X49616Y6161D01*
G01X49655Y6084D01*
G01X49771Y6045D01*
G01X50157Y6045D01*
G01X49771Y6045D02*
G01X49655Y5929D01*
G01X49616Y5852D01*
G01X49616Y5736D01*
G01X49655Y5658D01*
G01X49771Y5620D01*
G01X50157Y5620D01*
G01X48076Y10338D02*
G01X48076Y10724D01*
G01X48423Y10763D01*
G01X48385Y10724D01*
G01X48346Y10608D01*
G01X48346Y10492D01*
G01X48385Y10377D01*
G01X48462Y10299D01*
G01X48578Y10261D01*
G01X48655Y10261D01*
G01X48771Y10299D01*
G01X48849Y10377D01*
G01X48887Y10492D01*
G01X48887Y10608D01*
G01X48849Y10724D01*
G01X48810Y10763D01*
G01X48733Y10802D01*
G01X48230Y10006D02*
G01X48192Y9928D01*
G01X48076Y9812D01*
G01X48887Y9812D01*
G01X48346Y9557D02*
G01X48887Y9132D01*
G01X48346Y9132D02*
G01X48887Y9557D01*
G01X48076Y8414D02*
G01X48076Y8800D01*
G01X48423Y8839D01*
G01X48385Y8800D01*
G01X48346Y8684D01*
G01X48346Y8568D01*
G01X48385Y8452D01*
G01X48462Y8375D01*
G01X48578Y8336D01*
G01X48655Y8336D01*
G01X48771Y8375D01*
G01X48849Y8452D01*
G01X48887Y8568D01*
G01X48887Y8684D01*
G01X48849Y8800D01*
G01X48810Y8839D01*
G01X48733Y8877D01*
G01X48230Y8081D02*
G01X48192Y8004D01*
G01X48076Y7888D01*
G01X48887Y7888D01*
G01X48346Y7633D02*
G01X48887Y7633D01*
G01X48501Y7633D02*
G01X48385Y7517D01*
G01X48346Y7440D01*
G01X48346Y7324D01*
G01X48385Y7247D01*
G01X48501Y7208D01*
G01X48887Y7208D01*
G01X48501Y7208D02*
G01X48385Y7092D01*
G01X48346Y7015D01*
G01X48346Y6899D01*
G01X48385Y6822D01*
G01X48501Y6783D01*
G01X48887Y6783D01*
G01X48346Y6528D02*
G01X48887Y6528D01*
G01X48501Y6528D02*
G01X48385Y6412D01*
G01X48346Y6335D01*
G01X48346Y6219D01*
G01X48385Y6142D01*
G01X48501Y6103D01*
G01X48887Y6103D01*
G01X48501Y6103D02*
G01X48385Y5987D01*
G01X48346Y5910D01*
G01X48346Y5794D01*
G01X48385Y5717D01*
G01X48501Y5678D01*
G01X48887Y5678D01*
G01X46911Y9241D02*
G01X46875Y9241D01*
G01X46802Y9205D01*
G01X46766Y9168D01*
G01X46729Y9096D01*
G01X46729Y8950D01*
G01X46766Y8878D01*
G01X46802Y8841D01*
G01X46875Y8805D01*
G01X46947Y8805D01*
G01X47020Y8841D01*
G01X47129Y8914D01*
G01X47493Y9278D01*
G01X47493Y8768D01*
G01X47311Y8492D02*
G01X47347Y8528D01*
G01X47384Y8492D01*
G01X47347Y8456D01*
G01X47311Y8492D01*
G01X46729Y7779D02*
G01X46729Y8143D01*
G01X47056Y8179D01*
G01X47020Y8143D01*
G01X46984Y8034D01*
G01X46984Y7925D01*
G01X47020Y7816D01*
G01X47093Y7743D01*
G01X47202Y7707D01*
G01X47275Y7707D01*
G01X47384Y7743D01*
G01X47456Y7816D01*
G01X47493Y7925D01*
G01X47493Y8034D01*
G01X47456Y8143D01*
G01X47420Y8179D01*
G01X47347Y8216D01*
G01X46984Y7467D02*
G01X47493Y7467D01*
G01X47129Y7467D02*
G01X47020Y7358D01*
G01X46984Y7285D01*
G01X46984Y7176D01*
G01X47020Y7103D01*
G01X47129Y7067D01*
G01X47493Y7067D01*
G01X47129Y7067D02*
G01X47020Y6958D01*
G01X46984Y6885D01*
G01X46984Y6776D01*
G01X47020Y6703D01*
G01X47129Y6667D01*
G01X47493Y6667D01*
G01X46984Y6427D02*
G01X47493Y6427D01*
G01X47129Y6427D02*
G01X47020Y6318D01*
G01X46984Y6245D01*
G01X46984Y6136D01*
G01X47020Y6063D01*
G01X47129Y6027D01*
G01X47493Y6027D01*
G01X47129Y6027D02*
G01X47020Y5918D01*
G01X46984Y5845D01*
G01X46984Y5736D01*
G01X47020Y5663D01*
G01X47129Y5627D01*
G01X47493Y5627D01*
G01X29084Y45717D02*
G01X29120Y45790D01*
G01X29193Y45862D01*
G01X29266Y45899D01*
G01X29411Y45899D01*
G01X29484Y45862D01*
G01X29557Y45790D01*
G01X29593Y45717D01*
G01X29629Y45608D01*
G01X29629Y45426D01*
G01X29593Y45317D01*
G01X29557Y45244D01*
G01X29484Y45172D01*
G01X29411Y45135D01*
G01X29266Y45135D01*
G01X29193Y45172D01*
G01X29120Y45244D01*
G01X29084Y45317D01*
G01X29084Y45426D01*
G01X29266Y45426D02*
G01X29084Y45426D01*
G01X28844Y45899D02*
G01X28844Y45135D01*
G01X28844Y45899D02*
G01X28335Y45135D01*
G01X28335Y45899D02*
G01X28335Y45135D01*
G01X28095Y45899D02*
G01X28095Y45135D01*
G01X28095Y45899D02*
G01X27840Y45899D01*
G01X27731Y45862D01*
G01X27659Y45790D01*
G01X27622Y45717D01*
G01X27586Y45608D01*
G01X27586Y45426D01*
G01X27622Y45317D01*
G01X27659Y45244D01*
G01X27731Y45172D01*
G01X27840Y45135D01*
G01X28095Y45135D01*
G01X26890Y45899D02*
G01X26490Y45899D01*
G01X26708Y45608D01*
G01X26599Y45608D01*
G01X26526Y45572D01*
G01X26490Y45535D01*
G01X26453Y45426D01*
G01X26453Y45353D01*
G01X26490Y45244D01*
G01X26562Y45172D01*
G01X26672Y45135D01*
G01X26781Y45135D01*
G01X26890Y45172D01*
G01X26926Y45208D01*
G01X26962Y45281D01*
G01X26213Y45899D02*
G01X25922Y45135D01*
G01X25632Y45899D02*
G01X25922Y45135D01*
G01X25319Y45899D02*
G01X24919Y45899D01*
G01X25137Y45608D01*
G01X25028Y45608D01*
G01X24955Y45572D01*
G01X24919Y45535D01*
G01X24882Y45426D01*
G01X24882Y45353D01*
G01X24919Y45244D01*
G01X24992Y45172D01*
G01X25101Y45135D01*
G01X25210Y45135D01*
G01X25319Y45172D01*
G01X25355Y45208D01*
G01X25392Y45281D01*
G01X24295Y45899D02*
G01X24005Y45135D01*
G01X23714Y45899D02*
G01X24005Y45135D01*
G01X23474Y45899D02*
G01X23437Y45862D01*
G01X23401Y45899D01*
G01X23437Y45935D01*
G01X23474Y45899D01*
G01X23437Y45644D02*
G01X23437Y45135D01*
G01X23161Y45644D02*
G01X23161Y45135D01*
G01X23161Y45499D02*
G01X23052Y45608D01*
G01X22979Y45644D01*
G01X22870Y45644D01*
G01X22797Y45608D01*
G01X22761Y45499D01*
G01X22761Y45135D01*
G01X22009Y45899D02*
G01X22009Y45135D01*
G01X22009Y45899D02*
G01X21682Y45899D01*
G01X21573Y45862D01*
G01X21537Y45826D01*
G01X21500Y45753D01*
G01X21500Y45644D01*
G01X21537Y45572D01*
G01X21573Y45535D01*
G01X21682Y45499D01*
G01X22009Y45499D01*
G01X21260Y45899D02*
G01X20969Y45135D01*
G01X20679Y45899D02*
G01X20969Y45135D01*
G01X20439Y45899D02*
G01X20439Y45135D01*
G01X20439Y45899D02*
G01X20184Y45899D01*
G01X20075Y45862D01*
G01X20002Y45790D01*
G01X19966Y45717D01*
G01X19929Y45608D01*
G01X19929Y45426D01*
G01X19966Y45317D01*
G01X20002Y45244D01*
G01X20075Y45172D01*
G01X20184Y45135D01*
G01X20439Y45135D01*
G01X19689Y45899D02*
G01X19689Y45135D01*
G01X19689Y45899D02*
G01X19435Y45899D01*
G01X19326Y45862D01*
G01X19253Y45790D01*
G01X19217Y45717D01*
G01X19180Y45608D01*
G01X19180Y45426D01*
G01X19217Y45317D01*
G01X19253Y45244D01*
G01X19326Y45172D01*
G01X19435Y45135D01*
G01X19689Y45135D01*
G01X17908Y45717D02*
G01X17944Y45790D01*
G01X18017Y45862D01*
G01X18090Y45899D01*
G01X18235Y45899D01*
G01X18308Y45862D01*
G01X18381Y45790D01*
G01X18417Y45717D01*
G01X18453Y45608D01*
G01X18453Y45426D01*
G01X18417Y45317D01*
G01X18381Y45244D01*
G01X18308Y45172D01*
G01X18235Y45135D01*
G01X18090Y45135D01*
G01X18017Y45172D01*
G01X17944Y45244D01*
G01X17908Y45317D01*
G01X17908Y45426D01*
G01X18090Y45426D02*
G01X17908Y45426D01*
G01X17668Y45899D02*
G01X17668Y45135D01*
G01X17668Y45899D02*
G01X17159Y45135D01*
G01X17159Y45899D02*
G01X17159Y45135D01*
G01X16919Y45899D02*
G01X16919Y45135D01*
G01X16919Y45899D02*
G01X16664Y45899D01*
G01X16555Y45862D01*
G01X16483Y45790D01*
G01X16446Y45717D01*
G01X16410Y45608D01*
G01X16410Y45426D01*
G01X16446Y45317D01*
G01X16483Y45244D01*
G01X16555Y45172D01*
G01X16664Y45135D01*
G01X16919Y45135D01*
G01X32169Y45899D02*
G01X32169Y45135D01*
G01X31711Y45899D02*
G01X31784Y45862D01*
G01X31857Y45790D01*
G01X31893Y45717D01*
G01X31929Y45608D01*
G01X31929Y45426D01*
G01X31893Y45317D01*
G01X31857Y45244D01*
G01X31784Y45172D01*
G01X31711Y45135D01*
G01X31566Y45135D01*
G01X31493Y45172D01*
G01X31420Y45244D01*
G01X31384Y45317D01*
G01X31348Y45426D01*
G01X31348Y45608D01*
G01X31384Y45717D01*
G01X31420Y45790D01*
G01X31493Y45862D01*
G01X31566Y45899D01*
G01X31711Y45899D01*
G01X31071Y45717D02*
G01X31071Y45753D01*
G01X31035Y45826D01*
G01X30999Y45862D01*
G01X30926Y45899D01*
G01X30780Y45899D01*
G01X30708Y45862D01*
G01X30671Y45826D01*
G01X30635Y45753D01*
G01X30635Y45681D01*
G01X30671Y45608D01*
G01X30744Y45499D01*
G01X31108Y45135D01*
G01X30599Y45135D01*
G01X30359Y45753D02*
G01X30286Y45790D01*
G01X30177Y45899D01*
G01X30177Y45135D01*
G01X35090Y45899D02*
G01X35090Y45135D01*
G01X34632Y45899D02*
G01X34705Y45862D01*
G01X34778Y45790D01*
G01X34814Y45717D01*
G01X34850Y45608D01*
G01X34850Y45426D01*
G01X34814Y45317D01*
G01X34778Y45244D01*
G01X34705Y45172D01*
G01X34632Y45135D01*
G01X34487Y45135D01*
G01X34414Y45172D01*
G01X34341Y45244D01*
G01X34305Y45317D01*
G01X34269Y45426D01*
G01X34269Y45608D01*
G01X34305Y45717D01*
G01X34341Y45790D01*
G01X34414Y45862D01*
G01X34487Y45899D01*
G01X34632Y45899D01*
G01X33992Y45717D02*
G01X33992Y45753D01*
G01X33956Y45826D01*
G01X33920Y45862D01*
G01X33847Y45899D01*
G01X33701Y45899D01*
G01X33629Y45862D01*
G01X33592Y45826D01*
G01X33556Y45753D01*
G01X33556Y45681D01*
G01X33592Y45608D01*
G01X33665Y45499D01*
G01X34029Y45135D01*
G01X33520Y45135D01*
G01X33243Y45717D02*
G01X33243Y45753D01*
G01X33207Y45826D01*
G01X33170Y45862D01*
G01X33098Y45899D01*
G01X32952Y45899D01*
G01X32880Y45862D01*
G01X32843Y45826D01*
G01X32807Y45753D01*
G01X32807Y45681D01*
G01X32843Y45608D01*
G01X32916Y45499D01*
G01X33280Y45135D01*
G01X32770Y45135D01*
G01X6547Y31630D02*
G01X7126Y31630D01*
G01X7242Y31591D01*
G01X7320Y31514D01*
G01X7358Y31398D01*
G01X7358Y31320D01*
G01X7320Y31205D01*
G01X7242Y31127D01*
G01X7126Y31089D01*
G01X6547Y31089D01*
G01X6740Y30795D02*
G01X6701Y30795D01*
G01X6624Y30756D01*
G01X6585Y30718D01*
G01X6547Y30640D01*
G01X6547Y30486D01*
G01X6585Y30409D01*
G01X6624Y30370D01*
G01X6701Y30331D01*
G01X6779Y30331D01*
G01X6856Y30370D01*
G01X6972Y30447D01*
G01X7358Y30834D01*
G01X7358Y30293D01*
G54D66*
G01X11197Y46748D02*
G01X11250Y46852D01*
G01X11354Y46956D01*
G01X11456Y47007D01*
G01X11664Y47007D01*
G01X11768Y46956D01*
G01X11872Y46852D01*
G01X11926Y46748D01*
G01X11976Y46590D01*
G01X11976Y46331D01*
G01X11926Y46176D01*
G01X11872Y46072D01*
G01X11768Y45968D01*
G01X11664Y45917D01*
G01X11456Y45917D01*
G01X11354Y45968D01*
G01X11250Y46072D01*
G01X11197Y46176D01*
G01X10854Y46798D02*
G01X10750Y46852D01*
G01X10595Y47007D01*
G01X10595Y45917D01*
G01X10148Y47007D02*
G01X9576Y47007D01*
G01X9889Y46590D01*
G01X9731Y46590D01*
G01X9627Y46539D01*
G01X9576Y46489D01*
G01X9525Y46331D01*
G01X9525Y46227D01*
G01X9576Y46072D01*
G01X9680Y45968D01*
G01X9835Y45917D01*
G01X9993Y45917D01*
G01X10148Y45968D01*
G01X10199Y46019D01*
G01X10252Y46123D01*
G01X40788Y47002D02*
G01X40841Y47106D01*
G01X40945Y47210D01*
G01X41047Y47261D01*
G01X41255Y47261D01*
G01X41359Y47210D01*
G01X41463Y47106D01*
G01X41517Y47002D01*
G01X41567Y46844D01*
G01X41567Y46585D01*
G01X41517Y46430D01*
G01X41463Y46326D01*
G01X41359Y46222D01*
G01X41255Y46171D01*
G01X41047Y46171D01*
G01X40945Y46222D01*
G01X40841Y46326D01*
G01X40788Y46430D01*
G01X40445Y47052D02*
G01X40341Y47106D01*
G01X40186Y47261D01*
G01X40186Y46171D01*
G01X39322Y47261D02*
G01X39843Y46534D01*
G01X39063Y46534D01*
G01X39322Y47261D02*
G01X39322Y46171D01*
G54D10*
G75*
G01X10710Y44648D02*
G02X10781Y44648I35J3999D01*
G01*
G75*
G01X40295Y52649D02*
G02X40224Y52649I-35J-4000D01*
G01*
G75*
G01X5765Y22356D02*
G03X5765Y22356I-869J0D01*
G01*
G75*
G01X5695Y37999D02*
G03X5695Y37999I-869J0D01*
G01*
G54D19*
G75*
G01X4978Y47759D02*
G03X4978Y47759I-1764J0D01*
G01*
G75*
G01X49555Y47759D02*
G03X49555Y47759I-1764J0D01*
G01*
G75*
G01X49555Y3182D02*
G03X49555Y3182I-1764J0D01*
G01*
G75*
G01X4978Y3182D02*
G03X4978Y3182I-1764J0D01*
G01*
G54D16*
G75*
G01X28868Y25534D02*
G03X28868Y25534I-3683J0D01*
G01*
G54D15*
G75*
G01X25587Y25534D02*
G03X25587Y25534I-402J0D01*
G01*
G54D59*
G75*
G01X47614Y9913D02*
G03X47614Y9913I-458J0D01*
G01*
G54D10*
G75*
G01X50133Y15056D02*
G03X50133Y15056I-120J0D01*
G01*
G75*
G01X50133Y14421D02*
G03X50133Y14421I-120J0D01*
G01*
G75*
G01X49498Y14421D02*
G03X49498Y14421I-120J0D01*
G01*
G75*
G01X49498Y15056D02*
G03X49498Y15056I-120J0D01*
G01*
G54D18*
G75*
G01X26074Y33788D02*
G03X26074Y33788I-127J0D01*
G01*
G75*
G01X24423Y33788D02*
G03X24423Y33788I-127J0D01*
G01*

%LPD*%
G36*
G01X13521Y51578D02*
G01X13456Y51648D01*
G01X13456Y45648D01*
G01X13521Y45717D01*
G01X13584Y45787D01*
G01X13645Y45859D01*
G01X13705Y45932D01*
G01X13763Y46007D01*
G01X13820Y46083D01*
G01X13875Y46160D01*
G01X13928Y46238D01*
G01X13980Y46317D01*
G01X14078Y46479D01*
G01X14124Y46562D01*
G01X14168Y46645D01*
G01X14211Y46730D01*
G01X14252Y46815D01*
G01X14291Y46901D01*
G01X14328Y46988D01*
G01X14363Y47076D01*
G01X14396Y47165D01*
G01X14427Y47254D01*
G01X14457Y47344D01*
G01X14484Y47434D01*
G01X14509Y47525D01*
G01X14533Y47617D01*
G01X14554Y47709D01*
G01X14573Y47802D01*
G01X14591Y47895D01*
G01X14606Y47988D01*
G01X14620Y48082D01*
G01X14631Y48176D01*
G01X14640Y48270D01*
G01X14647Y48364D01*
G01X14652Y48458D01*
G01X14655Y48553D01*
G01X14656Y48648D01*
G01X14655Y48742D01*
G01X14652Y48837D01*
G01X14647Y48931D01*
G01X14640Y49025D01*
G01X14631Y49119D01*
G01X14620Y49213D01*
G01X14606Y49307D01*
G01X14591Y49400D01*
G01X14573Y49493D01*
G01X14554Y49586D01*
G01X14533Y49678D01*
G01X14509Y49770D01*
G01X14484Y49861D01*
G01X14457Y49951D01*
G01X14427Y50041D01*
G01X14396Y50130D01*
G01X14363Y50219D01*
G01X14328Y50307D01*
G01X14291Y50394D01*
G01X14252Y50480D01*
G01X14211Y50565D01*
G01X14168Y50650D01*
G01X14124Y50733D01*
G01X14078Y50816D01*
G01X13980Y50978D01*
G01X13928Y51057D01*
G01X13875Y51135D01*
G01X13820Y51212D01*
G01X13763Y51288D01*
G01X13705Y51363D01*
G01X13645Y51436D01*
G01X13584Y51508D01*
G01X13521Y51578D01*
G37*

%LPD*%
G36*
G01X37547Y45648D02*
G01X37547Y51648D01*
G01X37483Y51578D01*
G01X37420Y51508D01*
G01X37359Y51436D01*
G01X37299Y51363D01*
G01X37241Y51288D01*
G01X37184Y51212D01*
G01X37129Y51135D01*
G01X37076Y51057D01*
G01X37024Y50978D01*
G01X36974Y50897D01*
G01X36926Y50816D01*
G01X36880Y50733D01*
G01X36836Y50650D01*
G01X36793Y50565D01*
G01X36752Y50480D01*
G01X36713Y50394D01*
G01X36676Y50307D01*
G01X36641Y50219D01*
G01X36608Y50130D01*
G01X36577Y50041D01*
G01X36547Y49951D01*
G01X36520Y49861D01*
G01X36495Y49770D01*
G01X36471Y49678D01*
G01X36450Y49586D01*
G01X36431Y49493D01*
G01X36413Y49400D01*
G01X36398Y49307D01*
G01X36384Y49213D01*
G01X36373Y49119D01*
G01X36364Y49025D01*
G01X36357Y48931D01*
G01X36352Y48837D01*
G01X36349Y48742D01*
G01X36347Y48648D01*
G01X36349Y48553D01*
G01X36352Y48458D01*
G01X36357Y48364D01*
G01X36364Y48270D01*
G01X36373Y48176D01*
G01X36384Y48082D01*
G01X36398Y47988D01*
G01X36413Y47895D01*
G01X36431Y47802D01*
G01X36450Y47709D01*
G01X36471Y47617D01*
G01X36495Y47525D01*
G01X36520Y47434D01*
G01X36547Y47344D01*
G01X36577Y47254D01*
G01X36608Y47165D01*
G01X36641Y47076D01*
G01X36676Y46988D01*
G01X36713Y46901D01*
G01X36752Y46815D01*
G01X36793Y46730D01*
G01X36836Y46645D01*
G01X36880Y46562D01*
G01X36926Y46479D01*
G01X36974Y46398D01*
G01X37024Y46317D01*
G01X37076Y46238D01*
G01X37129Y46160D01*
G01X37184Y46083D01*
G01X37241Y46007D01*
G01X37299Y45932D01*
G01X37359Y45859D01*
G01X37420Y45787D01*
G01X37483Y45717D01*
G01X37547Y45648D01*
G37*
M00*
M02*
