G04 Layer: TopSolderMaskLayer*
G04 EasyEDA v6.4.3, 2020-08-11T17:33:51--5:00*
G04 c8abcd5c7f324be6b54abc10bf488c2c,7c1e8d740ba24e6f83eb2d53d3341807,10*
G04 Gerber Generator version 0.2*
G04 Scale: 100 percent, Rotated: No, Reflected: No *
G04 Dimensions in millimeters *
G04 leading zeros omitted , absolute positions ,3 integer and 3 decimal *
%FSLAX33Y33*%
%MOMM*%
G90*
G71D02*

%ADD68C,0.483210*%
%ADD69C,4.203192*%
%ADD70C,2.203196*%
%ADD83R,2.683205X2.003196*%
%ADD92C,1.803197*%
%ADD93C,1.778000*%
%ADD95C,1.903197*%

%LPD*%
G54D68*
G01X26844Y26283D02*
G01X26324Y26283D01*
G01X26844Y25782D02*
G01X26324Y25782D01*
G01X26844Y25285D02*
G01X26324Y25285D01*
G01X26844Y24784D02*
G01X26324Y24784D01*
G01X25934Y24394D02*
G01X25934Y23874D01*
G01X25433Y24394D02*
G01X25433Y23874D01*
G01X24936Y24394D02*
G01X24936Y23874D01*
G01X24435Y24394D02*
G01X24435Y23874D01*
G01X24045Y24784D02*
G01X23525Y24784D01*
G01X24045Y25285D02*
G01X23525Y25285D01*
G01X24045Y25782D02*
G01X23525Y25782D01*
G01X24045Y26283D02*
G01X23525Y26283D01*
G01X24435Y27193D02*
G01X24435Y26673D01*
G01X24936Y27193D02*
G01X24936Y26673D01*
G01X25433Y27193D02*
G01X25433Y26673D01*
G01X25934Y27193D02*
G01X25934Y26673D01*
G54D69*
G01X22263Y3181D03*
G01X32169Y3181D03*
G01X41440Y3181D03*
G54D70*
G01X25438Y2038D03*
G01X35217Y2038D03*
G01X44488Y1911D03*
G36*
G01X6706Y1085D02*
G01X6706Y6040D01*
G01X11659Y6040D01*
G01X11659Y1085D01*
G01X6706Y1085D01*
G37*
G36*
G01X12421Y1085D02*
G01X12421Y6040D01*
G01X17374Y6040D01*
G01X17374Y1085D01*
G01X12421Y1085D01*
G37*
G36*
G01X13264Y9797D02*
G01X13264Y11552D01*
G01X14468Y11552D01*
G01X14468Y9797D01*
G01X13264Y9797D01*
G37*
G36*
G01X11265Y9797D02*
G01X11265Y11552D01*
G01X12466Y11552D01*
G01X12466Y9797D01*
G01X11265Y9797D01*
G37*
G36*
G01X13264Y7765D02*
G01X13264Y9520D01*
G01X14468Y9520D01*
G01X14468Y7765D01*
G01X13264Y7765D01*
G37*
G36*
G01X11265Y7765D02*
G01X11265Y9520D01*
G01X12466Y9520D01*
G01X12466Y7765D01*
G01X11265Y7765D01*
G37*
G36*
G01X38179Y12098D02*
G01X38179Y15601D01*
G01X39982Y15601D01*
G01X39982Y12098D01*
G01X38179Y12098D01*
G37*
G36*
G01X44679Y12098D02*
G01X44679Y15601D01*
G01X46482Y15601D01*
G01X46482Y12098D01*
G01X44679Y12098D01*
G37*
G36*
G01X44519Y13498D02*
G01X44519Y14201D01*
G01X45222Y14201D01*
G01X45222Y13498D01*
G01X44519Y13498D01*
G37*
G36*
G01X39439Y13498D02*
G01X39439Y14201D01*
G01X40142Y14201D01*
G01X40142Y13498D01*
G01X39439Y13498D01*
G37*
G36*
G01X17859Y12098D02*
G01X17859Y15601D01*
G01X19662Y15601D01*
G01X19662Y12098D01*
G01X17859Y12098D01*
G37*
G36*
G01X24359Y12098D02*
G01X24359Y15601D01*
G01X26162Y15601D01*
G01X26162Y12098D01*
G01X24359Y12098D01*
G37*
G36*
G01X24199Y13498D02*
G01X24199Y14201D01*
G01X24902Y14201D01*
G01X24902Y13498D01*
G01X24199Y13498D01*
G37*
G36*
G01X19119Y13498D02*
G01X19119Y14201D01*
G01X19822Y14201D01*
G01X19822Y13498D01*
G01X19119Y13498D01*
G37*
G36*
G01X34773Y12098D02*
G01X34773Y15601D01*
G01X36576Y15601D01*
G01X36576Y12098D01*
G01X34773Y12098D01*
G37*
G36*
G01X28273Y12098D02*
G01X28273Y15601D01*
G01X30076Y15601D01*
G01X30076Y12098D01*
G01X28273Y12098D01*
G37*
G36*
G01X29533Y13498D02*
G01X29533Y14201D01*
G01X30236Y14201D01*
G01X30236Y13498D01*
G01X29533Y13498D01*
G37*
G36*
G01X34613Y13498D02*
G01X34613Y14201D01*
G01X35316Y14201D01*
G01X35316Y13498D01*
G01X34613Y13498D01*
G37*
G36*
G01X29797Y46784D02*
G01X29797Y48989D01*
G01X32002Y48989D01*
G01X32002Y46784D01*
G01X29797Y46784D01*
G37*
G01X33439Y47887D03*
G36*
G01X6904Y35603D02*
G01X6904Y36307D01*
G01X7907Y36307D01*
G01X7907Y35603D01*
G01X6904Y35603D01*
G37*
G36*
G01X6904Y36604D02*
G01X6904Y37308D01*
G01X7907Y37308D01*
G01X7907Y36604D01*
G01X6904Y36604D01*
G37*
G36*
G01X4940Y27780D02*
G01X4940Y29383D01*
G01X6144Y29383D01*
G01X6144Y27780D01*
G01X4940Y27780D01*
G37*
G36*
G01X7140Y27780D02*
G01X7140Y29383D01*
G01X8344Y29383D01*
G01X8344Y27780D01*
G01X7140Y27780D01*
G37*
G36*
G01X7569Y25794D02*
G01X7569Y26797D01*
G01X8273Y26797D01*
G01X8273Y25794D01*
G01X7569Y25794D01*
G37*
G36*
G01X8570Y25794D02*
G01X8570Y26797D01*
G01X9271Y26797D01*
G01X9271Y25794D01*
G01X8570Y25794D01*
G37*
G36*
G01X4636Y33574D02*
G01X4636Y34768D01*
G01X5931Y34768D01*
G01X5931Y33574D01*
G01X4636Y33574D01*
G37*
G36*
G01X6337Y33574D02*
G01X6337Y34768D01*
G01X7633Y34768D01*
G01X7633Y33574D01*
G01X6337Y33574D01*
G37*
G36*
G01X37638Y3726D02*
G01X37638Y4430D01*
G01X38641Y4430D01*
G01X38641Y3726D01*
G01X37638Y3726D01*
G37*
G36*
G01X37638Y4727D02*
G01X37638Y5431D01*
G01X38641Y5431D01*
G01X38641Y4727D01*
G01X37638Y4727D01*
G37*
G36*
G01X47290Y9695D02*
G01X47290Y10399D01*
G01X48293Y10399D01*
G01X48293Y9695D01*
G01X47290Y9695D01*
G37*
G36*
G01X47290Y10696D02*
G01X47290Y11400D01*
G01X48293Y11400D01*
G01X48293Y10696D01*
G01X47290Y10696D01*
G37*
G36*
G01X28113Y3599D02*
G01X28113Y4303D01*
G01X29116Y4303D01*
G01X29116Y3599D01*
G01X28113Y3599D01*
G37*
G36*
G01X28113Y4600D02*
G01X28113Y5304D01*
G01X29116Y5304D01*
G01X29116Y4600D01*
G01X28113Y4600D01*
G37*
G36*
G01X47419Y28545D02*
G01X47419Y30650D01*
G01X48821Y30650D01*
G01X48821Y28545D01*
G01X47419Y28545D01*
G37*
G36*
G01X44219Y28545D02*
G01X44219Y30650D01*
G01X45621Y30650D01*
G01X45621Y28545D01*
G01X44219Y28545D01*
G37*
G36*
G01X45850Y34534D02*
G01X45850Y35939D01*
G01X47953Y35939D01*
G01X47953Y34534D01*
G01X45850Y34534D01*
G37*
G36*
G01X45850Y37734D02*
G01X45850Y39139D01*
G01X47953Y39139D01*
G01X47953Y37734D01*
G01X45850Y37734D01*
G37*
G36*
G01X31316Y8987D02*
G01X31316Y9888D01*
G01X32019Y9888D01*
G01X32019Y8987D01*
G01X31316Y8987D01*
G37*
G36*
G01X30658Y8987D02*
G01X30658Y9888D01*
G01X31359Y9888D01*
G01X31359Y8987D01*
G01X30658Y8987D01*
G37*
G36*
G01X29998Y8987D02*
G01X29998Y9888D01*
G01X30701Y9888D01*
G01X30701Y8987D01*
G01X29998Y8987D01*
G37*
G36*
G01X29337Y8987D02*
G01X29337Y9888D01*
G01X30041Y9888D01*
G01X30041Y8987D01*
G01X29337Y8987D01*
G37*
G36*
G01X29337Y6017D02*
G01X29337Y6919D01*
G01X30041Y6919D01*
G01X30041Y6017D01*
G01X29337Y6017D01*
G37*
G36*
G01X29998Y6017D02*
G01X29998Y6919D01*
G01X30701Y6919D01*
G01X30701Y6017D01*
G01X29998Y6017D01*
G37*
G36*
G01X30658Y6017D02*
G01X30658Y6919D01*
G01X31359Y6919D01*
G01X31359Y6017D01*
G01X30658Y6017D01*
G37*
G36*
G01X31316Y6017D02*
G01X31316Y6919D01*
G01X32019Y6919D01*
G01X32019Y6017D01*
G01X31316Y6017D01*
G37*
G36*
G01X29337Y6665D02*
G01X29337Y8669D01*
G01X32019Y8669D01*
G01X32019Y6665D01*
G01X29337Y6665D01*
G37*
G36*
G01X21633Y8913D02*
G01X21633Y9817D01*
G01X22334Y9817D01*
G01X22334Y8913D01*
G01X21633Y8913D01*
G37*
G36*
G01X20973Y8913D02*
G01X20973Y9817D01*
G01X21674Y9817D01*
G01X21674Y8913D01*
G01X20973Y8913D01*
G37*
G36*
G01X20313Y8913D02*
G01X20313Y9817D01*
G01X21016Y9817D01*
G01X21016Y8913D01*
G01X20313Y8913D01*
G37*
G36*
G01X19652Y8913D02*
G01X19652Y9817D01*
G01X20356Y9817D01*
G01X20356Y8913D01*
G01X19652Y8913D01*
G37*
G36*
G01X19652Y5944D02*
G01X19652Y6848D01*
G01X20356Y6848D01*
G01X20356Y5944D01*
G01X19652Y5944D01*
G37*
G36*
G01X20313Y5944D02*
G01X20313Y6848D01*
G01X21016Y6848D01*
G01X21016Y5944D01*
G01X20313Y5944D01*
G37*
G36*
G01X20973Y5944D02*
G01X20973Y6848D01*
G01X21674Y6848D01*
G01X21674Y5944D01*
G01X20973Y5944D01*
G37*
G36*
G01X21633Y5944D02*
G01X21633Y6848D01*
G01X22334Y6848D01*
G01X22334Y5944D01*
G01X21633Y5944D01*
G37*
G36*
G01X19652Y6594D02*
G01X19652Y8598D01*
G01X22334Y8598D01*
G01X22334Y6594D01*
G01X19652Y6594D01*
G37*
G36*
G01X41618Y36848D02*
G01X41618Y38603D01*
G01X42819Y38603D01*
G01X42819Y36848D01*
G01X41618Y36848D01*
G37*
G36*
G01X43617Y36848D02*
G01X43617Y38603D01*
G01X44821Y38603D01*
G01X44821Y36848D01*
G01X43617Y36848D01*
G37*
G36*
G01X12921Y14349D02*
G01X12921Y15250D01*
G01X14374Y15250D01*
G01X14374Y14349D01*
G01X12921Y14349D01*
G37*
G36*
G01X12921Y12449D02*
G01X12921Y13350D01*
G01X14374Y13350D01*
G01X14374Y12449D01*
G01X12921Y12449D01*
G37*
G36*
G01X15420Y13399D02*
G01X15420Y14300D01*
G01X16873Y14300D01*
G01X16873Y13399D01*
G01X15420Y13399D01*
G37*
G36*
G01X23335Y5944D02*
G01X23335Y6848D01*
G01X24039Y6848D01*
G01X24039Y5944D01*
G01X23335Y5944D01*
G37*
G36*
G01X23996Y5944D02*
G01X23996Y6848D01*
G01X24699Y6848D01*
G01X24699Y5944D01*
G01X23996Y5944D01*
G37*
G36*
G01X24656Y5944D02*
G01X24656Y6848D01*
G01X25357Y6848D01*
G01X25357Y5944D01*
G01X24656Y5944D01*
G37*
G36*
G01X25314Y5944D02*
G01X25314Y6848D01*
G01X26017Y6848D01*
G01X26017Y5944D01*
G01X25314Y5944D01*
G37*
G36*
G01X25316Y8913D02*
G01X25316Y9817D01*
G01X26017Y9817D01*
G01X26017Y8913D01*
G01X25316Y8913D01*
G37*
G36*
G01X24656Y8913D02*
G01X24656Y9817D01*
G01X25357Y9817D01*
G01X25357Y8913D01*
G01X24656Y8913D01*
G37*
G36*
G01X23996Y8913D02*
G01X23996Y9817D01*
G01X24699Y9817D01*
G01X24699Y8913D01*
G01X23996Y8913D01*
G37*
G36*
G01X23335Y8913D02*
G01X23335Y9817D01*
G01X24039Y9817D01*
G01X24039Y8913D01*
G01X23335Y8913D01*
G37*
G54D83*
G01X24676Y8165D03*
G36*
G01X33147Y6017D02*
G01X33147Y6919D01*
G01X33851Y6919D01*
G01X33851Y6017D01*
G01X33147Y6017D01*
G37*
G36*
G01X33808Y6017D02*
G01X33808Y6919D01*
G01X34511Y6919D01*
G01X34511Y6017D01*
G01X33808Y6017D01*
G37*
G36*
G01X34468Y6017D02*
G01X34468Y6919D01*
G01X35169Y6919D01*
G01X35169Y6017D01*
G01X34468Y6017D01*
G37*
G36*
G01X35126Y6017D02*
G01X35126Y6919D01*
G01X35829Y6919D01*
G01X35829Y6017D01*
G01X35126Y6017D01*
G37*
G36*
G01X35126Y8987D02*
G01X35126Y9888D01*
G01X35829Y9888D01*
G01X35829Y8987D01*
G01X35126Y8987D01*
G37*
G36*
G01X34468Y8987D02*
G01X34468Y9888D01*
G01X35169Y9888D01*
G01X35169Y8987D01*
G01X34468Y8987D01*
G37*
G36*
G01X33808Y8987D02*
G01X33808Y9888D01*
G01X34511Y9888D01*
G01X34511Y8987D01*
G01X33808Y8987D01*
G37*
G36*
G01X33147Y8987D02*
G01X33147Y9888D01*
G01X33851Y9888D01*
G01X33851Y8987D01*
G01X33147Y8987D01*
G37*
G36*
G01X33147Y7237D02*
G01X33147Y9241D01*
G01X35829Y9241D01*
G01X35829Y7237D01*
G01X33147Y7237D01*
G37*
G36*
G01X42766Y6071D02*
G01X42766Y6975D01*
G01X43470Y6975D01*
G01X43470Y6071D01*
G01X42766Y6071D01*
G37*
G36*
G01X43427Y6071D02*
G01X43427Y6975D01*
G01X44130Y6975D01*
G01X44130Y6071D01*
G01X43427Y6071D01*
G37*
G36*
G01X44087Y6071D02*
G01X44087Y6975D01*
G01X44788Y6975D01*
G01X44788Y6071D01*
G01X44087Y6071D01*
G37*
G36*
G01X44745Y6071D02*
G01X44745Y6975D01*
G01X45448Y6975D01*
G01X45448Y6071D01*
G01X44745Y6071D01*
G37*
G36*
G01X44747Y9040D02*
G01X44747Y9944D01*
G01X45448Y9944D01*
G01X45448Y9040D01*
G01X44747Y9040D01*
G37*
G36*
G01X44087Y9040D02*
G01X44087Y9944D01*
G01X44788Y9944D01*
G01X44788Y9040D01*
G01X44087Y9040D01*
G37*
G36*
G01X43427Y9040D02*
G01X43427Y9944D01*
G01X44130Y9944D01*
G01X44130Y9040D01*
G01X43427Y9040D01*
G37*
G36*
G01X42766Y9040D02*
G01X42766Y9944D01*
G01X43470Y9944D01*
G01X43470Y9040D01*
G01X42766Y9040D01*
G37*
G01X44107Y8292D03*
G36*
G01X40937Y9040D02*
G01X40937Y9944D01*
G01X41638Y9944D01*
G01X41638Y9040D01*
G01X40937Y9040D01*
G37*
G36*
G01X40277Y9040D02*
G01X40277Y9944D01*
G01X40978Y9944D01*
G01X40978Y9040D01*
G01X40277Y9040D01*
G37*
G36*
G01X39617Y9040D02*
G01X39617Y9944D01*
G01X40320Y9944D01*
G01X40320Y9040D01*
G01X39617Y9040D01*
G37*
G36*
G01X38956Y9040D02*
G01X38956Y9944D01*
G01X39660Y9944D01*
G01X39660Y9040D01*
G01X38956Y9040D01*
G37*
G36*
G01X38956Y6071D02*
G01X38956Y6975D01*
G01X39660Y6975D01*
G01X39660Y6071D01*
G01X38956Y6071D01*
G37*
G36*
G01X39617Y6071D02*
G01X39617Y6975D01*
G01X40320Y6975D01*
G01X40320Y6071D01*
G01X39617Y6071D01*
G37*
G36*
G01X40277Y6071D02*
G01X40277Y6975D01*
G01X40978Y6975D01*
G01X40978Y6071D01*
G01X40277Y6071D01*
G37*
G36*
G01X40937Y6071D02*
G01X40937Y6975D01*
G01X41638Y6975D01*
G01X41638Y6071D01*
G01X40937Y6071D01*
G37*
G36*
G01X38956Y6721D02*
G01X38956Y8725D01*
G01X41638Y8725D01*
G01X41638Y6721D01*
G01X38956Y6721D01*
G37*
G36*
G01X24283Y24633D02*
G01X24283Y26434D01*
G01X26086Y26434D01*
G01X26086Y24633D01*
G01X24283Y24633D01*
G37*
G36*
G01X30907Y23157D02*
G01X30907Y23861D01*
G01X31910Y23861D01*
G01X31910Y23157D01*
G01X30907Y23157D01*
G37*
G36*
G01X30907Y24158D02*
G01X30907Y24862D01*
G01X31910Y24862D01*
G01X31910Y24158D01*
G01X30907Y24158D01*
G37*
G36*
G01X31034Y21125D02*
G01X31034Y21829D01*
G01X32037Y21829D01*
G01X32037Y21125D01*
G01X31034Y21125D01*
G37*
G36*
G01X31034Y22126D02*
G01X31034Y22830D01*
G01X32037Y22830D01*
G01X32037Y22126D01*
G01X31034Y22126D01*
G37*
G36*
G01X31161Y20094D02*
G01X31161Y20798D01*
G01X32164Y20798D01*
G01X32164Y20094D01*
G01X31161Y20094D01*
G37*
G36*
G01X31161Y19093D02*
G01X31161Y19797D01*
G01X32164Y19797D01*
G01X32164Y19093D01*
G01X31161Y19093D01*
G37*
G36*
G01X9421Y29543D02*
G01X9421Y30744D01*
G01X10724Y30744D01*
G01X10724Y29543D01*
G01X9421Y29543D01*
G37*
G36*
G01X9421Y27943D02*
G01X9421Y29144D01*
G01X10724Y29144D01*
G01X10724Y27943D01*
G01X9421Y27943D01*
G37*
G36*
G01X26398Y32883D02*
G01X26398Y34186D01*
G01X27602Y34186D01*
G01X27602Y32883D01*
G01X26398Y32883D01*
G37*
G36*
G01X24798Y32883D02*
G01X24798Y34186D01*
G01X26002Y34186D01*
G01X26002Y32883D01*
G01X24798Y32883D01*
G37*
G36*
G01X39035Y36238D02*
G01X39035Y36942D01*
G01X40038Y36942D01*
G01X40038Y36238D01*
G01X39035Y36238D01*
G37*
G36*
G01X39035Y37239D02*
G01X39035Y37943D01*
G01X40038Y37943D01*
G01X40038Y37239D01*
G01X39035Y37239D01*
G37*
G36*
G01X36525Y36716D02*
G01X36525Y37719D01*
G01X37229Y37719D01*
G01X37229Y36716D01*
G01X36525Y36716D01*
G37*
G36*
G01X37526Y36716D02*
G01X37526Y37719D01*
G01X38227Y37719D01*
G01X38227Y36716D01*
G01X37526Y36716D01*
G37*
G36*
G01X42985Y29731D02*
G01X42985Y30734D01*
G01X43688Y30734D01*
G01X43688Y29731D01*
G01X42985Y29731D01*
G37*
G36*
G01X41986Y29731D02*
G01X41986Y30734D01*
G01X42690Y30734D01*
G01X42690Y29731D01*
G01X41986Y29731D01*
G37*
G36*
G01X28875Y27348D02*
G01X28875Y28052D01*
G01X29878Y28052D01*
G01X29878Y27348D01*
G01X28875Y27348D01*
G37*
G36*
G01X28875Y28349D02*
G01X28875Y29053D01*
G01X29878Y29053D01*
G01X29878Y28349D01*
G01X28875Y28349D01*
G37*
G36*
G01X27605Y23665D02*
G01X27605Y24369D01*
G01X28608Y24369D01*
G01X28608Y23665D01*
G01X27605Y23665D01*
G37*
G36*
G01X27605Y24666D02*
G01X27605Y25370D01*
G01X28608Y25370D01*
G01X28608Y24666D01*
G01X27605Y24666D01*
G37*
G36*
G01X46185Y31359D02*
G01X46185Y32662D01*
G01X47386Y32662D01*
G01X47386Y31359D01*
G01X46185Y31359D01*
G37*
G36*
G01X44384Y31359D02*
G01X44384Y32662D01*
G01X45588Y32662D01*
G01X45588Y31359D01*
G01X44384Y31359D01*
G37*
G36*
G01X41717Y34915D02*
G01X41717Y36218D01*
G01X42921Y36218D01*
G01X42921Y34915D01*
G01X41717Y34915D01*
G37*
G36*
G01X43518Y34915D02*
G01X43518Y36218D01*
G01X44719Y36218D01*
G01X44719Y34915D01*
G01X43518Y34915D01*
G37*
G36*
G01X35184Y34722D02*
G01X34232Y35674D01*
G01X34554Y35997D01*
G01X35507Y35044D01*
G01X35184Y34722D01*
G37*
G36*
G01X34831Y34369D02*
G01X33879Y35319D01*
G01X34201Y35644D01*
G01X35154Y34691D01*
G01X34831Y34369D01*
G37*
G36*
G01X34476Y34013D02*
G01X33526Y34966D01*
G01X33848Y35288D01*
G01X34801Y34338D01*
G01X34476Y34013D01*
G37*
G36*
G01X34122Y33660D02*
G01X33170Y34613D01*
G01X33495Y34935D01*
G01X34445Y33985D01*
G01X34122Y33660D01*
G37*
G36*
G01X33769Y33307D02*
G01X32817Y34260D01*
G01X33140Y34582D01*
G01X34092Y33630D01*
G01X33769Y33307D01*
G37*
G36*
G01X33416Y32954D02*
G01X32464Y33907D01*
G01X32786Y34229D01*
G01X33739Y33277D01*
G01X33416Y32954D01*
G37*
G36*
G01X33063Y32601D02*
G01X32111Y33551D01*
G01X32433Y33876D01*
G01X33386Y32924D01*
G01X33063Y32601D01*
G37*
G36*
G01X32708Y32245D02*
G01X31758Y33198D01*
G01X32080Y33523D01*
G01X33033Y32571D01*
G01X32708Y32245D01*
G37*
G36*
G01X32355Y31892D02*
G01X31402Y32845D01*
G01X31727Y33167D01*
G01X32677Y32217D01*
G01X32355Y31892D01*
G37*
G36*
G01X32002Y31539D02*
G01X31049Y32492D01*
G01X31372Y32814D01*
G01X32324Y31862D01*
G01X32002Y31539D01*
G37*
G36*
G01X31649Y31186D02*
G01X30696Y32139D01*
G01X31019Y32461D01*
G01X31971Y31509D01*
G01X31649Y31186D01*
G37*
G36*
G01X31295Y30833D02*
G01X30343Y31783D01*
G01X30666Y32108D01*
G01X31618Y31156D01*
G01X31295Y30833D01*
G37*
G36*
G01X30666Y28357D02*
G01X30343Y28682D01*
G01X31295Y29632D01*
G01X31618Y29309D01*
G01X30666Y28357D01*
G37*
G36*
G01X31019Y28004D02*
G01X30696Y28326D01*
G01X31649Y29279D01*
G01X31971Y28956D01*
G01X31019Y28004D01*
G37*
G36*
G01X31372Y27651D02*
G01X31049Y27973D01*
G01X32002Y28926D01*
G01X32324Y28603D01*
G01X31372Y27651D01*
G37*
G36*
G01X31727Y27297D02*
G01X31402Y27620D01*
G01X32355Y28573D01*
G01X32677Y28247D01*
G01X31727Y27297D01*
G37*
G36*
G01X32080Y26944D02*
G01X31758Y27267D01*
G01X32708Y28220D01*
G01X33033Y27894D01*
G01X32080Y26944D01*
G37*
G36*
G01X32433Y26589D02*
G01X32111Y26914D01*
G01X33063Y27864D01*
G01X33386Y27541D01*
G01X32433Y26589D01*
G37*
G36*
G01X32786Y26236D02*
G01X32464Y26558D01*
G01X33416Y27511D01*
G01X33739Y27188D01*
G01X32786Y26236D01*
G37*
G36*
G01X33140Y25883D02*
G01X32817Y26205D01*
G01X33769Y27158D01*
G01X34092Y26835D01*
G01X33140Y25883D01*
G37*
G36*
G01X33495Y25530D02*
G01X33170Y25852D01*
G01X34122Y26805D01*
G01X34445Y26482D01*
G01X33495Y25530D01*
G37*
G36*
G01X33848Y25177D02*
G01X33526Y25499D01*
G01X34476Y26452D01*
G01X34801Y26127D01*
G01X33848Y25177D01*
G37*
G36*
G01X34201Y24821D02*
G01X33879Y25146D01*
G01X34831Y26096D01*
G01X35154Y25773D01*
G01X34201Y24821D01*
G37*
G36*
G01X34554Y24468D02*
G01X34232Y24791D01*
G01X35184Y25743D01*
G01X35507Y25420D01*
G01X34554Y24468D01*
G37*
G36*
G01X37658Y24468D02*
G01X36706Y25420D01*
G01X37031Y25743D01*
G01X37981Y24791D01*
G01X37658Y24468D01*
G37*
G36*
G01X38011Y24821D02*
G01X37061Y25773D01*
G01X37384Y26096D01*
G01X38336Y25146D01*
G01X38011Y24821D01*
G37*
G36*
G01X38364Y25177D02*
G01X37414Y26127D01*
G01X37737Y26452D01*
G01X38689Y25499D01*
G01X38364Y25177D01*
G37*
G36*
G01X38720Y25530D02*
G01X37767Y26482D01*
G01X38090Y26805D01*
G01X39042Y25852D01*
G01X38720Y25530D01*
G37*
G36*
G01X39073Y25883D02*
G01X38120Y26835D01*
G01X38443Y27158D01*
G01X39396Y26205D01*
G01X39073Y25883D01*
G37*
G36*
G01X39426Y26236D02*
G01X38474Y27188D01*
G01X38799Y27511D01*
G01X39749Y26558D01*
G01X39426Y26236D01*
G37*
G36*
G01X39779Y26589D02*
G01X38827Y27541D01*
G01X39152Y27864D01*
G01X40104Y26914D01*
G01X39779Y26589D01*
G37*
G36*
G01X40132Y26944D02*
G01X39182Y27894D01*
G01X39505Y28220D01*
G01X40457Y27267D01*
G01X40132Y26944D01*
G37*
G36*
G01X40488Y27297D02*
G01X39535Y28250D01*
G01X39858Y28573D01*
G01X40810Y27620D01*
G01X40488Y27297D01*
G37*
G36*
G01X40841Y27651D02*
G01X39888Y28603D01*
G01X40211Y28926D01*
G01X41163Y27973D01*
G01X40841Y27651D01*
G37*
G36*
G01X41194Y28004D02*
G01X40241Y28956D01*
G01X40566Y29279D01*
G01X41516Y28326D01*
G01X41194Y28004D01*
G37*
G36*
G01X41547Y28357D02*
G01X40594Y29309D01*
G01X40920Y29632D01*
G01X41869Y28682D01*
G01X41547Y28357D01*
G37*
G36*
G01X40935Y30815D02*
G01X40579Y31171D01*
G01X41532Y32123D01*
G01X41887Y31768D01*
G01X40935Y30815D01*
G37*
G36*
G01X40566Y31186D02*
G01X40241Y31509D01*
G01X41194Y32461D01*
G01X41516Y32139D01*
G01X40566Y31186D01*
G37*
G36*
G01X40211Y31539D02*
G01X39888Y31862D01*
G01X40841Y32814D01*
G01X41163Y32492D01*
G01X40211Y31539D01*
G37*
G36*
G01X39858Y31892D02*
G01X39535Y32217D01*
G01X40488Y33167D01*
G01X40810Y32845D01*
G01X39858Y31892D01*
G37*
G36*
G01X39505Y32245D02*
G01X39182Y32571D01*
G01X40132Y33520D01*
G01X40457Y33198D01*
G01X39505Y32245D01*
G37*
G36*
G01X39152Y32601D02*
G01X38827Y32924D01*
G01X39779Y33876D01*
G01X40104Y33551D01*
G01X39152Y32601D01*
G37*
G36*
G01X38799Y32954D02*
G01X38474Y33277D01*
G01X39426Y34229D01*
G01X39749Y33907D01*
G01X38799Y32954D01*
G37*
G36*
G01X38443Y33307D02*
G01X38120Y33630D01*
G01X39073Y34582D01*
G01X39396Y34260D01*
G01X38443Y33307D01*
G37*
G36*
G01X38090Y33660D02*
G01X37767Y33983D01*
G01X38720Y34935D01*
G01X39042Y34613D01*
G01X38090Y33660D01*
G37*
G36*
G01X37737Y34013D02*
G01X37414Y34338D01*
G01X38364Y35288D01*
G01X38689Y34966D01*
G01X37737Y34013D01*
G37*
G36*
G01X37384Y34369D02*
G01X37061Y34691D01*
G01X38011Y35644D01*
G01X38336Y35319D01*
G01X37384Y34369D01*
G37*
G36*
G01X37031Y34722D02*
G01X36706Y35044D01*
G01X37658Y35997D01*
G01X37981Y35674D01*
G01X37031Y34722D01*
G37*
G36*
G01X36106Y27473D02*
G01X33348Y30234D01*
G01X36106Y32992D01*
G01X38867Y30234D01*
G01X36106Y27473D01*
G37*
G54D92*
G01X12457Y48647D03*
G01X8956Y48647D03*
G01X38547Y48647D03*
G01X42048Y48647D03*
G54D93*
G01X28359Y47885D03*
G01X25819Y47885D03*
G01X23279Y47885D03*
G01X20739Y47885D03*
G36*
G01X17310Y46998D02*
G01X17310Y48776D01*
G01X19088Y48776D01*
G01X19088Y46998D01*
G01X17310Y46998D01*
G37*
G36*
G01X47704Y40434D02*
G01X47704Y42637D01*
G01X49909Y42637D01*
G01X49909Y40434D01*
G01X47704Y40434D01*
G37*
G54D70*
G01X48806Y44075D03*
G36*
G01X4905Y9700D02*
G01X4905Y11903D01*
G01X7110Y11903D01*
G01X7110Y9700D01*
G01X4905Y9700D01*
G37*
G01X8547Y10801D03*
G54D95*
G01X4788Y42551D03*
G01X7328Y42551D03*
G01X9875Y42539D03*
G01X12415Y42539D03*
G01X14955Y42539D03*
G01X17495Y42539D03*
G01X20035Y42539D03*
G01X22575Y42539D03*
G01X25115Y42539D03*
G01X27655Y42539D03*
G01X30195Y42539D03*
G01X32735Y42539D03*
G01X35275Y42539D03*
G01X37815Y42539D03*
G01X40355Y42539D03*
G36*
G01X3836Y16251D02*
G01X3836Y18153D01*
G01X5741Y18153D01*
G01X5741Y16251D01*
G01X3836Y16251D01*
G37*
G01X7328Y17202D03*
G01X9875Y17190D03*
G01X12415Y17190D03*
G01X14955Y17190D03*
G01X17495Y17190D03*
G01X20035Y17190D03*
G01X22575Y17190D03*
G01X25115Y17190D03*
G01X27655Y17190D03*
G01X30195Y17190D03*
G01X32735Y17190D03*
G01X35275Y17190D03*
G01X37815Y17190D03*
G01X40355Y17190D03*
G36*
G01X39015Y5988D02*
G01X43866Y5988D01*
G01X43866Y1137D01*
G01X39015Y1137D01*
G01X39015Y5988D01*
G37*
G36*
G01X39015Y5607D02*
G01X43866Y5607D01*
G01X43866Y756D01*
G01X39015Y756D01*
G01X39015Y5607D01*
G37*
G36*
G01X19838Y5607D02*
G01X24689Y5607D01*
G01X24689Y756D01*
G01X19838Y756D01*
G01X19838Y5607D01*
G37*
G36*
G01X29718Y5633D02*
G01X34570Y5633D01*
G01X34570Y781D01*
G01X29718Y781D01*
G01X29718Y5633D01*
G37*
M00*
M02*
