G04 Layer: BottomSolderMaskLayer*
G04 EasyEDA v6.4.3, 2020-08-11T17:33:51--5:00*
G04 c8abcd5c7f324be6b54abc10bf488c2c,7c1e8d740ba24e6f83eb2d53d3341807,10*
G04 Gerber Generator version 0.2*
G04 Scale: 100 percent, Rotated: No, Reflected: No *
G04 Dimensions in millimeters *
G04 leading zeros omitted , absolute positions ,3 integer and 3 decimal *
%FSLAX33Y33*%
%MOMM*%
G90*
G71D02*

%ADD69C,4.203192*%
%ADD70C,2.203196*%
%ADD92C,1.803197*%
%ADD93C,1.778000*%
%ADD95C,1.903197*%
%ADD97C,2.601595*%

%LPD*%
G54D97*
G01X33820Y10419D02*
G01X35598Y8644D01*
G01X43114Y8644D01*
G01X44869Y10419D01*
G01X24549Y10295D02*
G01X26200Y8644D01*
G01X32045Y8644D01*
G01X33820Y10419D01*
G01X8542Y3317D02*
G01X8542Y5215D01*
G01X11590Y8263D01*
G01X22011Y8263D01*
G01X24041Y10293D01*
G54D69*
G01X22263Y3181D03*
G01X32169Y3181D03*
G01X41440Y3181D03*
G54D70*
G01X25438Y2038D03*
G01X35217Y2038D03*
G01X44488Y1911D03*
G36*
G01X6706Y1085D02*
G01X6706Y6040D01*
G01X11659Y6040D01*
G01X11659Y1085D01*
G01X6706Y1085D01*
G37*
G36*
G01X12421Y1085D02*
G01X12421Y6040D01*
G01X17374Y6040D01*
G01X17374Y1085D01*
G01X12421Y1085D01*
G37*
G36*
G01X29797Y46784D02*
G01X29797Y48989D01*
G01X32002Y48989D01*
G01X32002Y46784D01*
G01X29797Y46784D01*
G37*
G01X33439Y47887D03*
G54D92*
G01X12457Y48647D03*
G01X8956Y48647D03*
G01X38547Y48647D03*
G01X42048Y48647D03*
G54D93*
G01X28359Y47885D03*
G01X25819Y47885D03*
G01X23279Y47885D03*
G01X20739Y47885D03*
G36*
G01X17310Y46998D02*
G01X17310Y48776D01*
G01X19088Y48776D01*
G01X19088Y46998D01*
G01X17310Y46998D01*
G37*
G36*
G01X47704Y40434D02*
G01X47704Y42637D01*
G01X49909Y42637D01*
G01X49909Y40434D01*
G01X47704Y40434D01*
G37*
G54D70*
G01X48806Y44075D03*
G36*
G01X4905Y9700D02*
G01X4905Y11903D01*
G01X7110Y11903D01*
G01X7110Y9700D01*
G01X4905Y9700D01*
G37*
G01X8547Y10801D03*
G54D95*
G01X4788Y42551D03*
G01X7328Y42551D03*
G01X9875Y42539D03*
G01X12415Y42539D03*
G01X14955Y42539D03*
G01X17495Y42539D03*
G01X20035Y42539D03*
G01X22575Y42539D03*
G01X25115Y42539D03*
G01X27655Y42539D03*
G01X30195Y42539D03*
G01X32735Y42539D03*
G01X35275Y42539D03*
G01X37815Y42539D03*
G01X40355Y42539D03*
G36*
G01X3836Y16251D02*
G01X3836Y18153D01*
G01X5741Y18153D01*
G01X5741Y16251D01*
G01X3836Y16251D01*
G37*
G01X7328Y17202D03*
G01X9875Y17190D03*
G01X12415Y17190D03*
G01X14955Y17190D03*
G01X17495Y17190D03*
G01X20035Y17190D03*
G01X22575Y17190D03*
G01X25115Y17190D03*
G01X27655Y17190D03*
G01X30195Y17190D03*
G01X32735Y17190D03*
G01X35275Y17190D03*
G01X37815Y17190D03*
G01X40355Y17190D03*
M00*
M02*
