;Layer: Drill PTH
;EasyEDA v6.4.3, 2020-08-11T17:33:51--5:00
;c8abcd5c7f324be6b54abc10bf488c2c,7c1e8d740ba24e6f83eb2d53d3341807,10
;Gerber Generator version 0.2
M48
METRIC,LZ,000.000
;Holesize 1 = 0.305 METRIC
T01C0.305
;Holesize 2 = 0.310 METRIC
T02C0.310
;Holesize 3 = 0.320 METRIC
T03C0.320
;Holesize 4 = 0.450 METRIC
T04C0.450
;Holesize 5 = 0.501 METRIC
T05C0.501
;Holesize 6 = 0.510 METRIC
T06C0.510
;Holesize 7 = 0.889 METRIC
T07C0.889
;Holesize 8 = 0.951 METRIC
T08C0.951
;Holesize 9 = 1.000 METRIC
T09C1.000
;Holesize 10 = 1.021 METRIC
T10C1.021
;Holesize 11 = 1.200 METRIC
T11C1.200
;Holesize 12 = 2.000 METRIC
T12C2.000
%
G05
G90
T01
X+011976Y+025660
X+011976Y+026422
X+011976Y+027184
X+011976Y+027946
X+011976Y+028708
X+014516Y+025533
X+014516Y+026295
X+014516Y+027057
X+014516Y+027819
X+014516Y+028581
X+013881Y+025152
X+013881Y+025914
X+013881Y+026676
X+013881Y+027438
X+013881Y+028200
X+013246Y+025660
X+013246Y+026422
X+013246Y+027184
X+013246Y+027946
X+013246Y+028708
X+012611Y+025279
X+012611Y+026041
X+012611Y+026803
X+012611Y+027565
X+012611Y+028327
X+002959Y+023628
X+001943Y+023628
X+002959Y+024390
X+001943Y+024390
X+002959Y+025152
X+001943Y+025152
X+002451Y+023247
X+002451Y+024009
X+002451Y+024771
X+002451Y+025533
X+048933Y+036709
X+042456Y+015754
X+041821Y+016135
X+042456Y+016516
X+041821Y+016897
X+042456Y+017278
X+041821Y+017659
X+037757Y+020072
X+038646Y+019945
X+038265Y+020834
X+039662Y+019818
X+035598Y+015754
X+037122Y+015754
X+037376Y+014992
X+036614Y+014992
X+036360Y+015754
X+039027Y+020580
X+035852Y+024517
X+035217Y+024263
X+035725Y+023755
X+035217Y+029343
X+036995Y+031121
X+035217Y+031121
X+036868Y+029343
X+034201Y+030232
X+038011Y+030232
X+036106Y+028327
X+036107Y+030232
X+036107Y+032051
X+026581Y+034804
X+035725Y+021850
X+035217Y+022231
X+035598Y+022739
X+035217Y+023247
X+040551Y+019691
X+022771Y+024136
X+027343Y+024018
X+012357Y+033407
X+011341Y+034423
X+016675Y+034296
X+016675Y+033407
X+024041Y+028200
X+029883Y+030742
X+022390Y+024898
X+030772Y+030486
X+029121Y+031502
X+027470Y+027057
X+028486Y+028701
X+025184Y+025533
X+033312Y+018675
X+043345Y+014357
X+041186Y+014230
X+017437Y+024009
X+033820Y+014738
X+022644Y+014865
X+021501Y+015246
X+027216Y+012325
X+017437Y+022231
X+017691Y+020582
X+037884Y+021850
X+037122Y+023501
X+029121Y+026676
X+029375Y+025914
X+029756Y+025152
X+016929Y+031375
X+022263Y+004705
X+022263Y+001530
X+023914Y+003181
X+020612Y+003181
X+021120Y+004324
X+023406Y+004324
X+023406Y+002038
X+021120Y+002038
X+033312Y+004324
X+033820Y+003181
X+033312Y+002038
X+032169Y+001530
X+031026Y+002038
X+030518Y+003181
X+031026Y+004324
X+032169Y+004705
X+042583Y+004324
X+043091Y+003181
X+042583Y+002038
X+041440Y+001530
X+040297Y+002038
X+039789Y+003181
X+040297Y+004324
X+041440Y+004705
T02
X+024168Y+011309
X+024930Y+011309
X+025692Y+011309
X+044107Y+011436
X+043345Y+011436
X+044869Y+011436
X+045631Y+011436
X+033820Y+011436
X+033058Y+011436
X+034582Y+011436
X+035344Y+011436
X+049822Y+015119
X+049822Y+015881
X+049822Y+016643
X+049822Y+017405
X+049822Y+018167
X+049822Y+018929
X+049822Y+019691
X+049822Y+020453
X+049822Y+021215
X+049822Y+021977
X+049822Y+022739
X+049822Y+023501
X+049822Y+024263
X+049822Y+025025
X+049060Y+024517
X+049060Y+023755
X+049060Y+022993
X+049060Y+022231
X+049060Y+021469
X+049060Y+020707
X+049060Y+019945
X+049060Y+019183
X+049060Y+018421
X+049060Y+017659
X+049060Y+016897
X+049060Y+016135
X+049060Y+015373
X+031788Y+014738
X+017691Y+021469
X+017437Y+023120
X+017437Y+024898
X+011087Y+018802
X+025946Y+003943
X+025565Y+004705
X+044869Y+024263
X+045758Y+024390
X+038011Y+006864
X+047409Y+008642
X+046520Y+007753
X+036868Y+010547
X+037757Y+011182
X+018580Y+011182
X+030518Y+020453
X+030264Y+024263
X+030518Y+022231
X+042583Y+019056
X+042964Y+019818
X+042202Y+020707
X+041313Y+020834
X+040678Y+021469
X+040043Y+022104
X+039281Y+022739
X+038646Y+023374
X+027978Y+039757
X+028740Y+039376
X+029502Y+038868
X+030518Y+038868
X+031153Y+038106
X+031788Y+038868
X+032423Y+038360
X+033058Y+037852
X+033820Y+037598
X+008928Y+025025
X+018453Y+019183
X+020104Y+019183
X+021628Y+019945
X+015151Y+019564
X+010833Y+019564
X+028105Y+019056
X+010198Y+035058
X+018199Y+035947
X+024676Y+041027
X+034709Y+039376
X+027089Y+003689
X+036614Y+003689
X+024549Y+010801
X+025311Y+010801
X+024930Y+010293
X+024041Y+010293
X+023914Y+007753
X+024676Y+007753
X+025438Y+007753
X+025438Y+008515
X+024676Y+008515
X+023914Y+008515
X+023279Y+010293
X+026073Y+010801
X+034455Y+007753
X+035217Y+007753
X+033693Y+008642
X+034455Y+008642
X+035217Y+008642
X+033058Y+010420
X+033820Y+010420
X+034582Y+010420
X+035344Y+010420
X+033439Y+010928
X+034201Y+010928
X+034963Y+010928
X+035725Y+010928
X+044107Y+007880
X+044869Y+007880
X+043345Y+008642
X+044107Y+008642
X+044869Y+008642
X+043345Y+010420
X+044107Y+010420
X+044869Y+010420
X+045631Y+010420
X+043726Y+010928
X+044488Y+010928
X+045250Y+010928
X+046012Y+010928
X+045123Y+049917
X+045123Y+049155
X+045123Y+048393
X+044361Y+048647
X+044361Y+049409
X+005753Y+048266
X+005753Y+049028
X+005753Y+049790
X+006515Y+049536
X+006515Y+048774
X+001435Y+005848
X+001435Y+006610
X+001435Y+007372
X+002197Y+007118
X+002197Y+006356
X+002832Y+006737
X+016167Y+050044
X+017183Y+050044
X+018199Y+050044
X+019215Y+050044
X+020358Y+050044
X+021374Y+050044
X+022517Y+050044
X+023660Y+050044
X+024676Y+050044
X+034328Y+050044
X+033312Y+050044
X+032169Y+050044
X+031026Y+050044
X+030010Y+050044
X+028867Y+050044
X+027851Y+050044
X+026835Y+050044
X+025819Y+050044
T03
X+013119Y+003562
X+014897Y+005340
X+016675Y+003562
X+014897Y+001784
X+016675Y+001784
X+013119Y+005340
X+023279Y+011309
X+023660Y+010801
X+025819Y+010293
X+016675Y+005340
X+013119Y+001784
X+033693Y+007753
X+043345Y+007880
X+010960Y+003562
X+010960Y+001784
X+010960Y+005340
X+009182Y+005340
X+007404Y+005340
X+007404Y+003562
X+007404Y+001784
X+009182Y+001784
T04
X+019850Y+038106
T05
X+018199Y+037852
X+020612Y+001530
X+030391Y+001530
X+039535Y+001530
T06
X+010325Y+037598
T07
X+004788Y+017202
T08
X+004788Y+042552
X+007328Y+042552
X+009875Y+042539
X+012415Y+042539
X+014955Y+042539
X+017495Y+042539
X+020035Y+042539
X+022575Y+042539
X+025115Y+042539
X+027655Y+042539
X+030195Y+042539
X+032735Y+042539
X+035275Y+042539
X+037815Y+042539
X+040355Y+042539
X+007328Y+017202
X+009875Y+017190
X+012415Y+017190
X+014955Y+017190
X+017495Y+017190
X+020035Y+017190
X+022575Y+017190
X+025115Y+017190
X+027655Y+017190
X+030195Y+017190
X+032735Y+017190
X+035275Y+017190
X+037815Y+017190
X+040355Y+017190
T09
X+012457Y+048648
X+008956Y+048648
X+038547Y+048648
X+042048Y+048648
T10
X+028359Y+047886
X+025819Y+047886
X+023279Y+047886
X+020739Y+047886
X+018199Y+047886
T11
X+025438Y+002039
X+035217Y+002039
X+044488Y+001912
X+030899Y+047887
X+033439Y+047887
X+048806Y+041536
X+048806Y+044076
X+006007Y+010802
X+008547Y+010802
T12
X+022263Y+003182
X+032169Y+003182
X+041440Y+003182
X+009182Y+003563
X+014897Y+003563
M30
