G04 Layer: TopSolderMaskLayer*
G04 EasyEDA v6.3.43, 2020-06-06T21:57:39--5:00*
G04 e15436741f6a4511bf69b1aef7df7d06,7c1e8d740ba24e6f83eb2d53d3341807,10*
G04 Gerber Generator version 0.2*
G04 Scale: 100 percent, Rotated: No, Reflected: No *
G04 Dimensions in millimeters *
G04 leading zeros omitted , absolute positions ,3 integer and 3 decimal *
%FSLAX33Y33*%
%MOMM*%
G90*
G71D02*

%ADD65C,0.483210*%
%ADD66C,3.703193*%
%ADD67C,2.203196*%
%ADD70C,1.803197*%
%ADD76R,2.683205X2.003196*%
%ADD88C,1.778000*%
%ADD90C,1.903197*%

%LPD*%
G54D65*
G01X14275Y27159D02*
G01X14275Y26639D01*
G01X14776Y27159D02*
G01X14776Y26639D01*
G01X15273Y27159D02*
G01X15273Y26639D01*
G01X15774Y27159D02*
G01X15774Y26639D01*
G01X16164Y26249D02*
G01X16684Y26249D01*
G01X16164Y25748D02*
G01X16684Y25748D01*
G01X16164Y25251D02*
G01X16684Y25251D01*
G01X16164Y24750D02*
G01X16684Y24750D01*
G01X15774Y24360D02*
G01X15774Y23840D01*
G01X15273Y24360D02*
G01X15273Y23840D01*
G01X14776Y24360D02*
G01X14776Y23840D01*
G01X14275Y24360D02*
G01X14275Y23840D01*
G01X13365Y24750D02*
G01X13885Y24750D01*
G01X13365Y25251D02*
G01X13885Y25251D01*
G01X13365Y25748D02*
G01X13885Y25748D01*
G01X13365Y26249D02*
G01X13885Y26249D01*
G54D66*
G01X22263Y3181D03*
G01X32169Y3181D03*
G01X41440Y3181D03*
G54D67*
G01X25438Y2038D03*
G01X35217Y2038D03*
G01X44488Y1911D03*
G36*
G01X12421Y1085D02*
G01X12421Y6040D01*
G01X17374Y6040D01*
G01X17374Y1085D01*
G01X12421Y1085D01*
G37*
G36*
G01X5817Y1085D02*
G01X5817Y6040D01*
G01X10770Y6040D01*
G01X10770Y1085D01*
G01X5817Y1085D01*
G37*
G36*
G01X47196Y38148D02*
G01X47196Y40351D01*
G01X49401Y40351D01*
G01X49401Y38148D01*
G01X47196Y38148D01*
G37*
G01X48298Y41789D03*
G36*
G01X4397Y11224D02*
G01X4397Y13427D01*
G01X6602Y13427D01*
G01X6602Y11224D01*
G01X4397Y11224D01*
G37*
G01X8039Y12325D03*
G54D70*
G01X39182Y48647D03*
G01X42683Y48647D03*
G01X12838Y48647D03*
G01X9337Y48647D03*
G36*
G01X6904Y35603D02*
G01X6904Y36307D01*
G01X7907Y36307D01*
G01X7907Y35603D01*
G01X6904Y35603D01*
G37*
G36*
G01X6904Y36604D02*
G01X6904Y37308D01*
G01X7907Y37308D01*
G01X7907Y36604D01*
G01X6904Y36604D01*
G37*
G36*
G01X4940Y27780D02*
G01X4940Y29383D01*
G01X6144Y29383D01*
G01X6144Y27780D01*
G01X4940Y27780D01*
G37*
G36*
G01X7140Y27780D02*
G01X7140Y29383D01*
G01X8344Y29383D01*
G01X8344Y27780D01*
G01X7140Y27780D01*
G37*
G36*
G01X7412Y26063D02*
G01X7412Y26767D01*
G01X8415Y26767D01*
G01X8415Y26063D01*
G01X7412Y26063D01*
G37*
G36*
G01X7412Y25062D02*
G01X7412Y25766D01*
G01X8415Y25766D01*
G01X8415Y25062D01*
G01X7412Y25062D01*
G37*
G36*
G01X4890Y33193D02*
G01X4890Y34387D01*
G01X6185Y34387D01*
G01X6185Y33193D01*
G01X4890Y33193D01*
G37*
G36*
G01X6591Y33193D02*
G01X6591Y34387D01*
G01X7887Y34387D01*
G01X7887Y33193D01*
G01X6591Y33193D01*
G37*
G36*
G01X37638Y3218D02*
G01X37638Y3922D01*
G01X38641Y3922D01*
G01X38641Y3218D01*
G01X37638Y3218D01*
G37*
G36*
G01X37638Y4219D02*
G01X37638Y4923D01*
G01X38641Y4923D01*
G01X38641Y4219D01*
G01X37638Y4219D01*
G37*
G36*
G01X48560Y6901D02*
G01X48560Y7605D01*
G01X49563Y7605D01*
G01X49563Y6901D01*
G01X48560Y6901D01*
G37*
G36*
G01X48560Y7902D02*
G01X48560Y8606D01*
G01X49563Y8606D01*
G01X49563Y7902D01*
G01X48560Y7902D01*
G37*
G36*
G01X28113Y3599D02*
G01X28113Y4303D01*
G01X29116Y4303D01*
G01X29116Y3599D01*
G01X28113Y3599D01*
G37*
G36*
G01X28113Y4600D02*
G01X28113Y5304D01*
G01X29116Y5304D01*
G01X29116Y4600D01*
G01X28113Y4600D01*
G37*
G36*
G01X44879Y23211D02*
G01X44879Y25316D01*
G01X46281Y25316D01*
G01X46281Y23211D01*
G01X44879Y23211D01*
G37*
G36*
G01X41679Y23211D02*
G01X41679Y25316D01*
G01X43081Y25316D01*
G01X43081Y23211D01*
G01X41679Y23211D01*
G37*
G36*
G01X44473Y28037D02*
G01X44473Y30142D01*
G01X45875Y30142D01*
G01X45875Y28037D01*
G01X44473Y28037D01*
G37*
G36*
G01X47673Y28037D02*
G01X47673Y30142D01*
G01X49075Y30142D01*
G01X49075Y28037D01*
G01X47673Y28037D01*
G37*
G36*
G01X31316Y8987D02*
G01X31316Y9888D01*
G01X32019Y9888D01*
G01X32019Y8987D01*
G01X31316Y8987D01*
G37*
G36*
G01X30658Y8987D02*
G01X30658Y9888D01*
G01X31359Y9888D01*
G01X31359Y8987D01*
G01X30658Y8987D01*
G37*
G36*
G01X29998Y8987D02*
G01X29998Y9888D01*
G01X30701Y9888D01*
G01X30701Y8987D01*
G01X29998Y8987D01*
G37*
G36*
G01X29337Y8987D02*
G01X29337Y9888D01*
G01X30041Y9888D01*
G01X30041Y8987D01*
G01X29337Y8987D01*
G37*
G36*
G01X29337Y6017D02*
G01X29337Y6919D01*
G01X30041Y6919D01*
G01X30041Y6017D01*
G01X29337Y6017D01*
G37*
G36*
G01X29998Y6017D02*
G01X29998Y6919D01*
G01X30701Y6919D01*
G01X30701Y6017D01*
G01X29998Y6017D01*
G37*
G36*
G01X30658Y6017D02*
G01X30658Y6919D01*
G01X31359Y6919D01*
G01X31359Y6017D01*
G01X30658Y6017D01*
G37*
G36*
G01X31316Y6017D02*
G01X31316Y6919D01*
G01X32019Y6919D01*
G01X32019Y6017D01*
G01X31316Y6017D01*
G37*
G36*
G01X29337Y6665D02*
G01X29337Y8669D01*
G01X32019Y8669D01*
G01X32019Y6665D01*
G01X29337Y6665D01*
G37*
G36*
G01X21633Y8913D02*
G01X21633Y9817D01*
G01X22334Y9817D01*
G01X22334Y8913D01*
G01X21633Y8913D01*
G37*
G36*
G01X20973Y8913D02*
G01X20973Y9817D01*
G01X21674Y9817D01*
G01X21674Y8913D01*
G01X20973Y8913D01*
G37*
G36*
G01X20313Y8913D02*
G01X20313Y9817D01*
G01X21016Y9817D01*
G01X21016Y8913D01*
G01X20313Y8913D01*
G37*
G36*
G01X19652Y8913D02*
G01X19652Y9817D01*
G01X20356Y9817D01*
G01X20356Y8913D01*
G01X19652Y8913D01*
G37*
G36*
G01X19652Y5944D02*
G01X19652Y6848D01*
G01X20356Y6848D01*
G01X20356Y5944D01*
G01X19652Y5944D01*
G37*
G36*
G01X20313Y5944D02*
G01X20313Y6848D01*
G01X21016Y6848D01*
G01X21016Y5944D01*
G01X20313Y5944D01*
G37*
G36*
G01X20973Y5944D02*
G01X20973Y6848D01*
G01X21674Y6848D01*
G01X21674Y5944D01*
G01X20973Y5944D01*
G37*
G36*
G01X21633Y5944D02*
G01X21633Y6848D01*
G01X22334Y6848D01*
G01X22334Y5944D01*
G01X21633Y5944D01*
G37*
G36*
G01X19652Y6594D02*
G01X19652Y8598D01*
G01X22334Y8598D01*
G01X22334Y6594D01*
G01X19652Y6594D01*
G37*
G36*
G01X31067Y46784D02*
G01X31067Y48987D01*
G01X33272Y48987D01*
G01X33272Y46784D01*
G01X31067Y46784D01*
G37*
G54D67*
G01X34709Y47885D03*
G36*
G01X42507Y32149D02*
G01X42507Y33904D01*
G01X43708Y33904D01*
G01X43708Y32149D01*
G01X42507Y32149D01*
G37*
G36*
G01X44506Y32149D02*
G01X44506Y33904D01*
G01X45710Y33904D01*
G01X45710Y32149D01*
G01X44506Y32149D01*
G37*
G36*
G01X13871Y12974D02*
G01X13871Y14430D01*
G01X14775Y14430D01*
G01X14775Y12974D01*
G01X13871Y12974D01*
G37*
G36*
G01X11971Y12974D02*
G01X11971Y14430D01*
G01X12875Y14430D01*
G01X12875Y12974D01*
G01X11971Y12974D01*
G37*
G36*
G01X12921Y10475D02*
G01X12921Y11930D01*
G01X13825Y11930D01*
G01X13825Y10475D01*
G01X12921Y10475D01*
G37*
G36*
G01X23335Y5944D02*
G01X23335Y6848D01*
G01X24039Y6848D01*
G01X24039Y5944D01*
G01X23335Y5944D01*
G37*
G36*
G01X23996Y5944D02*
G01X23996Y6848D01*
G01X24699Y6848D01*
G01X24699Y5944D01*
G01X23996Y5944D01*
G37*
G36*
G01X24656Y5944D02*
G01X24656Y6848D01*
G01X25357Y6848D01*
G01X25357Y5944D01*
G01X24656Y5944D01*
G37*
G36*
G01X25314Y5944D02*
G01X25314Y6848D01*
G01X26017Y6848D01*
G01X26017Y5944D01*
G01X25314Y5944D01*
G37*
G36*
G01X25316Y8913D02*
G01X25316Y9817D01*
G01X26017Y9817D01*
G01X26017Y8913D01*
G01X25316Y8913D01*
G37*
G36*
G01X24656Y8913D02*
G01X24656Y9817D01*
G01X25357Y9817D01*
G01X25357Y8913D01*
G01X24656Y8913D01*
G37*
G36*
G01X23996Y8913D02*
G01X23996Y9817D01*
G01X24699Y9817D01*
G01X24699Y8913D01*
G01X23996Y8913D01*
G37*
G36*
G01X23335Y8913D02*
G01X23335Y9817D01*
G01X24039Y9817D01*
G01X24039Y8913D01*
G01X23335Y8913D01*
G37*
G54D76*
G01X24676Y8165D03*
G36*
G01X33147Y6017D02*
G01X33147Y6919D01*
G01X33851Y6919D01*
G01X33851Y6017D01*
G01X33147Y6017D01*
G37*
G36*
G01X33808Y6017D02*
G01X33808Y6919D01*
G01X34511Y6919D01*
G01X34511Y6017D01*
G01X33808Y6017D01*
G37*
G36*
G01X34468Y6017D02*
G01X34468Y6919D01*
G01X35169Y6919D01*
G01X35169Y6017D01*
G01X34468Y6017D01*
G37*
G36*
G01X35126Y6017D02*
G01X35126Y6919D01*
G01X35829Y6919D01*
G01X35829Y6017D01*
G01X35126Y6017D01*
G37*
G36*
G01X35126Y8987D02*
G01X35126Y9888D01*
G01X35829Y9888D01*
G01X35829Y8987D01*
G01X35126Y8987D01*
G37*
G36*
G01X34468Y8987D02*
G01X34468Y9888D01*
G01X35169Y9888D01*
G01X35169Y8987D01*
G01X34468Y8987D01*
G37*
G36*
G01X33808Y8987D02*
G01X33808Y9888D01*
G01X34511Y9888D01*
G01X34511Y8987D01*
G01X33808Y8987D01*
G37*
G36*
G01X33147Y8987D02*
G01X33147Y9888D01*
G01X33851Y9888D01*
G01X33851Y8987D01*
G01X33147Y8987D01*
G37*
G36*
G01X33147Y7237D02*
G01X33147Y9241D01*
G01X35829Y9241D01*
G01X35829Y7237D01*
G01X33147Y7237D01*
G37*
G36*
G01X42766Y6071D02*
G01X42766Y6975D01*
G01X43470Y6975D01*
G01X43470Y6071D01*
G01X42766Y6071D01*
G37*
G36*
G01X43427Y6071D02*
G01X43427Y6975D01*
G01X44130Y6975D01*
G01X44130Y6071D01*
G01X43427Y6071D01*
G37*
G36*
G01X44087Y6071D02*
G01X44087Y6975D01*
G01X44788Y6975D01*
G01X44788Y6071D01*
G01X44087Y6071D01*
G37*
G36*
G01X44745Y6071D02*
G01X44745Y6975D01*
G01X45448Y6975D01*
G01X45448Y6071D01*
G01X44745Y6071D01*
G37*
G36*
G01X44747Y9040D02*
G01X44747Y9944D01*
G01X45448Y9944D01*
G01X45448Y9040D01*
G01X44747Y9040D01*
G37*
G36*
G01X44087Y9040D02*
G01X44087Y9944D01*
G01X44788Y9944D01*
G01X44788Y9040D01*
G01X44087Y9040D01*
G37*
G36*
G01X43427Y9040D02*
G01X43427Y9944D01*
G01X44130Y9944D01*
G01X44130Y9040D01*
G01X43427Y9040D01*
G37*
G36*
G01X42766Y9040D02*
G01X42766Y9944D01*
G01X43470Y9944D01*
G01X43470Y9040D01*
G01X42766Y9040D01*
G37*
G01X44107Y8292D03*
G36*
G01X40937Y9040D02*
G01X40937Y9944D01*
G01X41638Y9944D01*
G01X41638Y9040D01*
G01X40937Y9040D01*
G37*
G36*
G01X40277Y9040D02*
G01X40277Y9944D01*
G01X40978Y9944D01*
G01X40978Y9040D01*
G01X40277Y9040D01*
G37*
G36*
G01X39617Y9040D02*
G01X39617Y9944D01*
G01X40320Y9944D01*
G01X40320Y9040D01*
G01X39617Y9040D01*
G37*
G36*
G01X38956Y9040D02*
G01X38956Y9944D01*
G01X39660Y9944D01*
G01X39660Y9040D01*
G01X38956Y9040D01*
G37*
G36*
G01X38956Y6071D02*
G01X38956Y6975D01*
G01X39660Y6975D01*
G01X39660Y6071D01*
G01X38956Y6071D01*
G37*
G36*
G01X39617Y6071D02*
G01X39617Y6975D01*
G01X40320Y6975D01*
G01X40320Y6071D01*
G01X39617Y6071D01*
G37*
G36*
G01X40277Y6071D02*
G01X40277Y6975D01*
G01X40978Y6975D01*
G01X40978Y6071D01*
G01X40277Y6071D01*
G37*
G36*
G01X40937Y6071D02*
G01X40937Y6975D01*
G01X41638Y6975D01*
G01X41638Y6071D01*
G01X40937Y6071D01*
G37*
G36*
G01X38956Y6721D02*
G01X38956Y8725D01*
G01X41638Y8725D01*
G01X41638Y6721D01*
G01X38956Y6721D01*
G37*
G36*
G01X14123Y24597D02*
G01X14123Y26401D01*
G01X15926Y26401D01*
G01X15926Y24597D01*
G01X14123Y24597D01*
G37*
G36*
G01X25136Y28781D02*
G01X25136Y29484D01*
G01X26139Y29484D01*
G01X26139Y28781D01*
G01X25136Y28781D01*
G37*
G36*
G01X25136Y29779D02*
G01X25136Y30483D01*
G01X26139Y30483D01*
G01X26139Y29779D01*
G01X25136Y29779D01*
G37*
G36*
G01X25136Y26622D02*
G01X25136Y27325D01*
G01X26139Y27325D01*
G01X26139Y26622D01*
G01X25136Y26622D01*
G37*
G36*
G01X25136Y27620D02*
G01X25136Y28324D01*
G01X26139Y28324D01*
G01X26139Y27620D01*
G01X25136Y27620D01*
G37*
G36*
G01X25065Y25428D02*
G01X25065Y26132D01*
G01X26068Y26132D01*
G01X26068Y25428D01*
G01X25065Y25428D01*
G37*
G36*
G01X25065Y24427D02*
G01X25065Y25131D01*
G01X26068Y25131D01*
G01X26068Y24427D01*
G01X25065Y24427D01*
G37*
G36*
G01X44298Y11971D02*
G01X44298Y15474D01*
G01X46101Y15474D01*
G01X46101Y11971D01*
G01X44298Y11971D01*
G37*
G36*
G01X37798Y11971D02*
G01X37798Y15474D01*
G01X39601Y15474D01*
G01X39601Y11971D01*
G01X37798Y11971D01*
G37*
G36*
G01X28146Y11971D02*
G01X28146Y15474D01*
G01X29949Y15474D01*
G01X29949Y11971D01*
G01X28146Y11971D01*
G37*
G36*
G01X34646Y11971D02*
G01X34646Y15474D01*
G01X36449Y15474D01*
G01X36449Y11971D01*
G01X34646Y11971D01*
G37*
G36*
G01X24740Y11971D02*
G01X24740Y15474D01*
G01X26543Y15474D01*
G01X26543Y11971D01*
G01X24740Y11971D01*
G37*
G36*
G01X18240Y11971D02*
G01X18240Y15474D01*
G01X20043Y15474D01*
G01X20043Y11971D01*
G01X18240Y11971D01*
G37*
G36*
G01X9548Y30305D02*
G01X9548Y31506D01*
G01X10851Y31506D01*
G01X10851Y30305D01*
G01X9548Y30305D01*
G37*
G36*
G01X9548Y28705D02*
G01X9548Y29906D01*
G01X10851Y29906D01*
G01X10851Y28705D01*
G01X9548Y28705D01*
G37*
G36*
G01X24818Y34694D02*
G01X24818Y36000D01*
G01X26022Y36000D01*
G01X26022Y34694D01*
G01X24818Y34694D01*
G37*
G36*
G01X23218Y34694D02*
G01X23218Y36000D01*
G01X24422Y36000D01*
G01X24422Y34694D01*
G01X23218Y34694D01*
G37*
G36*
G01X40249Y32464D02*
G01X40249Y33167D01*
G01X41252Y33167D01*
G01X41252Y32464D01*
G01X40249Y32464D01*
G37*
G36*
G01X40249Y33462D02*
G01X40249Y34166D01*
G01X41252Y34166D01*
G01X41252Y33462D01*
G01X40249Y33462D01*
G37*
G36*
G01X37922Y34303D02*
G01X37922Y35306D01*
G01X38626Y35306D01*
G01X38626Y34303D01*
G01X37922Y34303D01*
G37*
G36*
G01X38923Y34303D02*
G01X38923Y35306D01*
G01X39624Y35306D01*
G01X39624Y34303D01*
G01X38923Y34303D01*
G37*
G36*
G01X38286Y25032D02*
G01X38286Y26035D01*
G01X38989Y26035D01*
G01X38989Y25032D01*
G01X38286Y25032D01*
G37*
G36*
G01X37287Y25032D02*
G01X37287Y26035D01*
G01X37991Y26035D01*
G01X37991Y25032D01*
G01X37287Y25032D01*
G37*
G36*
G01X24938Y32301D02*
G01X24938Y33005D01*
G01X25941Y33005D01*
G01X25941Y32301D01*
G01X24938Y32301D01*
G37*
G36*
G01X24938Y33302D02*
G01X24938Y34006D01*
G01X25941Y34006D01*
G01X25941Y33302D01*
G01X24938Y33302D01*
G37*
G36*
G01X16442Y28207D02*
G01X16442Y29210D01*
G01X17145Y29210D01*
G01X17145Y28207D01*
G01X16442Y28207D01*
G37*
G36*
G01X15443Y28207D02*
G01X15443Y29210D01*
G01X16147Y29210D01*
G01X16147Y28207D01*
G01X15443Y28207D01*
G37*
G36*
G01X35906Y33714D02*
G01X35906Y35060D01*
G01X36363Y35060D01*
G01X36363Y33714D01*
G01X35906Y33714D01*
G37*
G36*
G01X35405Y33714D02*
G01X35405Y35060D01*
G01X35862Y35060D01*
G01X35862Y33714D01*
G01X35405Y33714D01*
G37*
G36*
G01X34905Y33714D02*
G01X34905Y35060D01*
G01X35362Y35060D01*
G01X35362Y33714D01*
G01X34905Y33714D01*
G37*
G36*
G01X34404Y33714D02*
G01X34404Y35060D01*
G01X34862Y35060D01*
G01X34862Y33714D01*
G01X34404Y33714D01*
G37*
G36*
G01X33904Y33714D02*
G01X33904Y35060D01*
G01X34361Y35060D01*
G01X34361Y33714D01*
G01X33904Y33714D01*
G37*
G36*
G01X33404Y33714D02*
G01X33404Y35060D01*
G01X33861Y35060D01*
G01X33861Y33714D01*
G01X33404Y33714D01*
G37*
G36*
G01X32906Y33714D02*
G01X32906Y35060D01*
G01X33363Y35060D01*
G01X33363Y33714D01*
G01X32906Y33714D01*
G37*
G36*
G01X32405Y33714D02*
G01X32405Y35060D01*
G01X32863Y35060D01*
G01X32863Y33714D01*
G01X32405Y33714D01*
G37*
G36*
G01X31905Y33714D02*
G01X31905Y35060D01*
G01X32362Y35060D01*
G01X32362Y33714D01*
G01X31905Y33714D01*
G37*
G36*
G01X31405Y33714D02*
G01X31405Y35060D01*
G01X31862Y35060D01*
G01X31862Y33714D01*
G01X31405Y33714D01*
G37*
G36*
G01X30904Y33714D02*
G01X30904Y35060D01*
G01X31362Y35060D01*
G01X31362Y33714D01*
G01X30904Y33714D01*
G37*
G36*
G01X30404Y33714D02*
G01X30404Y35060D01*
G01X30861Y35060D01*
G01X30861Y33714D01*
G01X30404Y33714D01*
G37*
G36*
G01X28209Y32408D02*
G01X28209Y32865D01*
G01X29556Y32865D01*
G01X29556Y32408D01*
G01X28209Y32408D01*
G37*
G36*
G01X28209Y31908D02*
G01X28209Y32365D01*
G01X29556Y32365D01*
G01X29556Y31908D01*
G01X28209Y31908D01*
G37*
G36*
G01X28209Y31407D02*
G01X28209Y31864D01*
G01X29556Y31864D01*
G01X29556Y31407D01*
G01X28209Y31407D01*
G37*
G36*
G01X28209Y30907D02*
G01X28209Y31364D01*
G01X29556Y31364D01*
G01X29556Y30907D01*
G01X28209Y30907D01*
G37*
G36*
G01X28209Y30406D02*
G01X28209Y30864D01*
G01X29556Y30864D01*
G01X29556Y30406D01*
G01X28209Y30406D01*
G37*
G36*
G01X28209Y29906D02*
G01X28209Y30363D01*
G01X29556Y30363D01*
G01X29556Y29906D01*
G01X28209Y29906D01*
G37*
G36*
G01X28209Y29408D02*
G01X28209Y29865D01*
G01X29556Y29865D01*
G01X29556Y29408D01*
G01X28209Y29408D01*
G37*
G36*
G01X28209Y28908D02*
G01X28209Y29365D01*
G01X29556Y29365D01*
G01X29556Y28908D01*
G01X28209Y28908D01*
G37*
G36*
G01X28209Y28407D02*
G01X28209Y28865D01*
G01X29556Y28865D01*
G01X29556Y28407D01*
G01X28209Y28407D01*
G37*
G36*
G01X28209Y27907D02*
G01X28209Y28364D01*
G01X29556Y28364D01*
G01X29556Y27907D01*
G01X28209Y27907D01*
G37*
G36*
G01X28209Y27407D02*
G01X28209Y27864D01*
G01X29556Y27864D01*
G01X29556Y27407D01*
G01X28209Y27407D01*
G37*
G36*
G01X28209Y26906D02*
G01X28209Y27364D01*
G01X29556Y27364D01*
G01X29556Y26906D01*
G01X28209Y26906D01*
G37*
G36*
G01X30404Y24712D02*
G01X30404Y26058D01*
G01X30861Y26058D01*
G01X30861Y24712D01*
G01X30404Y24712D01*
G37*
G36*
G01X30904Y24712D02*
G01X30904Y26058D01*
G01X31362Y26058D01*
G01X31362Y24712D01*
G01X30904Y24712D01*
G37*
G36*
G01X31405Y24712D02*
G01X31405Y26058D01*
G01X31862Y26058D01*
G01X31862Y24712D01*
G01X31405Y24712D01*
G37*
G36*
G01X31905Y24712D02*
G01X31905Y26058D01*
G01X32362Y26058D01*
G01X32362Y24712D01*
G01X31905Y24712D01*
G37*
G36*
G01X32405Y24712D02*
G01X32405Y26058D01*
G01X32863Y26058D01*
G01X32863Y24712D01*
G01X32405Y24712D01*
G37*
G36*
G01X32906Y24712D02*
G01X32906Y26058D01*
G01X33363Y26058D01*
G01X33363Y24712D01*
G01X32906Y24712D01*
G37*
G36*
G01X33404Y24712D02*
G01X33404Y26058D01*
G01X33861Y26058D01*
G01X33861Y24712D01*
G01X33404Y24712D01*
G37*
G36*
G01X33904Y24712D02*
G01X33904Y26058D01*
G01X34361Y26058D01*
G01X34361Y24712D01*
G01X33904Y24712D01*
G37*
G36*
G01X34404Y24712D02*
G01X34404Y26058D01*
G01X34862Y26058D01*
G01X34862Y24712D01*
G01X34404Y24712D01*
G37*
G36*
G01X34905Y24712D02*
G01X34905Y26058D01*
G01X35362Y26058D01*
G01X35362Y24712D01*
G01X34905Y24712D01*
G37*
G36*
G01X35405Y24712D02*
G01X35405Y26058D01*
G01X35862Y26058D01*
G01X35862Y24712D01*
G01X35405Y24712D01*
G37*
G36*
G01X35906Y24712D02*
G01X35906Y26058D01*
G01X36363Y26058D01*
G01X36363Y24712D01*
G01X35906Y24712D01*
G37*
G36*
G01X37211Y26883D02*
G01X37211Y27386D01*
G01X38557Y27386D01*
G01X38557Y26883D01*
G01X37211Y26883D01*
G37*
G36*
G01X37211Y27407D02*
G01X37211Y27864D01*
G01X38557Y27864D01*
G01X38557Y27407D01*
G01X37211Y27407D01*
G37*
G36*
G01X37211Y27907D02*
G01X37211Y28364D01*
G01X38557Y28364D01*
G01X38557Y27907D01*
G01X37211Y27907D01*
G37*
G36*
G01X37211Y28407D02*
G01X37211Y28865D01*
G01X38557Y28865D01*
G01X38557Y28407D01*
G01X37211Y28407D01*
G37*
G36*
G01X37211Y28908D02*
G01X37211Y29365D01*
G01X38557Y29365D01*
G01X38557Y28908D01*
G01X37211Y28908D01*
G37*
G36*
G01X37211Y29408D02*
G01X37211Y29865D01*
G01X38557Y29865D01*
G01X38557Y29408D01*
G01X37211Y29408D01*
G37*
G36*
G01X37211Y29906D02*
G01X37211Y30363D01*
G01X38557Y30363D01*
G01X38557Y29906D01*
G01X37211Y29906D01*
G37*
G36*
G01X37211Y30406D02*
G01X37211Y30864D01*
G01X38557Y30864D01*
G01X38557Y30406D01*
G01X37211Y30406D01*
G37*
G36*
G01X37211Y30907D02*
G01X37211Y31364D01*
G01X38557Y31364D01*
G01X38557Y30907D01*
G01X37211Y30907D01*
G37*
G36*
G01X37211Y31407D02*
G01X37211Y31864D01*
G01X38557Y31864D01*
G01X38557Y31407D01*
G01X37211Y31407D01*
G37*
G36*
G01X37211Y31908D02*
G01X37211Y32365D01*
G01X38557Y32365D01*
G01X38557Y31908D01*
G01X37211Y31908D01*
G37*
G36*
G01X37211Y32408D02*
G01X37211Y32865D01*
G01X38557Y32865D01*
G01X38557Y32408D01*
G01X37211Y32408D01*
G37*
G36*
G01X31433Y27935D02*
G01X31433Y31836D01*
G01X35334Y31836D01*
G01X35334Y27935D01*
G01X31433Y27935D01*
G37*
G36*
G01X42248Y26787D02*
G01X42248Y28090D01*
G01X43449Y28090D01*
G01X43449Y26787D01*
G01X42248Y26787D01*
G37*
G36*
G01X40447Y26787D02*
G01X40447Y28090D01*
G01X41651Y28090D01*
G01X41651Y26787D01*
G01X40447Y26787D01*
G37*
G36*
G01X40391Y29995D02*
G01X40391Y31301D01*
G01X41595Y31301D01*
G01X41595Y29995D01*
G01X40391Y29995D01*
G37*
G36*
G01X42192Y29995D02*
G01X42192Y31301D01*
G01X43393Y31301D01*
G01X43393Y29995D01*
G01X42192Y29995D01*
G37*
G54D88*
G01X28359Y47885D03*
G01X25819Y47885D03*
G01X23279Y47885D03*
G01X20739Y47885D03*
G36*
G01X17310Y46998D02*
G01X17310Y48776D01*
G01X19088Y48776D01*
G01X19088Y46998D01*
G01X17310Y46998D01*
G37*
G54D90*
G01X4788Y42551D03*
G01X7328Y42551D03*
G01X9875Y42539D03*
G01X12415Y42539D03*
G01X14955Y42539D03*
G01X17495Y42539D03*
G01X20035Y42539D03*
G01X22575Y42539D03*
G01X25115Y42539D03*
G01X27655Y42539D03*
G01X30195Y42539D03*
G01X32735Y42539D03*
G01X35275Y42539D03*
G01X37815Y42539D03*
G01X40355Y42539D03*
G36*
G01X3836Y16251D02*
G01X3836Y18153D01*
G01X5741Y18153D01*
G01X5741Y16251D01*
G01X3836Y16251D01*
G37*
G01X7328Y17202D03*
G01X9875Y17190D03*
G01X12415Y17190D03*
G01X14955Y17190D03*
G01X17495Y17190D03*
G01X20035Y17190D03*
G01X22575Y17190D03*
G01X25115Y17190D03*
G01X27655Y17190D03*
G01X30195Y17190D03*
G01X32735Y17190D03*
G01X35275Y17190D03*
G01X37815Y17190D03*
G01X40355Y17190D03*
G36*
G01X39015Y5988D02*
G01X43866Y5988D01*
G01X43866Y1137D01*
G01X39015Y1137D01*
G01X39015Y5988D01*
G37*
G36*
G01X39015Y5607D02*
G01X43866Y5607D01*
G01X43866Y756D01*
G01X39015Y756D01*
G01X39015Y5607D01*
G37*
G36*
G01X19838Y5607D02*
G01X24689Y5607D01*
G01X24689Y756D01*
G01X19838Y756D01*
G01X19838Y5607D01*
G37*
G36*
G01X29718Y5633D02*
G01X34570Y5633D01*
G01X34570Y781D01*
G01X29718Y781D01*
G01X29718Y5633D01*
G37*
M00*
M02*
