G04 Layer: TopPasteMaskLayer*
G04 EasyEDA v6.3.43, 2020-06-06T21:57:39--5:00*
G04 e15436741f6a4511bf69b1aef7df7d06,7c1e8d740ba24e6f83eb2d53d3341807,10*
G04 Gerber Generator version 0.2*
G04 Scale: 100 percent, Rotated: No, Reflected: No *
G04 Dimensions in millimeters *
G04 leading zeros omitted , absolute positions ,3 integer and 3 decimal *
%FSLAX33Y33*%
%MOMM*%
G90*
G71D02*

%ADD21C,0.280010*%
%ADD27R,0.799998X0.499999*%
%ADD28R,0.999998X1.399997*%
%ADD29R,1.092200X0.990600*%
%ADD30R,1.199998X1.899996*%
%ADD31R,0.499999X0.700024*%
%ADD32R,2.480005X1.799996*%
%ADD33R,0.999998X1.550010*%
%ADD34R,0.699999X1.250010*%
%ADD35R,1.599997X1.599997*%
%ADD36R,1.599997X3.299993*%
%ADD37R,1.099998X0.999998*%
%ADD38R,0.999998X1.099998*%
%ADD39R,0.499999X0.799998*%
%ADD40R,0.254000X1.143000*%
%ADD41R,1.143000X0.254000*%
%ADD42R,1.143000X0.299999*%
%ADD43R,3.699993X3.699993*%

%LPD*%
G54D21*
G01X14275Y27159D02*
G01X14275Y26639D01*
G01X14776Y27159D02*
G01X14776Y26639D01*
G01X15273Y27159D02*
G01X15273Y26639D01*
G01X15774Y27159D02*
G01X15774Y26639D01*
G01X16164Y26249D02*
G01X16684Y26249D01*
G01X16164Y25748D02*
G01X16684Y25748D01*
G01X16164Y25251D02*
G01X16684Y25251D01*
G01X16164Y24750D02*
G01X16684Y24750D01*
G01X15774Y24360D02*
G01X15774Y23840D01*
G01X15273Y24360D02*
G01X15273Y23840D01*
G01X14776Y24360D02*
G01X14776Y23840D01*
G01X14275Y24360D02*
G01X14275Y23840D01*
G01X13365Y24750D02*
G01X13885Y24750D01*
G01X13365Y25251D02*
G01X13885Y25251D01*
G01X13365Y25748D02*
G01X13885Y25748D01*
G01X13365Y26249D02*
G01X13885Y26249D01*
G54D27*
G01X7404Y35956D03*
G01X7404Y36956D03*
G54D28*
G01X5543Y28581D03*
G01X7743Y28581D03*
G54D27*
G01X7912Y26415D03*
G01X7912Y25415D03*
G54D29*
G01X5538Y33788D03*
G01X7239Y33788D03*
G54D27*
G01X38138Y3571D03*
G01X38138Y4571D03*
G01X49060Y7254D03*
G01X49060Y8254D03*
G01X28613Y3952D03*
G01X28613Y4952D03*
G54D30*
G01X45580Y24263D03*
G01X42380Y24263D03*
G01X45175Y29089D03*
G01X48375Y29089D03*
G54D31*
G01X31668Y9438D03*
G01X31008Y9438D03*
G01X30348Y9438D03*
G01X29688Y9438D03*
G01X29688Y6468D03*
G01X30348Y6468D03*
G01X31008Y6468D03*
G01X31668Y6468D03*
G54D32*
G01X30678Y7668D03*
G54D31*
G01X21984Y9366D03*
G01X21323Y9366D03*
G01X20664Y9366D03*
G01X20004Y9366D03*
G01X20003Y6396D03*
G01X20664Y6396D03*
G01X21323Y6396D03*
G01X21984Y6396D03*
G54D32*
G01X20993Y7595D03*
G54D33*
G01X43107Y33026D03*
G01X45107Y33026D03*
G54D34*
G01X14323Y13702D03*
G01X12424Y13702D03*
G01X13373Y11203D03*
G54D31*
G01X23686Y6396D03*
G01X24347Y6396D03*
G01X25006Y6396D03*
G01X25666Y6396D03*
G01X25667Y9366D03*
G01X25006Y9366D03*
G01X24347Y9366D03*
G01X23686Y9366D03*
G54D32*
G01X24676Y8165D03*
G54D31*
G01X33498Y6468D03*
G01X34158Y6468D03*
G01X34818Y6468D03*
G01X35478Y6468D03*
G01X35478Y9438D03*
G01X34818Y9438D03*
G01X34158Y9438D03*
G01X33498Y9438D03*
G54D32*
G01X34488Y8238D03*
G54D31*
G01X43117Y6523D03*
G01X43778Y6523D03*
G01X44437Y6523D03*
G01X45097Y6523D03*
G01X45098Y9493D03*
G01X44437Y9493D03*
G01X43778Y9493D03*
G01X43117Y9493D03*
G54D32*
G01X44107Y8292D03*
G54D31*
G01X41288Y9493D03*
G01X40627Y9493D03*
G01X39968Y9493D03*
G01X39308Y9493D03*
G01X39307Y6523D03*
G01X39968Y6523D03*
G01X40627Y6523D03*
G01X41288Y6523D03*
G54D32*
G01X40297Y7722D03*
G54D35*
G01X15024Y25499D03*
G54D27*
G01X25636Y29132D03*
G01X25636Y30132D03*
G01X25636Y26973D03*
G01X25636Y27973D03*
G01X25565Y25779D03*
G01X25565Y24779D03*
G54D36*
G01X45198Y13722D03*
G01X38699Y13722D03*
G01X29047Y13722D03*
G01X35546Y13722D03*
G01X25640Y13722D03*
G01X19141Y13722D03*
G54D37*
G01X10198Y30906D03*
G01X10198Y29306D03*
G54D38*
G01X25420Y35347D03*
G01X23821Y35347D03*
G54D27*
G01X40749Y32815D03*
G01X40749Y33815D03*
G54D39*
G01X38274Y34804D03*
G01X39274Y34804D03*
G01X38638Y25533D03*
G01X37638Y25533D03*
G54D27*
G01X25438Y32654D03*
G01X25438Y33654D03*
G54D39*
G01X16794Y28708D03*
G01X15794Y28708D03*
G54D40*
G01X36133Y34386D03*
G01X35634Y34386D03*
G01X35133Y34386D03*
G01X34634Y34386D03*
G01X34133Y34386D03*
G01X33634Y34386D03*
G01X33133Y34386D03*
G01X32634Y34386D03*
G01X32133Y34386D03*
G01X31634Y34386D03*
G01X31133Y34386D03*
G01X30634Y34386D03*
G54D41*
G01X28883Y32636D03*
G01X28883Y32136D03*
G01X28883Y31636D03*
G01X28883Y31136D03*
G01X28883Y30636D03*
G01X28883Y30136D03*
G01X28883Y29636D03*
G01X28883Y29136D03*
G01X28883Y28636D03*
G01X28883Y28136D03*
G01X28883Y27636D03*
G01X28883Y27136D03*
G54D40*
G01X30634Y25386D03*
G01X31133Y25386D03*
G01X31634Y25386D03*
G01X32133Y25386D03*
G01X32634Y25386D03*
G01X33133Y25386D03*
G01X33634Y25386D03*
G01X34133Y25386D03*
G01X34634Y25386D03*
G01X35133Y25386D03*
G01X35634Y25386D03*
G01X36133Y25386D03*
G54D42*
G01X37883Y27136D03*
G54D41*
G01X37883Y27636D03*
G01X37883Y28136D03*
G01X37883Y28636D03*
G01X37883Y29136D03*
G01X37883Y29636D03*
G01X37883Y30136D03*
G01X37883Y30636D03*
G01X37883Y31136D03*
G01X37883Y31636D03*
G01X37883Y32136D03*
G01X37883Y32636D03*
G54D43*
G01X33384Y29885D03*
G54D38*
G01X42848Y27438D03*
G01X41048Y27438D03*
G01X40992Y30648D03*
G01X42793Y30648D03*
M00*
M02*
