G04 Layer: TopSilkLayer*
G04 EasyEDA v6.3.43, 2020-06-06T21:57:39--5:00*
G04 e15436741f6a4511bf69b1aef7df7d06,7c1e8d740ba24e6f83eb2d53d3341807,10*
G04 Gerber Generator version 0.2*
G04 Scale: 100 percent, Rotated: No, Reflected: No *
G04 Dimensions in millimeters *
G04 leading zeros omitted , absolute positions ,3 integer and 3 decimal *
%FSLAX33Y33*%
%MOMM*%
G90*
G71D02*

%ADD10C,0.254000*%
%ADD11C,0.299999*%
%ADD16C,0.499999*%
%ADD55C,0.250012*%
%ADD56C,0.200000*%
%ADD57C,0.203200*%
%ADD58C,0.202999*%
%ADD59C,0.150012*%
%ADD60C,0.202997*%
%ADD61C,0.101600*%
%ADD62C,0.100000*%
%ADD63C,0.249999*%
%ADD64C,0.152400*%

%LPD*%
G54D11*
G01X17310Y46997D02*
G01X16929Y46616D01*
G01X20358Y46997D02*
G01X20104Y46490D01*
G01X23279Y46870D02*
G01X23279Y46489D01*
G01X26073Y46870D02*
G01X26073Y46490D01*
G01X28994Y47251D02*
G01X29375Y46870D01*
G01X29375Y46489D01*
G54D16*
G01X37122Y43441D02*
G01X34709Y45727D01*
G01X34709Y46616D01*
G01X31026Y43314D02*
G01X32169Y44839D01*
G01X32169Y46616D01*
G54D55*
G01X46584Y18803D02*
G01X45695Y20962D01*
G01X43790Y20962D01*
G01X42901Y18803D01*
G01X46584Y18803D02*
G01X44806Y17025D01*
G01X44679Y17025D01*
G01X42901Y18803D01*
G01X44552Y20454D02*
G01X46330Y22232D01*
G01X46457Y22232D01*
G01X48235Y20454D01*
G01X44552Y20454D02*
G01X45441Y18295D01*
G01X47346Y18295D01*
G01X48235Y20454D01*
G54D56*
G01X6642Y15629D02*
G01X5626Y14105D01*
G01X7658Y14105D01*
G01X6642Y15629D01*
G01X6642Y15247D02*
G01X6642Y14739D01*
G01X45631Y41790D02*
G01X44615Y40266D01*
G01X46647Y40266D01*
G01X45631Y41790D01*
G01X45632Y41407D02*
G01X45632Y40899D01*
G54D57*
G01X47028Y43060D02*
G01X49568Y43060D01*
G01X49568Y37980D01*
G01X47028Y37980D01*
G01X47028Y39885D01*
G54D58*
G01X47028Y43060D02*
G01X47028Y39885D01*
G54D57*
G01X9309Y13596D02*
G01X9309Y11056D01*
G01X4229Y11056D01*
G01X4229Y13596D01*
G01X6134Y13596D01*
G54D58*
G01X9309Y13596D02*
G01X6134Y13596D01*
G54D10*
G01X43749Y47911D02*
G01X43749Y46565D01*
G01X43114Y47225D02*
G01X44359Y47225D01*
G01X8271Y49384D02*
G01X8271Y50730D01*
G01X8906Y50070D02*
G01X7661Y50070D01*
G54D59*
G01X8005Y35506D02*
G01X6804Y35506D01*
G01X8005Y36276D02*
G01X8005Y35506D01*
G01X8005Y37406D02*
G01X6804Y37406D01*
G01X8005Y36636D02*
G01X8005Y37406D01*
G01X6804Y36636D02*
G01X6804Y37406D01*
G01X6804Y36276D02*
G01X6804Y35506D01*
G54D10*
G01X8393Y29532D02*
G01X8393Y29531D01*
G01X8743Y29182D01*
G01X8393Y27631D02*
G01X8393Y27632D01*
G01X8743Y27981D01*
G01X6143Y27631D02*
G01X4793Y27631D01*
G01X6143Y29532D02*
G01X4793Y29532D01*
G01X7143Y27631D02*
G01X8393Y27631D01*
G01X7143Y29532D02*
G01X8393Y29532D01*
G01X4793Y27631D02*
G01X4793Y29532D01*
G01X8743Y27981D02*
G01X8743Y29182D01*
G01X6342Y28082D02*
G01X6342Y29082D01*
G01X6342Y28587D02*
G01X6842Y28587D01*
G54D59*
G01X7312Y26864D02*
G01X8513Y26864D01*
G01X7312Y26094D02*
G01X7312Y26864D01*
G01X7312Y24964D02*
G01X8513Y24964D01*
G01X7312Y25734D02*
G01X7312Y24964D01*
G01X8513Y25734D02*
G01X8513Y24964D01*
G01X8513Y26094D02*
G01X8513Y26864D01*
G54D10*
G01X4623Y32925D02*
G01X6096Y32925D01*
G01X4623Y34652D02*
G01X6096Y34652D01*
G01X4623Y34652D02*
G01X4623Y32925D01*
G01X6681Y32925D02*
G01X7849Y32925D01*
G01X6706Y34652D02*
G01X7849Y34652D01*
G01X7849Y34652D02*
G01X8205Y34297D01*
G01X8205Y33281D01*
G01X7849Y32925D01*
G54D60*
G01X6312Y34195D02*
G01X6312Y33408D01*
G01X6312Y33796D02*
G01X6488Y33796D01*
G54D59*
G01X38739Y4250D02*
G01X38739Y4871D01*
G01X38739Y3890D02*
G01X38739Y3271D01*
G01X37539Y3890D02*
G01X37539Y3271D01*
G01X37739Y3120D02*
G01X38538Y3120D01*
G01X37539Y4250D02*
G01X37539Y4871D01*
G01X37739Y5020D02*
G01X38538Y5020D01*
G01X37689Y3120D02*
G01X37739Y3120D01*
G01X38588Y3120D02*
G01X38538Y3120D01*
G01X37688Y5020D02*
G01X37739Y5020D01*
G01X38589Y5020D02*
G01X38538Y5020D01*
G01X49661Y7933D02*
G01X49661Y8554D01*
G01X49661Y7573D02*
G01X49661Y6954D01*
G01X48461Y7573D02*
G01X48461Y6954D01*
G01X48661Y6803D02*
G01X49460Y6803D01*
G01X48461Y7933D02*
G01X48461Y8554D01*
G01X48661Y8703D02*
G01X49460Y8703D01*
G01X48611Y6803D02*
G01X48661Y6803D01*
G01X49510Y6803D02*
G01X49460Y6803D01*
G01X48610Y8703D02*
G01X48661Y8703D01*
G01X49511Y8703D02*
G01X49460Y8703D01*
G01X29214Y4631D02*
G01X29214Y5252D01*
G01X29214Y4271D02*
G01X29214Y3652D01*
G01X28014Y4271D02*
G01X28014Y3652D01*
G01X28214Y3501D02*
G01X29013Y3501D01*
G01X28014Y4631D02*
G01X28014Y5252D01*
G01X28214Y5401D02*
G01X29013Y5401D01*
G01X28164Y3501D02*
G01X28214Y3501D01*
G01X29063Y3501D02*
G01X29013Y3501D01*
G01X28163Y5401D02*
G01X28214Y5401D01*
G01X29064Y5401D02*
G01X29013Y5401D01*
G54D10*
G01X41480Y23264D02*
G01X41480Y25264D01*
G01X44980Y23064D02*
G01X46180Y23064D01*
G01X44980Y25464D02*
G01X46180Y25464D01*
G01X42980Y23064D02*
G01X41780Y23064D01*
G01X42980Y25464D02*
G01X41780Y25464D01*
G01X46480Y23264D02*
G01X46480Y25264D01*
G01X46280Y23064D02*
G01X46180Y23064D01*
G01X46280Y25464D02*
G01X46180Y25464D01*
G01X41680Y23064D02*
G01X41780Y23064D01*
G01X41680Y25464D02*
G01X41780Y25464D01*
G01X49275Y30090D02*
G01X49275Y28090D01*
G01X45774Y30290D02*
G01X44574Y30290D01*
G01X45774Y27890D02*
G01X44574Y27890D01*
G01X47775Y30290D02*
G01X48974Y30290D01*
G01X47775Y27890D02*
G01X48974Y27890D01*
G01X44274Y30090D02*
G01X44274Y28090D01*
G01X44474Y30290D02*
G01X44574Y30290D01*
G01X44474Y27890D02*
G01X44574Y27890D01*
G01X49075Y30290D02*
G01X48974Y30290D01*
G01X49075Y27890D02*
G01X48974Y27890D01*
G01X32328Y9603D02*
G01X32328Y6303D01*
G01X29028Y6303D02*
G01X29028Y9603D01*
G01X22643Y9531D02*
G01X22643Y6231D01*
G01X19343Y6231D02*
G01X19343Y9531D01*
G54D57*
G01X35979Y49156D02*
G01X35979Y46616D01*
G01X30899Y46616D01*
G01X30899Y49156D01*
G01X32804Y49156D01*
G54D58*
G01X35979Y49156D02*
G01X32804Y49156D01*
G54D10*
G01X44607Y32007D02*
G01X45857Y32007D01*
G01X44607Y34046D02*
G01X45857Y34046D01*
G01X43607Y32007D02*
G01X42357Y32007D01*
G01X43607Y34046D02*
G01X42357Y34046D01*
G01X45858Y32007D02*
G01X45857Y34046D01*
G01X42357Y32007D02*
G01X42357Y34046D01*
G01X14973Y11552D02*
G01X13955Y11552D01*
G01X11842Y13353D02*
G01X11773Y13353D01*
G01X13742Y13353D02*
G01X13005Y13353D01*
G01X14973Y13353D02*
G01X14905Y13353D01*
G01X11773Y11552D02*
G01X11773Y13353D01*
G01X14973Y11552D02*
G01X14973Y13353D01*
G01X12792Y11552D02*
G01X11773Y11552D01*
G01X23026Y6230D02*
G01X23026Y9530D01*
G01X26326Y9530D02*
G01X26326Y6230D01*
G01X32838Y6303D02*
G01X32838Y9603D01*
G01X36138Y9603D02*
G01X36138Y6303D01*
G01X42457Y6357D02*
G01X42457Y9657D01*
G01X45757Y9657D02*
G01X45757Y6357D01*
G01X41947Y9658D02*
G01X41947Y6358D01*
G01X38647Y6358D02*
G01X38647Y9658D01*
G54D61*
G01X16069Y24000D02*
G01X16525Y24000D01*
G01X13525Y24000D02*
G01X13980Y24000D01*
G01X13980Y27000D02*
G01X13525Y27000D01*
G01X16525Y27000D02*
G01X16069Y27000D01*
G01X13525Y24455D02*
G01X13525Y24000D01*
G01X13525Y27000D02*
G01X13525Y26544D01*
G01X16525Y24455D02*
G01X16525Y24000D01*
G01X16525Y27000D02*
G01X16525Y26544D01*
G54D59*
G01X26236Y29812D02*
G01X26236Y30432D01*
G01X26236Y29452D02*
G01X26236Y28832D01*
G01X25036Y29452D02*
G01X25036Y28832D01*
G01X25236Y28682D02*
G01X26036Y28682D01*
G01X25036Y29812D02*
G01X25036Y30432D01*
G01X25236Y30582D02*
G01X26036Y30582D01*
G01X25186Y28682D02*
G01X25236Y28682D01*
G01X26086Y28682D02*
G01X26036Y28682D01*
G01X25186Y30582D02*
G01X25236Y30582D01*
G01X26086Y30582D02*
G01X26036Y30582D01*
G01X26236Y27653D02*
G01X26236Y28273D01*
G01X26236Y27293D02*
G01X26236Y26673D01*
G01X25036Y27293D02*
G01X25036Y26673D01*
G01X25236Y26523D02*
G01X26036Y26523D01*
G01X25036Y27653D02*
G01X25036Y28273D01*
G01X25236Y28423D02*
G01X26036Y28423D01*
G01X25186Y26523D02*
G01X25236Y26523D01*
G01X26086Y26523D02*
G01X26036Y26523D01*
G01X25186Y28423D02*
G01X25236Y28423D01*
G01X26086Y28423D02*
G01X26036Y28423D01*
G01X24965Y25100D02*
G01X24965Y24480D01*
G01X24965Y25460D02*
G01X24965Y26080D01*
G01X26165Y25460D02*
G01X26165Y26080D01*
G01X25965Y26230D02*
G01X25165Y26230D01*
G01X26165Y25100D02*
G01X26165Y24480D01*
G01X25965Y24330D02*
G01X25165Y24330D01*
G01X26015Y26230D02*
G01X25965Y26230D01*
G01X25116Y26230D02*
G01X25165Y26230D01*
G01X26016Y24330D02*
G01X25965Y24330D01*
G01X25115Y24330D02*
G01X25165Y24330D01*
G54D10*
G01X39548Y15622D02*
G01X37648Y15622D01*
G01X39548Y11823D02*
G01X37648Y11823D01*
G01X44348Y15622D02*
G01X46248Y15622D01*
G01X44348Y11823D02*
G01X46248Y11823D01*
G01X37648Y15622D02*
G01X37648Y11823D01*
G01X46248Y15622D02*
G01X46248Y11823D01*
G01X34697Y11823D02*
G01X36597Y11823D01*
G01X34697Y15622D02*
G01X36597Y15622D01*
G01X29897Y11823D02*
G01X27996Y11823D01*
G01X29897Y15622D02*
G01X27996Y15622D01*
G01X36597Y11823D02*
G01X36597Y15622D01*
G01X27996Y11823D02*
G01X27997Y15622D01*
G01X19990Y15622D02*
G01X18090Y15622D01*
G01X19990Y11823D02*
G01X18090Y11823D01*
G01X24790Y15622D02*
G01X26690Y15622D01*
G01X24790Y11823D02*
G01X26690Y11823D01*
G01X18090Y15622D02*
G01X18090Y11823D01*
G01X26690Y15622D02*
G01X26690Y11823D01*
G01X9398Y28556D02*
G01X10999Y28556D01*
G01X10993Y30406D02*
G01X10993Y31656D01*
G01X9393Y30406D02*
G01X9393Y31656D01*
G01X10999Y29806D02*
G01X10999Y28556D01*
G01X9398Y29806D02*
G01X9398Y28556D01*
G01X9393Y31656D02*
G01X10993Y31656D01*
G01X23070Y36147D02*
G01X23070Y34547D01*
G01X24921Y34552D02*
G01X26171Y34552D01*
G01X24921Y36152D02*
G01X26171Y36152D01*
G01X24320Y34547D02*
G01X23070Y34547D01*
G01X24320Y36147D02*
G01X23070Y36147D01*
G01X26171Y36152D02*
G01X26171Y34552D01*
G54D59*
G01X41349Y33495D02*
G01X41349Y34115D01*
G01X41349Y33135D02*
G01X41349Y32515D01*
G01X40149Y33135D02*
G01X40149Y32515D01*
G01X40349Y32365D02*
G01X41149Y32365D01*
G01X40149Y33495D02*
G01X40149Y34115D01*
G01X40349Y34265D02*
G01X41149Y34265D01*
G01X40299Y32365D02*
G01X40349Y32365D01*
G01X41199Y32365D02*
G01X41149Y32365D01*
G01X40299Y34265D02*
G01X40349Y34265D01*
G01X41199Y34265D02*
G01X41149Y34265D01*
G01X38953Y34204D02*
G01X39573Y34204D01*
G01X38593Y34204D02*
G01X37973Y34204D01*
G01X38593Y35404D02*
G01X37973Y35404D01*
G01X37823Y35204D02*
G01X37823Y34405D01*
G01X38953Y35404D02*
G01X39573Y35404D01*
G01X39723Y35204D02*
G01X39723Y34405D01*
G01X37823Y35254D02*
G01X37823Y35204D01*
G01X37823Y34355D02*
G01X37823Y34405D01*
G01X39723Y35255D02*
G01X39723Y35204D01*
G01X39723Y34354D02*
G01X39723Y34405D01*
G01X37959Y26134D02*
G01X37338Y26134D01*
G01X38319Y26134D02*
G01X38938Y26134D01*
G01X38319Y24934D02*
G01X38938Y24934D01*
G01X39089Y25134D02*
G01X39089Y25934D01*
G01X37959Y24934D02*
G01X37338Y24934D01*
G01X37189Y25134D02*
G01X37189Y25934D01*
G01X39089Y25084D02*
G01X39089Y25134D01*
G01X39089Y25983D02*
G01X39089Y25934D01*
G01X37189Y25083D02*
G01X37189Y25134D01*
G01X37189Y25984D02*
G01X37189Y25934D01*
G01X26039Y33333D02*
G01X26039Y33954D01*
G01X26039Y32973D02*
G01X26039Y32354D01*
G01X24839Y32973D02*
G01X24839Y32354D01*
G01X25039Y32203D02*
G01X25838Y32203D01*
G01X24839Y33333D02*
G01X24839Y33954D01*
G01X25039Y34103D02*
G01X25838Y34103D01*
G01X24989Y32203D02*
G01X25039Y32203D01*
G01X25888Y32203D02*
G01X25838Y32203D01*
G01X24988Y34103D02*
G01X25039Y34103D01*
G01X25889Y34103D02*
G01X25838Y34103D01*
G01X16115Y29309D02*
G01X15494Y29309D01*
G01X16475Y29309D02*
G01X17094Y29309D01*
G01X16475Y28109D02*
G01X17094Y28109D01*
G01X17245Y28309D02*
G01X17245Y29109D01*
G01X16115Y28109D02*
G01X15494Y28109D01*
G01X15345Y28309D02*
G01X15345Y29109D01*
G01X17245Y28259D02*
G01X17245Y28309D01*
G01X17245Y29158D02*
G01X17245Y29109D01*
G01X15345Y28258D02*
G01X15345Y28309D01*
G01X15345Y29159D02*
G01X15345Y29109D01*
G54D10*
G01X36762Y26787D02*
G01X36482Y26507D01*
G01X36482Y26507D02*
G01X30285Y26507D01*
G01X30285Y26507D02*
G01X30005Y26787D01*
G01X30005Y26787D02*
G01X30005Y32984D01*
G01X30005Y32984D02*
G01X30285Y33264D01*
G01X30285Y33264D02*
G01X36482Y33264D01*
G01X36482Y33264D02*
G01X36762Y32984D01*
G01X36762Y32984D02*
G01X36762Y26787D01*
G01X40298Y26838D02*
G01X40298Y28039D01*
G01X42348Y26638D02*
G01X43348Y26638D01*
G01X42348Y28239D02*
G01X43348Y28239D01*
G01X41548Y26638D02*
G01X40548Y26638D01*
G01X41548Y28239D02*
G01X40548Y28239D01*
G01X43598Y26838D02*
G01X43598Y28039D01*
G01X43398Y26638D02*
G01X43348Y26638D01*
G01X43398Y28239D02*
G01X43348Y28239D01*
G01X40498Y26638D02*
G01X40548Y26638D01*
G01X40499Y28239D02*
G01X40548Y28239D01*
G01X43542Y31248D02*
G01X43542Y30048D01*
G01X41492Y31448D02*
G01X40492Y31448D01*
G01X41492Y29848D02*
G01X40492Y29848D01*
G01X42292Y31448D02*
G01X43292Y31448D01*
G01X42292Y29848D02*
G01X43292Y29848D01*
G01X40242Y31248D02*
G01X40242Y30048D01*
G01X40442Y31448D02*
G01X40492Y31448D01*
G01X40442Y29848D02*
G01X40492Y29848D01*
G01X43342Y31448D02*
G01X43292Y31448D01*
G01X43342Y29848D02*
G01X43292Y29848D01*
G54D57*
G01X18834Y49156D02*
G01X16929Y49156D01*
G01X16929Y46616D01*
G01X29629Y46616D01*
G01X29629Y49156D01*
G54D58*
G01X29629Y49156D02*
G01X18834Y49156D01*
G54D57*
G01X42018Y43936D02*
G01X3054Y43936D01*
G01X3054Y41269D01*
G01X42018Y41269D01*
G01X42018Y43936D01*
G01X41624Y18587D02*
G01X3054Y18587D01*
G01X3054Y15920D01*
G01X41624Y15920D01*
G01X41624Y18587D01*
G01X12548Y10033D02*
G01X12548Y9078D01*
G01X12230Y10033D02*
G01X12868Y10033D01*
G01X13167Y10033D02*
G01X13167Y9078D01*
G01X13167Y10033D02*
G01X13757Y10033D01*
G01X13167Y9578D02*
G01X13531Y9578D01*
G01X13167Y9078D02*
G01X13757Y9078D01*
G01X14056Y10033D02*
G01X14056Y9078D01*
G01X14056Y10033D02*
G01X14422Y9078D01*
G01X14785Y10033D02*
G01X14422Y9078D01*
G01X14785Y10033D02*
G01X14785Y9078D01*
G01X15085Y10033D02*
G01X15085Y9078D01*
G01X15085Y10033D02*
G01X15494Y10033D01*
G01X15631Y9987D01*
G01X15677Y9942D01*
G01X15720Y9850D01*
G01X15720Y9716D01*
G01X15677Y9624D01*
G01X15631Y9578D01*
G01X15494Y9533D01*
G01X15085Y9533D01*
G01X12135Y23628D02*
G01X12946Y23628D01*
G01X12135Y23628D02*
G01X12946Y23938D01*
G01X12135Y24245D02*
G01X12946Y23938D01*
G01X12135Y24245D02*
G01X12946Y24245D01*
G01X12135Y24812D02*
G01X12946Y24502D01*
G01X12135Y24812D02*
G01X12946Y25119D01*
G01X12676Y24619D02*
G01X12676Y25005D01*
G01X12135Y25917D02*
G01X12946Y25528D01*
G01X12135Y25376D02*
G01X12135Y25917D01*
G01X12135Y26247D02*
G01X12135Y26674D01*
G01X12443Y26440D01*
G01X12443Y26557D01*
G01X12483Y26636D01*
G01X12521Y26674D01*
G01X12638Y26712D01*
G01X12714Y26712D01*
G01X12831Y26674D01*
G01X12907Y26595D01*
G01X12946Y26481D01*
G01X12946Y26364D01*
G01X12907Y26247D01*
G01X12869Y26209D01*
G01X12791Y26171D01*
G01X12135Y27199D02*
G01X12173Y27083D01*
G01X12290Y27006D01*
G01X12483Y26966D01*
G01X12598Y26966D01*
G01X12791Y27006D01*
G01X12907Y27083D01*
G01X12946Y27199D01*
G01X12946Y27276D01*
G01X12907Y27393D01*
G01X12791Y27469D01*
G01X12598Y27507D01*
G01X12483Y27507D01*
G01X12290Y27469D01*
G01X12173Y27393D01*
G01X12135Y27276D01*
G01X12135Y27199D01*
G01X30264Y36322D02*
G01X30264Y35367D01*
G01X30264Y36322D02*
G01X30582Y36322D01*
G01X30719Y36276D01*
G01X30810Y36185D01*
G01X30856Y36094D01*
G01X30902Y35959D01*
G01X30902Y35730D01*
G01X30856Y35593D01*
G01X30810Y35504D01*
G01X30719Y35413D01*
G01X30582Y35367D01*
G01X30264Y35367D01*
G01X31201Y36322D02*
G01X31201Y35367D01*
G01X31201Y36322D02*
G01X31610Y36322D01*
G01X31745Y36276D01*
G01X31791Y36231D01*
G01X31836Y36139D01*
G01X31836Y36048D01*
G01X31791Y35959D01*
G01X31745Y35913D01*
G01X31610Y35867D01*
G01X31201Y35867D01*
G01X31519Y35867D02*
G01X31836Y35367D01*
G01X32136Y36322D02*
G01X32502Y35367D01*
G01X32865Y36322D02*
G01X32502Y35367D01*
G01X33391Y36322D02*
G01X33256Y36276D01*
G01X33211Y36185D01*
G01X33211Y36094D01*
G01X33256Y36005D01*
G01X33345Y35959D01*
G01X33528Y35913D01*
G01X33665Y35867D01*
G01X33754Y35776D01*
G01X33800Y35685D01*
G01X33800Y35550D01*
G01X33754Y35459D01*
G01X33711Y35413D01*
G01X33574Y35367D01*
G01X33391Y35367D01*
G01X33256Y35413D01*
G01X33211Y35459D01*
G01X33165Y35550D01*
G01X33165Y35685D01*
G01X33211Y35776D01*
G01X33302Y35867D01*
G01X33437Y35913D01*
G01X33620Y35959D01*
G01X33711Y36005D01*
G01X33754Y36094D01*
G01X33754Y36185D01*
G01X33711Y36276D01*
G01X33574Y36322D01*
G01X33391Y36322D01*
G01X34191Y36322D02*
G01X34691Y36322D01*
G01X34420Y35959D01*
G01X34554Y35959D01*
G01X34646Y35913D01*
G01X34691Y35867D01*
G01X34737Y35730D01*
G01X34737Y35639D01*
G01X34691Y35504D01*
G01X34600Y35413D01*
G01X34465Y35367D01*
G01X34328Y35367D01*
G01X34191Y35413D01*
G01X34145Y35459D01*
G01X34100Y35550D01*
G01X35309Y36322D02*
G01X35174Y36276D01*
G01X35083Y36139D01*
G01X35037Y35913D01*
G01X35037Y35776D01*
G01X35083Y35550D01*
G01X35174Y35413D01*
G01X35309Y35367D01*
G01X35400Y35367D01*
G01X35537Y35413D01*
G01X35629Y35550D01*
G01X35674Y35776D01*
G01X35674Y35913D01*
G01X35629Y36139D01*
G01X35537Y36276D01*
G01X35400Y36322D01*
G01X35309Y36322D01*
G01X36520Y36322D02*
G01X36066Y36322D01*
G01X36020Y35913D01*
G01X36066Y35959D01*
G01X36200Y36005D01*
G01X36337Y36005D01*
G01X36475Y35959D01*
G01X36563Y35867D01*
G01X36609Y35730D01*
G01X36609Y35639D01*
G01X36563Y35504D01*
G01X36475Y35413D01*
G01X36337Y35367D01*
G01X36200Y35367D01*
G01X36066Y35413D01*
G01X36020Y35459D01*
G01X35974Y35550D01*
G01X45504Y17841D02*
G01X45504Y16647D01*
G01X45504Y17841D02*
G01X45903Y17841D01*
G01X46073Y17785D01*
G01X46188Y17671D01*
G01X46243Y17557D01*
G01X46299Y17386D01*
G01X46299Y17102D01*
G01X46243Y16932D01*
G01X46188Y16818D01*
G01X46073Y16706D01*
G01X45903Y16647D01*
G01X45504Y16647D01*
G01X47526Y17557D02*
G01X47470Y17671D01*
G01X47356Y17785D01*
G01X47244Y17841D01*
G01X47016Y17841D01*
G01X46901Y17785D01*
G01X46790Y17671D01*
G01X46731Y17557D01*
G01X46675Y17386D01*
G01X46675Y17102D01*
G01X46731Y16932D01*
G01X46790Y16818D01*
G01X46901Y16706D01*
G01X47016Y16647D01*
G01X47244Y16647D01*
G01X47356Y16706D01*
G01X47470Y16817D01*
G01X47526Y16932D01*
G01X47526Y17102D01*
G01X47244Y17102D02*
G01X47526Y17102D01*
G01X47902Y17841D02*
G01X47902Y16647D01*
G01X47902Y17841D02*
G01X48413Y17841D01*
G01X48585Y17785D01*
G01X48641Y17727D01*
G01X48697Y17615D01*
G01X48697Y17501D01*
G01X48641Y17386D01*
G01X48585Y17331D01*
G01X48413Y17272D01*
G01X47902Y17272D01*
G01X48301Y17272D02*
G01X48697Y16647D01*
G54D11*
G01X37249Y2535D02*
G01X37590Y1105D01*
G01X37932Y2535D02*
G01X37590Y1105D01*
G01X37932Y2535D02*
G01X38273Y1105D01*
G01X38613Y2535D02*
G01X38273Y1105D01*
G01X28232Y2408D02*
G01X28778Y978D01*
G01X29324Y2408D02*
G01X28778Y978D01*
G01X18453Y2408D02*
G01X18453Y1387D01*
G01X18522Y1181D01*
G01X18659Y1047D01*
G01X18862Y978D01*
G01X18999Y978D01*
G01X19203Y1047D01*
G01X19340Y1181D01*
G01X19408Y1387D01*
G01X19408Y2408D01*
G54D57*
G01X17991Y31903D02*
G01X17991Y31948D01*
G01X18037Y32040D01*
G01X18082Y32085D01*
G01X18174Y32131D01*
G01X18354Y32131D01*
G01X18446Y32085D01*
G01X18491Y32040D01*
G01X18537Y31948D01*
G01X18537Y31857D01*
G01X18491Y31768D01*
G01X18400Y31631D01*
G01X17945Y31176D01*
G01X18583Y31176D01*
G01X19154Y32131D02*
G01X19017Y32085D01*
G01X18928Y31948D01*
G01X18882Y31722D01*
G01X18882Y31585D01*
G01X18928Y31359D01*
G01X19017Y31222D01*
G01X19154Y31176D01*
G01X19246Y31176D01*
G01X19383Y31222D01*
G01X19472Y31359D01*
G01X19517Y31585D01*
G01X19517Y31722D01*
G01X19472Y31948D01*
G01X19383Y32085D01*
G01X19246Y32131D01*
G01X19154Y32131D01*
G01X19863Y31402D02*
G01X19817Y31359D01*
G01X19863Y31313D01*
G01X19909Y31359D01*
G01X19863Y31402D01*
G01X20483Y32131D02*
G01X20346Y32085D01*
G01X20254Y31948D01*
G01X20208Y31722D01*
G01X20208Y31585D01*
G01X20254Y31359D01*
G01X20346Y31222D01*
G01X20483Y31176D01*
G01X20572Y31176D01*
G01X20709Y31222D01*
G01X20800Y31359D01*
G01X20846Y31585D01*
G01X20846Y31722D01*
G01X20800Y31948D01*
G01X20709Y32085D01*
G01X20572Y32131D01*
G01X20483Y32131D01*
G01X21146Y31948D02*
G01X21237Y31994D01*
G01X21372Y32131D01*
G01X21372Y31176D01*
G01X2197Y10224D02*
G01X2197Y9769D01*
G01X2243Y9632D01*
G01X2334Y9586D01*
G01X2469Y9586D01*
G01X2560Y9632D01*
G01X2698Y9769D01*
G01X2698Y10224D02*
G01X2698Y9586D01*
G01X3678Y10313D02*
G01X3635Y10404D01*
G01X3543Y10495D01*
G01X3452Y10541D01*
G01X3269Y10541D01*
G01X3180Y10495D01*
G01X3089Y10404D01*
G01X3043Y10313D01*
G01X2997Y10178D01*
G01X2997Y9949D01*
G01X3043Y9812D01*
G01X3089Y9723D01*
G01X3180Y9632D01*
G01X3269Y9586D01*
G01X3452Y9586D01*
G01X3543Y9632D01*
G01X3635Y9723D01*
G01X3678Y9812D01*
G01X4679Y10541D02*
G01X4679Y9586D01*
G01X4679Y10541D02*
G01X5271Y10541D01*
G01X4679Y10087D02*
G01X5042Y10087D01*
G01X4679Y9586D02*
G01X5271Y9586D01*
G01X5570Y10541D02*
G01X6205Y9586D01*
G01X6205Y10541D02*
G01X5570Y9586D01*
G01X6825Y10541D02*
G01X6825Y9586D01*
G01X6508Y10541D02*
G01X7143Y10541D01*
G01X8143Y10541D02*
G01X8507Y9586D01*
G01X8870Y10541D02*
G01X8507Y9586D01*
G01X45123Y44450D02*
G01X45123Y43495D01*
G01X45123Y44450D02*
G01X45532Y44450D01*
G01X45669Y44404D01*
G01X45715Y44359D01*
G01X45761Y44267D01*
G01X45761Y44133D01*
G01X45715Y44041D01*
G01X45669Y43995D01*
G01X45532Y43950D01*
G01X45123Y43950D01*
G01X46060Y44450D02*
G01X46287Y43495D01*
G01X46515Y44450D02*
G01X46287Y43495D01*
G01X46515Y44450D02*
G01X46741Y43495D01*
G01X46970Y44450D02*
G01X46741Y43495D01*
G01X47270Y44450D02*
G01X47270Y43495D01*
G01X47270Y44450D02*
G01X47678Y44450D01*
G01X47816Y44404D01*
G01X47859Y44359D01*
G01X47905Y44267D01*
G01X47905Y44176D01*
G01X47859Y44087D01*
G01X47816Y44041D01*
G01X47678Y43995D01*
G01X47270Y43995D01*
G01X47587Y43995D02*
G01X47905Y43495D01*
G01X48888Y44222D02*
G01X48842Y44313D01*
G01X48750Y44404D01*
G01X48659Y44450D01*
G01X48479Y44450D01*
G01X48387Y44404D01*
G01X48296Y44313D01*
G01X48250Y44222D01*
G01X48204Y44087D01*
G01X48204Y43858D01*
G01X48250Y43721D01*
G01X48296Y43632D01*
G01X48387Y43541D01*
G01X48479Y43495D01*
G01X48659Y43495D01*
G01X48750Y43541D01*
G01X48842Y43632D01*
G01X48888Y43721D01*
G01X48888Y43858D01*
G01X48659Y43858D02*
G01X48888Y43858D01*
G01X49187Y44450D02*
G01X49187Y43495D01*
G01X49187Y44450D02*
G01X49505Y44450D01*
G01X49642Y44404D01*
G01X49733Y44313D01*
G01X49779Y44222D01*
G01X49822Y44087D01*
G01X49822Y43858D01*
G01X49779Y43721D01*
G01X49733Y43632D01*
G01X49642Y43541D01*
G01X49505Y43495D01*
G01X49187Y43495D01*
G01X45123Y37148D02*
G01X45123Y36693D01*
G01X45169Y36556D01*
G01X45260Y36510D01*
G01X45395Y36510D01*
G01X45486Y36556D01*
G01X45624Y36693D01*
G01X45624Y37148D02*
G01X45624Y36510D01*
G01X46604Y37237D02*
G01X46561Y37328D01*
G01X46469Y37419D01*
G01X46378Y37465D01*
G01X46195Y37465D01*
G01X46106Y37419D01*
G01X46015Y37328D01*
G01X45969Y37237D01*
G01X45923Y37102D01*
G01X45923Y36873D01*
G01X45969Y36736D01*
G01X46015Y36647D01*
G01X46106Y36556D01*
G01X46195Y36510D01*
G01X46378Y36510D01*
G01X46469Y36556D01*
G01X46561Y36647D01*
G01X46604Y36736D01*
G01X47605Y37465D02*
G01X47605Y36510D01*
G01X47605Y37465D02*
G01X48197Y37465D01*
G01X47605Y37010D02*
G01X47968Y37010D01*
G01X47605Y36510D02*
G01X48197Y36510D01*
G01X48496Y37465D02*
G01X48496Y36510D01*
G01X48496Y37465D02*
G01X49131Y36510D01*
G01X49131Y37465D02*
G01X49131Y36510D01*
G01X13040Y33427D02*
G01X12995Y33518D01*
G01X12903Y33609D01*
G01X12812Y33655D01*
G01X12629Y33655D01*
G01X12540Y33609D01*
G01X12449Y33518D01*
G01X12403Y33427D01*
G01X12357Y33292D01*
G01X12357Y33063D01*
G01X12403Y32926D01*
G01X12449Y32837D01*
G01X12540Y32746D01*
G01X12629Y32700D01*
G01X12812Y32700D01*
G01X12903Y32746D01*
G01X12995Y32837D01*
G01X13040Y32926D01*
G01X13612Y33655D02*
G01X13521Y33609D01*
G01X13429Y33518D01*
G01X13386Y33427D01*
G01X13340Y33292D01*
G01X13340Y33063D01*
G01X13386Y32926D01*
G01X13429Y32837D01*
G01X13521Y32746D01*
G01X13612Y32700D01*
G01X13795Y32700D01*
G01X13884Y32746D01*
G01X13975Y32837D01*
G01X14021Y32926D01*
G01X14067Y33063D01*
G01X14067Y33292D01*
G01X14021Y33427D01*
G01X13975Y33518D01*
G01X13884Y33609D01*
G01X13795Y33655D01*
G01X13612Y33655D01*
G01X14366Y33655D02*
G01X14366Y32700D01*
G01X14366Y33655D02*
G01X15004Y32700D01*
G01X15004Y33655D02*
G01X15004Y32700D01*
G01X15621Y33655D02*
G01X15621Y32700D01*
G01X15304Y33655D02*
G01X15939Y33655D01*
G01X16238Y33655D02*
G01X16238Y32700D01*
G01X16238Y33655D02*
G01X16647Y33655D01*
G01X16784Y33609D01*
G01X16830Y33564D01*
G01X16876Y33472D01*
G01X16876Y33381D01*
G01X16830Y33292D01*
G01X16784Y33246D01*
G01X16647Y33201D01*
G01X16238Y33201D01*
G01X16558Y33201D02*
G01X16876Y32700D01*
G01X17447Y33655D02*
G01X17358Y33609D01*
G01X17267Y33518D01*
G01X17221Y33427D01*
G01X17176Y33292D01*
G01X17176Y33063D01*
G01X17221Y32926D01*
G01X17267Y32837D01*
G01X17358Y32746D01*
G01X17447Y32700D01*
G01X17630Y32700D01*
G01X17722Y32746D01*
G01X17813Y32837D01*
G01X17856Y32926D01*
G01X17902Y33063D01*
G01X17902Y33292D01*
G01X17856Y33427D01*
G01X17813Y33518D01*
G01X17722Y33609D01*
G01X17630Y33655D01*
G01X17447Y33655D01*
G01X18202Y33655D02*
G01X18202Y32700D01*
G01X18202Y32700D02*
G01X18748Y32700D01*
G01X19048Y33655D02*
G01X19048Y32700D01*
G01X19048Y32700D02*
G01X19594Y32700D01*
G01X19893Y33655D02*
G01X19893Y32700D01*
G01X19893Y33655D02*
G01X20485Y33655D01*
G01X19893Y33201D02*
G01X20257Y33201D01*
G01X19893Y32700D02*
G01X20485Y32700D01*
G01X20785Y33655D02*
G01X20785Y32700D01*
G01X20785Y33655D02*
G01X21194Y33655D01*
G01X21331Y33609D01*
G01X21377Y33564D01*
G01X21420Y33472D01*
G01X21420Y33381D01*
G01X21377Y33292D01*
G01X21331Y33246D01*
G01X21194Y33201D01*
G01X20785Y33201D01*
G01X21102Y33201D02*
G01X21420Y32700D01*
G01X22263Y45974D02*
G01X22626Y45019D01*
G01X22990Y45974D02*
G01X22626Y45019D01*
G01X23292Y45974D02*
G01X23335Y45928D01*
G01X23381Y45974D01*
G01X23335Y46020D01*
G01X23292Y45974D01*
G01X23335Y45657D02*
G01X23335Y45019D01*
G01X23681Y45657D02*
G01X23681Y45019D01*
G01X23681Y45474D02*
G01X23818Y45611D01*
G01X23909Y45657D01*
G01X24046Y45657D01*
G01X24135Y45611D01*
G01X24181Y45474D01*
G01X24181Y45019D01*
G01X24895Y45974D02*
G01X25395Y45974D01*
G01X25121Y45611D01*
G01X25258Y45611D01*
G01X25349Y45565D01*
G01X25395Y45519D01*
G01X25441Y45382D01*
G01X25441Y45291D01*
G01X25395Y45156D01*
G01X25304Y45065D01*
G01X25166Y45019D01*
G01X25032Y45019D01*
G01X24895Y45065D01*
G01X24849Y45111D01*
G01X24803Y45202D01*
G01X25740Y45974D02*
G01X26104Y45019D01*
G01X26467Y45974D02*
G01X26104Y45019D01*
G01X26858Y45974D02*
G01X27358Y45974D01*
G01X27084Y45611D01*
G01X27221Y45611D01*
G01X27313Y45565D01*
G01X27358Y45519D01*
G01X27404Y45382D01*
G01X27404Y45291D01*
G01X27358Y45156D01*
G01X27267Y45065D01*
G01X27130Y45019D01*
G01X26995Y45019D01*
G01X26858Y45065D01*
G01X26812Y45111D01*
G01X26767Y45202D01*
G01X28788Y45746D02*
G01X28743Y45837D01*
G01X28651Y45928D01*
G01X28560Y45974D01*
G01X28377Y45974D01*
G01X28288Y45928D01*
G01X28197Y45837D01*
G01X28151Y45746D01*
G01X28105Y45611D01*
G01X28105Y45382D01*
G01X28151Y45245D01*
G01X28197Y45156D01*
G01X28288Y45065D01*
G01X28377Y45019D01*
G01X28560Y45019D01*
G01X28651Y45065D01*
G01X28743Y45156D01*
G01X28788Y45245D01*
G01X28788Y45382D01*
G01X28560Y45382D02*
G01X28788Y45382D01*
G01X29088Y45974D02*
G01X29088Y45019D01*
G01X29088Y45974D02*
G01X29723Y45019D01*
G01X29723Y45974D02*
G01X29723Y45019D01*
G01X30023Y45974D02*
G01X30023Y45019D01*
G01X30023Y45974D02*
G01X30343Y45974D01*
G01X30478Y45928D01*
G01X30569Y45837D01*
G01X30615Y45746D01*
G01X30660Y45611D01*
G01X30660Y45382D01*
G01X30615Y45245D01*
G01X30569Y45156D01*
G01X30478Y45065D01*
G01X30343Y45019D01*
G01X30023Y45019D01*
G01X18834Y45974D02*
G01X18834Y45019D01*
G01X18834Y45974D02*
G01X19243Y45974D01*
G01X19380Y45928D01*
G01X19426Y45883D01*
G01X19472Y45791D01*
G01X19472Y45657D01*
G01X19426Y45565D01*
G01X19380Y45519D01*
G01X19243Y45474D01*
G01X18834Y45474D01*
G01X19771Y45974D02*
G01X20135Y45019D01*
G01X20498Y45974D02*
G01X20135Y45019D01*
G01X20798Y45974D02*
G01X20798Y45019D01*
G01X20798Y45974D02*
G01X21115Y45974D01*
G01X21252Y45928D01*
G01X21344Y45837D01*
G01X21389Y45746D01*
G01X21435Y45611D01*
G01X21435Y45382D01*
G01X21389Y45245D01*
G01X21344Y45156D01*
G01X21252Y45065D01*
G01X21115Y45019D01*
G01X20798Y45019D01*
G01X16088Y45746D02*
G01X16043Y45837D01*
G01X15951Y45928D01*
G01X15860Y45974D01*
G01X15677Y45974D01*
G01X15588Y45928D01*
G01X15497Y45837D01*
G01X15451Y45746D01*
G01X15405Y45611D01*
G01X15405Y45382D01*
G01X15451Y45245D01*
G01X15497Y45156D01*
G01X15588Y45065D01*
G01X15677Y45019D01*
G01X15860Y45019D01*
G01X15951Y45065D01*
G01X16043Y45156D01*
G01X16088Y45245D01*
G01X16088Y45382D01*
G01X15860Y45382D02*
G01X16088Y45382D01*
G01X16388Y45974D02*
G01X16388Y45019D01*
G01X16388Y45974D02*
G01X17023Y45019D01*
G01X17023Y45974D02*
G01X17023Y45019D01*
G01X17323Y45974D02*
G01X17323Y45019D01*
G01X17323Y45974D02*
G01X17643Y45974D01*
G01X17778Y45928D01*
G01X17869Y45837D01*
G01X17915Y45746D01*
G01X17960Y45611D01*
G01X17960Y45382D01*
G01X17915Y45245D01*
G01X17869Y45156D01*
G01X17778Y45065D01*
G01X17643Y45019D01*
G01X17323Y45019D01*
G01X17511Y35052D02*
G01X17511Y34323D01*
G01X17465Y34189D01*
G01X17419Y34143D01*
G01X17328Y34097D01*
G01X17239Y34097D01*
G01X17148Y34143D01*
G01X17102Y34189D01*
G01X17056Y34323D01*
G01X17056Y34415D01*
G01X18174Y35052D02*
G01X17811Y34097D01*
G01X18174Y35052D02*
G01X18537Y34097D01*
G01X17948Y34415D02*
G01X18402Y34415D01*
G01X18839Y35052D02*
G01X18839Y34097D01*
G01X18839Y35052D02*
G01X19474Y34097D01*
G01X19474Y35052D02*
G01X19474Y34097D01*
G01X19774Y35052D02*
G01X19774Y34369D01*
G01X19820Y34234D01*
G01X19911Y34143D01*
G01X20048Y34097D01*
G01X20137Y34097D01*
G01X20274Y34143D01*
G01X20366Y34234D01*
G01X20412Y34369D01*
G01X20412Y35052D01*
G01X21346Y34915D02*
G01X21257Y35006D01*
G01X21120Y35052D01*
G01X20937Y35052D01*
G01X20803Y35006D01*
G01X20711Y34915D01*
G01X20711Y34824D01*
G01X20757Y34735D01*
G01X20803Y34689D01*
G01X20892Y34643D01*
G01X21166Y34552D01*
G01X21257Y34506D01*
G01X21303Y34460D01*
G01X21346Y34369D01*
G01X21346Y34234D01*
G01X21257Y34143D01*
G01X21120Y34097D01*
G01X20937Y34097D01*
G01X20803Y34143D01*
G01X20711Y34234D01*
G01X4945Y37385D02*
G01X5016Y36570D01*
G01X5450Y36308D02*
G01X5106Y35546D01*
G01X4635Y36236D01*
G01X4483Y30671D02*
G01X4483Y30033D01*
G01X4483Y30488D02*
G01X4620Y30625D01*
G01X4712Y30671D01*
G01X4846Y30671D01*
G01X4938Y30625D01*
G01X4984Y30488D01*
G01X4984Y30033D01*
G01X5283Y30988D02*
G01X5283Y30033D01*
G01X5283Y30988D02*
G01X5875Y30988D01*
G01X5283Y30533D02*
G01X5647Y30533D01*
G01X6721Y30671D02*
G01X6721Y30033D01*
G01X6721Y30533D02*
G01X6630Y30625D01*
G01X6538Y30671D01*
G01X6401Y30671D01*
G01X6309Y30625D01*
G01X6221Y30533D01*
G01X6175Y30396D01*
G01X6175Y30305D01*
G01X6221Y30170D01*
G01X6309Y30079D01*
G01X6401Y30033D01*
G01X6538Y30033D01*
G01X6630Y30079D01*
G01X6721Y30170D01*
G01X7021Y30671D02*
G01X7021Y30216D01*
G01X7066Y30079D01*
G01X7155Y30033D01*
G01X7292Y30033D01*
G01X7384Y30079D01*
G01X7521Y30216D01*
G01X7521Y30671D02*
G01X7521Y30033D01*
G01X7821Y30988D02*
G01X7821Y30033D01*
G01X8255Y30988D02*
G01X8255Y30216D01*
G01X8301Y30079D01*
G01X8392Y30033D01*
G01X8484Y30033D01*
G01X8121Y30671D02*
G01X8438Y30671D01*
G01X7158Y7656D02*
G01X7089Y7793D01*
G01X6952Y7930D01*
G01X6817Y7996D01*
G01X6543Y7996D01*
G01X6406Y7930D01*
G01X6271Y7793D01*
G01X6203Y7656D01*
G01X6134Y7453D01*
G01X6134Y7110D01*
G01X6203Y6906D01*
G01X6271Y6769D01*
G01X6406Y6635D01*
G01X6543Y6566D01*
G01X6817Y6566D01*
G01X6952Y6635D01*
G01X7089Y6769D01*
G01X7158Y6906D01*
G01X7158Y7110D01*
G01X6817Y7110D02*
G01X7158Y7110D01*
G01X7607Y7996D02*
G01X7607Y6566D01*
G01X7607Y7996D02*
G01X8562Y6566D01*
G01X8562Y7996D02*
G01X8562Y6566D01*
G01X9012Y7996D02*
G01X9012Y6566D01*
G01X9012Y7996D02*
G01X9490Y7996D01*
G01X9693Y7930D01*
G01X9830Y7793D01*
G01X9899Y7656D01*
G01X9967Y7453D01*
G01X9967Y7110D01*
G01X9899Y6906D01*
G01X9830Y6769D01*
G01X9693Y6635D01*
G01X9490Y6566D01*
G01X9012Y6566D01*
G01X12103Y7742D02*
G01X12103Y6312D01*
G01X12103Y7742D02*
G01X12718Y7742D01*
G01X12921Y7676D01*
G01X12990Y7607D01*
G01X13058Y7470D01*
G01X13058Y7267D01*
G01X12990Y7130D01*
G01X12921Y7061D01*
G01X12718Y6993D01*
G01X12103Y6993D01*
G01X13508Y7742D02*
G01X14054Y6312D01*
G01X14600Y7742D02*
G01X14054Y6312D01*
G01X15050Y7742D02*
G01X15050Y6312D01*
G01X15050Y7742D02*
G01X15527Y7742D01*
G01X15730Y7676D01*
G01X15868Y7539D01*
G01X15936Y7402D01*
G01X16005Y7199D01*
G01X16005Y6856D01*
G01X15936Y6652D01*
G01X15868Y6515D01*
G01X15730Y6381D01*
G01X15527Y6312D01*
G01X15050Y6312D01*
G01X16454Y7742D02*
G01X16454Y6312D01*
G01X16454Y7742D02*
G01X16932Y7742D01*
G01X17135Y7676D01*
G01X17272Y7539D01*
G01X17341Y7402D01*
G01X17409Y7199D01*
G01X17409Y6856D01*
G01X17341Y6652D01*
G01X17272Y6515D01*
G01X17135Y6381D01*
G01X16932Y6312D01*
G01X16454Y6312D01*
G01X1823Y28581D02*
G01X2778Y28581D01*
G01X1823Y28581D02*
G01X1823Y29173D01*
G01X2278Y28581D02*
G01X2278Y28944D01*
G01X2778Y28581D02*
G01X2778Y29173D01*
G01X1960Y30108D02*
G01X1869Y30019D01*
G01X1823Y29882D01*
G01X1823Y29699D01*
G01X1869Y29564D01*
G01X1960Y29473D01*
G01X2051Y29473D01*
G01X2140Y29519D01*
G01X2186Y29564D01*
G01X2232Y29653D01*
G01X2323Y29927D01*
G01X2369Y30019D01*
G01X2415Y30062D01*
G01X2506Y30108D01*
G01X2641Y30108D01*
G01X2732Y30019D01*
G01X2778Y29882D01*
G01X2778Y29699D01*
G01X2732Y29564D01*
G01X2641Y29473D01*
G01X1823Y30408D02*
G01X2778Y30408D01*
G01X1823Y30408D02*
G01X1823Y30819D01*
G01X1869Y30954D01*
G01X1914Y30999D01*
G01X2006Y31045D01*
G01X2140Y31045D01*
G01X2232Y30999D01*
G01X2278Y30954D01*
G01X2323Y30819D01*
G01X2323Y30408D01*
G01X1823Y31436D02*
G01X1823Y31937D01*
G01X2186Y31662D01*
G01X2186Y31799D01*
G01X2232Y31891D01*
G01X2278Y31937D01*
G01X2415Y31982D01*
G01X2506Y31982D01*
G01X2641Y31937D01*
G01X2732Y31845D01*
G01X2778Y31708D01*
G01X2778Y31573D01*
G01X2732Y31436D01*
G01X2686Y31390D01*
G01X2595Y31345D01*
G01X2051Y32328D02*
G01X2006Y32328D01*
G01X1914Y32373D01*
G01X1869Y32417D01*
G01X1823Y32508D01*
G01X1823Y32691D01*
G01X1869Y32782D01*
G01X1914Y32828D01*
G01X2006Y32871D01*
G01X2097Y32871D01*
G01X2186Y32828D01*
G01X2323Y32737D01*
G01X2778Y32282D01*
G01X2778Y32917D01*
G01X1636Y5842D02*
G01X1181Y5205D01*
G01X1864Y5205D01*
G01X1636Y5842D02*
G01X1636Y4887D01*
G01X2619Y5842D02*
G01X2164Y5205D01*
G01X2845Y5205D01*
G01X2619Y5842D02*
G01X2619Y4887D01*
G01X3190Y5113D02*
G01X3145Y5070D01*
G01X3190Y5024D01*
G01X3236Y5070D01*
G01X3190Y5113D01*
G01X4082Y5842D02*
G01X3627Y5842D01*
G01X3582Y5433D01*
G01X3627Y5479D01*
G01X3764Y5525D01*
G01X3899Y5525D01*
G01X4036Y5479D01*
G01X4128Y5387D01*
G01X4173Y5250D01*
G01X4173Y5159D01*
G01X4128Y5024D01*
G01X4036Y4933D01*
G01X3899Y4887D01*
G01X3764Y4887D01*
G01X3627Y4933D01*
G01X3582Y4979D01*
G01X3536Y5070D01*
G01X4473Y5525D02*
G01X4973Y4887D01*
G01X4973Y5525D02*
G01X4473Y4887D01*
G54D64*
G01X40498Y46967D02*
G01X40445Y47071D01*
G01X40341Y47176D01*
G01X40239Y47226D01*
G01X40031Y47226D01*
G01X39927Y47176D01*
G01X39823Y47071D01*
G01X39769Y46967D01*
G01X39719Y46810D01*
G01X39719Y46551D01*
G01X39769Y46396D01*
G01X39823Y46292D01*
G01X39927Y46188D01*
G01X40031Y46137D01*
G01X40239Y46137D01*
G01X40341Y46188D01*
G01X40445Y46292D01*
G01X40498Y46396D01*
G01X40841Y47018D02*
G01X40945Y47071D01*
G01X41100Y47226D01*
G01X41100Y46137D01*
G01X41964Y47226D02*
G01X41443Y46500D01*
G01X42223Y46500D01*
G01X41964Y47226D02*
G01X41964Y46137D01*
G01X10597Y46875D02*
G01X10544Y46979D01*
G01X10440Y47083D01*
G01X10338Y47134D01*
G01X10130Y47134D01*
G01X10026Y47083D01*
G01X9922Y46979D01*
G01X9868Y46875D01*
G01X9817Y46717D01*
G01X9817Y46458D01*
G01X9868Y46303D01*
G01X9922Y46199D01*
G01X10026Y46095D01*
G01X10130Y46044D01*
G01X10338Y46044D01*
G01X10440Y46095D01*
G01X10544Y46199D01*
G01X10597Y46303D01*
G01X10940Y46925D02*
G01X11044Y46979D01*
G01X11199Y47134D01*
G01X11199Y46044D01*
G01X11646Y47134D02*
G01X12218Y47134D01*
G01X11905Y46717D01*
G01X12063Y46717D01*
G01X12167Y46666D01*
G01X12218Y46616D01*
G01X12269Y46458D01*
G01X12269Y46354D01*
G01X12218Y46199D01*
G01X12114Y46095D01*
G01X11959Y46044D01*
G01X11801Y46044D01*
G01X11646Y46095D01*
G01X11595Y46146D01*
G01X11542Y46250D01*
G01X8293Y36044D02*
G01X8293Y35231D01*
G01X8293Y36044D02*
G01X8641Y36044D01*
G01X8758Y36003D01*
G01X8796Y35965D01*
G01X8835Y35889D01*
G01X8835Y35810D01*
G01X8796Y35734D01*
G01X8758Y35696D01*
G01X8641Y35658D01*
G01X8293Y35658D01*
G01X8563Y35658D02*
G01X8835Y35231D01*
G01X9282Y36044D02*
G01X9167Y36003D01*
G01X9129Y35927D01*
G01X9129Y35851D01*
G01X9167Y35772D01*
G01X9243Y35734D01*
G01X9398Y35696D01*
G01X9515Y35658D01*
G01X9591Y35579D01*
G01X9630Y35503D01*
G01X9630Y35386D01*
G01X9591Y35310D01*
G01X9553Y35269D01*
G01X9436Y35231D01*
G01X9282Y35231D01*
G01X9167Y35269D01*
G01X9129Y35310D01*
G01X9089Y35386D01*
G01X9089Y35503D01*
G01X9129Y35579D01*
G01X9205Y35658D01*
G01X9322Y35696D01*
G01X9475Y35734D01*
G01X9553Y35772D01*
G01X9591Y35851D01*
G01X9591Y35927D01*
G01X9553Y36003D01*
G01X9436Y36044D01*
G01X9282Y36044D01*
G01X5753Y26011D02*
G01X5753Y25198D01*
G01X5753Y26011D02*
G01X6101Y26011D01*
G01X6218Y25970D01*
G01X6256Y25932D01*
G01X6294Y25856D01*
G01X6294Y25777D01*
G01X6256Y25701D01*
G01X6218Y25663D01*
G01X6101Y25625D01*
G01X5753Y25625D01*
G01X6023Y25625D02*
G01X6294Y25198D01*
G01X7089Y26011D02*
G01X6703Y25198D01*
G01X6548Y26011D02*
G01X7089Y26011D01*
G01X35923Y4990D02*
G01X35885Y5066D01*
G01X35809Y5142D01*
G01X35730Y5183D01*
G01X35575Y5183D01*
G01X35499Y5142D01*
G01X35423Y5066D01*
G01X35382Y4990D01*
G01X35344Y4873D01*
G01X35344Y4680D01*
G01X35382Y4563D01*
G01X35423Y4487D01*
G01X35499Y4408D01*
G01X35575Y4370D01*
G01X35730Y4370D01*
G01X35809Y4408D01*
G01X35885Y4487D01*
G01X35923Y4563D01*
G01X36180Y5028D02*
G01X36256Y5066D01*
G01X36373Y5183D01*
G01X36373Y4370D01*
G01X37092Y5183D02*
G01X36705Y5183D01*
G01X36665Y4835D01*
G01X36705Y4873D01*
G01X36820Y4911D01*
G01X36937Y4911D01*
G01X37051Y4873D01*
G01X37130Y4797D01*
G01X37168Y4680D01*
G01X37168Y4604D01*
G01X37130Y4487D01*
G01X37051Y4408D01*
G01X36937Y4370D01*
G01X36820Y4370D01*
G01X36705Y4408D01*
G01X36665Y4449D01*
G01X36627Y4525D01*
G01X48750Y9689D02*
G01X48712Y9765D01*
G01X48636Y9841D01*
G01X48557Y9882D01*
G01X48402Y9882D01*
G01X48326Y9841D01*
G01X48250Y9765D01*
G01X48209Y9689D01*
G01X48171Y9572D01*
G01X48171Y9379D01*
G01X48209Y9262D01*
G01X48250Y9186D01*
G01X48326Y9107D01*
G01X48402Y9069D01*
G01X48557Y9069D01*
G01X48636Y9107D01*
G01X48712Y9186D01*
G01X48750Y9262D01*
G01X49007Y9727D02*
G01X49083Y9765D01*
G01X49200Y9882D01*
G01X49200Y9069D01*
G01X49919Y9765D02*
G01X49878Y9841D01*
G01X49764Y9882D01*
G01X49685Y9882D01*
G01X49571Y9841D01*
G01X49492Y9727D01*
G01X49454Y9534D01*
G01X49454Y9341D01*
G01X49492Y9186D01*
G01X49571Y9107D01*
G01X49685Y9069D01*
G01X49726Y9069D01*
G01X49840Y9107D01*
G01X49919Y9186D01*
G01X49957Y9303D01*
G01X49957Y9341D01*
G01X49919Y9455D01*
G01X49840Y9534D01*
G01X49726Y9572D01*
G01X49685Y9572D01*
G01X49571Y9534D01*
G01X49492Y9455D01*
G01X49454Y9341D01*
G01X26779Y5498D02*
G01X26741Y5574D01*
G01X26665Y5650D01*
G01X26586Y5691D01*
G01X26431Y5691D01*
G01X26355Y5650D01*
G01X26279Y5574D01*
G01X26238Y5498D01*
G01X26200Y5381D01*
G01X26200Y5188D01*
G01X26238Y5071D01*
G01X26279Y4995D01*
G01X26355Y4916D01*
G01X26431Y4878D01*
G01X26586Y4878D01*
G01X26665Y4916D01*
G01X26741Y4995D01*
G01X26779Y5071D01*
G01X27036Y5536D02*
G01X27112Y5574D01*
G01X27229Y5691D01*
G01X27229Y4878D01*
G01X28024Y5691D02*
G01X27638Y4878D01*
G01X27483Y5691D02*
G01X28024Y5691D01*
G01X40369Y25310D02*
G01X40331Y25386D01*
G01X40254Y25463D01*
G01X40176Y25503D01*
G01X40021Y25503D01*
G01X39944Y25463D01*
G01X39866Y25386D01*
G01X39828Y25310D01*
G01X39789Y25193D01*
G01X39789Y25000D01*
G01X39828Y24883D01*
G01X39866Y24807D01*
G01X39944Y24728D01*
G01X40021Y24690D01*
G01X40176Y24690D01*
G01X40254Y24728D01*
G01X40331Y24807D01*
G01X40369Y24883D01*
G01X40818Y25503D02*
G01X40701Y25463D01*
G01X40663Y25386D01*
G01X40663Y25310D01*
G01X40701Y25231D01*
G01X40778Y25193D01*
G01X40932Y25155D01*
G01X41049Y25117D01*
G01X41126Y25038D01*
G01X41166Y24962D01*
G01X41166Y24845D01*
G01X41126Y24769D01*
G01X41087Y24728D01*
G01X40971Y24690D01*
G01X40818Y24690D01*
G01X40701Y24728D01*
G01X40663Y24769D01*
G01X40625Y24845D01*
G01X40625Y24962D01*
G01X40663Y25038D01*
G01X40739Y25117D01*
G01X40856Y25155D01*
G01X41011Y25193D01*
G01X41087Y25231D01*
G01X41126Y25310D01*
G01X41126Y25386D01*
G01X41087Y25463D01*
G01X40971Y25503D01*
G01X40818Y25503D01*
G01X47735Y27342D02*
G01X47697Y27418D01*
G01X47620Y27494D01*
G01X47542Y27535D01*
G01X47387Y27535D01*
G01X47310Y27494D01*
G01X47232Y27418D01*
G01X47194Y27342D01*
G01X47155Y27225D01*
G01X47155Y27032D01*
G01X47194Y26915D01*
G01X47232Y26839D01*
G01X47310Y26760D01*
G01X47387Y26722D01*
G01X47542Y26722D01*
G01X47620Y26760D01*
G01X47697Y26839D01*
G01X47735Y26915D01*
G01X48453Y27418D02*
G01X48415Y27494D01*
G01X48298Y27535D01*
G01X48222Y27535D01*
G01X48105Y27494D01*
G01X48029Y27380D01*
G01X47991Y27187D01*
G01X47991Y26994D01*
G01X48029Y26839D01*
G01X48105Y26760D01*
G01X48222Y26722D01*
G01X48260Y26722D01*
G01X48377Y26760D01*
G01X48453Y26839D01*
G01X48492Y26956D01*
G01X48492Y26994D01*
G01X48453Y27108D01*
G01X48377Y27187D01*
G01X48260Y27225D01*
G01X48222Y27225D01*
G01X48105Y27187D01*
G01X48029Y27108D01*
G01X47991Y26994D01*
G01X27737Y8199D02*
G01X27780Y8115D01*
G01X27861Y8034D01*
G01X27943Y7993D01*
G01X28065Y7953D01*
G01X28270Y7953D01*
G01X28392Y7993D01*
G01X28474Y8034D01*
G01X28557Y8115D01*
G01X28598Y8199D01*
G01X28598Y8362D01*
G01X28557Y8443D01*
G01X28474Y8524D01*
G01X28392Y8568D01*
G01X28270Y8608D01*
G01X28065Y8608D01*
G01X27943Y8568D01*
G01X27861Y8524D01*
G01X27780Y8443D01*
G01X27737Y8362D01*
G01X27737Y8199D01*
G01X28433Y8321D02*
G01X28679Y8568D01*
G01X27737Y9286D02*
G01X28311Y8877D01*
G01X28311Y9492D01*
G01X27737Y9286D02*
G01X28598Y9286D01*
G01X18180Y8254D02*
G01X18221Y8172D01*
G01X18302Y8089D01*
G01X18384Y8048D01*
G01X18508Y8007D01*
G01X18711Y8007D01*
G01X18836Y8048D01*
G01X18917Y8089D01*
G01X18998Y8172D01*
G01X19039Y8254D01*
G01X19039Y8416D01*
G01X18998Y8498D01*
G01X18917Y8581D01*
G01X18836Y8622D01*
G01X18711Y8663D01*
G01X18508Y8663D01*
G01X18384Y8622D01*
G01X18302Y8581D01*
G01X18221Y8498D01*
G01X18180Y8416D01*
G01X18180Y8254D01*
G01X18876Y8376D02*
G01X19120Y8622D01*
G01X18384Y8973D02*
G01X18343Y8973D01*
G01X18262Y9013D01*
G01X18221Y9054D01*
G01X18180Y9138D01*
G01X18180Y9300D01*
G01X18221Y9381D01*
G01X18262Y9422D01*
G01X18343Y9463D01*
G01X18427Y9463D01*
G01X18508Y9422D01*
G01X18630Y9341D01*
G01X19039Y8932D01*
G01X19039Y9506D01*
G01X46393Y33376D02*
G01X46393Y32566D01*
G01X46393Y33376D02*
G01X46741Y33376D01*
G01X46858Y33338D01*
G01X46896Y33300D01*
G01X46934Y33221D01*
G01X46934Y33145D01*
G01X46896Y33068D01*
G01X46858Y33028D01*
G01X46741Y32990D01*
G01X46393Y32990D01*
G01X46665Y32990D02*
G01X46934Y32566D01*
G01X47577Y33376D02*
G01X47188Y32835D01*
G01X47770Y32835D01*
G01X47577Y33376D02*
G01X47577Y32566D01*
G01X14135Y11303D02*
G01X14135Y10620D01*
G01X14181Y10485D01*
G01X14272Y10394D01*
G01X14407Y10348D01*
G01X14498Y10348D01*
G01X14636Y10394D01*
G01X14727Y10485D01*
G01X14773Y10620D01*
G01X14773Y11303D01*
G01X15527Y11303D02*
G01X15072Y10666D01*
G01X15753Y10666D01*
G01X15527Y11303D02*
G01X15527Y10348D01*
G01X27617Y7253D02*
G01X27576Y7335D01*
G01X27495Y7418D01*
G01X27413Y7459D01*
G01X27289Y7500D01*
G01X27086Y7500D01*
G01X26961Y7459D01*
G01X26880Y7418D01*
G01X26799Y7335D01*
G01X26758Y7253D01*
G01X26758Y7091D01*
G01X26799Y7009D01*
G01X26880Y6926D01*
G01X26961Y6885D01*
G01X27086Y6844D01*
G01X27289Y6844D01*
G01X27413Y6885D01*
G01X27495Y6926D01*
G01X27576Y7009D01*
G01X27617Y7091D01*
G01X27617Y7253D01*
G01X26921Y7131D02*
G01X26677Y6885D01*
G01X27454Y6575D02*
G01X27495Y6494D01*
G01X27617Y6369D01*
G01X26758Y6369D01*
G01X37468Y7668D02*
G01X37424Y7752D01*
G01X37343Y7833D01*
G01X37262Y7874D01*
G01X37140Y7915D01*
G01X36934Y7915D01*
G01X36812Y7874D01*
G01X36731Y7833D01*
G01X36647Y7752D01*
G01X36607Y7668D01*
G01X36607Y7506D01*
G01X36647Y7425D01*
G01X36731Y7343D01*
G01X36812Y7300D01*
G01X36934Y7259D01*
G01X37140Y7259D01*
G01X37262Y7300D01*
G01X37343Y7343D01*
G01X37424Y7425D01*
G01X37468Y7506D01*
G01X37468Y7668D01*
G01X36772Y7546D02*
G01X36525Y7300D01*
G01X37468Y6909D02*
G01X37468Y6459D01*
G01X37140Y6703D01*
G01X37140Y6581D01*
G01X37099Y6500D01*
G01X37056Y6459D01*
G01X36934Y6419D01*
G01X36853Y6419D01*
G01X36731Y6459D01*
G01X36647Y6541D01*
G01X36607Y6663D01*
G01X36607Y6784D01*
G01X36647Y6909D01*
G01X36690Y6950D01*
G01X36772Y6990D01*
G01X46921Y9666D02*
G01X46880Y9748D01*
G01X46799Y9831D01*
G01X46717Y9872D01*
G01X46593Y9913D01*
G01X46390Y9913D01*
G01X46265Y9872D01*
G01X46184Y9831D01*
G01X46103Y9748D01*
G01X46062Y9666D01*
G01X46062Y9504D01*
G01X46103Y9422D01*
G01X46184Y9339D01*
G01X46265Y9298D01*
G01X46390Y9257D01*
G01X46593Y9257D01*
G01X46717Y9298D01*
G01X46799Y9339D01*
G01X46880Y9422D01*
G01X46921Y9504D01*
G01X46921Y9666D01*
G01X46225Y9544D02*
G01X45981Y9298D01*
G01X46921Y8498D02*
G01X46921Y8907D01*
G01X46552Y8948D01*
G01X46593Y8907D01*
G01X46634Y8782D01*
G01X46634Y8660D01*
G01X46593Y8539D01*
G01X46512Y8457D01*
G01X46390Y8414D01*
G01X46306Y8414D01*
G01X46184Y8457D01*
G01X46103Y8539D01*
G01X46062Y8660D01*
G01X46062Y8782D01*
G01X46103Y8907D01*
G01X46143Y8948D01*
G01X46225Y8988D01*
G01X37357Y8508D02*
G01X37398Y8426D01*
G01X37479Y8342D01*
G01X37561Y8302D01*
G01X37685Y8261D01*
G01X37888Y8261D01*
G01X38013Y8302D01*
G01X38094Y8342D01*
G01X38175Y8426D01*
G01X38216Y8508D01*
G01X38216Y8670D01*
G01X38175Y8751D01*
G01X38094Y8835D01*
G01X38013Y8876D01*
G01X37888Y8917D01*
G01X37685Y8917D01*
G01X37561Y8876D01*
G01X37479Y8835D01*
G01X37398Y8751D01*
G01X37357Y8670D01*
G01X37357Y8508D01*
G01X38053Y8630D02*
G01X38297Y8876D01*
G01X37479Y9676D02*
G01X37398Y9635D01*
G01X37357Y9513D01*
G01X37357Y9432D01*
G01X37398Y9308D01*
G01X37520Y9226D01*
G01X37726Y9186D01*
G01X37929Y9186D01*
G01X38094Y9226D01*
G01X38175Y9308D01*
G01X38216Y9432D01*
G01X38216Y9473D01*
G01X38175Y9595D01*
G01X38094Y9676D01*
G01X37972Y9717D01*
G01X37929Y9717D01*
G01X37807Y9676D01*
G01X37726Y9595D01*
G01X37685Y9473D01*
G01X37685Y9432D01*
G01X37726Y9308D01*
G01X37807Y9226D01*
G01X37929Y9186D01*
G01X17056Y27051D02*
G01X17056Y26368D01*
G01X17102Y26233D01*
G01X17193Y26142D01*
G01X17328Y26096D01*
G01X17419Y26096D01*
G01X17557Y26142D01*
G01X17648Y26233D01*
G01X17694Y26368D01*
G01X17694Y27051D01*
G01X18085Y27051D02*
G01X18583Y27051D01*
G01X18311Y26688D01*
G01X18448Y26688D01*
G01X18537Y26642D01*
G01X18583Y26596D01*
G01X18628Y26459D01*
G01X18628Y26368D01*
G01X18583Y26233D01*
G01X18494Y26142D01*
G01X18357Y26096D01*
G01X18220Y26096D01*
G01X18085Y26142D01*
G01X18039Y26188D01*
G01X17993Y26279D01*
G01X23478Y29374D02*
G01X23440Y29450D01*
G01X23363Y29526D01*
G01X23285Y29567D01*
G01X23130Y29567D01*
G01X23053Y29526D01*
G01X22975Y29450D01*
G01X22937Y29374D01*
G01X22898Y29257D01*
G01X22898Y29064D01*
G01X22937Y28947D01*
G01X22975Y28871D01*
G01X23053Y28792D01*
G01X23130Y28754D01*
G01X23285Y28754D01*
G01X23363Y28792D01*
G01X23440Y28871D01*
G01X23478Y28947D01*
G01X23734Y29412D02*
G01X23810Y29450D01*
G01X23927Y29567D01*
G01X23927Y28754D01*
G01X24412Y29567D02*
G01X24298Y29526D01*
G01X24219Y29412D01*
G01X24181Y29219D01*
G01X24181Y29102D01*
G01X24219Y28909D01*
G01X24298Y28792D01*
G01X24412Y28754D01*
G01X24491Y28754D01*
G01X24605Y28792D01*
G01X24684Y28909D01*
G01X24722Y29102D01*
G01X24722Y29219D01*
G01X24684Y29412D01*
G01X24605Y29526D01*
G01X24491Y29567D01*
G01X24412Y29567D01*
G01X23732Y27342D02*
G01X23694Y27418D01*
G01X23617Y27494D01*
G01X23539Y27535D01*
G01X23384Y27535D01*
G01X23307Y27494D01*
G01X23229Y27418D01*
G01X23191Y27342D01*
G01X23152Y27225D01*
G01X23152Y27032D01*
G01X23191Y26915D01*
G01X23229Y26839D01*
G01X23307Y26760D01*
G01X23384Y26722D01*
G01X23539Y26722D01*
G01X23617Y26760D01*
G01X23694Y26839D01*
G01X23732Y26915D01*
G01X23988Y27380D02*
G01X24064Y27418D01*
G01X24181Y27535D01*
G01X24181Y26722D01*
G01X24435Y27380D02*
G01X24511Y27418D01*
G01X24628Y27535D01*
G01X24628Y26722D01*
G01X23478Y25056D02*
G01X23440Y25132D01*
G01X23363Y25208D01*
G01X23285Y25249D01*
G01X23130Y25249D01*
G01X23053Y25208D01*
G01X22975Y25132D01*
G01X22937Y25056D01*
G01X22898Y24939D01*
G01X22898Y24746D01*
G01X22937Y24629D01*
G01X22975Y24553D01*
G01X23053Y24474D01*
G01X23130Y24436D01*
G01X23285Y24436D01*
G01X23363Y24474D01*
G01X23440Y24553D01*
G01X23478Y24629D01*
G01X23734Y25094D02*
G01X23810Y25132D01*
G01X23927Y25249D01*
G01X23927Y24436D01*
G01X24219Y25056D02*
G01X24219Y25094D01*
G01X24257Y25170D01*
G01X24298Y25208D01*
G01X24374Y25249D01*
G01X24529Y25249D01*
G01X24605Y25208D01*
G01X24646Y25170D01*
G01X24684Y25094D01*
G01X24684Y25015D01*
G01X24646Y24939D01*
G01X24567Y24822D01*
G01X24181Y24436D01*
G01X24722Y24436D01*
G01X38265Y11430D02*
G01X38265Y10475D01*
G01X38265Y11430D02*
G01X38674Y11430D01*
G01X38811Y11384D01*
G01X38857Y11339D01*
G01X38903Y11247D01*
G01X38903Y11156D01*
G01X38857Y11067D01*
G01X38811Y11021D01*
G01X38674Y10976D01*
G01X38265Y10976D01*
G01X38583Y10976D02*
G01X38903Y10475D01*
G01X39248Y11202D02*
G01X39248Y11247D01*
G01X39294Y11339D01*
G01X39337Y11384D01*
G01X39429Y11430D01*
G01X39611Y11430D01*
G01X39703Y11384D01*
G01X39746Y11339D01*
G01X39792Y11247D01*
G01X39792Y11156D01*
G01X39746Y11067D01*
G01X39657Y10930D01*
G01X39202Y10475D01*
G01X39837Y10475D01*
G01X28740Y11557D02*
G01X28740Y10602D01*
G01X28740Y11557D02*
G01X29149Y11557D01*
G01X29286Y11511D01*
G01X29332Y11466D01*
G01X29378Y11374D01*
G01X29378Y11283D01*
G01X29332Y11194D01*
G01X29286Y11148D01*
G01X29149Y11103D01*
G01X28740Y11103D01*
G01X29058Y11103D02*
G01X29378Y10602D01*
G01X29769Y11557D02*
G01X30267Y11557D01*
G01X29995Y11194D01*
G01X30132Y11194D01*
G01X30221Y11148D01*
G01X30267Y11103D01*
G01X30312Y10965D01*
G01X30312Y10874D01*
G01X30267Y10739D01*
G01X30178Y10648D01*
G01X30041Y10602D01*
G01X29904Y10602D01*
G01X29769Y10648D01*
G01X29723Y10694D01*
G01X29677Y10785D01*
G01X18707Y11557D02*
G01X18707Y10602D01*
G01X18707Y11557D02*
G01X19116Y11557D01*
G01X19253Y11511D01*
G01X19299Y11466D01*
G01X19345Y11374D01*
G01X19345Y11283D01*
G01X19299Y11194D01*
G01X19253Y11148D01*
G01X19116Y11103D01*
G01X18707Y11103D01*
G01X19025Y11103D02*
G01X19345Y10602D01*
G01X19644Y11374D02*
G01X19736Y11420D01*
G01X19871Y11557D01*
G01X19871Y10602D01*
G01X9690Y28042D02*
G01X9690Y27232D01*
G01X9690Y28042D02*
G01X10038Y28042D01*
G01X10155Y28004D01*
G01X10193Y27966D01*
G01X10231Y27887D01*
G01X10231Y27811D01*
G01X10193Y27732D01*
G01X10155Y27694D01*
G01X10038Y27656D01*
G01X9690Y27656D01*
G01X9962Y27656D02*
G01X10231Y27232D01*
G01X10950Y28042D02*
G01X10564Y28042D01*
G01X10526Y27694D01*
G01X10564Y27732D01*
G01X10681Y27773D01*
G01X10795Y27773D01*
G01X10912Y27732D01*
G01X10988Y27656D01*
G01X11026Y27539D01*
G01X11026Y27463D01*
G01X10988Y27346D01*
G01X10912Y27270D01*
G01X10795Y27232D01*
G01X10681Y27232D01*
G01X10564Y27270D01*
G01X10526Y27308D01*
G01X10485Y27386D01*
G01X24803Y37314D02*
G01X24803Y36501D01*
G01X24803Y37314D02*
G01X25151Y37314D01*
G01X25268Y37273D01*
G01X25306Y37235D01*
G01X25345Y37159D01*
G01X25345Y37080D01*
G01X25306Y37004D01*
G01X25268Y36966D01*
G01X25151Y36928D01*
G01X24803Y36928D01*
G01X25073Y36928D02*
G01X25345Y36501D01*
G01X26063Y37197D02*
G01X26025Y37273D01*
G01X25908Y37314D01*
G01X25832Y37314D01*
G01X25715Y37273D01*
G01X25639Y37159D01*
G01X25599Y36966D01*
G01X25599Y36773D01*
G01X25639Y36618D01*
G01X25715Y36539D01*
G01X25832Y36501D01*
G01X25870Y36501D01*
G01X25985Y36539D01*
G01X26063Y36618D01*
G01X26101Y36735D01*
G01X26101Y36773D01*
G01X26063Y36887D01*
G01X25985Y36966D01*
G01X25870Y37004D01*
G01X25832Y37004D01*
G01X25715Y36966D01*
G01X25639Y36887D01*
G01X25599Y36773D01*
G01X41385Y35089D02*
G01X41347Y35165D01*
G01X41270Y35241D01*
G01X41192Y35282D01*
G01X41037Y35282D01*
G01X40960Y35241D01*
G01X40882Y35165D01*
G01X40844Y35089D01*
G01X40805Y34972D01*
G01X40805Y34779D01*
G01X40844Y34662D01*
G01X40882Y34586D01*
G01X40960Y34507D01*
G01X41037Y34469D01*
G01X41192Y34469D01*
G01X41270Y34507D01*
G01X41347Y34586D01*
G01X41385Y34662D01*
G01X42103Y35282D02*
G01X41717Y35282D01*
G01X41679Y34934D01*
G01X41717Y34972D01*
G01X41834Y35010D01*
G01X41948Y35010D01*
G01X42065Y34972D01*
G01X42142Y34896D01*
G01X42182Y34779D01*
G01X42182Y34703D01*
G01X42142Y34586D01*
G01X42065Y34507D01*
G01X41948Y34469D01*
G01X41834Y34469D01*
G01X41717Y34507D01*
G01X41679Y34548D01*
G01X41641Y34624D01*
G01X39988Y36359D02*
G01X39950Y36435D01*
G01X39873Y36511D01*
G01X39795Y36552D01*
G01X39640Y36552D01*
G01X39563Y36511D01*
G01X39485Y36435D01*
G01X39447Y36359D01*
G01X39409Y36242D01*
G01X39409Y36049D01*
G01X39447Y35932D01*
G01X39485Y35856D01*
G01X39563Y35777D01*
G01X39640Y35739D01*
G01X39795Y35739D01*
G01X39873Y35777D01*
G01X39950Y35856D01*
G01X39988Y35932D01*
G01X40282Y36359D02*
G01X40282Y36397D01*
G01X40320Y36473D01*
G01X40358Y36511D01*
G01X40437Y36552D01*
G01X40590Y36552D01*
G01X40668Y36511D01*
G01X40706Y36473D01*
G01X40745Y36397D01*
G01X40745Y36318D01*
G01X40706Y36242D01*
G01X40630Y36125D01*
G01X40244Y35739D01*
G01X40785Y35739D01*
G01X38718Y24421D02*
G01X38679Y24497D01*
G01X38603Y24573D01*
G01X38525Y24614D01*
G01X38370Y24614D01*
G01X38293Y24573D01*
G01X38215Y24497D01*
G01X38177Y24421D01*
G01X38138Y24304D01*
G01X38138Y24111D01*
G01X38177Y23994D01*
G01X38215Y23918D01*
G01X38293Y23839D01*
G01X38370Y23801D01*
G01X38525Y23801D01*
G01X38603Y23839D01*
G01X38679Y23918D01*
G01X38718Y23994D01*
G01X38974Y24459D02*
G01X39050Y24497D01*
G01X39167Y24614D01*
G01X39167Y23801D01*
G01X23788Y33658D02*
G01X23750Y33734D01*
G01X23673Y33810D01*
G01X23595Y33851D01*
G01X23440Y33851D01*
G01X23364Y33810D01*
G01X23285Y33734D01*
G01X23247Y33658D01*
G01X23209Y33541D01*
G01X23209Y33348D01*
G01X23247Y33231D01*
G01X23285Y33155D01*
G01X23364Y33076D01*
G01X23440Y33038D01*
G01X23595Y33038D01*
G01X23673Y33076D01*
G01X23750Y33155D01*
G01X23788Y33231D01*
G01X24120Y33851D02*
G01X24545Y33851D01*
G01X24314Y33541D01*
G01X24430Y33541D01*
G01X24507Y33503D01*
G01X24545Y33465D01*
G01X24585Y33348D01*
G01X24585Y33272D01*
G01X24545Y33155D01*
G01X24468Y33076D01*
G01X24352Y33038D01*
G01X24237Y33038D01*
G01X24120Y33076D01*
G01X24082Y33117D01*
G01X24044Y33193D01*
G01X18143Y28611D02*
G01X18105Y28690D01*
G01X18029Y28766D01*
G01X17950Y28804D01*
G01X17795Y28804D01*
G01X17719Y28766D01*
G01X17643Y28690D01*
G01X17602Y28611D01*
G01X17564Y28496D01*
G01X17564Y28301D01*
G01X17602Y28187D01*
G01X17643Y28108D01*
G01X17719Y28032D01*
G01X17795Y27994D01*
G01X17950Y27994D01*
G01X18029Y28032D01*
G01X18105Y28108D01*
G01X18143Y28187D01*
G01X18900Y28535D02*
G01X18862Y28418D01*
G01X18786Y28342D01*
G01X18669Y28301D01*
G01X18631Y28301D01*
G01X18514Y28342D01*
G01X18438Y28418D01*
G01X18400Y28535D01*
G01X18400Y28573D01*
G01X18438Y28690D01*
G01X18514Y28766D01*
G01X18631Y28804D01*
G01X18669Y28804D01*
G01X18786Y28766D01*
G01X18862Y28690D01*
G01X18900Y28535D01*
G01X18900Y28342D01*
G01X18862Y28148D01*
G01X18786Y28032D01*
G01X18669Y27994D01*
G01X18593Y27994D01*
G01X18476Y28032D01*
G01X18438Y28108D01*
G01X28486Y26306D02*
G01X28486Y25526D01*
G01X28537Y25371D01*
G01X28641Y25267D01*
G01X28799Y25216D01*
G01X28903Y25216D01*
G01X29058Y25267D01*
G01X29162Y25371D01*
G01X29213Y25526D01*
G01X29213Y26306D01*
G01X29556Y26097D02*
G01X29660Y26151D01*
G01X29817Y26306D01*
G01X29817Y25216D01*
G01X44560Y27215D02*
G01X44522Y27291D01*
G01X44445Y27367D01*
G01X44367Y27408D01*
G01X44212Y27408D01*
G01X44135Y27367D01*
G01X44057Y27291D01*
G01X44019Y27215D01*
G01X43980Y27098D01*
G01X43980Y26905D01*
G01X44019Y26788D01*
G01X44057Y26712D01*
G01X44135Y26633D01*
G01X44212Y26595D01*
G01X44367Y26595D01*
G01X44445Y26633D01*
G01X44522Y26712D01*
G01X44560Y26788D01*
G01X45357Y27408D02*
G01X44969Y26595D01*
G01X44816Y27408D02*
G01X45357Y27408D01*
G01X44503Y31313D02*
G01X44465Y31389D01*
G01X44389Y31466D01*
G01X44310Y31506D01*
G01X44155Y31506D01*
G01X44079Y31466D01*
G01X44001Y31389D01*
G01X43962Y31313D01*
G01X43924Y31196D01*
G01X43924Y31003D01*
G01X43962Y30887D01*
G01X44001Y30810D01*
G01X44079Y30732D01*
G01X44155Y30693D01*
G01X44310Y30693D01*
G01X44389Y30732D01*
G01X44465Y30810D01*
G01X44503Y30887D01*
G01X45146Y31506D02*
G01X44760Y30965D01*
G01X45339Y30965D01*
G01X45146Y31506D02*
G01X45146Y30693D01*
G54D57*
G01X40100Y38462D02*
G01X41055Y38462D01*
G01X40100Y38462D02*
G01X40100Y38780D01*
G01X40146Y38917D01*
G01X40238Y39008D01*
G01X40329Y39054D01*
G01X40464Y39100D01*
G01X40692Y39100D01*
G01X40829Y39054D01*
G01X40918Y39008D01*
G01X41010Y38917D01*
G01X41055Y38780D01*
G01X41055Y38462D01*
G01X40329Y39445D02*
G01X40283Y39445D01*
G01X40192Y39488D01*
G01X40146Y39534D01*
G01X40100Y39625D01*
G01X40100Y39808D01*
G01X40146Y39897D01*
G01X40192Y39943D01*
G01X40283Y39989D01*
G01X40375Y39989D01*
G01X40464Y39943D01*
G01X40601Y39854D01*
G01X41055Y39399D01*
G01X41055Y40034D01*
G01X40100Y40426D02*
G01X40100Y40926D01*
G01X40464Y40654D01*
G01X40464Y40789D01*
G01X40509Y40880D01*
G01X40555Y40926D01*
G01X40692Y40972D01*
G01X40784Y40972D01*
G01X40918Y40926D01*
G01X41010Y40834D01*
G01X41055Y40697D01*
G01X41055Y40563D01*
G01X41010Y40426D01*
G01X40964Y40380D01*
G01X40875Y40334D01*
G01X37510Y38462D02*
G01X38465Y38462D01*
G01X37510Y38462D02*
G01X37510Y38780D01*
G01X37555Y38917D01*
G01X37647Y39008D01*
G01X37738Y39054D01*
G01X37873Y39100D01*
G01X38101Y39100D01*
G01X38239Y39054D01*
G01X38327Y39008D01*
G01X38419Y38917D01*
G01X38465Y38780D01*
G01X38465Y38462D01*
G01X37738Y39445D02*
G01X37692Y39445D01*
G01X37601Y39488D01*
G01X37555Y39534D01*
G01X37510Y39625D01*
G01X37510Y39808D01*
G01X37555Y39897D01*
G01X37601Y39943D01*
G01X37692Y39989D01*
G01X37784Y39989D01*
G01X37873Y39943D01*
G01X38010Y39854D01*
G01X38465Y39399D01*
G01X38465Y40034D01*
G01X37738Y40380D02*
G01X37692Y40380D01*
G01X37601Y40426D01*
G01X37555Y40471D01*
G01X37510Y40563D01*
G01X37510Y40743D01*
G01X37555Y40834D01*
G01X37601Y40880D01*
G01X37692Y40926D01*
G01X37784Y40926D01*
G01X37873Y40880D01*
G01X38010Y40789D01*
G01X38465Y40334D01*
G01X38465Y40972D01*
G01X35046Y38678D02*
G01X36001Y38678D01*
G01X35046Y38361D02*
G01X35046Y38998D01*
G01X35046Y39298D02*
G01X36001Y39933D01*
G01X35046Y39933D02*
G01X36001Y39298D01*
G01X35046Y40507D02*
G01X35092Y40370D01*
G01X35229Y40278D01*
G01X35455Y40232D01*
G01X35592Y40232D01*
G01X35820Y40278D01*
G01X35955Y40370D01*
G01X36001Y40507D01*
G01X36001Y40596D01*
G01X35955Y40733D01*
G01X35820Y40824D01*
G01X35592Y40870D01*
G01X35455Y40870D01*
G01X35229Y40824D01*
G01X35092Y40733D01*
G01X35046Y40596D01*
G01X35046Y40507D01*
G01X32506Y38361D02*
G01X33461Y38361D01*
G01X32506Y38361D02*
G01X32506Y38769D01*
G01X32552Y38907D01*
G01X32597Y38952D01*
G01X32689Y38998D01*
G01X32780Y38998D01*
G01X32869Y38952D01*
G01X32915Y38907D01*
G01X32960Y38769D01*
G01X32960Y38361D01*
G01X32960Y38678D02*
G01X33461Y38998D01*
G01X32506Y39298D02*
G01X33461Y39933D01*
G01X32506Y39933D02*
G01X33461Y39298D01*
G01X32506Y40507D02*
G01X32552Y40370D01*
G01X32689Y40278D01*
G01X32915Y40232D01*
G01X33052Y40232D01*
G01X33280Y40278D01*
G01X33415Y40370D01*
G01X33461Y40507D01*
G01X33461Y40596D01*
G01X33415Y40733D01*
G01X33280Y40824D01*
G01X33052Y40870D01*
G01X32915Y40870D01*
G01X32689Y40824D01*
G01X32552Y40733D01*
G01X32506Y40596D01*
G01X32506Y40507D01*
G01X29940Y38716D02*
G01X30895Y38716D01*
G01X29940Y38716D02*
G01X29940Y39034D01*
G01X29986Y39171D01*
G01X30078Y39262D01*
G01X30169Y39308D01*
G01X30304Y39354D01*
G01X30532Y39354D01*
G01X30669Y39308D01*
G01X30758Y39262D01*
G01X30850Y39171D01*
G01X30895Y39034D01*
G01X30895Y38716D01*
G01X30169Y39699D02*
G01X30123Y39699D01*
G01X30032Y39742D01*
G01X29986Y39788D01*
G01X29940Y39879D01*
G01X29940Y40062D01*
G01X29986Y40151D01*
G01X30032Y40197D01*
G01X30123Y40243D01*
G01X30215Y40243D01*
G01X30304Y40197D01*
G01X30441Y40108D01*
G01X30895Y39653D01*
G01X30895Y40288D01*
G01X30123Y40588D02*
G01X30078Y40680D01*
G01X29940Y40817D01*
G01X30895Y40817D01*
G01X27426Y38894D02*
G01X28381Y38894D01*
G01X27426Y38894D02*
G01X27426Y39211D01*
G01X27472Y39349D01*
G01X27563Y39440D01*
G01X27654Y39486D01*
G01X27789Y39531D01*
G01X28018Y39531D01*
G01X28155Y39486D01*
G01X28244Y39440D01*
G01X28335Y39349D01*
G01X28381Y39211D01*
G01X28381Y38894D01*
G01X27609Y39831D02*
G01X27563Y39920D01*
G01X27426Y40057D01*
G01X28381Y40057D01*
G01X27746Y40949D02*
G01X27880Y40903D01*
G01X27972Y40812D01*
G01X28018Y40677D01*
G01X28018Y40631D01*
G01X27972Y40494D01*
G01X27880Y40403D01*
G01X27746Y40357D01*
G01X27700Y40357D01*
G01X27563Y40403D01*
G01X27472Y40494D01*
G01X27426Y40631D01*
G01X27426Y40677D01*
G01X27472Y40812D01*
G01X27563Y40903D01*
G01X27746Y40949D01*
G01X27972Y40949D01*
G01X28200Y40903D01*
G01X28335Y40812D01*
G01X28381Y40677D01*
G01X28381Y40586D01*
G01X28335Y40448D01*
G01X28244Y40403D01*
G01X24835Y38818D02*
G01X25790Y38818D01*
G01X24835Y38818D02*
G01X24835Y39135D01*
G01X24881Y39272D01*
G01X24972Y39364D01*
G01X25064Y39410D01*
G01X25198Y39455D01*
G01X25427Y39455D01*
G01X25564Y39410D01*
G01X25653Y39364D01*
G01X25744Y39272D01*
G01X25790Y39135D01*
G01X25790Y38818D01*
G01X25018Y39755D02*
G01X24972Y39844D01*
G01X24835Y39981D01*
G01X25790Y39981D01*
G01X24835Y40509D02*
G01X24881Y40372D01*
G01X24972Y40326D01*
G01X25064Y40326D01*
G01X25155Y40372D01*
G01X25198Y40464D01*
G01X25244Y40644D01*
G01X25290Y40781D01*
G01X25381Y40873D01*
G01X25473Y40918D01*
G01X25610Y40918D01*
G01X25699Y40873D01*
G01X25744Y40827D01*
G01X25790Y40690D01*
G01X25790Y40509D01*
G01X25744Y40372D01*
G01X25699Y40326D01*
G01X25610Y40281D01*
G01X25473Y40281D01*
G01X25381Y40326D01*
G01X25290Y40418D01*
G01X25244Y40555D01*
G01X25198Y40735D01*
G01X25155Y40827D01*
G01X25064Y40873D01*
G01X24972Y40873D01*
G01X24881Y40827D01*
G01X24835Y40690D01*
G01X24835Y40509D01*
G01X22295Y38335D02*
G01X23250Y38335D01*
G01X22295Y38335D02*
G01X22295Y38653D01*
G01X22341Y38790D01*
G01X22432Y38881D01*
G01X22524Y38927D01*
G01X22658Y38973D01*
G01X22887Y38973D01*
G01X23024Y38927D01*
G01X23113Y38881D01*
G01X23204Y38790D01*
G01X23250Y38653D01*
G01X23250Y38335D01*
G01X22295Y39544D02*
G01X22341Y39407D01*
G01X22478Y39318D01*
G01X22704Y39272D01*
G01X22841Y39272D01*
G01X23070Y39318D01*
G01X23204Y39407D01*
G01X23250Y39544D01*
G01X23250Y39636D01*
G01X23204Y39770D01*
G01X23070Y39862D01*
G01X22841Y39907D01*
G01X22704Y39907D01*
G01X22478Y39862D01*
G01X22341Y39770D01*
G01X22295Y39636D01*
G01X22295Y39544D01*
G01X22295Y40753D02*
G01X22295Y40299D01*
G01X22704Y40253D01*
G01X22658Y40299D01*
G01X22615Y40436D01*
G01X22615Y40570D01*
G01X22658Y40707D01*
G01X22750Y40799D01*
G01X22887Y40845D01*
G01X22978Y40845D01*
G01X23113Y40799D01*
G01X23204Y40707D01*
G01X23250Y40570D01*
G01X23250Y40436D01*
G01X23204Y40299D01*
G01X23159Y40253D01*
G01X23070Y40207D01*
G01X19780Y38653D02*
G01X20735Y38653D01*
G01X19780Y38335D02*
G01X19780Y38973D01*
G01X19780Y39272D02*
G01X20735Y39907D01*
G01X19780Y39907D02*
G01X20735Y39272D01*
G01X20009Y40253D02*
G01X19963Y40253D01*
G01X19872Y40299D01*
G01X19826Y40344D01*
G01X19780Y40436D01*
G01X19780Y40616D01*
G01X19826Y40707D01*
G01X19872Y40753D01*
G01X19963Y40799D01*
G01X20055Y40799D01*
G01X20144Y40753D01*
G01X20281Y40662D01*
G01X20735Y40207D01*
G01X20735Y40845D01*
G01X17266Y38386D02*
G01X18221Y38386D01*
G01X17266Y38386D02*
G01X17266Y38795D01*
G01X17312Y38932D01*
G01X17357Y38978D01*
G01X17449Y39023D01*
G01X17540Y39023D01*
G01X17629Y38978D01*
G01X17675Y38932D01*
G01X17720Y38795D01*
G01X17720Y38386D01*
G01X17720Y38703D02*
G01X18221Y39023D01*
G01X17266Y39323D02*
G01X18221Y39958D01*
G01X17266Y39958D02*
G01X18221Y39323D01*
G01X17494Y40304D02*
G01X17449Y40304D01*
G01X17357Y40349D01*
G01X17312Y40395D01*
G01X17266Y40486D01*
G01X17266Y40667D01*
G01X17312Y40758D01*
G01X17357Y40804D01*
G01X17449Y40850D01*
G01X17540Y40850D01*
G01X17629Y40804D01*
G01X17766Y40713D01*
G01X18221Y40258D01*
G01X18221Y40895D01*
G01X4286Y38325D02*
G01X4286Y38825D01*
G01X4650Y38551D01*
G01X4650Y38688D01*
G01X4695Y38780D01*
G01X4741Y38825D01*
G01X4878Y38871D01*
G01X4970Y38871D01*
G01X5104Y38825D01*
G01X5196Y38734D01*
G01X5241Y38597D01*
G01X5241Y38460D01*
G01X5196Y38325D01*
G01X5150Y38279D01*
G01X5061Y38234D01*
G01X4286Y39171D02*
G01X5241Y39534D01*
G01X4286Y39897D02*
G01X5241Y39534D01*
G01X4286Y40288D02*
G01X4286Y40789D01*
G01X4650Y40514D01*
G01X4650Y40652D01*
G01X4695Y40743D01*
G01X4741Y40789D01*
G01X4878Y40834D01*
G01X4970Y40834D01*
G01X5104Y40789D01*
G01X5196Y40697D01*
G01X5241Y40560D01*
G01X5241Y40426D01*
G01X5196Y40288D01*
G01X5150Y40243D01*
G01X5061Y40197D01*
G01X7207Y38990D02*
G01X7116Y38947D01*
G01X7025Y38856D01*
G01X6979Y38764D01*
G01X6979Y38581D01*
G01X7025Y38493D01*
G01X7116Y38401D01*
G01X7207Y38355D01*
G01X7342Y38310D01*
G01X7571Y38310D01*
G01X7708Y38355D01*
G01X7797Y38401D01*
G01X7888Y38493D01*
G01X7934Y38581D01*
G01X7934Y38764D01*
G01X7888Y38856D01*
G01X7797Y38947D01*
G01X7708Y38990D01*
G01X7571Y38990D01*
G01X7571Y38764D02*
G01X7571Y38990D01*
G01X6979Y39293D02*
G01X7934Y39293D01*
G01X6979Y39293D02*
G01X7934Y39928D01*
G01X6979Y39928D02*
G01X7934Y39928D01*
G01X6979Y40227D02*
G01X7934Y40227D01*
G01X6979Y40227D02*
G01X6979Y40545D01*
G01X7025Y40682D01*
G01X7116Y40774D01*
G01X7207Y40819D01*
G01X7342Y40865D01*
G01X7571Y40865D01*
G01X7708Y40819D01*
G01X7797Y40774D01*
G01X7888Y40682D01*
G01X7934Y40545D01*
G01X7934Y40227D01*
G01X9544Y38818D02*
G01X10499Y38818D01*
G01X9544Y38818D02*
G01X9544Y39135D01*
G01X9590Y39272D01*
G01X9681Y39364D01*
G01X9773Y39410D01*
G01X9907Y39455D01*
G01X10136Y39455D01*
G01X10273Y39410D01*
G01X10362Y39364D01*
G01X10454Y39272D01*
G01X10499Y39135D01*
G01X10499Y38818D01*
G01X9727Y39755D02*
G01X9681Y39844D01*
G01X9544Y39981D01*
G01X10499Y39981D01*
G01X9544Y40827D02*
G01X9544Y40372D01*
G01X9953Y40326D01*
G01X9907Y40372D01*
G01X9864Y40509D01*
G01X9864Y40644D01*
G01X9907Y40781D01*
G01X9999Y40873D01*
G01X10136Y40918D01*
G01X10227Y40918D01*
G01X10362Y40873D01*
G01X10454Y40781D01*
G01X10499Y40644D01*
G01X10499Y40509D01*
G01X10454Y40372D01*
G01X10408Y40326D01*
G01X10319Y40281D01*
G01X12160Y38284D02*
G01X13115Y38284D01*
G01X12160Y38284D02*
G01X12160Y38602D01*
G01X12206Y38739D01*
G01X12298Y38830D01*
G01X12389Y38876D01*
G01X12524Y38922D01*
G01X12752Y38922D01*
G01X12889Y38876D01*
G01X12978Y38830D01*
G01X13070Y38739D01*
G01X13115Y38602D01*
G01X13115Y38284D01*
G01X12160Y39493D02*
G01X12206Y39356D01*
G01X12343Y39267D01*
G01X12569Y39222D01*
G01X12706Y39222D01*
G01X12935Y39267D01*
G01X13070Y39356D01*
G01X13115Y39493D01*
G01X13115Y39585D01*
G01X13070Y39719D01*
G01X12935Y39811D01*
G01X12706Y39857D01*
G01X12569Y39857D01*
G01X12343Y39811D01*
G01X12206Y39719D01*
G01X12160Y39585D01*
G01X12160Y39493D01*
G01X12389Y40202D02*
G01X12343Y40202D01*
G01X12252Y40248D01*
G01X12206Y40293D01*
G01X12160Y40385D01*
G01X12160Y40565D01*
G01X12206Y40657D01*
G01X12252Y40702D01*
G01X12343Y40748D01*
G01X12435Y40748D01*
G01X12524Y40702D01*
G01X12661Y40611D01*
G01X13115Y40156D01*
G01X13115Y40794D01*
G01X14700Y38259D02*
G01X15655Y38259D01*
G01X14700Y38259D02*
G01X14700Y38576D01*
G01X14746Y38714D01*
G01X14838Y38805D01*
G01X14929Y38851D01*
G01X15064Y38896D01*
G01X15292Y38896D01*
G01X15429Y38851D01*
G01X15518Y38805D01*
G01X15610Y38714D01*
G01X15655Y38576D01*
G01X15655Y38259D01*
G01X14700Y39468D02*
G01X14746Y39331D01*
G01X14883Y39242D01*
G01X15109Y39196D01*
G01X15246Y39196D01*
G01X15475Y39242D01*
G01X15610Y39331D01*
G01X15655Y39468D01*
G01X15655Y39559D01*
G01X15610Y39694D01*
G01X15475Y39785D01*
G01X15246Y39831D01*
G01X15109Y39831D01*
G01X14883Y39785D01*
G01X14746Y39694D01*
G01X14700Y39559D01*
G01X14700Y39468D01*
G01X14700Y40586D02*
G01X15338Y40131D01*
G01X15338Y40814D01*
G01X14700Y40586D02*
G01X15655Y40586D01*
G01X40100Y19057D02*
G01X41055Y19057D01*
G01X40100Y19057D02*
G01X40100Y19648D01*
G01X40555Y19057D02*
G01X40555Y19420D01*
G01X41055Y19057D02*
G01X41055Y19648D01*
G01X40100Y19948D02*
G01X41055Y19948D01*
G01X40100Y19948D02*
G01X41055Y20583D01*
G01X40100Y20583D02*
G01X41055Y20583D01*
G01X37510Y19031D02*
G01X38465Y19394D01*
G01X37510Y19758D02*
G01X38465Y19394D01*
G01X37510Y20057D02*
G01X38465Y20057D01*
G01X37510Y20057D02*
G01X37510Y20466D01*
G01X37555Y20603D01*
G01X37601Y20649D01*
G01X37692Y20695D01*
G01X37830Y20695D01*
G01X37919Y20649D01*
G01X37964Y20603D01*
G01X38010Y20466D01*
G01X38010Y20057D01*
G01X35046Y19006D02*
G01X36001Y19369D01*
G01X35046Y19732D02*
G01X36001Y19369D01*
G01X35046Y20032D02*
G01X36001Y20032D01*
G01X35046Y20032D02*
G01X36001Y20669D01*
G01X35046Y20669D02*
G01X36001Y20669D01*
G01X32506Y19133D02*
G01X33461Y19133D01*
G01X32506Y19133D02*
G01X32506Y19450D01*
G01X32552Y19587D01*
G01X32643Y19679D01*
G01X32734Y19725D01*
G01X32869Y19770D01*
G01X33098Y19770D01*
G01X33235Y19725D01*
G01X33324Y19679D01*
G01X33415Y19587D01*
G01X33461Y19450D01*
G01X33461Y19133D01*
G01X32506Y20159D02*
G01X32506Y20659D01*
G01X32869Y20387D01*
G01X32869Y20525D01*
G01X32915Y20614D01*
G01X32960Y20659D01*
G01X33098Y20705D01*
G01X33189Y20705D01*
G01X33324Y20659D01*
G01X33415Y20568D01*
G01X33461Y20433D01*
G01X33461Y20296D01*
G01X33415Y20159D01*
G01X33369Y20116D01*
G01X33280Y20070D01*
G01X32506Y21459D02*
G01X33143Y21005D01*
G01X33143Y21688D01*
G01X32506Y21459D02*
G01X33461Y21459D01*
G01X29940Y19133D02*
G01X30895Y19133D01*
G01X29940Y19133D02*
G01X29940Y19450D01*
G01X29986Y19587D01*
G01X30078Y19679D01*
G01X30169Y19725D01*
G01X30304Y19770D01*
G01X30532Y19770D01*
G01X30669Y19725D01*
G01X30758Y19679D01*
G01X30850Y19587D01*
G01X30895Y19450D01*
G01X30895Y19133D01*
G01X29940Y20159D02*
G01X29940Y20659D01*
G01X30304Y20387D01*
G01X30304Y20525D01*
G01X30349Y20614D01*
G01X30395Y20659D01*
G01X30532Y20705D01*
G01X30624Y20705D01*
G01X30758Y20659D01*
G01X30850Y20568D01*
G01X30895Y20433D01*
G01X30895Y20296D01*
G01X30850Y20159D01*
G01X30804Y20116D01*
G01X30715Y20070D01*
G01X29940Y21551D02*
G01X29940Y21096D01*
G01X30349Y21050D01*
G01X30304Y21096D01*
G01X30260Y21233D01*
G01X30260Y21368D01*
G01X30304Y21505D01*
G01X30395Y21597D01*
G01X30532Y21642D01*
G01X30624Y21642D01*
G01X30758Y21597D01*
G01X30850Y21505D01*
G01X30895Y21368D01*
G01X30895Y21233D01*
G01X30850Y21096D01*
G01X30804Y21050D01*
G01X30715Y21005D01*
G01X27426Y19107D02*
G01X28381Y19107D01*
G01X27426Y19107D02*
G01X27426Y19425D01*
G01X27472Y19562D01*
G01X27563Y19653D01*
G01X27654Y19699D01*
G01X27789Y19745D01*
G01X28018Y19745D01*
G01X28155Y19699D01*
G01X28244Y19653D01*
G01X28335Y19562D01*
G01X28381Y19425D01*
G01X28381Y19107D01*
G01X27426Y20133D02*
G01X27426Y20634D01*
G01X27789Y20362D01*
G01X27789Y20499D01*
G01X27835Y20588D01*
G01X27880Y20634D01*
G01X28018Y20680D01*
G01X28109Y20680D01*
G01X28244Y20634D01*
G01X28335Y20542D01*
G01X28381Y20408D01*
G01X28381Y20271D01*
G01X28335Y20133D01*
G01X28289Y20090D01*
G01X28200Y20045D01*
G01X27654Y21025D02*
G01X27609Y21025D01*
G01X27517Y21071D01*
G01X27472Y21116D01*
G01X27426Y21208D01*
G01X27426Y21388D01*
G01X27472Y21480D01*
G01X27517Y21525D01*
G01X27609Y21571D01*
G01X27700Y21571D01*
G01X27789Y21525D01*
G01X27926Y21434D01*
G01X28381Y20979D01*
G01X28381Y21617D01*
G01X24835Y19057D02*
G01X25790Y19057D01*
G01X24835Y19057D02*
G01X24835Y19374D01*
G01X24881Y19511D01*
G01X24972Y19603D01*
G01X25064Y19648D01*
G01X25198Y19694D01*
G01X25427Y19694D01*
G01X25564Y19648D01*
G01X25653Y19603D01*
G01X25744Y19511D01*
G01X25790Y19374D01*
G01X25790Y19057D01*
G01X24835Y20083D02*
G01X24835Y20583D01*
G01X25198Y20311D01*
G01X25198Y20448D01*
G01X25244Y20537D01*
G01X25290Y20583D01*
G01X25427Y20629D01*
G01X25518Y20629D01*
G01X25653Y20583D01*
G01X25744Y20492D01*
G01X25790Y20357D01*
G01X25790Y20220D01*
G01X25744Y20083D01*
G01X25699Y20039D01*
G01X25610Y19994D01*
G01X24835Y21020D02*
G01X24835Y21520D01*
G01X25198Y21249D01*
G01X25198Y21383D01*
G01X25244Y21475D01*
G01X25290Y21520D01*
G01X25427Y21566D01*
G01X25518Y21566D01*
G01X25653Y21520D01*
G01X25744Y21429D01*
G01X25790Y21292D01*
G01X25790Y21157D01*
G01X25744Y21020D01*
G01X25699Y20974D01*
G01X25610Y20928D01*
G01X22295Y19057D02*
G01X23250Y19057D01*
G01X22295Y19057D02*
G01X22295Y19374D01*
G01X22341Y19511D01*
G01X22432Y19603D01*
G01X22524Y19648D01*
G01X22658Y19694D01*
G01X22887Y19694D01*
G01X23024Y19648D01*
G01X23113Y19603D01*
G01X23204Y19511D01*
G01X23250Y19374D01*
G01X23250Y19057D01*
G01X22524Y20039D02*
G01X22478Y20039D01*
G01X22386Y20083D01*
G01X22341Y20128D01*
G01X22295Y20220D01*
G01X22295Y20403D01*
G01X22341Y20492D01*
G01X22386Y20537D01*
G01X22478Y20583D01*
G01X22569Y20583D01*
G01X22658Y20537D01*
G01X22795Y20448D01*
G01X23250Y19994D01*
G01X23250Y20629D01*
G01X22295Y21475D02*
G01X22295Y21020D01*
G01X22704Y20974D01*
G01X22658Y21020D01*
G01X22615Y21157D01*
G01X22615Y21292D01*
G01X22658Y21429D01*
G01X22750Y21520D01*
G01X22887Y21566D01*
G01X22978Y21566D01*
G01X23113Y21520D01*
G01X23204Y21429D01*
G01X23250Y21292D01*
G01X23250Y21157D01*
G01X23204Y21020D01*
G01X23159Y20974D01*
G01X23070Y20928D01*
G01X19780Y19031D02*
G01X20735Y19031D01*
G01X19780Y19031D02*
G01X19780Y19349D01*
G01X19826Y19486D01*
G01X19918Y19577D01*
G01X20009Y19623D01*
G01X20144Y19669D01*
G01X20372Y19669D01*
G01X20509Y19623D01*
G01X20598Y19577D01*
G01X20690Y19486D01*
G01X20735Y19349D01*
G01X20735Y19031D01*
G01X20009Y20014D02*
G01X19963Y20014D01*
G01X19872Y20057D01*
G01X19826Y20103D01*
G01X19780Y20194D01*
G01X19780Y20377D01*
G01X19826Y20466D01*
G01X19872Y20512D01*
G01X19963Y20558D01*
G01X20055Y20558D01*
G01X20144Y20512D01*
G01X20281Y20423D01*
G01X20735Y19968D01*
G01X20735Y20603D01*
G01X19918Y21449D02*
G01X19826Y21403D01*
G01X19780Y21266D01*
G01X19780Y21177D01*
G01X19826Y21040D01*
G01X19963Y20949D01*
G01X20189Y20903D01*
G01X20418Y20903D01*
G01X20598Y20949D01*
G01X20690Y21040D01*
G01X20735Y21177D01*
G01X20735Y21223D01*
G01X20690Y21358D01*
G01X20598Y21449D01*
G01X20464Y21495D01*
G01X20418Y21495D01*
G01X20281Y21449D01*
G01X20189Y21358D01*
G01X20144Y21223D01*
G01X20144Y21177D01*
G01X20189Y21040D01*
G01X20281Y20949D01*
G01X20418Y20903D01*
G01X17266Y19006D02*
G01X18221Y19006D01*
G01X17266Y19006D02*
G01X17266Y19323D01*
G01X17312Y19460D01*
G01X17403Y19552D01*
G01X17494Y19598D01*
G01X17629Y19643D01*
G01X17858Y19643D01*
G01X17995Y19598D01*
G01X18084Y19552D01*
G01X18175Y19460D01*
G01X18221Y19323D01*
G01X18221Y19006D01*
G01X17494Y19989D02*
G01X17449Y19989D01*
G01X17357Y20032D01*
G01X17312Y20078D01*
G01X17266Y20169D01*
G01X17266Y20352D01*
G01X17312Y20441D01*
G01X17357Y20487D01*
G01X17449Y20532D01*
G01X17540Y20532D01*
G01X17629Y20487D01*
G01X17766Y20398D01*
G01X18221Y19943D01*
G01X18221Y20578D01*
G01X17266Y21515D02*
G01X18221Y21061D01*
G01X17266Y20878D02*
G01X17266Y21515D01*
G01X4286Y18980D02*
G01X5241Y19344D01*
G01X4286Y19707D02*
G01X5241Y19344D01*
G01X4286Y20006D02*
G01X4332Y20052D01*
G01X4286Y20098D01*
G01X4241Y20052D01*
G01X4286Y20006D01*
G01X4606Y20052D02*
G01X5241Y20052D01*
G01X4606Y20398D02*
G01X5241Y20398D01*
G01X4787Y20398D02*
G01X4650Y20535D01*
G01X4606Y20626D01*
G01X4606Y20763D01*
G01X4650Y20852D01*
G01X4787Y20898D01*
G01X5241Y20898D01*
G01X7207Y19661D02*
G01X7116Y19618D01*
G01X7025Y19526D01*
G01X6979Y19435D01*
G01X6979Y19252D01*
G01X7025Y19163D01*
G01X7116Y19072D01*
G01X7207Y19026D01*
G01X7342Y18980D01*
G01X7571Y18980D01*
G01X7708Y19026D01*
G01X7797Y19072D01*
G01X7888Y19163D01*
G01X7934Y19252D01*
G01X7934Y19435D01*
G01X7888Y19526D01*
G01X7797Y19618D01*
G01X7708Y19661D01*
G01X7571Y19661D01*
G01X7571Y19435D02*
G01X7571Y19661D01*
G01X6979Y19963D02*
G01X7934Y19963D01*
G01X6979Y19963D02*
G01X7934Y20598D01*
G01X6979Y20598D02*
G01X7934Y20598D01*
G01X6979Y20898D02*
G01X7934Y20898D01*
G01X6979Y20898D02*
G01X6979Y21216D01*
G01X7025Y21353D01*
G01X7116Y21444D01*
G01X7207Y21490D01*
G01X7342Y21536D01*
G01X7571Y21536D01*
G01X7708Y21490D01*
G01X7797Y21444D01*
G01X7888Y21353D01*
G01X7934Y21216D01*
G01X7934Y20898D01*
G01X9544Y18980D02*
G01X10499Y18980D01*
G01X9544Y18980D02*
G01X9544Y19298D01*
G01X9590Y19435D01*
G01X9681Y19526D01*
G01X9773Y19572D01*
G01X9907Y19618D01*
G01X10136Y19618D01*
G01X10273Y19572D01*
G01X10362Y19526D01*
G01X10454Y19435D01*
G01X10499Y19298D01*
G01X10499Y18980D01*
G01X9727Y19918D02*
G01X9681Y20006D01*
G01X9544Y20144D01*
G01X10499Y20144D01*
G01X9544Y20535D02*
G01X9544Y21035D01*
G01X9907Y20763D01*
G01X9907Y20898D01*
G01X9953Y20989D01*
G01X9999Y21035D01*
G01X10136Y21081D01*
G01X10227Y21081D01*
G01X10362Y21035D01*
G01X10454Y20944D01*
G01X10499Y20807D01*
G01X10499Y20672D01*
G01X10454Y20535D01*
G01X10408Y20489D01*
G01X10319Y20443D01*
G01X12160Y18980D02*
G01X13115Y18980D01*
G01X12160Y18980D02*
G01X12160Y19298D01*
G01X12206Y19435D01*
G01X12298Y19526D01*
G01X12389Y19572D01*
G01X12524Y19618D01*
G01X12752Y19618D01*
G01X12889Y19572D01*
G01X12978Y19526D01*
G01X13070Y19435D01*
G01X13115Y19298D01*
G01X13115Y18980D01*
G01X12343Y19918D02*
G01X12298Y20006D01*
G01X12160Y20144D01*
G01X13115Y20144D01*
G01X12389Y20489D02*
G01X12343Y20489D01*
G01X12252Y20535D01*
G01X12206Y20581D01*
G01X12160Y20672D01*
G01X12160Y20852D01*
G01X12206Y20944D01*
G01X12252Y20989D01*
G01X12343Y21035D01*
G01X12435Y21035D01*
G01X12524Y20989D01*
G01X12661Y20898D01*
G01X13115Y20443D01*
G01X13115Y21081D01*
G01X14700Y18980D02*
G01X15655Y18980D01*
G01X14700Y18980D02*
G01X14700Y19298D01*
G01X14746Y19435D01*
G01X14838Y19526D01*
G01X14929Y19572D01*
G01X15064Y19618D01*
G01X15292Y19618D01*
G01X15429Y19572D01*
G01X15518Y19526D01*
G01X15610Y19435D01*
G01X15655Y19298D01*
G01X15655Y18980D01*
G01X14883Y19918D02*
G01X14838Y20006D01*
G01X14700Y20144D01*
G01X15655Y20144D01*
G01X14700Y20898D02*
G01X15338Y20443D01*
G01X15338Y21127D01*
G01X14700Y20898D02*
G01X15655Y20898D01*
G01X1619Y16415D02*
G01X2574Y16415D01*
G01X1619Y16415D02*
G01X1619Y17007D01*
G01X2074Y16415D02*
G01X2074Y16778D01*
G01X2574Y16415D02*
G01X2574Y17007D01*
G01X1619Y17306D02*
G01X2574Y17306D01*
G01X1619Y17306D02*
G01X2574Y17941D01*
G01X1619Y17941D02*
G01X2574Y17941D01*
G01X1594Y40799D02*
G01X2549Y40799D01*
G01X1594Y40799D02*
G01X1594Y41208D01*
G01X1640Y41345D01*
G01X1685Y41391D01*
G01X1777Y41436D01*
G01X1868Y41436D01*
G01X1957Y41391D01*
G01X2003Y41345D01*
G01X2049Y41208D01*
G01X2049Y40799D02*
G01X2049Y41208D01*
G01X2094Y41345D01*
G01X2140Y41391D01*
G01X2232Y41436D01*
G01X2369Y41436D01*
G01X2458Y41391D01*
G01X2503Y41345D01*
G01X2549Y41208D01*
G01X2549Y40799D01*
G01X1594Y42008D02*
G01X1640Y41917D01*
G01X1731Y41825D01*
G01X1823Y41782D01*
G01X1957Y41736D01*
G01X2186Y41736D01*
G01X2323Y41782D01*
G01X2412Y41825D01*
G01X2503Y41917D01*
G01X2549Y42008D01*
G01X2549Y42191D01*
G01X2503Y42280D01*
G01X2412Y42371D01*
G01X2323Y42417D01*
G01X2186Y42463D01*
G01X1957Y42463D01*
G01X1823Y42417D01*
G01X1731Y42371D01*
G01X1640Y42280D01*
G01X1594Y42191D01*
G01X1594Y42008D01*
G01X1594Y43034D02*
G01X1640Y42945D01*
G01X1731Y42854D01*
G01X1823Y42808D01*
G01X1957Y42762D01*
G01X2186Y42762D01*
G01X2323Y42808D01*
G01X2412Y42854D01*
G01X2503Y42945D01*
G01X2549Y43034D01*
G01X2549Y43217D01*
G01X2503Y43308D01*
G01X2412Y43400D01*
G01X2323Y43446D01*
G01X2186Y43489D01*
G01X1957Y43489D01*
G01X1823Y43446D01*
G01X1731Y43400D01*
G01X1640Y43308D01*
G01X1594Y43217D01*
G01X1594Y43034D01*
G01X1594Y44109D02*
G01X2549Y44109D01*
G01X1594Y43791D02*
G01X1594Y44426D01*
G54D10*
G75*
G01X40930Y44648D02*
G03X40859Y44648I-35J3999D01*
G01*
G75*
G01X11091Y52649D02*
G03X11162Y52649I35J-4000D01*
G01*
G54D59*
G75*
G01X37539Y3271D02*
G03X37689Y3121I150J0D01*
G01*
G75*
G01X38739Y3271D02*
G02X38589Y3121I-150J0D01*
G01*
G75*
G01X37539Y4871D02*
G02X37689Y5021I150J0D01*
G01*
G75*
G01X38739Y4871D02*
G03X38589Y5021I-150J0D01*
G01*
G75*
G01X48461Y6954D02*
G03X48611Y6804I150J0D01*
G01*
G75*
G01X49661Y6954D02*
G02X49511Y6804I-150J0D01*
G01*
G75*
G01X48461Y8554D02*
G02X48611Y8704I150J0D01*
G01*
G75*
G01X49661Y8554D02*
G03X49511Y8704I-150J0D01*
G01*
G75*
G01X28014Y3652D02*
G03X28164Y3502I150J0D01*
G01*
G75*
G01X29214Y3652D02*
G02X29064Y3502I-150J0D01*
G01*
G75*
G01X28014Y5252D02*
G02X28164Y5402I150J0D01*
G01*
G75*
G01X29214Y5252D02*
G03X29064Y5402I-150J0D01*
G01*
G54D10*
G75*
G01X46481Y23264D02*
G02X46281Y23064I-200J0D01*
G01*
G75*
G01X46481Y25264D02*
G03X46281Y25464I-200J0D01*
G01*
G75*
G01X41481Y23264D02*
G03X41681Y23064I200J0D01*
G01*
G75*
G01X41481Y25264D02*
G02X41681Y25464I200J0D01*
G01*
G75*
G01X44275Y30090D02*
G02X44475Y30290I200J0D01*
G01*
G75*
G01X44275Y28090D02*
G03X44475Y27890I200J0D01*
G01*
G75*
G01X49275Y30090D02*
G03X49075Y30290I-200J0D01*
G01*
G75*
G01X49275Y28090D02*
G02X49075Y27890I-200J0D01*
G01*
G54D63*
G75*
G01X13285Y26751D02*
G03X13285Y26749I-10J-1D01*
G01*
G54D59*
G75*
G01X25037Y28832D02*
G03X25187Y28682I150J0D01*
G01*
G75*
G01X26237Y28832D02*
G02X26087Y28682I-150J0D01*
G01*
G75*
G01X25037Y30432D02*
G02X25187Y30582I150J0D01*
G01*
G75*
G01X26237Y30432D02*
G03X26087Y30582I-150J0D01*
G01*
G75*
G01X25037Y26673D02*
G03X25187Y26523I150J0D01*
G01*
G75*
G01X26237Y26673D02*
G02X26087Y26523I-150J0D01*
G01*
G75*
G01X25037Y28273D02*
G02X25187Y28423I150J0D01*
G01*
G75*
G01X26237Y28273D02*
G03X26087Y28423I-150J0D01*
G01*
G75*
G01X26166Y26080D02*
G03X26016Y26230I-150J0D01*
G01*
G75*
G01X24966Y26080D02*
G02X25116Y26230I150J0D01*
G01*
G75*
G01X26166Y24480D02*
G02X26016Y24330I-150J0D01*
G01*
G75*
G01X24966Y24480D02*
G03X25116Y24330I150J0D01*
G01*
G75*
G01X40150Y32515D02*
G03X40300Y32365I150J0D01*
G01*
G75*
G01X41350Y32515D02*
G02X41200Y32365I-150J0D01*
G01*
G75*
G01X40150Y34115D02*
G02X40300Y34265I150J0D01*
G01*
G75*
G01X41350Y34115D02*
G03X41200Y34265I-150J0D01*
G01*
G75*
G01X37974Y35405D02*
G03X37824Y35255I0J-150D01*
G01*
G75*
G01X37974Y34205D02*
G02X37824Y34355I0J150D01*
G01*
G75*
G01X39574Y35405D02*
G02X39724Y35255I0J-150D01*
G01*
G75*
G01X39574Y34205D02*
G03X39724Y34355I0J150D01*
G01*
G75*
G01X38939Y24934D02*
G03X39089Y25084I0J150D01*
G01*
G75*
G01X38939Y26134D02*
G02X39089Y25984I0J-150D01*
G01*
G75*
G01X37339Y24934D02*
G02X37189Y25084I0J150D01*
G01*
G75*
G01X37339Y26134D02*
G03X37189Y25984I0J-150D01*
G01*
G75*
G01X24839Y32354D02*
G03X24989Y32204I150J0D01*
G01*
G75*
G01X26039Y32354D02*
G02X25889Y32204I-150J0D01*
G01*
G75*
G01X24839Y33954D02*
G02X24989Y34104I150J0D01*
G01*
G75*
G01X26039Y33954D02*
G03X25889Y34104I-150J0D01*
G01*
G75*
G01X17095Y28109D02*
G03X17245Y28259I0J150D01*
G01*
G75*
G01X17095Y29309D02*
G02X17245Y29159I0J-150D01*
G01*
G75*
G01X15495Y28109D02*
G02X15345Y28259I0J150D01*
G01*
G75*
G01X15495Y29309D02*
G03X15345Y29159I0J-150D01*
G01*
G54D10*
G75*
G01X43599Y26839D02*
G02X43399Y26639I-200J0D01*
G01*
G75*
G01X43599Y28039D02*
G03X43399Y28239I-200J0D01*
G01*
G75*
G01X40299Y26839D02*
G03X40499Y26639I200J0D01*
G01*
G75*
G01X40299Y28039D02*
G02X40499Y28239I200J0D01*
G01*
G75*
G01X40243Y31248D02*
G02X40443Y31448I200J0D01*
G01*
G75*
G01X40243Y30048D02*
G03X40443Y29848I200J0D01*
G01*
G75*
G01X43543Y31248D02*
G03X43343Y31448I-200J0D01*
G01*
G75*
G01X43543Y30048D02*
G02X43343Y29848I-200J0D01*
G01*
G75*
G01X31779Y10153D02*
G03X31779Y10153I-100J0D01*
G01*
G75*
G01X22094Y10081D02*
G03X22094Y10081I-100J0D01*
G01*
G75*
G01X23777Y5681D02*
G03X23777Y5681I-100J0D01*
G01*
G75*
G01X33589Y5753D02*
G03X33589Y5753I-100J0D01*
G01*
G75*
G01X43208Y5808D02*
G03X43208Y5808I-100J0D01*
G01*
G75*
G01X41398Y10208D02*
G03X41398Y10208I-100J0D01*
G01*
G75*
G01X37169Y34077D02*
G03X37169Y34077I-229J0D01*
G01*
G54D55*
G75*
G01X49518Y3182D02*
G03X49518Y3182I-1727J0D01*
G01*
G75*
G01X4941Y3182D02*
G03X4941Y3182I-1727J0D01*
G01*
G75*
G01X4908Y47759D02*
G03X4908Y47759I-1694J0D01*
G01*
G75*
G01X49500Y47759D02*
G03X49500Y47759I-1709J0D01*
G01*
G75*
G01X44658Y18803D02*
G03X44658Y18803I-741J0D01*
G01*
G54D62*
G75*
G01X6718Y14358D02*
G03X6718Y14358I-75J0D01*
G01*
G75*
G01X45707Y40519D02*
G03X45707Y40519I-75J0D01*
G01*

%LPD*%
G36*
G01X38182Y45648D02*
G01X38182Y51648D01*
G01X38118Y51578D01*
G01X38055Y51508D01*
G01X37994Y51436D01*
G01X37934Y51363D01*
G01X37876Y51288D01*
G01X37819Y51212D01*
G01X37764Y51135D01*
G01X37711Y51057D01*
G01X37659Y50978D01*
G01X37609Y50897D01*
G01X37561Y50816D01*
G01X37515Y50733D01*
G01X37471Y50650D01*
G01X37428Y50565D01*
G01X37387Y50480D01*
G01X37348Y50394D01*
G01X37311Y50307D01*
G01X37276Y50219D01*
G01X37243Y50130D01*
G01X37212Y50041D01*
G01X37182Y49951D01*
G01X37155Y49861D01*
G01X37130Y49770D01*
G01X37106Y49678D01*
G01X37085Y49586D01*
G01X37066Y49493D01*
G01X37048Y49400D01*
G01X37033Y49307D01*
G01X37019Y49213D01*
G01X37008Y49119D01*
G01X36999Y49025D01*
G01X36992Y48931D01*
G01X36987Y48837D01*
G01X36984Y48742D01*
G01X36982Y48648D01*
G01X36984Y48553D01*
G01X36987Y48458D01*
G01X36992Y48364D01*
G01X36999Y48270D01*
G01X37008Y48176D01*
G01X37019Y48082D01*
G01X37033Y47988D01*
G01X37048Y47895D01*
G01X37066Y47802D01*
G01X37085Y47709D01*
G01X37106Y47617D01*
G01X37130Y47525D01*
G01X37155Y47434D01*
G01X37182Y47344D01*
G01X37212Y47254D01*
G01X37243Y47165D01*
G01X37276Y47076D01*
G01X37311Y46988D01*
G01X37348Y46901D01*
G01X37387Y46815D01*
G01X37428Y46730D01*
G01X37471Y46645D01*
G01X37515Y46562D01*
G01X37561Y46479D01*
G01X37609Y46398D01*
G01X37659Y46317D01*
G01X37711Y46238D01*
G01X37764Y46160D01*
G01X37819Y46083D01*
G01X37876Y46007D01*
G01X37934Y45932D01*
G01X37994Y45859D01*
G01X38055Y45787D01*
G01X38118Y45717D01*
G01X38182Y45648D01*
G37*

%LPD*%
G36*
G01X13902Y51578D02*
G01X13837Y51648D01*
G01X13837Y45648D01*
G01X13902Y45717D01*
G01X13965Y45787D01*
G01X14026Y45859D01*
G01X14086Y45932D01*
G01X14144Y46007D01*
G01X14201Y46083D01*
G01X14256Y46160D01*
G01X14309Y46238D01*
G01X14361Y46317D01*
G01X14459Y46479D01*
G01X14505Y46562D01*
G01X14549Y46645D01*
G01X14592Y46730D01*
G01X14633Y46815D01*
G01X14672Y46901D01*
G01X14709Y46988D01*
G01X14744Y47076D01*
G01X14777Y47165D01*
G01X14808Y47254D01*
G01X14838Y47344D01*
G01X14865Y47434D01*
G01X14890Y47525D01*
G01X14914Y47617D01*
G01X14935Y47709D01*
G01X14954Y47802D01*
G01X14972Y47895D01*
G01X14987Y47988D01*
G01X15001Y48082D01*
G01X15012Y48176D01*
G01X15021Y48270D01*
G01X15028Y48364D01*
G01X15033Y48458D01*
G01X15036Y48553D01*
G01X15037Y48648D01*
G01X15036Y48742D01*
G01X15033Y48837D01*
G01X15028Y48931D01*
G01X15021Y49025D01*
G01X15012Y49119D01*
G01X15001Y49213D01*
G01X14987Y49307D01*
G01X14972Y49400D01*
G01X14954Y49493D01*
G01X14935Y49586D01*
G01X14914Y49678D01*
G01X14890Y49770D01*
G01X14865Y49861D01*
G01X14838Y49951D01*
G01X14808Y50041D01*
G01X14777Y50130D01*
G01X14744Y50219D01*
G01X14709Y50307D01*
G01X14672Y50394D01*
G01X14633Y50480D01*
G01X14592Y50565D01*
G01X14549Y50650D01*
G01X14505Y50733D01*
G01X14459Y50816D01*
G01X14361Y50978D01*
G01X14309Y51057D01*
G01X14256Y51135D01*
G01X14201Y51212D01*
G01X14144Y51288D01*
G01X14086Y51363D01*
G01X14026Y51436D01*
G01X13965Y51508D01*
G01X13902Y51578D01*
G37*
M00*
M02*
