;Layer: Drill PTH
;EasyEDA v6.3.43, 2020-06-06T21:57:39--5:00
;e15436741f6a4511bf69b1aef7df7d06,7c1e8d740ba24e6f83eb2d53d3341807,10
;Gerber Generator version 0.2
M48
METRIC,LZ,000.000
;Holesize 1 = 0.305 METRIC
T01C0.305
;Holesize 2 = 0.310 METRIC
T02C0.310
;Holesize 3 = 0.320 METRIC
T03C0.320
;Holesize 4 = 0.450 METRIC
T04C0.450
;Holesize 5 = 0.501 METRIC
T05C0.501
;Holesize 6 = 0.510 METRIC
T06C0.510
;Holesize 7 = 0.650 METRIC
T07C0.650
;Holesize 8 = 0.889 METRIC
T08C0.889
;Holesize 9 = 0.951 METRIC
T09C0.951
;Holesize 10 = 1.000 METRIC
T10C1.000
;Holesize 11 = 1.021 METRIC
T11C1.021
;Holesize 12 = 1.200 METRIC
T12C1.200
;Holesize 13 = 1.501 METRIC
T13C1.501
%
G05
G90
T01
X+030335Y+023536
X+029700Y+024171
X+022390Y+033915
X+022644Y+032772
X+023279Y+031121
T02
X+001308Y+008769
X+002324Y+006991
X+001181Y+008007
X+003086Y+007118
X+002578Y+007753
X+001943Y+008261
X+040424Y+012325
X+040170Y+013214
X+041186Y+013214
X+048171Y+015627
X+047536Y+023374
X+049695Y+025533
X+049568Y+024771
X+049060Y+025279
X+047155Y+031629
X+047155Y+034296
X+047155Y+035185
X+032042Y+013087
X+022771Y+012706
X+021628Y+012960
X+033820Y+012706
X+032931Y+012706
X+027978Y+050044
X+026454Y+050044
X+024930Y+050044
X+023406Y+050044
X+021882Y+050044
X+020358Y+050044
X+018834Y+050044
X+049441Y+031629
X+049441Y+032518
X+049441Y+033407
X+049441Y+034296
X+049314Y+024009
X+048806Y+024517
X+048298Y+025025
X+033947Y+030613
X+049441Y+035185
X+046647Y+045345
X+048933Y+045345
X+048171Y+045345
X+006261Y+047504
X+006261Y+048393
X+006261Y+049282
X+009182Y+033280
X+009182Y+034042
X+010960Y+012833
X+010960Y+012071
X+010960Y+011309
X+049695Y+022231
X+031153Y+013214
X+023787Y+012452
X+045377Y+011182
X+044615Y+011182
X+043853Y+011182
X+045123Y+010420
X+044361Y+010420
X+043599Y+010420
X+042837Y+010420
X+044869Y+008642
X+044107Y+008642
X+043345Y+008642
X+044869Y+007880
X+044107Y+007880
X+035598Y+011309
X+034836Y+011309
X+034074Y+011309
X+033312Y+011309
X+035471Y+010420
X+034709Y+010420
X+033947Y+010420
X+033185Y+010420
X+035217Y+008642
X+034455Y+008642
X+033693Y+008642
X+035217Y+007753
X+034455Y+007753
X+025946Y+011055
X+023279Y+010293
X+006515Y+005467
X+009944Y+001911
X+023914Y+008515
X+024676Y+008515
X+025438Y+008515
X+025438Y+007753
X+024676Y+007753
X+023914Y+007753
X+024041Y+010293
X+024930Y+010293
X+025184Y+011055
X+024422Y+011055
X+041948Y+017151
X+027343Y+014992
X+016421Y+014992
X+017691Y+021977
X+017564Y+022993
X+017310Y+024009
X+011087Y+015373
X+025946Y+003943
X+025565Y+004705
X+035923Y+023409
X+036685Y+024171
X+038011Y+006737
X+047409Y+008642
X+046520Y+007753
X+036868Y+010547
X+037630Y+011182
X+027343Y+012960
X+016421Y+012960
X+024295Y+025914
X+024041Y+030105
X+024422Y+028200
X+038011Y+018802
X+034399Y+019472
X+033891Y+020107
X+033256Y+020615
X+032748Y+021250
X+032113Y+021885
X+031605Y+022520
X+031097Y+023155
X+043599Y+025914
X+029121Y+039757
X+030391Y+039757
X+031534Y+039376
X+032677Y+039249
X+033820Y+039122
X+034836Y+038233
X+035725Y+037852
X+036614Y+037471
X+037503Y+036836
X+009690Y+023374
X+018580Y+019691
X+020104Y+020072
X+021628Y+020961
X+015151Y+019564
X+010833Y+019564
X+028232Y+035312
X+023914Y+020961
X+010198Y+035058
X+015151Y+035820
X+010579Y+024771
X+014008Y+034804
X+006642Y+022485
X+013246Y+022485
X+024676Y+041027
X+038900Y+039249
X+027089Y+003689
X+036614Y+003689
X+043091Y+011182
X+042837Y+038487
X+042837Y+037598
X+042837Y+036709
X+049695Y+021342
X+049695Y+020453
X+049695Y+019437
X+002578Y+022612
X+002197Y+023247
X+002959Y+023247
X+002578Y+023882
X+002197Y+024517
X+002959Y+024517
X+002197Y+021977
X+002959Y+021977
X+000927Y+037852
X+000927Y+036963
X+000927Y+036074
X+000927Y+026041
X+000927Y+025152
X+000927Y+024263
X+032677Y+050044
X+031153Y+050044
X+029629Y+050044
X+034328Y+050044
X+014135Y+028962
X+014135Y+029851
X+014135Y+030740
X+001816Y+007499
T03
X+043345Y+007880
X+033693Y+007753
X+013119Y+001657
X+016675Y+005213
X+029121Y+020580
X+016421Y+018548
X+047409Y+045345
X+019088Y+040011
X+016421Y+040011
X+008674Y+040265
X+033312Y+028708
X+032423Y+029343
X+034201Y+029343
X+032677Y+030613
X+033312Y+029851
X+025819Y+010293
X+023533Y+011055
T04
X+018834Y+037725
T05
X+039535Y+001530
X+030391Y+001530
X+020612Y+001530
X+015786Y+036963
T06
X+009817Y+036963
T07
X+049695Y+014738
X+021755Y+011817
X+017056Y+010293
X+031788Y+011944
T08
X+004788Y+017202
T09
X+004788Y+042552
X+007328Y+042552
X+009875Y+042539
X+012415Y+042539
X+014955Y+042539
X+017495Y+042539
X+020035Y+042539
X+022575Y+042539
X+025115Y+042539
X+027655Y+042539
X+030195Y+042539
X+032735Y+042539
X+035275Y+042539
X+037815Y+042539
X+040355Y+042539
X+007328Y+017202
X+009875Y+017190
X+012415Y+017190
X+014955Y+017190
X+017495Y+017190
X+020035Y+017190
X+022575Y+017190
X+025115Y+017190
X+027655Y+017190
X+030195Y+017190
X+032735Y+017190
X+035275Y+017190
X+037815Y+017190
X+040355Y+017190
T10
X+039182Y+048648
X+042683Y+048648
X+012838Y+048648
X+009337Y+048648
T11
X+028359Y+047886
X+025819Y+047886
X+023279Y+047886
X+020739Y+047886
X+018199Y+047886
T12
X+025438Y+002039
X+035217Y+002039
X+044488Y+001912
X+048298Y+039250
X+048298Y+041790
X+005499Y+012326
X+008039Y+012326
X+032169Y+047886
X+034709Y+047886
T13
X+022263Y+003182
X+032169Y+003182
X+041440Y+003182
X+014897Y+003563
X+008293Y+003563
M30
